<?xml version="1.0" encoding="UTF-8" standalone="no"?>
<svg
   width="1594.3145"
   height="987.94952"
   version="1.1"
   id="svg297"
   sodipodi:docname="music_genre.svg"
   inkscape:version="1.1.2 (0a00cf5339, 2022-02-04, custom)"
   xmlns:inkscape="http://www.inkscape.org/namespaces/inkscape"
   xmlns:sodipodi="http://sodipodi.sourceforge.net/DTD/sodipodi-0.dtd"
   xmlns:xlink="http://www.w3.org/1999/xlink"
   xmlns="http://www.w3.org/2000/svg"
   xmlns:svg="http://www.w3.org/2000/svg"
   xmlns:lucid="lucid">
  <defs
     id="defs301" />
  <sodipodi:namedview
     id="namedview299"
     pagecolor="#ffffff"
     bordercolor="#666666"
     borderopacity="1.0"
     inkscape:pageshadow="2"
     inkscape:pageopacity="0.0"
     inkscape:pagecheckerboard="0"
     showgrid="true"
     inkscape:zoom="0.34879253"
     inkscape:cx="404.25178"
     inkscape:cy="782.70025"
     inkscape:window-width="1920"
     inkscape:window-height="1131"
     inkscape:window-x="0"
     inkscape:window-y="0"
     inkscape:window-maximized="1"
     inkscape:current-layer="g295"
     fit-margin-top="0"
     fit-margin-left="0"
     fit-margin-right="0"
     fit-margin-bottom="0">
    <inkscape:grid
       type="xygrid"
       id="grid33018"
       originx="6.2159615"
       originy="-14.5919" />
  </sodipodi:namedview>
  <g
     inkscape:groupmode="layer"
     id="layer1"
     inkscape:label="Layer 1"
     style="display:inline"
     sodipodi:insensitive="true"
     transform="translate(6.2159615,-14.5919)">
    <g
       transform="translate(-60,-120)"
       lucid:page-tab-id="0_0"
       id="g295">
      <path
         d="m 688.8,140 h 183.1 v 54.93 H 688.8 Z"
         stroke="#000000"
         stroke-opacity="0"
         stroke-width="3"
         fill="#ffffff"
         fill-opacity="0"
         id="path2" />
      <path
         d="m 1319.02,640 h 164.8 v 54.93 H 1319 Z"
         stroke="#000000"
         stroke-opacity="0"
         stroke-width="3"
         fill="#ffffff"
         fill-opacity="0"
         id="path6" />
      <path
         d="m 160,620.34 h 164.8 v 54.93 H 160 Z"
         stroke="#000000"
         stroke-opacity="0"
         stroke-width="3"
         fill="#ffffff"
         fill-opacity="0"
         id="path10" />
      <path
         d="m 760,1060 h 219.72 v 54.93 H 760 Z"
         stroke="#000000"
         stroke-opacity="0"
         stroke-width="3"
         fill="#ffffff"
         fill-opacity="0"
         id="path14" />
      <path
         d="m 1194.74,578.55 -1.55,-0.05 -1.46,0.05 v -1.6 h 3 z"
         stroke="#666666"
         stroke-width="0.05"
         fill="#666666"
         id="path20" />
      <path
         d="m 375.72,573.12 -1.54,-0.05 -1.46,0.05 v -1.6 h 3 z"
         stroke="#666666"
         stroke-width="0.05"
         fill="#666666"
         id="path24" />
      <path
         d="m 780.35,352.26 c -40.45,0 -73.24,-32.8 -73.24,-73.24 0,-40.45 32.8,-73.24 73.25,-73.24 40.45,0 73.25,32.8 73.25,73.24 0,40.45 -32.8,73.24 -73.25,73.24 z"
         stroke="#666666"
         stroke-width="3"
         fill="#ffffff"
         id="path26"
         style="fill:none;stroke:#00070a;stroke-width:7.55906;stroke-miterlimit:4;stroke-dasharray:none;stroke-opacity:1" />
      <use
         xlink:href="#e"
         transform="rotate(90,252.86895,525.66993)"
         id="use28"
         x="0"
         y="0"
         width="100%"
         height="100%" />
      <path
         d="m 1193.24,726.48 c -40.45,0 -73.24,-32.8 -73.24,-73.24 0,-40.45 32.8,-73.24 73.24,-73.24 40.45,0 73.24,32.8 73.24,73.24 0,40.45 -32.8,73.24 -73.24,73.24 z"
         stroke="#666666"
         stroke-width="3"
         fill="#ffffff"
         id="path30"
         style="fill:none;stroke:#00070a;stroke-width:7.55906;stroke-miterlimit:4;stroke-dasharray:none;stroke-opacity:1" />
      <use
         xlink:href="#e"
         transform="rotate(90,272.20093,919.22593)"
         id="use32"
         x="0"
         y="0"
         width="100%"
         height="100%" />
      <path
         d="m 374.22,721.05 c -40.45,0 -73.24,-32.8 -73.24,-73.24 0,-40.44 32.8,-73.23 73.24,-73.23 40.45,0 73.25,32.8 73.25,73.24 0,40.46 -32.8,73.25 -73.25,73.25 z"
         stroke="#666666"
         stroke-width="3"
         fill="#ffffff"
         id="path34"
         style="fill:none;stroke:#00070a;stroke-width:7.55906;stroke-miterlimit:4;stroke-dasharray:none;stroke-opacity:1" />
      <use
         xlink:href="#e"
         transform="rotate(90,-134.59152,507.00085)"
         id="use36"
         x="0"
         y="0"
         width="100%"
         height="100%" />
      <path
         d="m 873.24,1036.64 c -40.45,0 -73.24,-32.8 -73.24,-73.24 0,-40.46 32.8,-73.25 73.24,-73.25 40.45,0 73.24,32.8 73.24,73.25 0,40.45 -32.8,73.24 -73.24,73.24 z"
         stroke="#666666"
         stroke-width="3"
         fill="#ffffff"
         id="path38"
         style="fill:none;stroke:#00070a;stroke-width:7.55906;stroke-miterlimit:4;stroke-dasharray:none;stroke-opacity:1" />
      <use
         xlink:href="#e"
         transform="rotate(90,-42.875826,914.30269)"
         id="use40"
         x="0"
         y="0"
         width="100%"
         height="100%" />
      <path
         d="m 80,1060 h 219.72 v 54.93 H 80 Z"
         stroke="#000000"
         stroke-opacity="0"
         stroke-width="3"
         fill="#ffffff"
         fill-opacity="0"
         id="path42" />
      <path
         d="m 460,1060 h 219.72 v 54.93 H 460 Z"
         stroke="#000000"
         stroke-opacity="0"
         stroke-width="3"
         fill="#ffffff"
         fill-opacity="0"
         id="path48" />
      <path
         d="m 374.2,722.55 h 0.1 l 1.42,-0.05 v 1.6 h -3 v -1.6 z m 200.54,174.31 -1.55,-0.05 -1.46,0.06 v -1.6 h 3 z"
         stroke="#666666"
         stroke-width="0.05"
         fill="#666666"
         id="path56" />
      <g
         id="g47709"
         style="stroke:#00070a;stroke-width:7.55906;stroke-miterlimit:4;stroke-dasharray:none;stroke-opacity:1">
        <path
           d="m 374.22,724.05 v 85.63 h 199.02 v 85.63"
           stroke="#666666"
           stroke-width="3"
           fill="none"
           id="path54"
           style="stroke:#00070a;stroke-width:7.55906;stroke-miterlimit:4;stroke-dasharray:none;stroke-opacity:1" />
        <path
           d="m 374.22,724.05 v 85.63 H 193.24 v 85.63"
           stroke="#666666"
           stroke-width="3"
           fill="none"
           id="path58"
           style="stroke:#00070a;stroke-width:7.55906;stroke-miterlimit:4;stroke-dasharray:none;stroke-opacity:1" />
      </g>
      <path
         d="m 374.2,722.55 h 0.1 l 1.42,-0.05 v 1.6 h -3 v -1.6 z m -179.46,174.31 -1.55,-0.05 -1.46,0.06 v -1.6 h 3 z"
         stroke="#666666"
         stroke-width="0.05"
         fill="#666666"
         id="path60" />
      <path
         d="m 573.24,1044.8 c -40.45,0 -73.24,-32.8 -73.24,-73.25 0,-40.45 32.8,-73.24 73.24,-73.24 40.45,0 73.24,32.8 73.24,73.25 0,40.45 -32.8,73.24 -73.24,73.24 z"
         stroke="#666666"
         stroke-width="3"
         fill="#ffffff"
         id="path62"
         style="fill:none;stroke:#00070a;stroke-width:7.55906;stroke-miterlimit:4;stroke-dasharray:none;stroke-opacity:1" />
      <use
         xlink:href="#e"
         transform="rotate(90,-196.95342,768.38029)"
         id="use64"
         x="0"
         y="0"
         width="100%"
         height="100%" />
      <path
         d="m 193.24,1044.8 c -40.45,0 -73.24,-32.8 -73.24,-73.25 0,-40.45 32.8,-73.24 73.24,-73.24 40.45,0 73.24,32.8 73.24,73.25 0,40.45 -32.8,73.24 -73.24,73.24 z"
         stroke="#666666"
         stroke-width="3"
         fill="#ffffff"
         id="path66"
         style="fill:none;stroke:#00070a;stroke-width:7.55906;stroke-miterlimit:4;stroke-dasharray:none;stroke-opacity:1" />
      <use
         xlink:href="#e"
         transform="rotate(90,-386.95342,578.38029)"
         id="use68"
         x="0"
         y="0"
         width="100%"
         height="100%" />
      <path
         d="m 1100,1060 h 219.72 v 54.93 H 1100 Z"
         stroke="#000000"
         stroke-opacity="0"
         stroke-width="3"
         fill="#ffffff"
         fill-opacity="0"
         id="path70" />
      <path
         d="m 1193.24,1036.64 c -40.45,0 -73.24,-32.8 -73.24,-73.24 0,-40.46 32.8,-73.25 73.24,-73.25 40.45,0 73.24,32.8 73.24,73.25 0,40.45 -32.8,73.24 -73.24,73.24 z"
         stroke="#666666"
         stroke-width="3"
         fill="#ffffff"
         id="path74"
         style="fill:none;stroke:#00070a;stroke-width:7.55906;stroke-miterlimit:4;stroke-dasharray:none;stroke-opacity:1" />
      <use
         xlink:href="#e"
         transform="rotate(90,117.12417,1074.3027)"
         id="use76"
         x="0"
         y="0"
         width="100%"
         height="100%" />
      <path
         d="m 874.74,888.7 -1.55,-0.05 -1.46,0.05 v -1.58 h 3 z m 318.48,-160.72 h 0.1 l 1.42,-0.05 v 1.6 h -3 v -1.6 z"
         stroke="#666666"
         stroke-width="0.05"
         fill="#666666"
         id="path80" />
      <path
         d="m 1194.74,888.7 -1.55,-0.05 -1.46,0.05 v -1.58 h 3 z m -1.52,-160.72 h 0.1 l 1.42,-0.05 v 1.6 h -3 v -1.6 z"
         stroke="#666666"
         stroke-width="0.05"
         fill="#666666"
         id="path84" />
      <path
         d="m 780.35,721.05 c -40.45,0 -73.24,-32.8 -73.24,-73.24 0,-40.44 32.8,-73.23 73.25,-73.23 40.45,0 73.25,32.8 73.25,73.24 0,40.46 -32.8,73.25 -73.25,73.25 z"
         stroke="#666666"
         stroke-width="3"
         fill="#ffffff"
         id="path86"
         style="fill:none;stroke:#00070a;stroke-width:7.55906;stroke-miterlimit:4;stroke-dasharray:none;stroke-opacity:1" />
      <use
         xlink:href="#e"
         transform="rotate(90,68.473256,710.06563)"
         id="use88"
         x="0"
         y="0"
         width="100%"
         height="100%" />
      <g
         id="g47633"
         style="stroke:#00070a;stroke-width:7.55906;stroke-miterlimit:4;stroke-dasharray:none;stroke-opacity:1">
        <path
           d="m 648.97,447.47 h 544.27 V 577 M 649,447.47 h -1.53"
           stroke="#666666"
           stroke-width="3"
           fill="none"
           id="path18"
           style="stroke:#00070a;stroke-width:7.55906;stroke-miterlimit:4;stroke-dasharray:none;stroke-opacity:1" />
        <path
           d="M 645.97,447.47 H 374.22 v 124.1 m 271.71,-124.1 h 1.54"
           stroke="#666666"
           stroke-width="3"
           fill="none"
           id="path22"
           style="stroke:#00070a;stroke-width:7.55906;stroke-miterlimit:4;stroke-dasharray:none;stroke-opacity:1" />
        <path
           d="M 780.35,355.26 V 571.58"
           stroke="#666666"
           stroke-width="3"
           fill="none"
           id="path90"
           style="stroke:#00070a;stroke-width:7.55906;stroke-miterlimit:4;stroke-dasharray:none;stroke-opacity:1" />
      </g>
      <path
         d="m 780.33,353.76 h 0.1 l 1.42,-0.05 v 1.6 h -3 v -1.6 z m 1.52,219.36 -1.54,-0.05 -1.45,0.05 v -1.6 h 3 z"
         stroke="#666666"
         stroke-width="0.05"
         fill="#666666"
         id="path92" />
      <path
         d="m 701.34,721.05 h 164.8 v 54.93 h -164.8 z"
         stroke="#000000"
         stroke-opacity="0"
         stroke-width="3"
         fill="#ffffff"
         fill-opacity="0"
         id="path94" />
      <path
         d="m 1420,1060 h 219.72 v 54.93 H 1420 Z"
         stroke="#000000"
         stroke-opacity="0"
         stroke-width="3"
         fill="#ffffff"
         fill-opacity="0"
         id="path98" />
      <path
         d="m 1533.24,1036.64 c -40.45,0 -73.24,-32.8 -73.24,-73.24 0,-40.46 32.8,-73.25 73.24,-73.25 40.45,0 73.24,32.8 73.24,73.25 0,40.45 -32.8,73.24 -73.24,73.24 z"
         stroke="#666666"
         stroke-width="3"
         fill="#ffffff"
         id="path102"
         style="fill:none;stroke:#00070a;stroke-width:7.55906;stroke-miterlimit:4;stroke-dasharray:none;stroke-opacity:1" />
      <use
         xlink:href="#e"
         transform="rotate(90,287.12417,1244.3027)"
         id="use104"
         x="0"
         y="0"
         width="100%"
         height="100%" />
      <g
         id="g47786"
         style="stroke:#00070a;stroke-width:7.55906;stroke-miterlimit:4;stroke-dasharray:none;stroke-opacity:1">
        <path
           d="m 873.24,887.15 v -78.83 h 320 v -78.84"
           stroke="#666666"
           stroke-width="3"
           fill="none"
           id="path78"
           style="stroke:#00070a;stroke-width:7.55906;stroke-miterlimit:4;stroke-dasharray:none;stroke-opacity:1" />
        <path
           d="M 1193.24,887.15 V 729.48"
           stroke="#666666"
           stroke-width="3"
           fill="none"
           id="path82"
           style="stroke:#00070a;stroke-width:7.55906;stroke-miterlimit:4;stroke-dasharray:none;stroke-opacity:1" />
        <path
           d="m 1533.24,887.15 v -78.83 h -340 v -78.84"
           stroke="#666666"
           stroke-width="3"
           fill="none"
           id="path106"
           style="stroke:#00070a;stroke-width:7.55906;stroke-miterlimit:4;stroke-dasharray:none;stroke-opacity:1" />
      </g>
      <path
         d="m 1534.74,888.7 -1.55,-0.05 -1.46,0.05 v -1.58 h 3 z M 1193.22,727.98 h 0.1 l 1.42,-0.05 v 1.6 h -3 v -1.6 z"
         stroke="#666666"
         stroke-width="0.05"
         fill="#666666"
         id="path108" />
      <defs
         id="defs293">
        <path
           fill="#333333"
           d="M 230,0 232,-204 168,0 H 131 L 68,-204 70,0 H 24 v -248 h 70 l 56,185 57,-185 h 69 V 0 h -46"
           id="l" />
        <path
           fill="#333333"
           d="M 85,4 C -2,5 27,-109 22,-190 h 50 c 7,57 -23,150 33,157 60,-5 35,-97 40,-157 h 50 l 1,190 h -47 c -2,-12 1,-28 -3,-38 -12,25 -28,42 -61,42"
           id="m" />
        <path
           fill="#333333"
           d="m 137,-138 c 1,-29 -70,-34 -71,-4 15,46 118,7 119,86 1,83 -164,76 -172,9 l 43,-7 c 4,19 20,25 44,25 33,8 57,-30 24,-41 -43,-14 -102,-11 -104,-66 -2,-80 154,-74 161,-7"
           id="n" />
        <path
           fill="#333333"
           d="m 25,-224 v -37 h 50 v 37 z M 25,0 V -190 H 75 V 0 H 25"
           id="o" />
        <path
           fill="#333333"
           d="M 190,-63 C 183,-21 152,4 104,4 45,4 20,-34 14,-94 2,-204 168,-231 188,-130 l -49,2 c -2,-19 -15,-32 -35,-32 -30,0 -35,28 -38,64 -6,74 65,87 74,30"
           id="p" />
        <g
           id="a">
          <use
             transform="scale(0.09876543)"
             xlink:href="#l"
             id="use115"
             x="0"
             y="0"
             width="100%"
             height="100%" />
          <use
             transform="matrix(0.09876543,0,0,0.09876543,29.530864,0)"
             xlink:href="#m"
             id="use117"
             x="0"
             y="0"
             width="100%"
             height="100%" />
          <use
             transform="matrix(0.09876543,0,0,0.09876543,51.160494,0)"
             xlink:href="#n"
             id="use119"
             x="0"
             y="0"
             width="100%"
             height="100%" />
          <use
             transform="matrix(0.09876543,0,0,0.09876543,70.91358,0)"
             xlink:href="#o"
             id="use121"
             x="0"
             y="0"
             width="100%"
             height="100%" />
          <use
             transform="matrix(0.09876543,0,0,0.09876543,80.790123,0)"
             xlink:href="#p"
             id="use123"
             x="0"
             y="0"
             width="100%"
             height="100%" />
        </g>
        <path
           fill="#333333"
           d="m 24,0 v -248 h 195 v 40 H 76 v 63 h 132 v 40 H 76 v 65 H 226 V 0 H 24"
           id="q" />
        <path
           fill="#333333"
           d="M 25,0 V -261 H 75 V 0 H 25"
           id="r" />
        <path
           fill="#333333"
           d="M 185,-48 C 172,-18 148,5 103,4 43,2 14,-33 14,-96 c 0,-63 30,-98 90,-98 62,0 83,45 84,108 H 66 c 0,31 8,55 39,56 18,0 30,-7 34,-22 z m -45,-69 c 5,-46 -57,-63 -70,-21 -2,6 -4,13 -4,21 h 74"
           id="s" />
        <path
           fill="#333333"
           d="M 115,-3 C 79,11 28,4 28,-45 V -157 H 4 v -33 h 27 l 15,-45 h 31 v 45 h 36 v 33 H 77 v 99 c -1,23 16,31 38,25 v 30"
           id="t" />
        <path
           fill="#333333"
           d="m 135,-150 c -39,-12 -60,13 -60,57 V 0 H 25 l -1,-190 h 47 c 2,13 -1,29 3,40 6,-28 27,-53 61,-41 v 41"
           id="u" />
        <path
           fill="#333333"
           d="m 110,-194 c 64,0 96,36 96,99 0,64 -35,99 -97,99 -61,0 -95,-36 -95,-99 0,-62 34,-99 96,-99 z m -1,164 c 35,0 45,-28 45,-65 0,-40 -10,-65 -43,-65 -34,0 -45,26 -45,65 0,36 10,65 43,65"
           id="v" />
        <path
           fill="#333333"
           d="m 135,-194 c 87,-1 58,113 63,194 h -50 c -7,-57 23,-157 -34,-157 -59,0 -34,97 -39,157 H 25 l -1,-190 h 47 c 2,12 -1,28 3,38 12,-26 28,-41 61,-42"
           id="w" />
        <path
           fill="#333333"
           d="M 4,7 55,-261 H 97 L 46,7 H 4"
           id="x" />
        <path
           fill="#333333"
           d="m 24,-248 c 93,1 206,-16 204,79 -1,75 -69,88 -152,82 V 0 H 24 Z m 52,121 c 47,0 100,7 100,-41 0,-47 -54,-39 -100,-39 v 80"
           id="y" />
        <path
           fill="#333333"
           d="m 135,-194 c 53,0 70,44 70,98 0,56 -19,98 -73,100 -31,1 -45,-17 -59,-34 3,33 2,69 2,105 H 25 l -1,-265 h 48 c 2,10 0,23 3,31 11,-24 29,-35 60,-35 z m -21,164 c 33,0 39,-31 40,-66 0,-38 -9,-64 -40,-64 -56,0 -55,130 0,130"
           id="z" />
        <g
           id="b">
          <use
             transform="scale(0.09876543)"
             xlink:href="#q"
             id="use136"
             x="0"
             y="0"
             width="100%"
             height="100%" />
          <use
             transform="matrix(0.09876543,0,0,0.09876543,23.703704,0)"
             xlink:href="#r"
             id="use138"
             x="0"
             y="0"
             width="100%"
             height="100%" />
          <use
             transform="matrix(0.09876543,0,0,0.09876543,33.580247,0)"
             xlink:href="#s"
             id="use140"
             x="0"
             y="0"
             width="100%"
             height="100%" />
          <use
             transform="matrix(0.09876543,0,0,0.09876543,53.333333,0)"
             xlink:href="#p"
             id="use142"
             x="0"
             y="0"
             width="100%"
             height="100%" />
          <use
             transform="matrix(0.09876543,0,0,0.09876543,73.08642,0)"
             xlink:href="#t"
             id="use144"
             x="0"
             y="0"
             width="100%"
             height="100%" />
          <use
             transform="matrix(0.09876543,0,0,0.09876543,84.839506,0)"
             xlink:href="#u"
             id="use146"
             x="0"
             y="0"
             width="100%"
             height="100%" />
          <use
             transform="matrix(0.09876543,0,0,0.09876543,98.666667,0)"
             xlink:href="#v"
             id="use148"
             x="0"
             y="0"
             width="100%"
             height="100%" />
          <use
             transform="matrix(0.09876543,0,0,0.09876543,120.2963,0)"
             xlink:href="#w"
             id="use150"
             x="0"
             y="0"
             width="100%"
             height="100%" />
          <use
             transform="matrix(0.09876543,0,0,0.09876543,141.92593,0)"
             xlink:href="#o"
             id="use152"
             x="0"
             y="0"
             width="100%"
             height="100%" />
          <use
             transform="matrix(0.09876543,0,0,0.09876543,151.80247,0)"
             xlink:href="#p"
             id="use154"
             x="0"
             y="0"
             width="100%"
             height="100%" />
          <use
             transform="matrix(0.09876543,0,0,0.09876543,171.55556,0)"
             xlink:href="#x"
             id="use156"
             x="0"
             y="0"
             width="100%"
             height="100%" />
          <use
             transform="matrix(0.09876543,0,0,0.09876543,181.4321,0)"
             xlink:href="#y"
             id="use158"
             x="0"
             y="0"
             width="100%"
             height="100%" />
          <use
             transform="matrix(0.09876543,0,0,0.09876543,205.1358,0)"
             xlink:href="#v"
             id="use160"
             x="0"
             y="0"
             width="100%"
             height="100%" />
          <use
             transform="matrix(0.09876543,0,0,0.09876543,226.76543,0)"
             xlink:href="#z"
             id="use162"
             x="0"
             y="0"
             width="100%"
             height="100%" />
        </g>
        <path
           fill="#333333"
           d="m 240,-174 c 0,40 -23,61 -54,70 L 253,0 H 194 L 137,-94 H 76 V 0 H 24 v -248 c 93,4 217,-23 216,74 z m -164,40 c 48,-2 112,12 112,-38 0,-48 -66,-32 -112,-35 v 73"
           id="A" />
        <path
           fill="#333333"
           d="M 147,0 96,-86 75,-71 V 0 H 25 v -261 h 50 v 150 l 67,-79 h 53 l -66,74 72,116 h -54"
           id="B" />
        <g
           id="c">
          <use
             transform="scale(0.09876543)"
             xlink:href="#A"
             id="use167"
             x="0"
             y="0"
             width="100%"
             height="100%" />
          <use
             transform="matrix(0.09876543,0,0,0.09876543,25.580247,0)"
             xlink:href="#v"
             id="use169"
             x="0"
             y="0"
             width="100%"
             height="100%" />
          <use
             transform="matrix(0.09876543,0,0,0.09876543,47.209877,0)"
             xlink:href="#p"
             id="use171"
             x="0"
             y="0"
             width="100%"
             height="100%" />
          <use
             transform="matrix(0.09876543,0,0,0.09876543,66.962963,0)"
             xlink:href="#B"
             id="use173"
             x="0"
             y="0"
             width="100%"
             height="100%" />
        </g>
        <path
           fill="#333333"
           d="M 136,-208 V 0 H 84 V -208 H 4 v -40 h 212 v 40 h -80"
           id="C" />
        <path
           fill="#333333"
           d="M 114,-157 C 55,-157 80,-60 75,0 H 25 v -261 h 50 l -1,109 c 12,-26 28,-41 61,-42 86,-1 58,113 63,194 h -50 c -7,-57 23,-157 -34,-157"
           id="D" />
        <path
           fill="#333333"
           d="m 24,-248 c 120,-7 223,5 221,122 C 244,-46 201,0 124,0 H 24 Z m 52,208 c 74,7 117,-18 117,-86 0,-67 -45,-88 -117,-82 v 168"
           id="E" />
        <path
           fill="#333333"
           d="M 133,-34 C 117,-15 103,5 69,4 32,3 11,-16 11,-54 c -1,-60 55,-63 116,-61 1,-26 -3,-47 -28,-47 -18,1 -26,9 -28,27 l -52,-2 c 7,-38 36,-58 82,-57 46,1 74,22 75,68 l 1,82 c -1,14 12,18 25,15 v 27 c -30,8 -71,5 -69,-32 z m -48,3 c 29,0 43,-24 42,-57 -32,0 -66,-3 -65,30 0,17 8,27 23,27"
           id="F" />
        <g
           id="d">
          <use
             transform="scale(0.08641975)"
             xlink:href="#C"
             id="use180"
             x="0"
             y="0"
             width="100%"
             height="100%" />
          <use
             transform="matrix(0.08641975,0,0,0.08641975,16.592593,0)"
             xlink:href="#s"
             id="use182"
             x="0"
             y="0"
             width="100%"
             height="100%" />
          <use
             transform="matrix(0.08641975,0,0,0.08641975,33.876543,0)"
             xlink:href="#p"
             id="use184"
             x="0"
             y="0"
             width="100%"
             height="100%" />
          <use
             transform="matrix(0.08641975,0,0,0.08641975,51.160494,0)"
             xlink:href="#D"
             id="use186"
             x="0"
             y="0"
             width="100%"
             height="100%" />
          <use
             transform="matrix(0.08641975,0,0,0.08641975,70.08642,0)"
             xlink:href="#w"
             id="use188"
             x="0"
             y="0"
             width="100%"
             height="100%" />
          <use
             transform="matrix(0.08641975,0,0,0.08641975,89.012346,0)"
             xlink:href="#v"
             id="use190"
             x="0"
             y="0"
             width="100%"
             height="100%" />
          <use
             transform="matrix(0.08641975,0,0,0.08641975,107.93827,0)"
             xlink:href="#x"
             id="use192"
             x="0"
             y="0"
             width="100%"
             height="100%" />
          <use
             transform="matrix(0.08641975,0,0,0.08641975,116.58025,0)"
             xlink:href="#E"
             id="use194"
             x="0"
             y="0"
             width="100%"
             height="100%" />
          <use
             transform="matrix(0.08641975,0,0,0.08641975,138.96296,0)"
             xlink:href="#F"
             id="use196"
             x="0"
             y="0"
             width="100%"
             height="100%" />
          <use
             transform="matrix(0.08641975,0,0,0.08641975,156.24691,0)"
             xlink:href="#w"
             id="use198"
             x="0"
             y="0"
             width="100%"
             height="100%" />
          <use
             transform="matrix(0.08641975,0,0,0.08641975,175.17284,0)"
             xlink:href="#p"
             id="use200"
             x="0"
             y="0"
             width="100%"
             height="100%" />
          <use
             transform="matrix(0.08641975,0,0,0.08641975,192.45679,0)"
             xlink:href="#s"
             id="use202"
             x="0"
             y="0"
             width="100%"
             height="100%" />
        </g>
        <path
           fill-opacity="0"
           d="M 183,0 173,-63 H 79 L 44,0 H -7 l 138,-248 h 61 L 234,0 Z m -14,-102 -15,-108 c -16,38 -36,73 -55,108 h 70"
           id="G" />
        <use
           transform="scale(0.05)"
           xlink:href="#G"
           id="e"
           x="0"
           y="0"
           width="100%"
           height="100%" />
        <path
           fill="#333333"
           d="M 186,0 V -106 H 76 V 0 H 24 v -248 h 52 v 99 h 110 v -99 h 50 V 0 h -50"
           id="H" />
        <path
           fill="#333333"
           d="m 88,-194 c 31,-1 46,15 58,34 l -1,-101 h 50 l 1,261 h -48 c -2,-10 0,-23 -3,-31 C 134,-8 116,4 84,4 32,4 16,-41 15,-95 c 0,-56 19,-97 73,-99 z m 17,164 c 33,0 40,-30 41,-66 1,-37 -9,-64 -41,-64 -32,0 -38,30 -39,65 0,43 13,65 39,65"
           id="I" />
        <g
           id="f">
          <use
             transform="scale(0.08641975)"
             xlink:href="#H"
             id="use209"
             x="0"
             y="0"
             width="100%"
             height="100%" />
          <use
             transform="matrix(0.08641975,0,0,0.08641975,22.382716,0)"
             xlink:href="#F"
             id="use211"
             x="0"
             y="0"
             width="100%"
             height="100%" />
          <use
             transform="matrix(0.08641975,0,0,0.08641975,39.666667,0)"
             xlink:href="#u"
             id="use213"
             x="0"
             y="0"
             width="100%"
             height="100%" />
          <use
             transform="matrix(0.08641975,0,0,0.08641975,51.765432,0)"
             xlink:href="#I"
             id="use215"
             x="0"
             y="0"
             width="100%"
             height="100%" />
        </g>
        <g
           id="g">
          <use
             transform="scale(0.08641975)"
             xlink:href="#A"
             id="use218"
             x="0"
             y="0"
             width="100%"
             height="100%" />
          <use
             transform="matrix(0.08641975,0,0,0.08641975,22.382716,0)"
             xlink:href="#v"
             id="use220"
             x="0"
             y="0"
             width="100%"
             height="100%" />
          <use
             transform="matrix(0.08641975,0,0,0.08641975,41.308642,0)"
             xlink:href="#p"
             id="use222"
             x="0"
             y="0"
             width="100%"
             height="100%" />
          <use
             transform="matrix(0.08641975,0,0,0.08641975,58.592593,0)"
             xlink:href="#B"
             id="use224"
             x="0"
             y="0"
             width="100%"
             height="100%" />
        </g>
        <path
           fill="#333333"
           d="m 169,-182 c -1,-43 -94,-46 -97,-3 18,66 151,10 154,114 3,95 -165,93 -204,36 -6,-8 -10,-19 -12,-30 l 50,-8 c 3,46 112,56 116,5 -17,-69 -150,-10 -154,-114 -4,-87 153,-88 188,-35 5,8 8,18 10,28"
           id="J" />
        <path
           fill="#333333"
           d="m 121,-226 c -27,-7 -43,5 -38,36 h 38 v 33 H 83 V 0 H 34 V -157 H 6 v -33 h 28 c -9,-59 32,-81 87,-68 v 32"
           id="K" />
        <g
           id="h">
          <use
             transform="scale(0.08641975)"
             xlink:href="#J"
             id="use229"
             x="0"
             y="0"
             width="100%"
             height="100%" />
          <use
             transform="matrix(0.08641975,0,0,0.08641975,20.740741,0)"
             xlink:href="#v"
             id="use231"
             x="0"
             y="0"
             width="100%"
             height="100%" />
          <use
             transform="matrix(0.08641975,0,0,0.08641975,39.666667,0)"
             xlink:href="#K"
             id="use233"
             x="0"
             y="0"
             width="100%"
             height="100%" />
          <use
             transform="matrix(0.08641975,0,0,0.08641975,49.950617,0)"
             xlink:href="#t"
             id="use235"
             x="0"
             y="0"
             width="100%"
             height="100%" />
        </g>
        <path
           fill="#333333"
           d="m 14,-72 v -43 h 91 v 43 H 14"
           id="L" />
        <g
           id="i">
          <use
             transform="scale(0.08641975)"
             xlink:href="#A"
             id="use239"
             x="0"
             y="0"
             width="100%"
             height="100%" />
          <use
             transform="matrix(0.08641975,0,0,0.08641975,22.382716,0)"
             xlink:href="#F"
             id="use241"
             x="0"
             y="0"
             width="100%"
             height="100%" />
          <use
             transform="matrix(0.08641975,0,0,0.08641975,39.666667,0)"
             xlink:href="#z"
             id="use243"
             x="0"
             y="0"
             width="100%"
             height="100%" />
          <use
             transform="matrix(0.08641975,0,0,0.08641975,58.592593,0)"
             xlink:href="#x"
             id="use245"
             x="0"
             y="0"
             width="100%"
             height="100%" />
          <use
             transform="matrix(0.08641975,0,0,0.08641975,67.234568,0)"
             xlink:href="#H"
             id="use247"
             x="0"
             y="0"
             width="100%"
             height="100%" />
          <use
             transform="matrix(0.08641975,0,0,0.08641975,89.617284,0)"
             xlink:href="#o"
             id="use249"
             x="0"
             y="0"
             width="100%"
             height="100%" />
          <use
             transform="matrix(0.08641975,0,0,0.08641975,98.259259,0)"
             xlink:href="#z"
             id="use251"
             x="0"
             y="0"
             width="100%"
             height="100%" />
          <use
             transform="matrix(0.08641975,0,0,0.08641975,117.18519,0)"
             xlink:href="#L"
             id="use253"
             x="0"
             y="0"
             width="100%"
             height="100%" />
          <use
             transform="matrix(0.08641975,0,0,0.08641975,127.46914,0)"
             xlink:href="#H"
             id="use255"
             x="0"
             y="0"
             width="100%"
             height="100%" />
          <use
             transform="matrix(0.08641975,0,0,0.08641975,149.85185,0)"
             xlink:href="#v"
             id="use257"
             x="0"
             y="0"
             width="100%"
             height="100%" />
          <use
             transform="matrix(0.08641975,0,0,0.08641975,168.77778,0)"
             xlink:href="#z"
             id="use259"
             x="0"
             y="0"
             width="100%"
             height="100%" />
        </g>
        <path
           fill="#333333"
           d="M 176,-78 C 186,10 51,31 16,-35 11,-44 7,-54 5,-67 l 52,-8 c 4,21 12,37 35,38 23,0 32,-16 32,-40 V -207 H 75 v -41 h 101 v 170"
           id="M" />
        <path
           fill="#333333"
           d="m 12,0 v -35 l 95,-120 H 19 v -35 h 142 v 35 L 67,-36 H 170 V 0 H 12"
           id="N" />
        <path
           fill="#333333"
           d="m 182,-130 c 37,4 62,22 62,59 0,94 -128,67 -220,71 v -248 c 84,5 203,-23 205,63 0,31 -19,50 -47,55 z M 76,-148 c 40,-3 101,13 101,-30 0,-44 -60,-28 -101,-31 z m 0,110 c 48,-3 116,14 116,-37 0,-48 -69,-32 -116,-35 v 72"
           id="O" />
        <g
           id="j">
          <use
             transform="scale(0.09876543)"
             xlink:href="#M"
             id="use265"
             x="0"
             y="0"
             width="100%"
             height="100%" />
          <use
             transform="matrix(0.09876543,0,0,0.09876543,19.753086,0)"
             xlink:href="#F"
             id="use267"
             x="0"
             y="0"
             width="100%"
             height="100%" />
          <use
             transform="matrix(0.09876543,0,0,0.09876543,39.506173,0)"
             xlink:href="#N"
             id="use269"
             x="0"
             y="0"
             width="100%"
             height="100%" />
          <use
             transform="matrix(0.09876543,0,0,0.09876543,57.283951,0)"
             xlink:href="#N"
             id="use271"
             x="0"
             y="0"
             width="100%"
             height="100%" />
          <use
             transform="matrix(0.09876543,0,0,0.09876543,75.061728,0)"
             xlink:href="#x"
             id="use273"
             x="0"
             y="0"
             width="100%"
             height="100%" />
          <use
             transform="matrix(0.09876543,0,0,0.09876543,84.938272,0)"
             xlink:href="#O"
             id="use275"
             x="0"
             y="0"
             width="100%"
             height="100%" />
          <use
             transform="matrix(0.09876543,0,0,0.09876543,110.51852,0)"
             xlink:href="#r"
             id="use277"
             x="0"
             y="0"
             width="100%"
             height="100%" />
          <use
             transform="matrix(0.09876543,0,0,0.09876543,120.39506,0)"
             xlink:href="#m"
             id="use279"
             x="0"
             y="0"
             width="100%"
             height="100%" />
          <use
             transform="matrix(0.09876543,0,0,0.09876543,142.02469,0)"
             xlink:href="#s"
             id="use281"
             x="0"
             y="0"
             width="100%"
             height="100%" />
          <use
             transform="matrix(0.09876543,0,0,0.09876543,161.77778,0)"
             xlink:href="#n"
             id="use283"
             x="0"
             y="0"
             width="100%"
             height="100%" />
        </g>
        <g
           id="k">
          <use
             transform="scale(0.08641975)"
             xlink:href="#y"
             id="use286"
             x="0"
             y="0"
             width="100%"
             height="100%" />
          <use
             transform="matrix(0.08641975,0,0,0.08641975,20.740741,0)"
             xlink:href="#v"
             id="use288"
             x="0"
             y="0"
             width="100%"
             height="100%" />
          <use
             transform="matrix(0.08641975,0,0,0.08641975,39.666667,0)"
             xlink:href="#z"
             id="use290"
             x="0"
             y="0"
             width="100%"
             height="100%" />
        </g>
      </defs>
    </g>
  </g>
  <g
     inkscape:groupmode="layer"
     id="layer2"
     inkscape:label="Layer 2"
     style="display:inline"
     sodipodi:insensitive="true"
     transform="translate(6.2159615,-14.5919)">
    <text
       xml:space="preserve"
       style="font-style:normal;font-weight:normal;font-size:64px;line-height:1.25;font-family:sans-serif;fill:#000000;fill-opacity:1;stroke:none"
       x="648.40881"
       y="61.8419"
       id="text3495"><tspan
         sodipodi:role="line"
         id="tspan3493"
         x="648.40881"
         y="61.8419"
         style="font-style:normal;font-variant:normal;font-weight:bold;font-stretch:normal;font-size:64px;font-family:'Roboto Condensed';-inkscape-font-specification:'Roboto Condensed,  Bold'">Music</tspan></text>
    <text
       xml:space="preserve"
       style="font-style:normal;font-weight:normal;font-size:64px;line-height:1.25;font-family:sans-serif;fill:#000000;fill-opacity:1;stroke:none"
       x="103.75743"
       y="544.41272"
       id="text3495-3"><tspan
         sodipodi:role="line"
         id="tspan3493-6"
         x="103.75743"
         y="544.41272"
         style="font-style:normal;font-variant:normal;font-weight:bold;font-stretch:normal;font-size:64px;font-family:'Roboto Condensed';-inkscape-font-specification:'Roboto Condensed,  Bold'">Rock</tspan></text>
    <text
       xml:space="preserve"
       style="font-style:normal;font-weight:normal;font-size:64px;line-height:1.25;font-family:sans-serif;fill:#000000;fill-opacity:1;stroke:none"
       x="575.53009"
       y="655.26953"
       id="text3495-7"><tspan
         sodipodi:role="line"
         id="tspan3493-5"
         x="575.53009"
         y="655.26953"
         style="font-style:normal;font-variant:normal;font-weight:bold;font-stretch:normal;font-size:64px;font-family:'Roboto Condensed';-inkscape-font-specification:'Roboto Condensed,  Bold'">Jazz/Blues</tspan></text>
    <text
       xml:space="preserve"
       style="font-style:normal;font-weight:normal;font-size:64px;line-height:1.25;font-family:sans-serif;fill:#000000;fill-opacity:1;stroke:none"
       x="1213.2548"
       y="549.22668"
       id="text3495-35"><tspan
         sodipodi:role="line"
         id="tspan3493-62"
         x="1213.2548"
         y="549.22668"
         style="font-style:normal;font-variant:normal;font-weight:bold;font-stretch:normal;font-size:64px;font-family:'Roboto Condensed';-inkscape-font-specification:'Roboto Condensed,  Bold'">Electronic/Pop</tspan></text>
    <text
       xml:space="preserve"
       style="font-style:normal;font-weight:normal;font-size:64px;line-height:1.25;font-family:sans-serif;fill:#000000;fill-opacity:1;stroke:none"
       x="719.75378"
       y="989.98486"
       id="text3495-0"><tspan
         sodipodi:role="line"
         id="tspan3493-9"
         x="719.75378"
         y="989.98486"
         style="font-style:normal;font-variant:normal;font-weight:bold;font-stretch:normal;font-size:64px;font-family:'Roboto Condensed';-inkscape-font-specification:'Roboto Condensed,  Bold'">Techno</tspan></text>
    <text
       xml:space="preserve"
       style="font-style:normal;font-weight:normal;font-size:64px;line-height:1.25;font-family:sans-serif;fill:#000000;fill-opacity:1;stroke:none"
       x="990.83801"
       y="989.54144"
       id="text3495-36"><tspan
         sodipodi:role="line"
         id="tspan3493-0"
         x="990.83801"
         y="989.54144"
         style="font-style:normal;font-variant:normal;font-weight:bold;font-stretch:normal;font-size:64px;font-family:'Roboto Condensed';-inkscape-font-specification:'Roboto Condensed,  Bold'">Rap/Hip-Hop</tspan></text>
    <text
       xml:space="preserve"
       style="font-style:normal;font-weight:normal;font-size:64px;line-height:1.25;font-family:sans-serif;fill:#000000;fill-opacity:1;stroke:none"
       x="1427.4534"
       y="986.21881"
       id="text3495-6"><tspan
         sodipodi:role="line"
         id="tspan3493-2"
         x="1427.4534"
         y="986.21881"
         style="font-style:normal;font-variant:normal;font-weight:bold;font-stretch:normal;font-size:64px;font-family:'Roboto Condensed';-inkscape-font-specification:'Roboto Condensed,  Bold'">Pop</tspan></text>
    <text
       xml:space="preserve"
       style="font-style:normal;font-weight:normal;font-size:64px;line-height:1.25;font-family:sans-serif;fill:#000000;fill-opacity:1;stroke:none"
       x="-9.8722115"
       y="986.16547"
       id="text3495-9"><tspan
         sodipodi:role="line"
         id="tspan3493-1"
         x="-9.8722115"
         y="986.16547"
         style="font-style:normal;font-variant:normal;font-weight:bold;font-stretch:normal;font-size:64px;font-family:'Roboto Condensed';-inkscape-font-specification:'Roboto Condensed,  Bold'">Hard Rock</tspan></text>
    <text
       xml:space="preserve"
       style="font-style:normal;font-weight:normal;font-size:64px;line-height:1.25;font-family:sans-serif;fill:#000000;fill-opacity:1;stroke:none"
       x="388.56815"
       y="985.00732"
       id="text3495-2"><tspan
         sodipodi:role="line"
         id="tspan3493-7"
         x="388.56815"
         y="985.00732"
         style="font-style:normal;font-variant:normal;font-weight:bold;font-stretch:normal;font-size:64px;font-family:'Roboto Condensed';-inkscape-font-specification:'Roboto Condensed,  Bold'">Soft Rock</tspan></text>
  </g>
</svg>
