<svg xmlns="http://www.w3.org/2000/svg" xmlns:xlink="http://www.w3.org/1999/xlink" xmlns:lucid="lucid" width="1599.72" height="1014.93"><g transform="translate(-60 -120)" lucid:page-tab-id="0_0"><path d="M688.8 140h183.1v54.93H688.8z" stroke="#000" stroke-opacity="0" stroke-width="3" fill="#fff" fill-opacity="0"/><use xlink:href="#a" transform="matrix(1,0,0,1,693.8016229531951,145) translate(36.72839506172839 31.256944444444446)"/><path d="M1319.02 640h164.8v54.93H1319z" stroke="#000" stroke-opacity="0" stroke-width="3" fill="#fff" fill-opacity="0"/><use xlink:href="#b" transform="matrix(1,0,0,1,1324.0175336907694,645) translate(-46.69753086419752 29.61111111111111)"/><path d="M160 620.34h164.8v54.93H160z" stroke="#000" stroke-opacity="0" stroke-width="3" fill="#fff" fill-opacity="0"/><use xlink:href="#c" transform="matrix(1,0,0,1,165,625.343344288405) translate(34.141975308641975 31.256944444444446)"/><path d="M760 1060h219.72v54.93H760z" stroke="#000" stroke-opacity="0" stroke-width="3" fill="#fff" fill-opacity="0"/><use xlink:href="#d" transform="matrix(1,0,0,1,765,1065) translate(0.12962962962963331 27.701388888888893)"/><path d="M648.97 447.47h544.27V577M649 447.47h-1.53" stroke="#666" stroke-width="3" fill="none"/><path d="M1194.74 578.55l-1.55-.05-1.46.05v-1.6h3z" stroke="#666" stroke-width=".05" fill="#666"/><path d="M645.97 447.47H374.22v124.1M645.93 447.47h1.54" stroke="#666" stroke-width="3" fill="none"/><path d="M375.72 573.12l-1.54-.05-1.46.05v-1.6h3z" stroke="#666" stroke-width=".05" fill="#666"/><path d="M780.35 352.26c-40.45 0-73.24-32.8-73.24-73.24 0-40.45 32.8-73.24 73.25-73.24s73.25 32.8 73.25 73.24c0 40.45-32.8 73.24-73.25 73.24z" stroke="#666" stroke-width="3" fill="#fff"/><use xlink:href="#e" transform="matrix(6.123233995736766e-17,1,-1,6.123233995736766e-17,848.5951311404144,210.7759744964497) translate(62.025 70.05625)"/><path d="M1193.24 726.48c-40.45 0-73.24-32.8-73.24-73.24 0-40.45 32.8-73.24 73.24-73.24 40.45 0 73.24 32.8 73.24 73.24 0 40.45-32.8 73.24-73.24 73.24z" stroke="#666" stroke-width="3" fill="#fff"/><use xlink:href="#e" transform="matrix(6.123233995736766e-17,1,-1,6.123233995736766e-17,1261.4831183886395,585) translate(62.025 70.05625)"/><path d="M374.22 721.05c-40.45 0-73.24-32.8-73.24-73.24s32.8-73.23 73.24-73.23c40.45 0 73.25 32.8 73.25 73.24 0 40.46-32.8 73.25-73.25 73.25z" stroke="#666" stroke-width="3" fill="#fff"/><use xlink:href="#e" transform="matrix(6.123233995736766e-17,1,-1,6.123233995736766e-17,442.4655846978699,579.5673697919551) translate(62.025 70.05625)"/><path d="M873.24 1036.64c-40.45 0-73.24-32.8-73.24-73.24 0-40.46 32.8-73.25 73.24-73.25 40.45 0 73.24 32.8 73.24 73.25s-32.8 73.24-73.24 73.24z" stroke="#666" stroke-width="3" fill="#fff"/><use xlink:href="#e" transform="matrix(6.123233995736766e-17,1,-1,6.123233995736766e-17,941.4831183886395,895.1535210984534) translate(62.025 70.05625)"/><path d="M80 1060h219.72v54.93H80z" stroke="#000" stroke-opacity="0" stroke-width="3" fill="#fff" fill-opacity="0"/><use xlink:href="#f" transform="matrix(1,0,0,1,85,1065) translate(27.395061728395063 27.701388888888893)"/><use xlink:href="#g" transform="matrix(1,0,0,1,85,1065) translate(106.7283950617284 27.701388888888893)"/><path d="M460 1060h219.72v54.93H460z" stroke="#000" stroke-opacity="0" stroke-width="3" fill="#fff" fill-opacity="0"/><use xlink:href="#h" transform="matrix(1,0,0,1,465,1065) translate(32.623456790123456 27.701388888888893)"/><use xlink:href="#g" transform="matrix(1,0,0,1,465,1065) translate(101.5 27.701388888888893)"/><path d="M374.22 724.05v85.63h199.02v85.63" stroke="#666" stroke-width="3" fill="none"/><path d="M374.2 722.55h.1l1.42-.05v1.6h-3v-1.6zM574.74 896.86l-1.55-.05-1.46.06v-1.6h3z" stroke="#666" stroke-width=".05" fill="#666"/><path d="M374.22 724.05v85.63H193.24v85.63" stroke="#666" stroke-width="3" fill="none"/><path d="M374.2 722.55h.1l1.42-.05v1.6h-3v-1.6zM194.74 896.86l-1.55-.05-1.46.06v-1.6h3z" stroke="#666" stroke-width=".05" fill="#666"/><path d="M573.24 1044.8c-40.45 0-73.24-32.8-73.24-73.25s32.8-73.24 73.24-73.24c40.45 0 73.24 32.8 73.24 73.25s-32.8 73.24-73.24 73.24z" stroke="#666" stroke-width="3" fill="#fff"/><use xlink:href="#e" transform="matrix(6.123233995736766e-17,1,-1,6.123233995736766e-17,641.4831183886392,903.3087163362441) translate(62.025 70.05625)"/><path d="M193.24 1044.8c-40.45 0-73.24-32.8-73.24-73.25s32.8-73.24 73.24-73.24c40.45 0 73.24 32.8 73.24 73.25s-32.8 73.24-73.24 73.24z" stroke="#666" stroke-width="3" fill="#fff"/><use xlink:href="#e" transform="matrix(6.123233995736766e-17,1,-1,6.123233995736766e-17,261.48311838863924,903.3087163362441) translate(62.025 70.05625)"/><path d="M1100 1060h219.72v54.93H1100z" stroke="#000" stroke-opacity="0" stroke-width="3" fill="#fff" fill-opacity="0"/><use xlink:href="#i" transform="matrix(1,0,0,1,1105,1064.9999999999998) translate(11.148148148148152 27.701388888888893)"/><path d="M1193.24 1036.64c-40.45 0-73.24-32.8-73.24-73.24 0-40.46 32.8-73.25 73.24-73.25 40.45 0 73.24 32.8 73.24 73.25s-32.8 73.24-73.24 73.24z" stroke="#666" stroke-width="3" fill="#fff"/><use xlink:href="#e" transform="matrix(6.123233995736766e-17,1,-1,6.123233995736766e-17,1261.4831183886395,895.1535210984534) translate(62.025 70.05625)"/><path d="M873.24 887.15v-78.83h320v-78.84" stroke="#666" stroke-width="3" fill="none"/><path d="M874.74 888.7l-1.55-.05-1.46.05v-1.58h3zM1193.22 727.98h.1l1.42-.05v1.6h-3v-1.6z" stroke="#666" stroke-width=".05" fill="#666"/><path d="M1193.24 887.15V729.48" stroke="#666" stroke-width="3" fill="none"/><path d="M1194.74 888.7l-1.55-.05-1.46.05v-1.58h3zM1193.22 727.98h.1l1.42-.05v1.6h-3v-1.6z" stroke="#666" stroke-width=".05" fill="#666"/><path d="M780.35 721.05c-40.45 0-73.24-32.8-73.24-73.24s32.8-73.23 73.25-73.23 73.25 32.8 73.25 73.24c0 40.46-32.8 73.25-73.25 73.25z" stroke="#666" stroke-width="3" fill="#fff"/><use xlink:href="#e" transform="matrix(6.123233995736766e-17,1,-1,6.123233995736766e-17,848.5951311404144,579.5673697919551) translate(62.025 70.05625)"/><path d="M780.35 355.26v216.32" stroke="#666" stroke-width="3" fill="none"/><path d="M780.33 353.76h.1l1.42-.05v1.6h-3v-1.6zM781.85 573.12l-1.54-.05-1.45.05v-1.6h3z" stroke="#666" stroke-width=".05" fill="#666"/><path d="M701.34 721.05h164.8v54.93h-164.8z" stroke="#000" stroke-opacity="0" stroke-width="3" fill="#fff" fill-opacity="0"/><use xlink:href="#j" transform="matrix(1,0,0,1,706.3360382553253,726.0504881805945) translate(-13.265432098765444 29.61111111111111)"/><path d="M1420 1060h219.72v54.93H1420z" stroke="#000" stroke-opacity="0" stroke-width="3" fill="#fff" fill-opacity="0"/><use xlink:href="#k" transform="matrix(1,0,0,1,1425,1064.9999999999998) translate(75.7037037037037 27.701388888888893)"/><path d="M1533.24 1036.64c-40.45 0-73.24-32.8-73.24-73.24 0-40.46 32.8-73.25 73.24-73.25 40.45 0 73.24 32.8 73.24 73.25s-32.8 73.24-73.24 73.24z" stroke="#666" stroke-width="3" fill="#fff"/><use xlink:href="#e" transform="matrix(6.123233995736766e-17,1,-1,6.123233995736766e-17,1601.4831183886395,895.1535210984533) translate(62.025 70.05625)"/><path d="M1533.24 887.15v-78.83h-340v-78.84" stroke="#666" stroke-width="3" fill="none"/><path d="M1534.74 888.7l-1.55-.05-1.46.05v-1.58h3zM1193.22 727.98h.1l1.42-.05v1.6h-3v-1.6z" stroke="#666" stroke-width=".05" fill="#666"/><defs><path fill="#333" d="M230 0l2-204L168 0h-37L68-204 70 0H24v-248h70l56 185 57-185h69V0h-46" id="l"/><path fill="#333" d="M85 4C-2 5 27-109 22-190h50c7 57-23 150 33 157 60-5 35-97 40-157h50l1 190h-47c-2-12 1-28-3-38-12 25-28 42-61 42" id="m"/><path fill="#333" d="M137-138c1-29-70-34-71-4 15 46 118 7 119 86 1 83-164 76-172 9l43-7c4 19 20 25 44 25 33 8 57-30 24-41C81-84 22-81 20-136c-2-80 154-74 161-7" id="n"/><path fill="#333" d="M25-224v-37h50v37H25zM25 0v-190h50V0H25" id="o"/><path fill="#333" d="M190-63c-7 42-38 67-86 67-59 0-84-38-90-98-12-110 154-137 174-36l-49 2c-2-19-15-32-35-32-30 0-35 28-38 64-6 74 65 87 74 30" id="p"/><g id="a"><use transform="matrix(0.09876543209876544,0,0,0.09876543209876544,0,0)" xlink:href="#l"/><use transform="matrix(0.09876543209876544,0,0,0.09876543209876544,29.530864197530867,0)" xlink:href="#m"/><use transform="matrix(0.09876543209876544,0,0,0.09876543209876544,51.1604938271605,0)" xlink:href="#n"/><use transform="matrix(0.09876543209876544,0,0,0.09876543209876544,70.91358024691358,0)" xlink:href="#o"/><use transform="matrix(0.09876543209876544,0,0,0.09876543209876544,80.79012345679013,0)" xlink:href="#p"/></g><path fill="#333" d="M24 0v-248h195v40H76v63h132v40H76v65h150V0H24" id="q"/><path fill="#333" d="M25 0v-261h50V0H25" id="r"/><path fill="#333" d="M185-48c-13 30-37 53-82 52C43 2 14-33 14-96s30-98 90-98c62 0 83 45 84 108H66c0 31 8 55 39 56 18 0 30-7 34-22zm-45-69c5-46-57-63-70-21-2 6-4 13-4 21h74" id="s"/><path fill="#333" d="M115-3C79 11 28 4 28-45v-112H4v-33h27l15-45h31v45h36v33H77v99c-1 23 16 31 38 25v30" id="t"/><path fill="#333" d="M135-150c-39-12-60 13-60 57V0H25l-1-190h47c2 13-1 29 3 40 6-28 27-53 61-41v41" id="u"/><path fill="#333" d="M110-194c64 0 96 36 96 99 0 64-35 99-97 99-61 0-95-36-95-99 0-62 34-99 96-99zm-1 164c35 0 45-28 45-65 0-40-10-65-43-65-34 0-45 26-45 65 0 36 10 65 43 65" id="v"/><path fill="#333" d="M135-194c87-1 58 113 63 194h-50c-7-57 23-157-34-157-59 0-34 97-39 157H25l-1-190h47c2 12-1 28 3 38 12-26 28-41 61-42" id="w"/><path fill="#333" d="M4 7l51-268h42L46 7H4" id="x"/><path fill="#333" d="M24-248c93 1 206-16 204 79-1 75-69 88-152 82V0H24v-248zm52 121c47 0 100 7 100-41 0-47-54-39-100-39v80" id="y"/><path fill="#333" d="M135-194c53 0 70 44 70 98 0 56-19 98-73 100-31 1-45-17-59-34 3 33 2 69 2 105H25l-1-265h48c2 10 0 23 3 31 11-24 29-35 60-35zM114-30c33 0 39-31 40-66 0-38-9-64-40-64-56 0-55 130 0 130" id="z"/><g id="b"><use transform="matrix(0.09876543209876544,0,0,0.09876543209876544,0,0)" xlink:href="#q"/><use transform="matrix(0.09876543209876544,0,0,0.09876543209876544,23.703703703703706,0)" xlink:href="#r"/><use transform="matrix(0.09876543209876544,0,0,0.09876543209876544,33.580246913580254,0)" xlink:href="#s"/><use transform="matrix(0.09876543209876544,0,0,0.09876543209876544,53.333333333333336,0)" xlink:href="#p"/><use transform="matrix(0.09876543209876544,0,0,0.09876543209876544,73.08641975308643,0)" xlink:href="#t"/><use transform="matrix(0.09876543209876544,0,0,0.09876543209876544,84.83950617283952,0)" xlink:href="#u"/><use transform="matrix(0.09876543209876544,0,0,0.09876543209876544,98.66666666666669,0)" xlink:href="#v"/><use transform="matrix(0.09876543209876544,0,0,0.09876543209876544,120.29629629629633,0)" xlink:href="#w"/><use transform="matrix(0.09876543209876544,0,0,0.09876543209876544,141.92592592592595,0)" xlink:href="#o"/><use transform="matrix(0.09876543209876544,0,0,0.09876543209876544,151.80246913580248,0)" xlink:href="#p"/><use transform="matrix(0.09876543209876544,0,0,0.09876543209876544,171.55555555555557,0)" xlink:href="#x"/><use transform="matrix(0.09876543209876544,0,0,0.09876543209876544,181.4320987654321,0)" xlink:href="#y"/><use transform="matrix(0.09876543209876544,0,0,0.09876543209876544,205.13580246913577,0)" xlink:href="#v"/><use transform="matrix(0.09876543209876544,0,0,0.09876543209876544,226.76543209876542,0)" xlink:href="#z"/></g><path fill="#333" d="M240-174c0 40-23 61-54 70L253 0h-59l-57-94H76V0H24v-248c93 4 217-23 216 74zM76-134c48-2 112 12 112-38 0-48-66-32-112-35v73" id="A"/><path fill="#333" d="M147 0L96-86 75-71V0H25v-261h50v150l67-79h53l-66 74L201 0h-54" id="B"/><g id="c"><use transform="matrix(0.09876543209876544,0,0,0.09876543209876544,0,0)" xlink:href="#A"/><use transform="matrix(0.09876543209876544,0,0,0.09876543209876544,25.58024691358025,0)" xlink:href="#v"/><use transform="matrix(0.09876543209876544,0,0,0.09876543209876544,47.20987654320988,0)" xlink:href="#p"/><use transform="matrix(0.09876543209876544,0,0,0.09876543209876544,66.96296296296296,0)" xlink:href="#B"/></g><path fill="#333" d="M136-208V0H84v-208H4v-40h212v40h-80" id="C"/><path fill="#333" d="M114-157C55-157 80-60 75 0H25v-261h50l-1 109c12-26 28-41 61-42 86-1 58 113 63 194h-50c-7-57 23-157-34-157" id="D"/><path fill="#333" d="M24-248c120-7 223 5 221 122C244-46 201 0 124 0H24v-248zM76-40c74 7 117-18 117-86 0-67-45-88-117-82v168" id="E"/><path fill="#333" d="M133-34C117-15 103 5 69 4 32 3 11-16 11-54c-1-60 55-63 116-61 1-26-3-47-28-47-18 1-26 9-28 27l-52-2c7-38 36-58 82-57s74 22 75 68l1 82c-1 14 12 18 25 15v27c-30 8-71 5-69-32zm-48 3c29 0 43-24 42-57-32 0-66-3-65 30 0 17 8 27 23 27" id="F"/><g id="d"><use transform="matrix(0.08641975308641976,0,0,0.08641975308641976,0,0)" xlink:href="#C"/><use transform="matrix(0.08641975308641976,0,0,0.08641975308641976,16.592592592592595,0)" xlink:href="#s"/><use transform="matrix(0.08641975308641976,0,0,0.08641975308641976,33.876543209876544,0)" xlink:href="#p"/><use transform="matrix(0.08641975308641976,0,0,0.08641975308641976,51.16049382716049,0)" xlink:href="#D"/><use transform="matrix(0.08641975308641976,0,0,0.08641975308641976,70.08641975308642,0)" xlink:href="#w"/><use transform="matrix(0.08641975308641976,0,0,0.08641975308641976,89.01234567901234,0)" xlink:href="#v"/><use transform="matrix(0.08641975308641976,0,0,0.08641975308641976,107.93827160493827,0)" xlink:href="#x"/><use transform="matrix(0.08641975308641976,0,0,0.08641975308641976,116.58024691358024,0)" xlink:href="#E"/><use transform="matrix(0.08641975308641976,0,0,0.08641975308641976,138.96296296296296,0)" xlink:href="#F"/><use transform="matrix(0.08641975308641976,0,0,0.08641975308641976,156.2469135802469,0)" xlink:href="#w"/><use transform="matrix(0.08641975308641976,0,0,0.08641975308641976,175.17283950617283,0)" xlink:href="#p"/><use transform="matrix(0.08641975308641976,0,0,0.08641975308641976,192.45679012345678,0)" xlink:href="#s"/></g><path fill-opacity="0" d="M183 0l-10-63H79L44 0H-7l138-248h61L234 0h-51zm-14-102l-15-108c-16 38-36 73-55 108h70" id="G"/><use transform="matrix(0.05,0,0,0.05,0,0)" xlink:href="#G" id="e"/><path fill="#333" d="M186 0v-106H76V0H24v-248h52v99h110v-99h50V0h-50" id="H"/><path fill="#333" d="M88-194c31-1 46 15 58 34l-1-101h50l1 261h-48c-2-10 0-23-3-31C134-8 116 4 84 4 32 4 16-41 15-95c0-56 19-97 73-99zm17 164c33 0 40-30 41-66 1-37-9-64-41-64s-38 30-39 65c0 43 13 65 39 65" id="I"/><g id="f"><use transform="matrix(0.08641975308641976,0,0,0.08641975308641976,0,0)" xlink:href="#H"/><use transform="matrix(0.08641975308641976,0,0,0.08641975308641976,22.38271604938272,0)" xlink:href="#F"/><use transform="matrix(0.08641975308641976,0,0,0.08641975308641976,39.66666666666667,0)" xlink:href="#u"/><use transform="matrix(0.08641975308641976,0,0,0.08641975308641976,51.76543209876544,0)" xlink:href="#I"/></g><g id="g"><use transform="matrix(0.08641975308641976,0,0,0.08641975308641976,0,0)" xlink:href="#A"/><use transform="matrix(0.08641975308641976,0,0,0.08641975308641976,22.38271604938272,0)" xlink:href="#v"/><use transform="matrix(0.08641975308641976,0,0,0.08641975308641976,41.308641975308646,0)" xlink:href="#p"/><use transform="matrix(0.08641975308641976,0,0,0.08641975308641976,58.592592592592595,0)" xlink:href="#B"/></g><path fill="#333" d="M169-182c-1-43-94-46-97-3 18 66 151 10 154 114 3 95-165 93-204 36-6-8-10-19-12-30l50-8c3 46 112 56 116 5-17-69-150-10-154-114-4-87 153-88 188-35 5 8 8 18 10 28" id="J"/><path fill="#333" d="M121-226c-27-7-43 5-38 36h38v33H83V0H34v-157H6v-33h28c-9-59 32-81 87-68v32" id="K"/><g id="h"><use transform="matrix(0.08641975308641976,0,0,0.08641975308641976,0,0)" xlink:href="#J"/><use transform="matrix(0.08641975308641976,0,0,0.08641975308641976,20.740740740740744,0)" xlink:href="#v"/><use transform="matrix(0.08641975308641976,0,0,0.08641975308641976,39.66666666666667,0)" xlink:href="#K"/><use transform="matrix(0.08641975308641976,0,0,0.08641975308641976,49.95061728395062,0)" xlink:href="#t"/></g><path fill="#333" d="M14-72v-43h91v43H14" id="L"/><g id="i"><use transform="matrix(0.08641975308641976,0,0,0.08641975308641976,0,0)" xlink:href="#A"/><use transform="matrix(0.08641975308641976,0,0,0.08641975308641976,22.38271604938272,0)" xlink:href="#F"/><use transform="matrix(0.08641975308641976,0,0,0.08641975308641976,39.66666666666667,0)" xlink:href="#z"/><use transform="matrix(0.08641975308641976,0,0,0.08641975308641976,58.592592592592595,0)" xlink:href="#x"/><use transform="matrix(0.08641975308641976,0,0,0.08641975308641976,67.23456790123457,0)" xlink:href="#H"/><use transform="matrix(0.08641975308641976,0,0,0.08641975308641976,89.61728395061729,0)" xlink:href="#o"/><use transform="matrix(0.08641975308641976,0,0,0.08641975308641976,98.25925925925927,0)" xlink:href="#z"/><use transform="matrix(0.08641975308641976,0,0,0.08641975308641976,117.18518518518519,0)" xlink:href="#L"/><use transform="matrix(0.08641975308641976,0,0,0.08641975308641976,127.46913580246915,0)" xlink:href="#H"/><use transform="matrix(0.08641975308641976,0,0,0.08641975308641976,149.85185185185185,0)" xlink:href="#v"/><use transform="matrix(0.08641975308641976,0,0,0.08641975308641976,168.77777777777777,0)" xlink:href="#z"/></g><path fill="#333" d="M176-78C186 10 51 31 16-35c-5-9-9-19-11-32l52-8c4 21 12 37 35 38 23 0 32-16 32-40v-130H75v-41h101v170" id="M"/><path fill="#333" d="M12 0v-35l95-120H19v-35h142v35L67-36h103V0H12" id="N"/><path fill="#333" d="M182-130c37 4 62 22 62 59C244 23 116-4 24 0v-248c84 5 203-23 205 63 0 31-19 50-47 55zM76-148c40-3 101 13 101-30 0-44-60-28-101-31v61zm0 110c48-3 116 14 116-37 0-48-69-32-116-35v72" id="O"/><g id="j"><use transform="matrix(0.09876543209876544,0,0,0.09876543209876544,0,0)" xlink:href="#M"/><use transform="matrix(0.09876543209876544,0,0,0.09876543209876544,19.75308641975309,0)" xlink:href="#F"/><use transform="matrix(0.09876543209876544,0,0,0.09876543209876544,39.50617283950618,0)" xlink:href="#N"/><use transform="matrix(0.09876543209876544,0,0,0.09876543209876544,57.283950617283956,0)" xlink:href="#N"/><use transform="matrix(0.09876543209876544,0,0,0.09876543209876544,75.06172839506173,0)" xlink:href="#x"/><use transform="matrix(0.09876543209876544,0,0,0.09876543209876544,84.93827160493828,0)" xlink:href="#O"/><use transform="matrix(0.09876543209876544,0,0,0.09876543209876544,110.51851851851853,0)" xlink:href="#r"/><use transform="matrix(0.09876543209876544,0,0,0.09876543209876544,120.39506172839508,0)" xlink:href="#m"/><use transform="matrix(0.09876543209876544,0,0,0.09876543209876544,142.0246913580247,0)" xlink:href="#s"/><use transform="matrix(0.09876543209876544,0,0,0.09876543209876544,161.7777777777778,0)" xlink:href="#n"/></g><g id="k"><use transform="matrix(0.08641975308641976,0,0,0.08641975308641976,0,0)" xlink:href="#y"/><use transform="matrix(0.08641975308641976,0,0,0.08641975308641976,20.740740740740744,0)" xlink:href="#v"/><use transform="matrix(0.08641975308641976,0,0,0.08641975308641976,39.66666666666667,0)" xlink:href="#z"/></g></defs></g></svg>