<svg xmlns="http://www.w3.org/2000/svg" xmlns:xlink="http://www.w3.org/1999/xlink" xmlns:lucid="lucid" width="1739.72" height="1301.41"><g transform="translate(80 -120)" lucid:page-tab-id="0_0"><path d="M688.8 140h183.1v54.93H688.8z" stroke="#000" stroke-opacity="0" stroke-width="3" fill="#fff" fill-opacity="0"/><use xlink:href="#a" transform="matrix(1,0,0,1,693.8016229531951,145) translate(27.8395061728395 31.256944444444446)"/><path d="M1319.02 640h164.8v54.93H1319z" stroke="#000" stroke-opacity="0" stroke-width="3" fill="#fff" fill-opacity="0"/><use xlink:href="#b" transform="matrix(1,0,0,1,1324.0175336907694,645) translate(-17.0679012345679 29.61111111111111)"/><path d="M120 620.34h164.8v54.93H120z" stroke="#000" stroke-opacity="0" stroke-width="3" fill="#fff" fill-opacity="0"/><use xlink:href="#c" transform="matrix(1,0,0,1,125,625.343344288405) translate(-9.067901234567898 29.61111111111111)"/><path d="M760 1040h219.72v54.93H760z" stroke="#000" stroke-opacity="0" stroke-width="3" fill="#fff" fill-opacity="0"/><use xlink:href="#d" transform="matrix(1,0,0,1,765,1045.0000000000002) translate(56.77777777777778 27.701388888888893)"/><path d="M648.97 447.47h544.27V577M649 447.47h-1.53" stroke="#666" stroke-width="3" fill="none"/><path d="M1194.74 578.55l-1.55-.05-1.46.05v-1.6h3z" stroke="#666" stroke-width=".05" fill="#666"/><path d="M645.97 447.47H374.22v124.1M645.93 447.47h1.54" stroke="#666" stroke-width="3" fill="none"/><path d="M375.72 573.12l-1.54-.05-1.46.05v-1.6h3z" stroke="#666" stroke-width=".05" fill="#666"/><path d="M780.35 352.26c-40.45 0-73.24-32.8-73.24-73.24 0-40.45 32.8-73.24 73.25-73.24s73.25 32.8 73.25 73.24c0 40.45-32.8 73.24-73.25 73.24z" stroke="#666" stroke-width="3" fill="#fff"/><use xlink:href="#e" transform="matrix(6.123233995736766e-17,1,-1,6.123233995736766e-17,848.5951311404144,210.7759744964497) translate(62.025 70.05625)"/><path d="M1193.24 726.48c-40.45 0-73.24-32.8-73.24-73.24 0-40.45 32.8-73.24 73.24-73.24 40.45 0 73.24 32.8 73.24 73.24 0 40.45-32.8 73.24-73.24 73.24z" stroke="#666" stroke-width="3" fill="#fff"/><use xlink:href="#e" transform="matrix(6.123233995736766e-17,1,-1,6.123233995736766e-17,1261.4831183886395,585) translate(62.025 70.05625)"/><path d="M374.22 721.05c-40.45 0-73.24-32.8-73.24-73.24s32.8-73.23 73.24-73.23c40.45 0 73.25 32.8 73.25 73.24 0 40.46-32.8 73.25-73.25 73.25z" stroke="#666" stroke-width="3" fill="#fff"/><use xlink:href="#e" transform="matrix(6.123233995736766e-17,1,-1,6.123233995736766e-17,442.4655846978699,579.5673697919551) translate(62.025 70.05625)"/><path d="M873.24 1036.64c-40.45 0-73.24-32.8-73.24-73.24 0-40.46 32.8-73.25 73.24-73.25 40.45 0 73.24 32.8 73.24 73.25s-32.8 73.24-73.24 73.24z" stroke="#666" stroke-width="3" fill="#fff"/><use xlink:href="#e" transform="matrix(6.123233995736766e-17,1,-1,6.123233995736766e-17,941.4831183886395,895.1535210984534) translate(62.025 70.05625)"/><path d="M-60 940.16h219.72v54.93H-60z" stroke="#000" stroke-opacity="0" stroke-width="3" fill="#fff" fill-opacity="0"/><use xlink:href="#f" transform="matrix(1,0,0,1,-55,945.163742199236) translate(56.691358024691354 27.701388888888893)"/><path d="M326.48 944.08H546.2v54.94H326.5z" stroke="#000" stroke-opacity="0" stroke-width="3" fill="#fff" fill-opacity="0"/><use xlink:href="#g" transform="matrix(1,0,0,1,331.4831183886394,949.0846908326939) translate(60.148148148148145 27.701388888888893)"/><path d="M374.22 724.05v85.63h199.02v85.63" stroke="#666" stroke-width="3" fill="none"/><path d="M374.2 722.55h.1l1.42-.05v1.6h-3v-1.6zM574.74 896.86l-1.55-.05-1.46.06v-1.6h3z" stroke="#666" stroke-width=".05" fill="#666"/><path d="M374.22 724.05v85.63H193.24v85.63" stroke="#666" stroke-width="3" fill="none"/><path d="M374.2 722.55h.1l1.42-.05v1.6h-3v-1.6zM194.74 896.86l-1.55-.05-1.46.06v-1.6h3z" stroke="#666" stroke-width=".05" fill="#666"/><path d="M573.24 1044.8c-40.45 0-73.24-32.8-73.24-73.25s32.8-73.24 73.24-73.24c40.45 0 73.24 32.8 73.24 73.25s-32.8 73.24-73.24 73.24z" stroke="#666" stroke-width="3" fill="#fff"/><use xlink:href="#e" transform="matrix(6.123233995736766e-17,1,-1,6.123233995736766e-17,641.4831183886392,903.3087163362441) translate(62.025 70.05625)"/><path d="M193.24 1044.8c-40.45 0-73.24-32.8-73.24-73.25s32.8-73.24 73.24-73.24c40.45 0 73.24 32.8 73.24 73.25s-32.8 73.24-73.24 73.24z" stroke="#666" stroke-width="3" fill="#fff"/><use xlink:href="#e" transform="matrix(6.123233995736766e-17,1,-1,6.123233995736766e-17,261.48311838863924,903.3087163362441) translate(62.025 70.05625)"/><path d="M1080 1040h219.72v54.93H1080z" stroke="#000" stroke-opacity="0" stroke-width="3" fill="#fff" fill-opacity="0"/><use xlink:href="#h" transform="matrix(1,0,0,1,1085,1045) translate(80.84567901234567 27.701388888888893)"/><path d="M1193.24 1036.64c-40.45 0-73.24-32.8-73.24-73.24 0-40.46 32.8-73.25 73.24-73.25 40.45 0 73.24 32.8 73.24 73.25s-32.8 73.24-73.24 73.24z" stroke="#666" stroke-width="3" fill="#fff"/><use xlink:href="#e" transform="matrix(6.123233995736766e-17,1,-1,6.123233995736766e-17,1261.4831183886395,895.1535210984534) translate(62.025 70.05625)"/><path d="M873.24 887.15v-78.83h320v-78.84" stroke="#666" stroke-width="3" fill="none"/><path d="M874.74 888.7l-1.55-.05-1.46.05v-1.58h3zM1193.22 727.98h.1l1.42-.05v1.6h-3v-1.6z" stroke="#666" stroke-width=".05" fill="#666"/><path d="M1193.24 887.15V729.48" stroke="#666" stroke-width="3" fill="none"/><path d="M1194.74 888.7l-1.55-.05-1.46.05v-1.58h3zM1193.22 727.98h.1l1.42-.05v1.6h-3v-1.6z" stroke="#666" stroke-width=".05" fill="#666"/><path d="M780.35 721.05c-40.45 0-73.24-32.8-73.24-73.24s32.8-73.23 73.25-73.23 73.25 32.8 73.25 73.24c0 40.46-32.8 73.25-73.25 73.25z" stroke="#666" stroke-width="3" fill="#fff"/><use xlink:href="#e" transform="matrix(6.123233995736766e-17,1,-1,6.123233995736766e-17,848.5951311404144,579.5673697919551) translate(62.025 70.05625)"/><path d="M780.35 355.26v216.32" stroke="#666" stroke-width="3" fill="none"/><path d="M780.33 353.76h.1l1.42-.05v1.6h-3v-1.6zM781.85 573.12l-1.54-.05-1.45.05v-1.6h3z" stroke="#666" stroke-width=".05" fill="#666"/><path d="M701.34 721.05h164.8v54.93h-164.8z" stroke="#000" stroke-opacity="0" stroke-width="3" fill="#fff" fill-opacity="0"/><use xlink:href="#i" transform="matrix(1,0,0,1,706.3360382553253,726.0504881805945) translate(25.203703703703695 31.256944444444446)"/><path d="M1420 1040h219.72v54.93H1420z" stroke="#000" stroke-opacity="0" stroke-width="3" fill="#fff" fill-opacity="0"/><use xlink:href="#j" transform="matrix(1,0,0,1,1425,1045) translate(74.88271604938271 27.701388888888893)"/><path d="M1533.24 1036.64c-40.45 0-73.24-32.8-73.24-73.24 0-40.46 32.8-73.25 73.24-73.25 40.45 0 73.24 32.8 73.24 73.25s-32.8 73.24-73.24 73.24z" stroke="#666" stroke-width="3" fill="#fff"/><use xlink:href="#e" transform="matrix(6.123233995736766e-17,1,-1,6.123233995736766e-17,1601.4831183886395,895.1535210984533) translate(62.025 70.05625)"/><path d="M1533.24 887.15v-78.83h-340v-78.84" stroke="#666" stroke-width="3" fill="none"/><path d="M1534.74 888.7l-1.55-.05-1.46.05v-1.58h3zM1193.22 727.98h.1l1.42-.05v1.6h-3v-1.6z" stroke="#666" stroke-width=".05" fill="#666"/><path d="M140 1346.48h219.72v54.93H140z" stroke="#000" stroke-opacity="0" stroke-width="3" fill="#fff" fill-opacity="0"/><use xlink:href="#k" transform="matrix(1,0,0,1,145,1351.4831183886397) translate(41.26543209876543 27.701388888888893)"/><path d="M253.24 1346.48c-40.45 0-73.24-32.8-73.24-73.24 0-40.45 32.8-73.24 73.24-73.24 40.45 0 73.24 32.8 73.24 73.24 0 40.45-32.8 73.24-73.24 73.24z" stroke="#666" stroke-width="3" fill="#fff"/><use xlink:href="#e" transform="matrix(6.123233995736766e-17,1,-1,6.123233995736766e-17,321.48311838863947,1205) translate(62.025 70.05625)"/><path d="M460 1346.48h219.72v54.93H460z" stroke="#000" stroke-opacity="0" stroke-width="3" fill="#fff" fill-opacity="0"/><use xlink:href="#l" transform="matrix(1,0,0,1,465,1351.4831183886395) translate(76.52469135802468 27.701388888888893)"/><path d="M573.24 1346.48c-40.45 0-73.24-32.8-73.24-73.24 0-40.45 32.8-73.24 73.24-73.24 40.45 0 73.24 32.8 73.24 73.24 0 40.45-32.8 73.24-73.24 73.24z" stroke="#666" stroke-width="3" fill="#fff"/><use xlink:href="#e" transform="matrix(6.123233995736766e-17,1,-1,6.123233995736766e-17,641.4831183886392,1205) translate(62.025 70.05625)"/><path d="M800 1346.48h219.72v54.93H800z" stroke="#000" stroke-opacity="0" stroke-width="3" fill="#fff" fill-opacity="0"/><use xlink:href="#m" transform="matrix(1,0,0,1,805,1351.4831183886395) translate(79.2037037037037 27.701388888888893)"/><path d="M913.24 1346.48c-40.45 0-73.24-32.8-73.24-73.24 0-40.45 32.8-73.24 73.24-73.24 40.45 0 73.24 32.8 73.24 73.24 0 40.45-32.8 73.24-73.24 73.24z" stroke="#666" stroke-width="3" fill="#fff"/><use xlink:href="#e" transform="matrix(6.123233995736766e-17,1,-1,6.123233995736766e-17,981.483118388639,1205) translate(62.025 70.05625)"/><path d="M573.24 1047.8v74.6h-320v74.6" stroke="#666" stroke-width="3" fill="none"/><path d="M573.22 1046.3h.1l1.42-.06v1.6h-3v-1.6zM254.74 1198.55l-1.55-.05-1.46.05v-1.6h3z" stroke="#666" stroke-width=".05" fill="#666"/><path d="M573.24 1047.8V1197" stroke="#666" stroke-width="3" fill="none"/><path d="M573.22 1046.3h.1l1.42-.06v1.6h-3v-1.6zM574.74 1198.55l-1.55-.05-1.46.05v-1.6h3z" stroke="#666" stroke-width=".05" fill="#666"/><path d="M573.24 1047.8v74.6h340v74.6" stroke="#666" stroke-width="3" fill="none"/><path d="M573.22 1046.3h.1l1.42-.06v1.6h-3v-1.6zM914.74 1198.55l-1.55-.05-1.46.05v-1.6h3z" stroke="#666" stroke-width=".05" fill="#666"/><defs><path fill="#333" d="M199 0l-22-63H83L61 0H9l90-248h61L250 0h-51zm-33-102l-36-108c-10 38-24 72-36 108h72" id="n"/><path fill="#333" d="M135-194c87-1 58 113 63 194h-50c-7-57 23-157-34-157-59 0-34 97-39 157H25l-1-190h47c2 12-1 28 3 38 12-26 28-41 61-42" id="o"/><path fill="#333" d="M25-224v-37h50v37H25zM25 0v-190h50V0H25" id="p"/><path fill="#333" d="M220-157c-53 9-28 100-34 157h-49v-107c1-27-5-49-29-50C55-147 81-57 75 0H25l-1-190h47c2 12-1 28 3 38 10-53 101-56 108 0 13-22 24-43 59-42 82 1 51 116 57 194h-49v-107c-1-25-5-48-29-50" id="q"/><path fill="#333" d="M133-34C117-15 103 5 69 4 32 3 11-16 11-54c-1-60 55-63 116-61 1-26-3-47-28-47-18 1-26 9-28 27l-52-2c7-38 36-58 82-57s74 22 75 68l1 82c-1 14 12 18 25 15v27c-30 8-71 5-69-32zm-48 3c29 0 43-24 42-57-32 0-66-3-65 30 0 17 8 27 23 27" id="r"/><path fill="#333" d="M25 0v-261h50V0H25" id="s"/><g id="a"><use transform="matrix(0.09876543209876544,0,0,0.09876543209876544,0,0)" xlink:href="#n"/><use transform="matrix(0.09876543209876544,0,0,0.09876543209876544,25.58024691358025,0)" xlink:href="#o"/><use transform="matrix(0.09876543209876544,0,0,0.09876543209876544,47.20987654320988,0)" xlink:href="#p"/><use transform="matrix(0.09876543209876544,0,0,0.09876543209876544,57.086419753086425,0)" xlink:href="#q"/><use transform="matrix(0.09876543209876544,0,0,0.09876543209876544,88.69135802469137,0)" xlink:href="#r"/><use transform="matrix(0.09876543209876544,0,0,0.09876543209876544,108.44444444444446,0)" xlink:href="#s"/></g><path fill="#333" d="M140-251c80 0 125 45 125 126 0 70-33 111-92 124 6 28 34 38 68 31l-1 36C177 83 129 55 120 2 51-6 15-50 15-125c0-81 44-126 125-126zm-1 214c52 0 73-35 73-88 0-50-21-86-72-86-52 0-73 35-73 86s22 88 72 88" id="t"/><path fill="#333" d="M85 4C-2 5 27-109 22-190h50c7 57-23 150 33 157 60-5 35-97 40-157h50l1 190h-47c-2-12 1-28-3-38-12 25-28 42-61 42" id="u"/><path fill="#333" d="M88-194c31-1 46 15 58 34l-1-101h50l1 261h-48c-2-10 0-23-3-31C134-8 116 4 84 4 32 4 16-41 15-95c0-56 19-97 73-99zm17 164c33 0 40-30 41-66 1-37-9-64-41-64s-38 30-39 65c0 43 13 65 39 65" id="v"/><path fill="#333" d="M135-150c-39-12-60 13-60 57V0H25l-1-190h47c2 13-1 29 3 40 6-28 27-53 61-41v41" id="w"/><path fill="#333" d="M135-194c53 0 70 44 70 98 0 56-19 98-73 100-31 1-45-17-59-34 3 33 2 69 2 105H25l-1-265h48c2 10 0 23 3 31 11-24 29-35 60-35zM114-30c33 0 39-31 40-66 0-38-9-64-40-64-56 0-55 130 0 130" id="x"/><path fill="#333" d="M185-48c-13 30-37 53-82 52C43 2 14-33 14-96s30-98 90-98c62 0 83 45 84 108H66c0 31 8 55 39 56 18 0 30-7 34-22zm-45-69c5-46-57-63-70-21-2 6-4 13-4 21h74" id="y"/><g id="b"><use transform="matrix(0.09876543209876544,0,0,0.09876543209876544,0,0)" xlink:href="#t"/><use transform="matrix(0.09876543209876544,0,0,0.09876543209876544,27.654320987654323,0)" xlink:href="#u"/><use transform="matrix(0.09876543209876544,0,0,0.09876543209876544,49.28395061728395,0)" xlink:href="#r"/><use transform="matrix(0.09876543209876544,0,0,0.09876543209876544,69.03703703703704,0)" xlink:href="#v"/><use transform="matrix(0.09876543209876544,0,0,0.09876543209876544,90.66666666666667,0)" xlink:href="#w"/><use transform="matrix(0.09876543209876544,0,0,0.09876543209876544,104.49382716049384,0)" xlink:href="#u"/><use transform="matrix(0.09876543209876544,0,0,0.09876543209876544,126.12345679012347,0)" xlink:href="#x"/><use transform="matrix(0.09876543209876544,0,0,0.09876543209876544,147.7530864197531,0)" xlink:href="#y"/><use transform="matrix(0.09876543209876544,0,0,0.09876543209876544,167.50617283950618,0)" xlink:href="#v"/></g><path fill="#333" d="M115-3C79 11 28 4 28-45v-112H4v-33h27l15-45h31v45h36v33H77v99c-1 23 16 31 38 25v30" id="z"/><path fill="#333" d="M114-157C55-157 80-60 75 0H25v-261h50l-1 109c12-26 28-41 61-42 86-1 58 113 63 194h-50c-7-57 23-157-34-157" id="A"/><path fill="#333" d="M110-194c64 0 96 36 96 99 0 64-35 99-97 99-61 0-95-36-95-99 0-62 34-99 96-99zm-1 164c35 0 45-28 45-65 0-40-10-65-43-65-34 0-45 26-45 65 0 36 10 65 43 65" id="B"/><g id="c"><use transform="matrix(0.09876543209876544,0,0,0.09876543209876544,0,0)" xlink:href="#n"/><use transform="matrix(0.09876543209876544,0,0,0.09876543209876544,25.58024691358025,0)" xlink:href="#w"/><use transform="matrix(0.09876543209876544,0,0,0.09876543209876544,39.40740740740741,0)" xlink:href="#z"/><use transform="matrix(0.09876543209876544,0,0,0.09876543209876544,51.1604938271605,0)" xlink:href="#A"/><use transform="matrix(0.09876543209876544,0,0,0.09876543209876544,72.79012345679013,0)" xlink:href="#w"/><use transform="matrix(0.09876543209876544,0,0,0.09876543209876544,86.61728395061729,0)" xlink:href="#B"/><use transform="matrix(0.09876543209876544,0,0,0.09876543209876544,108.24691358024693,0)" xlink:href="#x"/><use transform="matrix(0.09876543209876544,0,0,0.09876543209876544,129.87654320987656,0)" xlink:href="#B"/><use transform="matrix(0.09876543209876544,0,0,0.09876543209876544,151.50617283950618,0)" xlink:href="#v"/></g><path fill="#333" d="M240-174c0 40-23 61-54 70L253 0h-59l-57-94H76V0H24v-248c93 4 217-23 216 74zM76-134c48-2 112 12 112-38 0-48-66-32-112-35v73" id="C"/><path fill="#333" d="M135-194c52 0 70 43 70 98 0 56-19 99-73 100-30 1-46-15-58-35L72 0H24l1-261h50v104c11-23 29-37 60-37zM114-30c31 0 40-27 40-66 0-37-7-63-39-63s-41 28-41 65c0 36 8 64 40 64" id="D"/><g id="d"><use transform="matrix(0.08641975308641976,0,0,0.08641975308641976,0,0)" xlink:href="#C"/><use transform="matrix(0.08641975308641976,0,0,0.08641975308641976,22.38271604938272,0)" xlink:href="#r"/><use transform="matrix(0.08641975308641976,0,0,0.08641975308641976,39.66666666666667,0)" xlink:href="#D"/><use transform="matrix(0.08641975308641976,0,0,0.08641975308641976,58.592592592592595,0)" xlink:href="#D"/><use transform="matrix(0.08641975308641976,0,0,0.08641975308641976,77.51851851851852,0)" xlink:href="#p"/><use transform="matrix(0.08641975308641976,0,0,0.08641975308641976,86.1604938271605,0)" xlink:href="#z"/></g><path fill-opacity="0" d="M183 0l-10-63H79L44 0H-7l138-248h61L234 0h-51zm-14-102l-15-108c-16 38-36 73-55 108h70" id="E"/><use transform="matrix(0.05,0,0,0.05,0,0)" xlink:href="#E" id="e"/><path fill="#333" d="M169-182c-1-43-94-46-97-3 18 66 151 10 154 114 3 95-165 93-204 36-6-8-10-19-12-30l50-8c3 46 112 56 116 5-17-69-150-10-154-114-4-87 153-88 188-35 5 8 8 18 10 28" id="F"/><g id="f"><use transform="matrix(0.08641975308641976,0,0,0.08641975308641976,0,0)" xlink:href="#F"/><use transform="matrix(0.08641975308641976,0,0,0.08641975308641976,20.740740740740744,0)" xlink:href="#x"/><use transform="matrix(0.08641975308641976,0,0,0.08641975308641976,39.66666666666667,0)" xlink:href="#p"/><use transform="matrix(0.08641975308641976,0,0,0.08641975308641976,48.308641975308646,0)" xlink:href="#v"/><use transform="matrix(0.08641975308641976,0,0,0.08641975308641976,67.23456790123457,0)" xlink:href="#y"/><use transform="matrix(0.08641975308641976,0,0,0.08641975308641976,84.51851851851852,0)" xlink:href="#w"/></g><path fill="#333" d="M24 0v-248h52V0H24" id="G"/><path fill="#333" d="M137-138c1-29-70-34-71-4 15 46 118 7 119 86 1 83-164 76-172 9l43-7c4 19 20 25 44 25 33 8 57-30 24-41C81-84 22-81 20-136c-2-80 154-74 161-7" id="H"/><path fill="#333" d="M190-63c-7 42-38 67-86 67-59 0-84-38-90-98-12-110 154-137 174-36l-49 2c-2-19-15-32-35-32-30 0-35 28-38 64-6 74 65 87 74 30" id="I"/><g id="g"><use transform="matrix(0.08641975308641976,0,0,0.08641975308641976,0,0)" xlink:href="#G"/><use transform="matrix(0.08641975308641976,0,0,0.08641975308641976,8.641975308641976,0)" xlink:href="#o"/><use transform="matrix(0.08641975308641976,0,0,0.08641975308641976,27.567901234567906,0)" xlink:href="#H"/><use transform="matrix(0.08641975308641976,0,0,0.08641975308641976,44.85185185185187,0)" xlink:href="#y"/><use transform="matrix(0.08641975308641976,0,0,0.08641975308641976,62.13580246913581,0)" xlink:href="#I"/><use transform="matrix(0.08641975308641976,0,0,0.08641975308641976,79.41975308641976,0)" xlink:href="#z"/></g><path fill="#333" d="M24-248c93 1 206-16 204 79-1 75-69 88-152 82V0H24v-248zm52 121c47 0 100 7 100-41 0-47-54-39-100-39v80" id="J"/><path fill="#333" d="M195-6C206 82 75 100 31 46c-4-6-6-13-8-21l49-6c3 16 16 24 34 25 40 0 42-37 40-79-11 22-30 35-61 35-53 0-70-43-70-97 0-56 18-96 73-97 30 0 46 14 59 34l2-30h47zm-90-29c32 0 41-27 41-63 0-35-9-62-40-62-32 0-39 29-40 63 0 36 9 62 39 62" id="K"/><g id="h"><use transform="matrix(0.08641975308641976,0,0,0.08641975308641976,0,0)" xlink:href="#J"/><use transform="matrix(0.08641975308641976,0,0,0.08641975308641976,20.740740740740744,0)" xlink:href="#p"/><use transform="matrix(0.08641975308641976,0,0,0.08641975308641976,29.382716049382726,0)" xlink:href="#K"/></g><path fill="#333" d="M147 0L96-86 75-71V0H25v-261h50v150l67-79h53l-66 74L201 0h-54" id="L"/><g id="i"><use transform="matrix(0.09876543209876544,0,0,0.09876543209876544,0,0)" xlink:href="#F"/><use transform="matrix(0.09876543209876544,0,0,0.09876543209876544,23.703703703703706,0)" xlink:href="#o"/><use transform="matrix(0.09876543209876544,0,0,0.09876543209876544,45.333333333333336,0)" xlink:href="#r"/><use transform="matrix(0.09876543209876544,0,0,0.09876543209876544,65.08641975308643,0)" xlink:href="#L"/><use transform="matrix(0.09876543209876544,0,0,0.09876543209876544,84.83950617283952,0)" xlink:href="#y"/></g><path fill="#333" d="M24-248c120-7 223 5 221 122C244-46 201 0 124 0H24v-248zM76-40c74 7 117-18 117-86 0-67-45-88-117-82v168" id="M"/><g id="j"><use transform="matrix(0.08641975308641976,0,0,0.08641975308641976,0,0)" xlink:href="#M"/><use transform="matrix(0.08641975308641976,0,0,0.08641975308641976,22.38271604938272,0)" xlink:href="#B"/><use transform="matrix(0.08641975308641976,0,0,0.08641975308641976,41.308641975308646,0)" xlink:href="#K"/></g><path fill="#333" d="M182-130c37 4 62 22 62 59C244 23 116-4 24 0v-248c84 5 203-23 205 63 0 31-19 50-47 55zM76-148c40-3 101 13 101-30 0-44-60-28-101-31v61zm0 110c48-3 116 14 116-37 0-48-69-32-116-35v72" id="N"/><path fill="#333" d="M121-226c-27-7-43 5-38 36h38v33H83V0H34v-157H6v-33h28c-9-59 32-81 87-68v32" id="O"/><path fill="#333" d="M123 10C108 53 80 86 19 72V37c35 8 53-11 59-39L3-190h52l48 148c12-52 28-100 44-148h51" id="P"/><g id="k"><use transform="matrix(0.08641975308641976,0,0,0.08641975308641976,0,0)" xlink:href="#N"/><use transform="matrix(0.08641975308641976,0,0,0.08641975308641976,22.38271604938272,0)" xlink:href="#u"/><use transform="matrix(0.08641975308641976,0,0,0.08641975308641976,41.308641975308646,0)" xlink:href="#z"/><use transform="matrix(0.08641975308641976,0,0,0.08641975308641976,51.592592592592595,0)" xlink:href="#z"/><use transform="matrix(0.08641975308641976,0,0,0.08641975308641976,61.87654320987654,0)" xlink:href="#y"/><use transform="matrix(0.08641975308641976,0,0,0.08641975308641976,79.1604938271605,0)" xlink:href="#w"/><use transform="matrix(0.08641975308641976,0,0,0.08641975308641976,91.25925925925927,0)" xlink:href="#O"/><use transform="matrix(0.08641975308641976,0,0,0.08641975308641976,101.54320987654322,0)" xlink:href="#s"/><use transform="matrix(0.08641975308641976,0,0,0.08641975308641976,110.18518518518519,0)" xlink:href="#P"/></g><g id="l"><use transform="matrix(0.08641975308641976,0,0,0.08641975308641976,0,0)" xlink:href="#N"/><use transform="matrix(0.08641975308641976,0,0,0.08641975308641976,22.38271604938272,0)" xlink:href="#y"/><use transform="matrix(0.08641975308641976,0,0,0.08641975308641976,39.66666666666667,0)" xlink:href="#y"/></g><g id="m"><use transform="matrix(0.08641975308641976,0,0,0.08641975308641976,0,0)" xlink:href="#n"/><use transform="matrix(0.08641975308641976,0,0,0.08641975308641976,22.38271604938272,0)" xlink:href="#o"/><use transform="matrix(0.08641975308641976,0,0,0.08641975308641976,41.308641975308646,0)" xlink:href="#z"/></g></defs></g></svg>