<?xml version="1.0" encoding="UTF-8" standalone="no"?>
<svg
   width="1739.72"
   height="1301.41"
   version="1.1"
   id="svg324"
   sodipodi:docname="phylogeny.svg"
   inkscape:version="1.1.2 (0a00cf5339, 2022-02-04, custom)"
   xmlns:inkscape="http://www.inkscape.org/namespaces/inkscape"
   xmlns:sodipodi="http://sodipodi.sourceforge.net/DTD/sodipodi-0.dtd"
   xmlns:xlink="http://www.w3.org/1999/xlink"
   xmlns="http://www.w3.org/2000/svg"
   xmlns:svg="http://www.w3.org/2000/svg"
   xmlns:lucid="lucid">
  <defs
     id="defs328" />
  <sodipodi:namedview
     id="namedview326"
     pagecolor="#ffffff"
     bordercolor="#666666"
     borderopacity="1.0"
     inkscape:pageshadow="2"
     inkscape:pageopacity="0.0"
     inkscape:pagecheckerboard="0"
     showgrid="true"
     inkscape:zoom="0.54402531"
     inkscape:cx="841.87259"
     inkscape:cy="520.19638"
     inkscape:window-width="1920"
     inkscape:window-height="1131"
     inkscape:window-x="0"
     inkscape:window-y="0"
     inkscape:window-maximized="1"
     inkscape:current-layer="g322">
    <inkscape:grid
       type="xygrid"
       id="grid10392" />
  </sodipodi:namedview>
  <g
     inkscape:groupmode="layer"
     id="layer1"
     inkscape:label="Layer 1"
     style="display:inline">
    <g
       transform="translate(80,-120)"
       lucid:page-tab-id="0_0"
       id="g322">
      <path
         d="m 688.8,140 h 183.1 v 54.93 H 688.8 Z"
         stroke="#000000"
         stroke-opacity="0"
         stroke-width="3"
         fill="#ffffff"
         fill-opacity="0"
         id="path2" />
      <path
         d="m 1319.02,640 h 164.8 v 54.93 H 1319 Z"
         stroke="#000000"
         stroke-opacity="0"
         stroke-width="3"
         fill="#ffffff"
         fill-opacity="0"
         id="path6" />
      <path
         d="m 120,620.34 h 164.8 v 54.93 H 120 Z"
         stroke="#000000"
         stroke-opacity="0"
         stroke-width="3"
         fill="#ffffff"
         fill-opacity="0"
         id="path10" />
      <path
         d="m 760,1040 h 219.72 v 54.93 H 760 Z"
         stroke="#000000"
         stroke-opacity="0"
         stroke-width="3"
         fill="#ffffff"
         fill-opacity="0"
         id="path14" />
      <path
         d="m 1194.74,578.55 -1.55,-0.05 -1.46,0.05 v -1.6 h 3 z"
         stroke="#666666"
         stroke-width="0.05"
         fill="#666666"
         id="path20" />
      <path
         d="m 375.72,573.12 -1.54,-0.05 -1.46,0.05 v -1.6 h 3 z"
         stroke="#666666"
         stroke-width="0.05"
         fill="#666666"
         id="path24" />
      <path
         d="m 780.35,352.26 c -40.45,0 -73.24,-32.8 -73.24,-73.24 0,-40.45 32.8,-73.24 73.25,-73.24 40.45,0 73.25,32.8 73.25,73.24 0,40.45 -32.8,73.24 -73.25,73.24 z"
         stroke="#666"
         stroke-width="3"
         fill="#fff"
         id="path26"
         style="fill:none;stroke:#00070a;stroke-width:7.55906;stroke-miterlimit:4;stroke-dasharray:none;stroke-opacity:1" />
      <use
         xlink:href="#e"
         transform="rotate(90,252.86895,525.66993)"
         id="use28"
         x="0"
         y="0"
         width="100%"
         height="100%" />
      <path
         d="m 1193.24,726.48 c -40.45,0 -73.24,-32.8 -73.24,-73.24 0,-40.45 32.8,-73.24 73.24,-73.24 40.45,0 73.24,32.8 73.24,73.24 0,40.45 -32.8,73.24 -73.24,73.24 z"
         stroke="#666"
         stroke-width="3"
         fill="#fff"
         id="path30"
         style="fill:none;stroke:#00070a;stroke-width:7.55906;stroke-miterlimit:4;stroke-dasharray:none;stroke-opacity:1" />
      <use
         xlink:href="#e"
         transform="rotate(90,272.20093,919.22593)"
         id="use32"
         x="0"
         y="0"
         width="100%"
         height="100%" />
      <path
         d="m 374.22,721.05 c -40.45,0 -73.24,-32.8 -73.24,-73.24 0,-40.44 32.8,-73.23 73.24,-73.23 40.45,0 73.25,32.8 73.25,73.24 0,40.46 -32.8,73.25 -73.25,73.25 z"
         stroke="#666"
         stroke-width="3"
         fill="#fff"
         id="path34"
         style="fill:none;stroke:#00070a;stroke-width:7.55906;stroke-miterlimit:4;stroke-dasharray:none;stroke-opacity:1" />
      <use
         xlink:href="#e"
         transform="rotate(90,-134.59152,507.00085)"
         id="use36"
         x="0"
         y="0"
         width="100%"
         height="100%" />
      <path
         d="m 873.24,1036.64 c -40.45,0 -73.24,-32.8 -73.24,-73.24 0,-40.46 32.8,-73.25 73.24,-73.25 40.45,0 73.24,32.8 73.24,73.25 0,40.45 -32.8,73.24 -73.24,73.24 z"
         stroke="#666"
         stroke-width="3"
         fill="#fff"
         id="path38"
         style="fill:none;stroke:#00070a;stroke-width:7.55906;stroke-miterlimit:4;stroke-dasharray:none;stroke-opacity:1" />
      <use
         xlink:href="#e"
         transform="rotate(90,-42.875826,914.30269)"
         id="use40"
         x="0"
         y="0"
         width="100%"
         height="100%" />
      <path
         d="m -60,940.16 h 219.72 v 54.93 H -60 Z"
         stroke="#000000"
         stroke-opacity="0"
         stroke-width="3"
         fill="#ffffff"
         fill-opacity="0"
         id="path42" />
      <path
         d="M 326.48,944.08 H 546.2 v 54.94 H 326.5 Z"
         stroke="#000000"
         stroke-opacity="0"
         stroke-width="3"
         fill="#ffffff"
         fill-opacity="0"
         id="path46" />
      <path
         d="m 374.2,722.55 h 0.1 l 1.42,-0.05 v 1.6 h -3 v -1.6 z m 200.54,174.31 -1.55,-0.05 -1.46,0.06 v -1.6 h 3 z"
         stroke="#666666"
         stroke-width="0.05"
         fill="#666666"
         id="path52" />
      <g
         id="g1314"
         style="stroke:#00070a;stroke-width:7.55906;stroke-miterlimit:4;stroke-dasharray:none;stroke-opacity:1">
        <path
           d="m 374.22,724.05 v 85.63 h 199.02 v 85.63"
           stroke="#666"
           stroke-width="3"
           fill="none"
           id="path50"
           style="stroke:#00070a;stroke-width:7.55906;stroke-miterlimit:4;stroke-dasharray:none;stroke-opacity:1" />
        <path
           d="m 374.22,724.05 v 85.63 H 193.24 v 85.63"
           stroke="#666"
           stroke-width="3"
           fill="none"
           id="path54"
           style="stroke:#00070a;stroke-width:7.55906;stroke-miterlimit:4;stroke-dasharray:none;stroke-opacity:1" />
      </g>
      <path
         d="m 374.2,722.55 h 0.1 l 1.42,-0.05 v 1.6 h -3 v -1.6 z m -179.46,174.31 -1.55,-0.05 -1.46,0.06 v -1.6 h 3 z"
         stroke="#666666"
         stroke-width="0.05"
         fill="#666666"
         id="path56" />
      <path
         d="m 573.24,1044.8 c -40.45,0 -73.24,-32.8 -73.24,-73.25 0,-40.45 32.8,-73.24 73.24,-73.24 40.45,0 73.24,32.8 73.24,73.25 0,40.45 -32.8,73.24 -73.24,73.24 z"
         stroke="#666"
         stroke-width="3"
         fill="#fff"
         id="path58"
         style="fill:none;stroke:#00070a;stroke-width:7.55906;stroke-miterlimit:4;stroke-dasharray:none;stroke-opacity:1" />
      <use
         xlink:href="#e"
         transform="rotate(90,-196.95342,768.38029)"
         id="use60"
         x="0"
         y="0"
         width="100%"
         height="100%" />
      <path
         d="m 193.24,1044.8 c -40.45,0 -73.24,-32.8 -73.24,-73.25 0,-40.45 32.8,-73.24 73.24,-73.24 40.45,0 73.24,32.8 73.24,73.25 0,40.45 -32.8,73.24 -73.24,73.24 z"
         stroke="#666"
         stroke-width="3"
         fill="#fff"
         id="path62"
         style="fill:none;stroke:#00070a;stroke-width:7.55906;stroke-miterlimit:4;stroke-dasharray:none;stroke-opacity:1" />
      <use
         xlink:href="#e"
         transform="rotate(90,-386.95342,578.38029)"
         id="use64"
         x="0"
         y="0"
         width="100%"
         height="100%" />
      <path
         d="m 1080,1040 h 219.72 v 54.93 H 1080 Z"
         stroke="#000000"
         stroke-opacity="0"
         stroke-width="3"
         fill="#ffffff"
         fill-opacity="0"
         id="path66" />
      <path
         d="m 1193.24,1036.64 c -40.45,0 -73.24,-32.8 -73.24,-73.24 0,-40.46 32.8,-73.25 73.24,-73.25 40.45,0 73.24,32.8 73.24,73.25 0,40.45 -32.8,73.24 -73.24,73.24 z"
         stroke="#666"
         stroke-width="3"
         fill="#fff"
         id="path70"
         style="fill:none;stroke:#00070a;stroke-width:7.55906;stroke-miterlimit:4;stroke-dasharray:none;stroke-opacity:1" />
      <use
         xlink:href="#e"
         transform="rotate(90,117.12417,1074.3027)"
         id="use72"
         x="0"
         y="0"
         width="100%"
         height="100%" />
      <path
         d="m 874.74,888.7 -1.55,-0.05 -1.46,0.05 v -1.58 h 3 z m 318.48,-160.72 h 0.1 l 1.42,-0.05 v 1.6 h -3 v -1.6 z"
         stroke="#666666"
         stroke-width="0.05"
         fill="#666666"
         id="path76" />
      <path
         d="m 1194.74,888.7 -1.55,-0.05 -1.46,0.05 v -1.58 h 3 z m -1.52,-160.72 h 0.1 l 1.42,-0.05 v 1.6 h -3 v -1.6 z"
         stroke="#666666"
         stroke-width="0.05"
         fill="#666666"
         id="path80" />
      <path
         d="m 780.35,721.05 c -40.45,0 -73.24,-32.8 -73.24,-73.24 0,-40.44 32.8,-73.23 73.25,-73.23 40.45,0 73.25,32.8 73.25,73.24 0,40.46 -32.8,73.25 -73.25,73.25 z"
         stroke="#666"
         stroke-width="3"
         fill="#fff"
         id="path82"
         style="fill:none;stroke:#00070a;stroke-width:7.55906;stroke-miterlimit:4;stroke-dasharray:none;stroke-opacity:1" />
      <use
         xlink:href="#e"
         transform="rotate(90,68.473256,710.06563)"
         id="use84"
         x="0"
         y="0"
         width="100%"
         height="100%" />
      <g
         id="g1238"
         style="stroke:#00070a;stroke-width:7.55906;stroke-miterlimit:4;stroke-dasharray:none;stroke-opacity:1">
        <path
           d="m 648.97,447.47 h 544.27 V 577 M 649,447.47 h -1.53"
           stroke="#666"
           stroke-width="3"
           fill="none"
           id="path18"
           style="stroke:#00070a;stroke-width:7.55906;stroke-miterlimit:4;stroke-dasharray:none;stroke-opacity:1" />
        <path
           d="M 645.97,447.47 H 374.22 v 124.1 m 271.71,-124.1 h 1.54"
           stroke="#666"
           stroke-width="3"
           fill="none"
           id="path22"
           style="stroke:#00070a;stroke-width:7.55906;stroke-miterlimit:4;stroke-dasharray:none;stroke-opacity:1" />
        <path
           d="M 780.35,355.26 V 571.58"
           stroke="#666"
           stroke-width="3"
           fill="none"
           id="path86"
           style="stroke:#00070a;stroke-width:7.55906;stroke-miterlimit:4;stroke-dasharray:none;stroke-opacity:1" />
      </g>
      <path
         d="m 780.33,353.76 h 0.1 l 1.42,-0.05 v 1.6 h -3 v -1.6 z m 1.52,219.36 -1.54,-0.05 -1.45,0.05 v -1.6 h 3 z"
         stroke="#666666"
         stroke-width="0.05"
         fill="#666666"
         id="path88" />
      <path
         d="m 701.34,721.05 h 164.8 v 54.93 h -164.8 z"
         stroke="#000000"
         stroke-opacity="0"
         stroke-width="3"
         fill="#ffffff"
         fill-opacity="0"
         id="path90" />
      <path
         d="m 1420,1040 h 219.72 v 54.93 H 1420 Z"
         stroke="#000000"
         stroke-opacity="0"
         stroke-width="3"
         fill="#ffffff"
         fill-opacity="0"
         id="path94" />
      <path
         d="m 1533.24,1036.64 c -40.45,0 -73.24,-32.8 -73.24,-73.24 0,-40.46 32.8,-73.25 73.24,-73.25 40.45,0 73.24,32.8 73.24,73.25 0,40.45 -32.8,73.24 -73.24,73.24 z"
         stroke="#666"
         stroke-width="3"
         fill="#fff"
         id="path98"
         style="fill:none;stroke:#00070a;stroke-width:7.55906;stroke-miterlimit:4;stroke-dasharray:none;stroke-opacity:1" />
      <use
         xlink:href="#e"
         transform="rotate(90,287.12417,1244.3027)"
         id="use100"
         x="0"
         y="0"
         width="100%"
         height="100%" />
      <g
         id="g1391"
         style="stroke:#00070a;stroke-width:7.55906;stroke-miterlimit:4;stroke-dasharray:none;stroke-opacity:1">
        <path
           d="m 873.24,887.15 v -78.83 h 320 v -78.84"
           stroke="#666"
           stroke-width="3"
           fill="none"
           id="path74"
           style="stroke:#00070a;stroke-width:7.55906;stroke-miterlimit:4;stroke-dasharray:none;stroke-opacity:1" />
        <path
           d="M 1193.24,887.15 V 729.48"
           stroke="#666"
           stroke-width="3"
           fill="none"
           id="path78"
           style="stroke:#00070a;stroke-width:7.55906;stroke-miterlimit:4;stroke-dasharray:none;stroke-opacity:1" />
        <path
           d="m 1533.24,887.15 v -78.83 h -340 v -78.84"
           stroke="#666"
           stroke-width="3"
           fill="none"
           id="path102"
           style="stroke:#00070a;stroke-width:7.55906;stroke-miterlimit:4;stroke-dasharray:none;stroke-opacity:1" />
      </g>
      <path
         d="m 1534.74,888.7 -1.55,-0.05 -1.46,0.05 v -1.58 h 3 z M 1193.22,727.98 h 0.1 l 1.42,-0.05 v 1.6 h -3 v -1.6 z"
         stroke="#666666"
         stroke-width="0.05"
         fill="#666666"
         id="path104" />
      <path
         d="m 140,1346.48 h 219.72 v 54.93 H 140 Z"
         stroke="#000000"
         stroke-opacity="0"
         stroke-width="3"
         fill="#ffffff"
         fill-opacity="0"
         id="path106" />
      <path
         d="m 253.24,1346.48 c -40.45,0 -73.24,-32.8 -73.24,-73.24 0,-40.45 32.8,-73.24 73.24,-73.24 40.45,0 73.24,32.8 73.24,73.24 0,40.45 -32.8,73.24 -73.24,73.24 z"
         stroke="#666"
         stroke-width="3"
         fill="#fff"
         id="path110"
         style="fill:none;stroke:#00070a;stroke-width:7.55906;stroke-miterlimit:4;stroke-dasharray:none;stroke-opacity:1" />
      <use
         xlink:href="#e"
         transform="rotate(90,-507.79907,759.22593)"
         id="use112"
         x="0"
         y="0"
         width="100%"
         height="100%" />
      <path
         d="m 460,1346.48 h 219.72 v 54.93 H 460 Z"
         stroke="#000000"
         stroke-opacity="0"
         stroke-width="3"
         fill="#ffffff"
         fill-opacity="0"
         id="path114" />
      <path
         d="m 573.24,1346.48 c -40.45,0 -73.24,-32.8 -73.24,-73.24 0,-40.45 32.8,-73.24 73.24,-73.24 40.45,0 73.24,32.8 73.24,73.24 0,40.45 -32.8,73.24 -73.24,73.24 z"
         stroke="#666"
         stroke-width="3"
         fill="#fff"
         id="path118"
         style="fill:none;stroke:#00070a;stroke-width:7.55906;stroke-miterlimit:4;stroke-dasharray:none;stroke-opacity:1" />
      <use
         xlink:href="#e"
         transform="rotate(90,-347.79907,919.22593)"
         id="use120"
         x="0"
         y="0"
         width="100%"
         height="100%" />
      <path
         d="m 800,1346.48 h 219.72 v 54.93 H 800 Z"
         stroke="#000000"
         stroke-opacity="0"
         stroke-width="3"
         fill="#ffffff"
         fill-opacity="0"
         id="path122" />
      <path
         d="m 913.24,1346.48 c -40.45,0 -73.24,-32.8 -73.24,-73.24 0,-40.45 32.8,-73.24 73.24,-73.24 40.45,0 73.24,32.8 73.24,73.24 0,40.45 -32.8,73.24 -73.24,73.24 z"
         stroke="#666"
         stroke-width="3"
         fill="#fff"
         id="path126"
         style="fill:none;stroke:#00070a;stroke-width:7.55906;stroke-miterlimit:4;stroke-dasharray:none;stroke-opacity:1" />
      <use
         xlink:href="#e"
         transform="rotate(90,-177.79907,1089.2259)"
         id="use128"
         x="0"
         y="0"
         width="100%"
         height="100%" />
      <path
         d="m 573.22,1046.3 h 0.1 l 1.42,-0.06 v 1.6 h -3 v -1.6 z m -318.48,152.25 -1.55,-0.05 -1.46,0.05 v -1.6 h 3 z"
         stroke="#666666"
         stroke-width="0.05"
         fill="#666666"
         id="path132" />
      <path
         d="m 573.22,1046.3 h 0.1 l 1.42,-0.06 v 1.6 h -3 v -1.6 z m 1.52,152.25 -1.55,-0.05 -1.46,0.05 v -1.6 h 3 z"
         stroke="#666666"
         stroke-width="0.05"
         fill="#666666"
         id="path136" />
      <g
         id="g1468"
         style="stroke:#00070a;stroke-width:7.55906;stroke-miterlimit:4;stroke-dasharray:none;stroke-opacity:1">
        <path
           d="m 573.24,1047.8 v 74.6 h -320 v 74.6"
           stroke="#666"
           stroke-width="3"
           fill="none"
           id="path130"
           style="stroke:#00070a;stroke-width:7.55906;stroke-miterlimit:4;stroke-dasharray:none;stroke-opacity:1" />
        <path
           d="M 573.24,1047.8 V 1197"
           stroke="#666"
           stroke-width="3"
           fill="none"
           id="path134"
           style="stroke:#00070a;stroke-width:7.55906;stroke-miterlimit:4;stroke-dasharray:none;stroke-opacity:1" />
        <path
           d="m 573.24,1047.8 v 74.6 h 340 v 74.6"
           stroke="#666"
           stroke-width="3"
           fill="none"
           id="path138"
           style="stroke:#00070a;stroke-width:7.55906;stroke-miterlimit:4;stroke-dasharray:none;stroke-opacity:1" />
      </g>
      <path
         d="m 573.22,1046.3 h 0.1 l 1.42,-0.06 v 1.6 h -3 v -1.6 z m 341.52,152.25 -1.55,-0.05 -1.46,0.05 v -1.6 h 3 z"
         stroke="#666666"
         stroke-width="0.05"
         fill="#666666"
         id="path140" />
      <defs
         id="defs320">
        <path
           fill="#333333"
           d="M 199,0 177,-63 H 83 L 61,0 H 9 l 90,-248 h 61 L 250,0 Z m -33,-102 -36,-108 c -10,38 -24,72 -36,108 h 72"
           id="n" />
        <path
           fill="#333333"
           d="m 135,-194 c 87,-1 58,113 63,194 h -50 c -7,-57 23,-157 -34,-157 -59,0 -34,97 -39,157 H 25 l -1,-190 h 47 c 2,12 -1,28 3,38 12,-26 28,-41 61,-42"
           id="o" />
        <path
           fill="#333333"
           d="m 25,-224 v -37 h 50 v 37 z M 25,0 V -190 H 75 V 0 H 25"
           id="p" />
        <path
           fill="#333333"
           d="m 220,-157 c -53,9 -28,100 -34,157 h -49 v -107 c 1,-27 -5,-49 -29,-50 C 55,-147 81,-57 75,0 H 25 l -1,-190 h 47 c 2,12 -1,28 3,38 10,-53 101,-56 108,0 13,-22 24,-43 59,-42 82,1 51,116 57,194 h -49 v -107 c -1,-25 -5,-48 -29,-50"
           id="q" />
        <path
           fill="#333333"
           d="M 133,-34 C 117,-15 103,5 69,4 32,3 11,-16 11,-54 c -1,-60 55,-63 116,-61 1,-26 -3,-47 -28,-47 -18,1 -26,9 -28,27 l -52,-2 c 7,-38 36,-58 82,-57 46,1 74,22 75,68 l 1,82 c -1,14 12,18 25,15 v 27 c -30,8 -71,5 -69,-32 z m -48,3 c 29,0 43,-24 42,-57 -32,0 -66,-3 -65,30 0,17 8,27 23,27"
           id="r" />
        <path
           fill="#333333"
           d="M 25,0 V -261 H 75 V 0 H 25"
           id="s" />
        <g
           id="a">
          <use
             transform="scale(0.09876543)"
             xlink:href="#n"
             id="use148"
             x="0"
             y="0"
             width="100%"
             height="100%" />
          <use
             transform="matrix(0.09876543,0,0,0.09876543,25.580247,0)"
             xlink:href="#o"
             id="use150"
             x="0"
             y="0"
             width="100%"
             height="100%" />
          <use
             transform="matrix(0.09876543,0,0,0.09876543,47.209877,0)"
             xlink:href="#p"
             id="use152"
             x="0"
             y="0"
             width="100%"
             height="100%" />
          <use
             transform="matrix(0.09876543,0,0,0.09876543,57.08642,0)"
             xlink:href="#q"
             id="use154"
             x="0"
             y="0"
             width="100%"
             height="100%" />
          <use
             transform="matrix(0.09876543,0,0,0.09876543,88.691358,0)"
             xlink:href="#r"
             id="use156"
             x="0"
             y="0"
             width="100%"
             height="100%" />
          <use
             transform="matrix(0.09876543,0,0,0.09876543,108.44444,0)"
             xlink:href="#s"
             id="use158"
             x="0"
             y="0"
             width="100%"
             height="100%" />
        </g>
        <path
           fill="#333333"
           d="m 140,-251 c 80,0 125,45 125,126 0,70 -33,111 -92,124 6,28 34,38 68,31 l -1,36 C 177,83 129,55 120,2 51,-6 15,-50 15,-125 c 0,-81 44,-126 125,-126 z m -1,214 c 52,0 73,-35 73,-88 0,-50 -21,-86 -72,-86 -52,0 -73,35 -73,86 0,51 22,88 72,88"
           id="t" />
        <path
           fill="#333333"
           d="M 85,4 C -2,5 27,-109 22,-190 h 50 c 7,57 -23,150 33,157 60,-5 35,-97 40,-157 h 50 l 1,190 h -47 c -2,-12 1,-28 -3,-38 -12,25 -28,42 -61,42"
           id="u" />
        <path
           fill="#333333"
           d="m 88,-194 c 31,-1 46,15 58,34 l -1,-101 h 50 l 1,261 h -48 c -2,-10 0,-23 -3,-31 C 134,-8 116,4 84,4 32,4 16,-41 15,-95 c 0,-56 19,-97 73,-99 z m 17,164 c 33,0 40,-30 41,-66 1,-37 -9,-64 -41,-64 -32,0 -38,30 -39,65 0,43 13,65 39,65"
           id="v" />
        <path
           fill="#333333"
           d="m 135,-150 c -39,-12 -60,13 -60,57 V 0 H 25 l -1,-190 h 47 c 2,13 -1,29 3,40 6,-28 27,-53 61,-41 v 41"
           id="w" />
        <path
           fill="#333333"
           d="m 135,-194 c 53,0 70,44 70,98 0,56 -19,98 -73,100 -31,1 -45,-17 -59,-34 3,33 2,69 2,105 H 25 l -1,-265 h 48 c 2,10 0,23 3,31 11,-24 29,-35 60,-35 z m -21,164 c 33,0 39,-31 40,-66 0,-38 -9,-64 -40,-64 -56,0 -55,130 0,130"
           id="x" />
        <path
           fill="#333333"
           d="M 185,-48 C 172,-18 148,5 103,4 43,2 14,-33 14,-96 c 0,-63 30,-98 90,-98 62,0 83,45 84,108 H 66 c 0,31 8,55 39,56 18,0 30,-7 34,-22 z m -45,-69 c 5,-46 -57,-63 -70,-21 -2,6 -4,13 -4,21 h 74"
           id="y" />
        <g
           id="b">
          <use
             transform="scale(0.09876543)"
             xlink:href="#t"
             id="use167"
             x="0"
             y="0"
             width="100%"
             height="100%" />
          <use
             transform="matrix(0.09876543,0,0,0.09876543,27.654321,0)"
             xlink:href="#u"
             id="use169"
             x="0"
             y="0"
             width="100%"
             height="100%" />
          <use
             transform="matrix(0.09876543,0,0,0.09876543,49.283951,0)"
             xlink:href="#r"
             id="use171"
             x="0"
             y="0"
             width="100%"
             height="100%" />
          <use
             transform="matrix(0.09876543,0,0,0.09876543,69.037037,0)"
             xlink:href="#v"
             id="use173"
             x="0"
             y="0"
             width="100%"
             height="100%" />
          <use
             transform="matrix(0.09876543,0,0,0.09876543,90.666667,0)"
             xlink:href="#w"
             id="use175"
             x="0"
             y="0"
             width="100%"
             height="100%" />
          <use
             transform="matrix(0.09876543,0,0,0.09876543,104.49383,0)"
             xlink:href="#u"
             id="use177"
             x="0"
             y="0"
             width="100%"
             height="100%" />
          <use
             transform="matrix(0.09876543,0,0,0.09876543,126.12346,0)"
             xlink:href="#x"
             id="use179"
             x="0"
             y="0"
             width="100%"
             height="100%" />
          <use
             transform="matrix(0.09876543,0,0,0.09876543,147.75309,0)"
             xlink:href="#y"
             id="use181"
             x="0"
             y="0"
             width="100%"
             height="100%" />
          <use
             transform="matrix(0.09876543,0,0,0.09876543,167.50617,0)"
             xlink:href="#v"
             id="use183"
             x="0"
             y="0"
             width="100%"
             height="100%" />
        </g>
        <path
           fill="#333333"
           d="M 115,-3 C 79,11 28,4 28,-45 V -157 H 4 v -33 h 27 l 15,-45 h 31 v 45 h 36 v 33 H 77 v 99 c -1,23 16,31 38,25 v 30"
           id="z" />
        <path
           fill="#333333"
           d="M 114,-157 C 55,-157 80,-60 75,0 H 25 v -261 h 50 l -1,109 c 12,-26 28,-41 61,-42 86,-1 58,113 63,194 h -50 c -7,-57 23,-157 -34,-157"
           id="A" />
        <path
           fill="#333333"
           d="m 110,-194 c 64,0 96,36 96,99 0,64 -35,99 -97,99 -61,0 -95,-36 -95,-99 0,-62 34,-99 96,-99 z m -1,164 c 35,0 45,-28 45,-65 0,-40 -10,-65 -43,-65 -34,0 -45,26 -45,65 0,36 10,65 43,65"
           id="B" />
        <g
           id="c">
          <use
             transform="scale(0.09876543)"
             xlink:href="#n"
             id="use189"
             x="0"
             y="0"
             width="100%"
             height="100%" />
          <use
             transform="matrix(0.09876543,0,0,0.09876543,25.580247,0)"
             xlink:href="#w"
             id="use191"
             x="0"
             y="0"
             width="100%"
             height="100%" />
          <use
             transform="matrix(0.09876543,0,0,0.09876543,39.407407,0)"
             xlink:href="#z"
             id="use193"
             x="0"
             y="0"
             width="100%"
             height="100%" />
          <use
             transform="matrix(0.09876543,0,0,0.09876543,51.160494,0)"
             xlink:href="#A"
             id="use195"
             x="0"
             y="0"
             width="100%"
             height="100%" />
          <use
             transform="matrix(0.09876543,0,0,0.09876543,72.790123,0)"
             xlink:href="#w"
             id="use197"
             x="0"
             y="0"
             width="100%"
             height="100%" />
          <use
             transform="matrix(0.09876543,0,0,0.09876543,86.617284,0)"
             xlink:href="#B"
             id="use199"
             x="0"
             y="0"
             width="100%"
             height="100%" />
          <use
             transform="matrix(0.09876543,0,0,0.09876543,108.24691,0)"
             xlink:href="#x"
             id="use201"
             x="0"
             y="0"
             width="100%"
             height="100%" />
          <use
             transform="matrix(0.09876543,0,0,0.09876543,129.87654,0)"
             xlink:href="#B"
             id="use203"
             x="0"
             y="0"
             width="100%"
             height="100%" />
          <use
             transform="matrix(0.09876543,0,0,0.09876543,151.50617,0)"
             xlink:href="#v"
             id="use205"
             x="0"
             y="0"
             width="100%"
             height="100%" />
        </g>
        <path
           fill="#333333"
           d="m 240,-174 c 0,40 -23,61 -54,70 L 253,0 H 194 L 137,-94 H 76 V 0 H 24 v -248 c 93,4 217,-23 216,74 z m -164,40 c 48,-2 112,12 112,-38 0,-48 -66,-32 -112,-35 v 73"
           id="C" />
        <path
           fill="#333333"
           d="m 135,-194 c 52,0 70,43 70,98 C 205,-40 186,3 132,4 102,5 86,-11 74,-31 L 72,0 H 24 l 1,-261 h 50 v 104 c 11,-23 29,-37 60,-37 z m -21,164 c 31,0 40,-27 40,-66 0,-37 -7,-63 -39,-63 -32,0 -41,28 -41,65 0,36 8,64 40,64"
           id="D" />
        <g
           id="d">
          <use
             transform="scale(0.08641975)"
             xlink:href="#C"
             id="use210"
             x="0"
             y="0"
             width="100%"
             height="100%" />
          <use
             transform="matrix(0.08641975,0,0,0.08641975,22.382716,0)"
             xlink:href="#r"
             id="use212"
             x="0"
             y="0"
             width="100%"
             height="100%" />
          <use
             transform="matrix(0.08641975,0,0,0.08641975,39.666667,0)"
             xlink:href="#D"
             id="use214"
             x="0"
             y="0"
             width="100%"
             height="100%" />
          <use
             transform="matrix(0.08641975,0,0,0.08641975,58.592593,0)"
             xlink:href="#D"
             id="use216"
             x="0"
             y="0"
             width="100%"
             height="100%" />
          <use
             transform="matrix(0.08641975,0,0,0.08641975,77.518519,0)"
             xlink:href="#p"
             id="use218"
             x="0"
             y="0"
             width="100%"
             height="100%" />
          <use
             transform="matrix(0.08641975,0,0,0.08641975,86.160494,0)"
             xlink:href="#z"
             id="use220"
             x="0"
             y="0"
             width="100%"
             height="100%" />
        </g>
        <path
           fill-opacity="0"
           d="M 183,0 173,-63 H 79 L 44,0 H -7 l 138,-248 h 61 L 234,0 Z m -14,-102 -15,-108 c -16,38 -36,73 -55,108 h 70"
           id="E" />
        <use
           transform="scale(0.05)"
           xlink:href="#E"
           id="e"
           x="0"
           y="0"
           width="100%"
           height="100%" />
        <path
           fill="#333333"
           d="m 169,-182 c -1,-43 -94,-46 -97,-3 18,66 151,10 154,114 3,95 -165,93 -204,36 -6,-8 -10,-19 -12,-30 l 50,-8 c 3,46 112,56 116,5 -17,-69 -150,-10 -154,-114 -4,-87 153,-88 188,-35 5,8 8,18 10,28"
           id="F" />
        <g
           id="f">
          <use
             transform="scale(0.08641975)"
             xlink:href="#F"
             id="use226"
             x="0"
             y="0"
             width="100%"
             height="100%" />
          <use
             transform="matrix(0.08641975,0,0,0.08641975,20.740741,0)"
             xlink:href="#x"
             id="use228"
             x="0"
             y="0"
             width="100%"
             height="100%" />
          <use
             transform="matrix(0.08641975,0,0,0.08641975,39.666667,0)"
             xlink:href="#p"
             id="use230"
             x="0"
             y="0"
             width="100%"
             height="100%" />
          <use
             transform="matrix(0.08641975,0,0,0.08641975,48.308642,0)"
             xlink:href="#v"
             id="use232"
             x="0"
             y="0"
             width="100%"
             height="100%" />
          <use
             transform="matrix(0.08641975,0,0,0.08641975,67.234568,0)"
             xlink:href="#y"
             id="use234"
             x="0"
             y="0"
             width="100%"
             height="100%" />
          <use
             transform="matrix(0.08641975,0,0,0.08641975,84.518519,0)"
             xlink:href="#w"
             id="use236"
             x="0"
             y="0"
             width="100%"
             height="100%" />
        </g>
        <path
           fill="#333333"
           d="M 24,0 V -248 H 76 V 0 H 24"
           id="G" />
        <path
           fill="#333333"
           d="m 137,-138 c 1,-29 -70,-34 -71,-4 15,46 118,7 119,86 1,83 -164,76 -172,9 l 43,-7 c 4,19 20,25 44,25 33,8 57,-30 24,-41 -43,-14 -102,-11 -104,-66 -2,-80 154,-74 161,-7"
           id="H" />
        <path
           fill="#333333"
           d="M 190,-63 C 183,-21 152,4 104,4 45,4 20,-34 14,-94 2,-204 168,-231 188,-130 l -49,2 c -2,-19 -15,-32 -35,-32 -30,0 -35,28 -38,64 -6,74 65,87 74,30"
           id="I" />
        <g
           id="g">
          <use
             transform="scale(0.08641975)"
             xlink:href="#G"
             id="use242"
             x="0"
             y="0"
             width="100%"
             height="100%" />
          <use
             transform="matrix(0.08641975,0,0,0.08641975,8.6419753,0)"
             xlink:href="#o"
             id="use244"
             x="0"
             y="0"
             width="100%"
             height="100%" />
          <use
             transform="matrix(0.08641975,0,0,0.08641975,27.567901,0)"
             xlink:href="#H"
             id="use246"
             x="0"
             y="0"
             width="100%"
             height="100%" />
          <use
             transform="matrix(0.08641975,0,0,0.08641975,44.851852,0)"
             xlink:href="#y"
             id="use248"
             x="0"
             y="0"
             width="100%"
             height="100%" />
          <use
             transform="matrix(0.08641975,0,0,0.08641975,62.135802,0)"
             xlink:href="#I"
             id="use250"
             x="0"
             y="0"
             width="100%"
             height="100%" />
          <use
             transform="matrix(0.08641975,0,0,0.08641975,79.419753,0)"
             xlink:href="#z"
             id="use252"
             x="0"
             y="0"
             width="100%"
             height="100%" />
        </g>
        <path
           fill="#333333"
           d="m 24,-248 c 93,1 206,-16 204,79 -1,75 -69,88 -152,82 V 0 H 24 Z m 52,121 c 47,0 100,7 100,-41 0,-47 -54,-39 -100,-39 v 80"
           id="J" />
        <path
           fill="#333333"
           d="M 195,-6 C 206,82 75,100 31,46 27,40 25,33 23,25 l 49,-6 c 3,16 16,24 34,25 40,0 42,-37 40,-79 C 135,-13 116,0 85,0 32,0 15,-43 15,-97 c 0,-56 18,-96 73,-97 30,0 46,14 59,34 l 2,-30 h 47 z m -90,-29 c 32,0 41,-27 41,-63 0,-35 -9,-62 -40,-62 -32,0 -39,29 -40,63 0,36 9,62 39,62"
           id="K" />
        <g
           id="h">
          <use
             transform="scale(0.08641975)"
             xlink:href="#J"
             id="use257"
             x="0"
             y="0"
             width="100%"
             height="100%" />
          <use
             transform="matrix(0.08641975,0,0,0.08641975,20.740741,0)"
             xlink:href="#p"
             id="use259"
             x="0"
             y="0"
             width="100%"
             height="100%" />
          <use
             transform="matrix(0.08641975,0,0,0.08641975,29.382716,0)"
             xlink:href="#K"
             id="use261"
             x="0"
             y="0"
             width="100%"
             height="100%" />
        </g>
        <path
           fill="#333333"
           d="M 147,0 96,-86 75,-71 V 0 H 25 v -261 h 50 v 150 l 67,-79 h 53 l -66,74 72,116 h -54"
           id="L" />
        <g
           id="i">
          <use
             transform="scale(0.09876543)"
             xlink:href="#F"
             id="use265"
             x="0"
             y="0"
             width="100%"
             height="100%" />
          <use
             transform="matrix(0.09876543,0,0,0.09876543,23.703704,0)"
             xlink:href="#o"
             id="use267"
             x="0"
             y="0"
             width="100%"
             height="100%" />
          <use
             transform="matrix(0.09876543,0,0,0.09876543,45.333333,0)"
             xlink:href="#r"
             id="use269"
             x="0"
             y="0"
             width="100%"
             height="100%" />
          <use
             transform="matrix(0.09876543,0,0,0.09876543,65.08642,0)"
             xlink:href="#L"
             id="use271"
             x="0"
             y="0"
             width="100%"
             height="100%" />
          <use
             transform="matrix(0.09876543,0,0,0.09876543,84.839506,0)"
             xlink:href="#y"
             id="use273"
             x="0"
             y="0"
             width="100%"
             height="100%" />
        </g>
        <path
           fill="#333333"
           d="m 24,-248 c 120,-7 223,5 221,122 C 244,-46 201,0 124,0 H 24 Z m 52,208 c 74,7 117,-18 117,-86 0,-67 -45,-88 -117,-82 v 168"
           id="M" />
        <g
           id="j">
          <use
             transform="scale(0.08641975)"
             xlink:href="#M"
             id="use277"
             x="0"
             y="0"
             width="100%"
             height="100%" />
          <use
             transform="matrix(0.08641975,0,0,0.08641975,22.382716,0)"
             xlink:href="#B"
             id="use279"
             x="0"
             y="0"
             width="100%"
             height="100%" />
          <use
             transform="matrix(0.08641975,0,0,0.08641975,41.308642,0)"
             xlink:href="#K"
             id="use281"
             x="0"
             y="0"
             width="100%"
             height="100%" />
        </g>
        <path
           fill="#333333"
           d="m 182,-130 c 37,4 62,22 62,59 0,94 -128,67 -220,71 v -248 c 84,5 203,-23 205,63 0,31 -19,50 -47,55 z M 76,-148 c 40,-3 101,13 101,-30 0,-44 -60,-28 -101,-31 z m 0,110 c 48,-3 116,14 116,-37 0,-48 -69,-32 -116,-35 v 72"
           id="N" />
        <path
           fill="#333333"
           d="m 121,-226 c -27,-7 -43,5 -38,36 h 38 v 33 H 83 V 0 H 34 V -157 H 6 v -33 h 28 c -9,-59 32,-81 87,-68 v 32"
           id="O" />
        <path
           fill="#333333"
           d="M 123,10 C 108,53 80,86 19,72 V 37 C 54,45 72,26 78,-2 L 3,-190 h 52 l 48,148 c 12,-52 28,-100 44,-148 h 51"
           id="P" />
        <g
           id="k">
          <use
             transform="scale(0.08641975)"
             xlink:href="#N"
             id="use287"
             x="0"
             y="0"
             width="100%"
             height="100%" />
          <use
             transform="matrix(0.08641975,0,0,0.08641975,22.382716,0)"
             xlink:href="#u"
             id="use289"
             x="0"
             y="0"
             width="100%"
             height="100%" />
          <use
             transform="matrix(0.08641975,0,0,0.08641975,41.308642,0)"
             xlink:href="#z"
             id="use291"
             x="0"
             y="0"
             width="100%"
             height="100%" />
          <use
             transform="matrix(0.08641975,0,0,0.08641975,51.592593,0)"
             xlink:href="#z"
             id="use293"
             x="0"
             y="0"
             width="100%"
             height="100%" />
          <use
             transform="matrix(0.08641975,0,0,0.08641975,61.876543,0)"
             xlink:href="#y"
             id="use295"
             x="0"
             y="0"
             width="100%"
             height="100%" />
          <use
             transform="matrix(0.08641975,0,0,0.08641975,79.160494,0)"
             xlink:href="#w"
             id="use297"
             x="0"
             y="0"
             width="100%"
             height="100%" />
          <use
             transform="matrix(0.08641975,0,0,0.08641975,91.259259,0)"
             xlink:href="#O"
             id="use299"
             x="0"
             y="0"
             width="100%"
             height="100%" />
          <use
             transform="matrix(0.08641975,0,0,0.08641975,101.54321,0)"
             xlink:href="#s"
             id="use301"
             x="0"
             y="0"
             width="100%"
             height="100%" />
          <use
             transform="matrix(0.08641975,0,0,0.08641975,110.18519,0)"
             xlink:href="#P"
             id="use303"
             x="0"
             y="0"
             width="100%"
             height="100%" />
        </g>
        <g
           id="l">
          <use
             transform="scale(0.08641975)"
             xlink:href="#N"
             id="use306"
             x="0"
             y="0"
             width="100%"
             height="100%" />
          <use
             transform="matrix(0.08641975,0,0,0.08641975,22.382716,0)"
             xlink:href="#y"
             id="use308"
             x="0"
             y="0"
             width="100%"
             height="100%" />
          <use
             transform="matrix(0.08641975,0,0,0.08641975,39.666667,0)"
             xlink:href="#y"
             id="use310"
             x="0"
             y="0"
             width="100%"
             height="100%" />
        </g>
        <g
           id="m">
          <use
             transform="scale(0.08641975)"
             xlink:href="#n"
             id="use313"
             x="0"
             y="0"
             width="100%"
             height="100%" />
          <use
             transform="matrix(0.08641975,0,0,0.08641975,22.382716,0)"
             xlink:href="#o"
             id="use315"
             x="0"
             y="0"
             width="100%"
             height="100%" />
          <use
             transform="matrix(0.08641975,0,0,0.08641975,41.308642,0)"
             xlink:href="#z"
             id="use317"
             x="0"
             y="0"
             width="100%"
             height="100%" />
        </g>
      </defs>
    </g>
  </g>
  <g
     inkscape:groupmode="layer"
     id="layer2"
     inkscape:label="Layer 2"
     style="display:inline">
    <text
       xml:space="preserve"
       style="font-style:normal;font-variant:normal;font-weight:bold;font-stretch:normal;font-size:64px;line-height:1.25;font-family:'Roboto Condensed';-inkscape-font-specification:'Roboto Condensed,  Bold';fill:#000000;fill-opacity:1;stroke:none"
       x="773.50916"
       y="60.824089"
       id="text8132"><tspan
         sodipodi:role="line"
         id="tspan8130"
         x="773.50916"
         y="60.824089">Animal</tspan></text>
    <text
       xml:space="preserve"
       style="font-style:normal;font-variant:normal;font-weight:bold;font-stretch:normal;font-size:64px;line-height:1.25;font-family:'Roboto Condensed';-inkscape-font-specification:'Roboto Condensed,  Bold';fill:#000000;fill-opacity:1;stroke:none"
       x="108.68107"
       y="550.68652"
       id="text8132-3"><tspan
         sodipodi:role="line"
         id="tspan8130-6"
         x="108.68107"
         y="550.68652">Arthropod</tspan></text>
    <text
       xml:space="preserve"
       style="font-style:normal;font-variant:normal;font-weight:bold;font-stretch:normal;font-size:64px;line-height:1.25;font-family:'Roboto Condensed';-inkscape-font-specification:'Roboto Condensed,  Bold';fill:#000000;fill-opacity:1;stroke:none"
       x="780.08936"
       y="656.29877"
       id="text8132-7"><tspan
         sodipodi:role="line"
         id="tspan8130-5"
         x="780.08936"
         y="656.29877">Snake</tspan></text>
    <text
       xml:space="preserve"
       style="font-style:normal;font-variant:normal;font-weight:bold;font-stretch:normal;font-size:64px;line-height:1.25;font-family:'Roboto Condensed';-inkscape-font-specification:'Roboto Condensed,  Bold';fill:#000000;fill-opacity:1;stroke:none"
       x="1380.0447"
       y="551.50812"
       id="text8132-35"><tspan
         sodipodi:role="line"
         id="tspan8130-62"
         x="1380.0447"
         y="551.50812">Quadruped</tspan></text>
    <text
       xml:space="preserve"
       style="font-style:normal;font-variant:normal;font-weight:bold;font-stretch:normal;font-size:64px;line-height:1.25;font-family:'Roboto Condensed';-inkscape-font-specification:'Roboto Condensed,  Bold';fill:#000000;fill-opacity:1;stroke:none"
       x="18.592199"
       y="869.76038"
       id="text8132-9"><tspan
         sodipodi:role="line"
         id="tspan8130-1"
         x="18.592199"
         y="869.76038">Spider</tspan></text>
    <text
       xml:space="preserve"
       style="font-style:normal;font-variant:normal;font-weight:bold;font-stretch:normal;font-size:64px;line-height:1.25;font-family:'Roboto Condensed';-inkscape-font-specification:'Roboto Condensed,  Bold';fill:#000000;fill-opacity:1;stroke:none"
       x="405.12201"
       y="873.42657"
       id="text8132-2"><tspan
         sodipodi:role="line"
         id="tspan8130-7"
         x="405.12201"
         y="873.42657">Insect</tspan></text>
    <text
       xml:space="preserve"
       style="font-style:normal;font-variant:normal;font-weight:bold;font-stretch:normal;font-size:64px;line-height:1.25;font-family:'Roboto Condensed';-inkscape-font-specification:'Roboto Condensed,  Bold';fill:#000000;fill-opacity:1;stroke:none"
       x="870.51312"
       y="978.32397"
       id="text8132-0"><tspan
         sodipodi:role="line"
         id="tspan8130-9"
         x="870.51312"
         y="978.32397">Rabbit</tspan></text>
    <text
       xml:space="preserve"
       style="font-style:normal;font-variant:normal;font-weight:bold;font-stretch:normal;font-size:64px;line-height:1.25;font-family:'Roboto Condensed';-inkscape-font-specification:'Roboto Condensed,  Bold';fill:#000000;fill-opacity:1;stroke:none"
       x="1227.6196"
       y="977.47992"
       id="text8132-36"><tspan
         sodipodi:role="line"
         id="tspan8130-0"
         x="1227.6196"
         y="977.47992">Pig</tspan></text>
    <text
       xml:space="preserve"
       style="font-style:normal;font-variant:normal;font-weight:bold;font-stretch:normal;font-size:64px;line-height:1.25;font-family:'Roboto Condensed';-inkscape-font-specification:'Roboto Condensed,  Bold';fill:#000000;fill-opacity:1;stroke:none"
       x="1557.844"
       y="976.66858"
       id="text8132-6"><tspan
         sodipodi:role="line"
         id="tspan8130-2"
         x="1557.844"
         y="976.66858">Dog</tspan></text>
    <text
       xml:space="preserve"
       style="font-style:normal;font-variant:normal;font-weight:bold;font-stretch:normal;font-size:64px;line-height:1.25;font-family:'Roboto Condensed';-inkscape-font-specification:'Roboto Condensed,  Bold';fill:#000000;fill-opacity:1;stroke:none"
       x="215.502"
       y="1286.1086"
       id="text8132-61"><tspan
         sodipodi:role="line"
         id="tspan8130-8"
         x="215.502"
         y="1286.1086">Butterfly</tspan></text>
    <text
       xml:space="preserve"
       style="font-style:normal;font-variant:normal;font-weight:bold;font-stretch:normal;font-size:64px;line-height:1.25;font-family:'Roboto Condensed';-inkscape-font-specification:'Roboto Condensed,  Bold';fill:#000000;fill-opacity:1;stroke:none"
       x="598.60669"
       y="1290.0951"
       id="text8132-79"><tspan
         sodipodi:role="line"
         id="tspan8130-20"
         x="598.60669"
         y="1290.0951">Bee</tspan></text>
    <text
       xml:space="preserve"
       style="font-style:normal;font-variant:normal;font-weight:bold;font-stretch:normal;font-size:64px;line-height:1.25;font-family:'Roboto Condensed';-inkscape-font-specification:'Roboto Condensed,  Bold';fill:#000000;fill-opacity:1;stroke:none"
       x="942.83093"
       y="1289.4054"
       id="text8132-23"><tspan
         sodipodi:role="line"
         id="tspan8130-75"
         x="942.83093"
         y="1289.4054">Ant</tspan></text>
  </g>
</svg>
