<?xml version="1.0" encoding="UTF-8" standalone="no"?>
<svg
   xmlns:lucid="lucid"
   xmlns:dc="http://purl.org/dc/elements/1.1/"
   xmlns:cc="http://creativecommons.org/ns#"
   xmlns:rdf="http://www.w3.org/1999/02/22-rdf-syntax-ns#"
   xmlns:svg="http://www.w3.org/2000/svg"
   xmlns="http://www.w3.org/2000/svg"
   xmlns:xlink="http://www.w3.org/1999/xlink"
   xmlns:sodipodi="http://sodipodi.sourceforge.net/DTD/sodipodi-0.dtd"
   xmlns:inkscape="http://www.inkscape.org/namespaces/inkscape"
   width="402.82776mm"
   height="402.11731mm"
   viewBox="0 0 402.82776 402.1173"
   version="1.1"
   id="svg956"
   inkscape:version="1.0.2 (e86c870879, 2021-01-15, custom)"
   sodipodi:docname="local_classifier_per_level.svg">
  <metadata
     id="metadata280">
    <rdf:RDF>
      <cc:Work
         rdf:about="">
        <dc:format>image/svg+xml</dc:format>
        <dc:type
           rdf:resource="http://purl.org/dc/dcmitype/StillImage" />
      </cc:Work>
    </rdf:RDF>
  </metadata>
  <sodipodi:namedview
     id="namedview958"
     pagecolor="#ffffff"
     bordercolor="#666666"
     borderopacity="1.0"
     inkscape:pageshadow="2"
     inkscape:pageopacity="0.0"
     inkscape:pagecheckerboard="0"
     inkscape:document-units="mm"
     showgrid="false"
     fit-margin-top="0"
     fit-margin-left="0"
     fit-margin-right="0"
     fit-margin-bottom="0"
     inkscape:zoom="0.42452812"
     inkscape:cx="799.71145"
     inkscape:cy="663.08917"
     inkscape:window-width="1920"
     inkscape:window-height="1137"
     inkscape:window-x="1912"
     inkscape:window-y="-8"
     inkscape:window-maximized="1"
     inkscape:current-layer="g1525"
     inkscape:document-rotation="0" />
  <defs
     id="defs953">
    <path
       d="m 240,-174 c 0,40 -23,61 -54,70 L 253,0 H 194 L 137,-94 H 76 V 0 H 24 v -248 c 93,4 217,-23 216,74 z m -164,40 c 48,-2 112,12 112,-38 0,-48 -66,-32 -112,-35 v 73"
       id="k" />
    <path
       d="m 110,-194 c 64,0 96,36 96,99 0,64 -35,99 -97,99 -61,0 -95,-36 -95,-99 0,-62 34,-99 96,-99 z m -1,164 c 35,0 45,-28 45,-65 0,-40 -10,-65 -43,-65 -34,0 -45,26 -45,65 0,36 10,65 43,65"
       id="l" />
    <path
       d="M 115,-3 C 79,11 28,4 28,-45 V -157 H 4 v -33 h 27 l 15,-45 h 31 v 45 h 36 v 33 H 77 v 99 c -1,23 16,31 38,25 v 30"
       id="m" />
    <g
       id="a">
      <use
         transform="scale(0.09938272)"
         xlink:href="#k"
         id="use1380"
         x="0"
         y="0"
         width="100%"
         height="100%" />
      <use
         transform="matrix(0.09938272,0,0,0.09938272,25.740123,0)"
         xlink:href="#l"
         id="use1382"
         x="0"
         y="0"
         width="100%"
         height="100%" />
      <use
         transform="matrix(0.09938272,0,0,0.09938272,47.504938,0)"
         xlink:href="#l"
         id="use1384"
         x="0"
         y="0"
         width="100%"
         height="100%" />
      <use
         transform="matrix(0.09938272,0,0,0.09938272,69.269753,0)"
         xlink:href="#m"
         id="use1386"
         x="0"
         y="0"
         width="100%"
         height="100%" />
    </g>
    <path
       d="M 230,0 232,-204 168,0 H 131 L 68,-204 70,0 H 24 v -248 h 70 l 56,185 57,-185 h 69 V 0 h -46"
       id="n" />
    <path
       d="M 133,-34 C 117,-15 103,5 69,4 32,3 11,-16 11,-54 c -1,-60 55,-63 116,-61 1,-26 -3,-47 -28,-47 -18,1 -26,9 -28,27 l -52,-2 c 7,-38 36,-58 82,-57 46,1 74,22 75,68 l 1,82 c -1,14 12,18 25,15 v 27 c -30,8 -71,5 -69,-32 z m -48,3 c 29,0 43,-24 42,-57 -32,0 -66,-3 -65,30 0,17 8,27 23,27"
       id="o" />
    <path
       d="m 220,-157 c -53,9 -28,100 -34,157 h -49 v -107 c 1,-27 -5,-49 -29,-50 C 55,-147 81,-57 75,0 H 25 l -1,-190 h 47 c 2,12 -1,28 3,38 10,-53 101,-56 108,0 13,-22 24,-43 59,-42 82,1 51,116 57,194 h -49 v -107 c -1,-25 -5,-48 -29,-50"
       id="p" />
    <path
       d="M 25,0 V -261 H 75 V 0 H 25"
       id="q" />
    <g
       id="b">
      <use
         transform="scale(0.09938272)"
         xlink:href="#n"
         id="use1393"
         x="0"
         y="0"
         width="100%"
         height="100%" />
      <use
         transform="matrix(0.09938272,0,0,0.09938272,29.715432,0)"
         xlink:href="#o"
         id="use1395"
         x="0"
         y="0"
         width="100%"
         height="100%" />
      <use
         transform="matrix(0.09938272,0,0,0.09938272,49.591975,0)"
         xlink:href="#p"
         id="use1397"
         x="0"
         y="0"
         width="100%"
         height="100%" />
      <use
         transform="matrix(0.09938272,0,0,0.09938272,81.394444,0)"
         xlink:href="#p"
         id="use1399"
         x="0"
         y="0"
         width="100%"
         height="100%" />
      <use
         transform="matrix(0.09938272,0,0,0.09938272,113.19691,0)"
         xlink:href="#o"
         id="use1401"
         x="0"
         y="0"
         width="100%"
         height="100%" />
      <use
         transform="matrix(0.09938272,0,0,0.09938272,133.07346,0)"
         xlink:href="#q"
         id="use1403"
         x="0"
         y="0"
         width="100%"
         height="100%" />
    </g>
    <path
       d="M 185,-48 C 172,-18 148,5 103,4 43,2 14,-33 14,-96 c 0,-63 30,-98 90,-98 62,0 83,45 84,108 H 66 c 0,31 8,55 39,56 18,0 30,-7 34,-22 z m -45,-69 c 5,-46 -57,-63 -70,-21 -2,6 -4,13 -4,21 h 74"
       id="r" />
    <path
       d="m 135,-194 c 53,0 70,44 70,98 0,56 -19,98 -73,100 -31,1 -45,-17 -59,-34 3,33 2,69 2,105 H 25 l -1,-265 h 48 c 2,10 0,23 3,31 11,-24 29,-35 60,-35 z m -21,164 c 33,0 39,-31 40,-66 0,-38 -9,-64 -40,-64 -56,0 -55,130 0,130"
       id="s" />
    <path
       d="m 25,-224 v -37 h 50 v 37 z M 25,0 V -190 H 75 V 0 H 25"
       id="t" />
    <g
       id="c">
      <use
         transform="scale(0.09938272)"
         xlink:href="#k"
         id="use1409"
         x="0"
         y="0"
         width="100%"
         height="100%" />
      <use
         transform="matrix(0.09938272,0,0,0.09938272,25.740123,0)"
         xlink:href="#r"
         id="use1411"
         x="0"
         y="0"
         width="100%"
         height="100%" />
      <use
         transform="matrix(0.09938272,0,0,0.09938272,45.616667,0)"
         xlink:href="#s"
         id="use1413"
         x="0"
         y="0"
         width="100%"
         height="100%" />
      <use
         transform="matrix(0.09938272,0,0,0.09938272,67.381481,0)"
         xlink:href="#m"
         id="use1415"
         x="0"
         y="0"
         width="100%"
         height="100%" />
      <use
         transform="matrix(0.09938272,0,0,0.09938272,79.208025,0)"
         xlink:href="#t"
         id="use1417"
         x="0"
         y="0"
         width="100%"
         height="100%" />
      <use
         transform="matrix(0.09938272,0,0,0.09938272,89.146296,0)"
         xlink:href="#q"
         id="use1419"
         x="0"
         y="0"
         width="100%"
         height="100%" />
      <use
         transform="matrix(0.09938272,0,0,0.09938272,99.084568,0)"
         xlink:href="#r"
         id="use1421"
         x="0"
         y="0"
         width="100%"
         height="100%" />
    </g>
    <path
       d="m 212,-179 c -10,-28 -35,-45 -73,-45 -59,0 -87,40 -87,99 0,60 29,101 89,101 43,0 62,-24 78,-52 l 27,14 C 228,-24 195,4 139,4 59,4 22,-46 18,-125 c -6,-104 99,-153 187,-111 19,9 31,26 39,46"
       id="u" />
    <path
       d="M 24,0 V -261 H 56 V 0 H 24"
       id="v" />
    <path
       d="M 141,-36 C 126,-15 110,5 73,4 37,3 15,-17 15,-53 c -1,-64 63,-63 125,-63 3,-35 -9,-54 -41,-54 -24,1 -41,7 -42,31 l -33,-3 c 5,-37 33,-52 76,-52 45,0 72,20 72,64 v 82 c -1,20 7,32 28,27 V -1 C 169,8 139,-3 141,-36 Z M 48,-53 c 0,20 12,33 32,33 41,-3 63,-29 60,-74 -43,2 -92,-5 -92,41"
       id="w" />
    <path
       d="m 135,-143 c -3,-34 -86,-38 -87,0 15,53 115,12 119,90 4,78 -150,74 -157,8 l 28,-5 c 4,36 97,45 98,0 -10,-56 -113,-15 -118,-90 -4,-57 82,-63 122,-42 12,7 21,19 24,35"
       id="x" />
    <path
       d="m 24,-231 v -30 h 32 v 30 z M 24,0 V -190 H 56 V 0 H 24"
       id="y" />
    <path
       d="m 101,-234 c -31,-9 -42,10 -38,44 h 38 v 23 H 63 V 0 H 32 V -167 H 5 v -23 h 27 c -7,-52 17,-82 69,-68 v 24"
       id="z" />
    <path
       d="m 100,-194 c 63,0 86,42 84,106 H 49 c 0,40 14,67 53,68 26,1 43,-12 49,-29 l 28,8 C 168,-13 142,4 102,4 44,4 14,-33 15,-96 c 1,-61 26,-98 85,-98 z m 52,81 c 6,-60 -76,-77 -97,-28 -3,7 -6,17 -6,28 h 103"
       id="A" />
    <path
       d="M 114,-163 C 36,-179 61,-72 57,0 H 25 l -1,-190 h 30 c 1,12 -1,29 2,39 6,-27 23,-49 58,-41 v 29"
       id="B" />
    <g
       id="d">
      <use
         transform="scale(0.09938272)"
         xlink:href="#u"
         id="use1432"
         x="0"
         y="0"
         width="100%"
         height="100%" />
      <use
         transform="matrix(0.09938272,0,0,0.09938272,25.740123,0)"
         xlink:href="#v"
         id="use1434"
         x="0"
         y="0"
         width="100%"
         height="100%" />
      <use
         transform="matrix(0.09938272,0,0,0.09938272,33.591358,0)"
         xlink:href="#w"
         id="use1436"
         x="0"
         y="0"
         width="100%"
         height="100%" />
      <use
         transform="matrix(0.09938272,0,0,0.09938272,53.467901,0)"
         xlink:href="#x"
         id="use1438"
         x="0"
         y="0"
         width="100%"
         height="100%" />
      <use
         transform="matrix(0.09938272,0,0,0.09938272,71.35679,0)"
         xlink:href="#x"
         id="use1440"
         x="0"
         y="0"
         width="100%"
         height="100%" />
      <use
         transform="matrix(0.09938272,0,0,0.09938272,89.245679,0)"
         xlink:href="#y"
         id="use1442"
         x="0"
         y="0"
         width="100%"
         height="100%" />
      <use
         transform="matrix(0.09938272,0,0,0.09938272,97.096914,0)"
         xlink:href="#z"
         id="use1444"
         x="0"
         y="0"
         width="100%"
         height="100%" />
      <use
         transform="matrix(0.09938272,0,0,0.09938272,107.03519,0)"
         xlink:href="#y"
         id="use1446"
         x="0"
         y="0"
         width="100%"
         height="100%" />
      <use
         transform="matrix(0.09938272,0,0,0.09938272,114.88642,0)"
         xlink:href="#A"
         id="use1448"
         x="0"
         y="0"
         width="100%"
         height="100%" />
      <use
         transform="matrix(0.09938272,0,0,0.09938272,134.76296,0)"
         xlink:href="#B"
         id="use1450"
         x="0"
         y="0"
         width="100%"
         height="100%" />
    </g>
    <g
       id="e">
      <use
         transform="scale(0.09938272)"
         xlink:href="#u"
         id="use1453"
         x="0"
         y="0"
         width="100%"
         height="100%" />
      <use
         transform="matrix(0.09938272,0,0,0.09938272,25.740123,0)"
         xlink:href="#v"
         id="use1455"
         x="0"
         y="0"
         width="100%"
         height="100%" />
      <use
         transform="matrix(0.09938272,0,0,0.09938272,33.591358,0)"
         xlink:href="#w"
         id="use1457"
         x="0"
         y="0"
         width="100%"
         height="100%" />
      <use
         transform="matrix(0.09938272,0,0,0.09938272,53.467901,0)"
         xlink:href="#x"
         id="use1459"
         x="0"
         y="0"
         width="100%"
         height="100%" />
      <use
         transform="matrix(0.09938272,0,0,0.09938272,71.35679,0)"
         xlink:href="#x"
         id="use1461"
         x="0"
         y="0"
         width="100%"
         height="100%" />
    </g>
    <path
       d="m 67,-125 c 0,53 21,87 73,88 37,1 54,-22 65,-47 l 45,17 C 233,-25 199,4 140,4 58,4 20,-42 15,-125 8,-235 124,-281 211,-232 c 18,10 29,29 36,50 l -46,12 c -8,-25 -30,-41 -62,-41 -52,0 -71,34 -72,86"
       id="C" />
    <g
       id="f">
      <use
         transform="scale(0.09938272)"
         xlink:href="#C"
         id="use1465"
         x="0"
         y="0"
         width="100%"
         height="100%" />
      <use
         transform="matrix(0.09938272,0,0,0.09938272,25.740123,0)"
         xlink:href="#o"
         id="use1467"
         x="0"
         y="0"
         width="100%"
         height="100%" />
      <use
         transform="matrix(0.09938272,0,0,0.09938272,45.616667,0)"
         xlink:href="#m"
         id="use1469"
         x="0"
         y="0"
         width="100%"
         height="100%" />
    </g>
    <path
       d="M 275,0 H 214 L 170,-196 126,0 H 64 L 0,-248 h 53 l 44,199 45,-199 h 58 l 43,199 44,-199 h 52"
       id="D" />
    <path
       d="m 121,-226 c -27,-7 -43,5 -38,36 h 38 v 33 H 83 V 0 H 34 V -157 H 6 v -33 h 28 c -9,-59 32,-81 87,-68 v 32"
       id="E" />
    <g
       id="g">
      <use
         transform="scale(0.09938272)"
         xlink:href="#D"
         id="use1474"
         x="0"
         y="0"
         width="100%"
         height="100%" />
      <use
         transform="matrix(0.09938272,0,0,0.09938272,32.995062,0)"
         xlink:href="#l"
         id="use1476"
         x="0"
         y="0"
         width="100%"
         height="100%" />
      <use
         transform="matrix(0.09938272,0,0,0.09938272,54.759877,0)"
         xlink:href="#q"
         id="use1478"
         x="0"
         y="0"
         width="100%"
         height="100%" />
      <use
         transform="matrix(0.09938272,0,0,0.09938272,64.698148,0)"
         xlink:href="#E"
         id="use1480"
         x="0"
         y="0"
         width="100%"
         height="100%" />
    </g>
    <path
       d="m 24,-248 c 120,-7 223,5 221,122 C 244,-46 201,0 124,0 H 24 Z m 52,208 c 74,7 117,-18 117,-86 0,-67 -45,-88 -117,-82 v 168"
       id="F" />
    <path
       d="M 195,-6 C 206,82 75,100 31,46 27,40 25,33 23,25 l 49,-6 c 3,16 16,24 34,25 40,0 42,-37 40,-79 C 135,-13 116,0 85,0 32,0 15,-43 15,-97 c 0,-56 18,-96 73,-97 30,0 46,14 59,34 l 2,-30 h 47 z m -90,-29 c 32,0 41,-27 41,-63 0,-35 -9,-62 -40,-62 -32,0 -39,29 -40,63 0,36 9,62 39,62"
       id="G" />
    <g
       id="h">
      <use
         transform="scale(0.09938272)"
         xlink:href="#F"
         id="use1485"
         x="0"
         y="0"
         width="100%"
         height="100%" />
      <use
         transform="matrix(0.09938272,0,0,0.09938272,25.740123,0)"
         xlink:href="#l"
         id="use1487"
         x="0"
         y="0"
         width="100%"
         height="100%" />
      <use
         transform="matrix(0.09938272,0,0,0.09938272,47.504938,0)"
         xlink:href="#G"
         id="use1489"
         x="0"
         y="0"
         width="100%"
         height="100%" />
    </g>
    <path
       d="M 24,0 V -248 H 76 V -40 H 209 V 0 H 24"
       id="H" />
    <path
       d="m 12,0 v -35 l 95,-120 H 19 v -35 h 142 v 35 L 67,-36 H 170 V 0 H 12"
       id="I" />
    <path
       d="m 135,-150 c -39,-12 -60,13 -60,57 V 0 H 25 l -1,-190 h 47 c 2,13 -1,29 3,40 6,-28 27,-53 61,-41 v 41"
       id="J" />
    <path
       d="m 88,-194 c 31,-1 46,15 58,34 l -1,-101 h 50 l 1,261 h -48 c -2,-10 0,-23 -3,-31 C 134,-8 116,4 84,4 32,4 16,-41 15,-95 c 0,-56 19,-97 73,-99 z m 17,164 c 33,0 40,-30 41,-66 1,-37 -9,-64 -41,-64 -32,0 -38,30 -39,65 0,43 13,65 39,65"
       id="K" />
    <g
       id="i">
      <use
         transform="scale(0.09938272)"
         xlink:href="#H"
         id="use1496"
         x="0"
         y="0"
         width="100%"
         height="100%" />
      <use
         transform="matrix(0.09938272,0,0,0.09938272,21.764815,0)"
         xlink:href="#t"
         id="use1498"
         x="0"
         y="0"
         width="100%"
         height="100%" />
      <use
         transform="matrix(0.09938272,0,0,0.09938272,31.703086,0)"
         xlink:href="#I"
         id="use1500"
         x="0"
         y="0"
         width="100%"
         height="100%" />
      <use
         transform="matrix(0.09938272,0,0,0.09938272,49.591975,0)"
         xlink:href="#o"
         id="use1502"
         x="0"
         y="0"
         width="100%"
         height="100%" />
      <use
         transform="matrix(0.09938272,0,0,0.09938272,69.468519,0)"
         xlink:href="#J"
         id="use1504"
         x="0"
         y="0"
         width="100%"
         height="100%" />
      <use
         transform="matrix(0.09938272,0,0,0.09938272,83.382099,0)"
         xlink:href="#K"
         id="use1506"
         x="0"
         y="0"
         width="100%"
         height="100%" />
    </g>
    <path
       d="m 169,-182 c -1,-43 -94,-46 -97,-3 18,66 151,10 154,114 3,95 -165,93 -204,36 -6,-8 -10,-19 -12,-30 l 50,-8 c 3,46 112,56 116,5 -17,-69 -150,-10 -154,-114 -4,-87 153,-88 188,-35 5,8 8,18 10,28"
       id="L" />
    <path
       d="m 135,-194 c 87,-1 58,113 63,194 h -50 c -7,-57 23,-157 -34,-157 -59,0 -34,97 -39,157 H 25 l -1,-190 h 47 c 2,12 -1,28 3,38 12,-26 28,-41 61,-42"
       id="M" />
    <path
       d="M 147,0 96,-86 75,-71 V 0 H 25 v -261 h 50 v 150 l 67,-79 h 53 l -66,74 72,116 h -54"
       id="N" />
    <g
       id="j">
      <use
         transform="scale(0.09938272)"
         xlink:href="#L"
         id="use1512"
         x="0"
         y="0"
         width="100%"
         height="100%" />
      <use
         transform="matrix(0.09938272,0,0,0.09938272,23.851852,0)"
         xlink:href="#M"
         id="use1514"
         x="0"
         y="0"
         width="100%"
         height="100%" />
      <use
         transform="matrix(0.09938272,0,0,0.09938272,45.616667,0)"
         xlink:href="#o"
         id="use1516"
         x="0"
         y="0"
         width="100%"
         height="100%" />
      <use
         transform="matrix(0.09938272,0,0,0.09938272,65.49321,0)"
         xlink:href="#N"
         id="use1518"
         x="0"
         y="0"
         width="100%"
         height="100%" />
      <use
         transform="matrix(0.09938272,0,0,0.09938272,85.369753,0)"
         xlink:href="#r"
         id="use1520"
         x="0"
         y="0"
         width="100%"
         height="100%" />
    </g>
    <clipPath
       clipPathUnits="userSpaceOnUse"
       id="clipPath4048">
      <path
         style="fill:#000000;stroke-width:0.202067"
         d="m 1764.6967,850.47616 c -0.3979,-0.414 -1.1988,-1.435 -1.7799,-2.2687 l -1.0564,-1.5164 -0.2969,-3.4014 c -0.3085,-3.5305 -0.4718,-4.5701 -1.1201,-7.13 -0.2119,-0.8363 -0.7092,-3.3546 -1.1053,-5.5963 -0.7185,-4.0684 -1.5752,-7.7784 -1.9605,-8.4882 -0.3416,-0.6298 -1.013,-0.7586 -1.7266,-0.3312 -1.0565,0.6329 -1.6237,0.4928 -3.763,-0.9307 -2.7247,-1.8129 -3.2369,-2.9824 -2.2389,-5.1125 0.2326,-0.4968 0.4251,-1.0864 0.4275,-1.3103 0.015,-0.7374 1.0437,-3.582 1.8248,-5.0125 1.9792,-3.6246 2.3062,-4.1345 2.8224,-4.4023 0.7155,-0.3713 2.0903,-1.803 2.7647,-2.8793 0.2957,-0.4721 1.1165,-1.2691 1.8234,-1.7711 0.7146,-0.5072 1.4249,-1.2004 1.599,-1.5606 0.2162,-0.4474 0.6937,-0.8481 1.5433,-1.2949 0.9627,-0.5065 1.5146,-1.0057 2.54,-2.298 1.5318,-1.9303 2.6577,-3.1017 4.2131,-4.3834 0.6182,-0.5094 2.3575,-2.4889 3.8651,-4.399 1.5076,-1.9102 3.1282,-3.9323 3.6012,-4.4936 1.6761,-1.9888 3.1114,-4.6392 4.1517,-7.6665 0.5441,-1.5831 0.9961,-3.17426 1.0046,-3.53583 0.024,-1.01475 0.3532,-1.81111 2.2749,-5.50467 1.5983,-3.07242 1.9858,-3.65008 3.7657,-5.61167 1.0912,-1.2027 2.2832,-2.56433 2.6485,-3.0259 0.8868,-1.12002 7.0164,-5.95444 10.3176,-8.13736 2.5185,-1.66556 2.824,-1.80799 6.3058,-2.94035 2.0126,-0.65453 4.2084,-1.29625 4.8795,-1.4261 0.6714,-0.12995 2.9141,-0.64492 4.9839,-1.14461 3.2633,-0.78783 5.676,-1.45014 14.6041,-4.00893 0.928,-0.26591 2.9366,-0.76058 4.4638,-1.09925 2.974,-0.65947 5.1085,-1.34377 8.1902,-2.62575 4.6867,-1.94951 7.7044,-3.90482 10.4205,-6.75159 1.439,-1.50826 2.0009,-2.40147 2.3766,-3.7777 0.1235,-0.45836 0.592,-1.26884 1.0375,-1.80102 0.4456,-0.53216 0.9879,-1.34008 1.2048,-1.79533 0.2552,-0.53632 0.6114,-0.91647 1.0108,-1.07976 0.6671,-0.27268 0.726,-0.38479 1.0268,-1.95748 0.1095,-0.57538 0.7124,-2.1507 1.3384,-3.50076 1.115,-2.40485 1.723,-4.21465 1.723,-5.12927 0,-0.25235 0.1896,-0.99973 0.4216,-1.66082 0.2319,-0.66113 0.365,-1.37773 0.2959,-1.59252 -0.08,-0.25059 -0.6143,-0.57752 -1.4894,-0.91238 -1.6073,-0.61505 -1.7847,-0.73632 -3.4554,-2.36364 -2.2298,-2.17248 -3.1048,-4.6905 -2.0278,-5.83732 0.2519,-0.26803 1.6477,-1.21698 3.1023,-2.10875 1.4544,-0.8918 3.3767,-2.197 4.2717,-2.90047 l 1.6273,-1.27905 0.6913,-1.99277 c 0.9245,-2.666 1.8888,-4.72676 2.7594,-5.89699 0.3945,-0.53024 1.8181,-1.92863 3.1639,-3.10754 1.3454,-1.17892 3.0775,-2.8748 3.8489,-3.76864 1.6172,-1.87418 3.6451,-5.13245 4.65,-7.47184 0.3825,-0.89068 1.1335,-2.56785 1.6687,-3.72704 0.5355,-1.15918 1.1649,-2.78182 1.3986,-3.60589 0.2871,-1.01114 0.6163,-1.68679 1.0131,-2.07814 l 0.5875,-0.57985 0.925,0.40377 c 2.2912,0.99997 5.1094,3.37431 6.5501,5.51825 0.9202,1.36934 1.4214,2.85626 1.8179,5.39367 0.6348,4.06198 1.0258,5.18513 1.8053,5.18513 0.5861,0 0.9793,-0.27856 3.4775,-2.46497 2.4933,-2.18177 2.768,-2.32858 3.4874,-1.86346 0.6565,0.42452 1.0309,1.27539 1.1977,2.72262 0.1109,0.9734 0.042,1.30587 -0.602,2.81017 -1.3268,3.10358 -2.1071,5.2827 -3.027,8.45052 -1.9216,6.61885 -1.9792,8.08314 -0.4653,11.83064 1.2496,3.09303 1.8895,6.33771 2.1555,10.93144 0.1638,2.82401 0.3178,3.96515 0.7058,5.22539 0.2728,0.88679 0.6488,2.603 0.8354,3.81375 0.1865,1.21079 0.4824,2.58573 0.6578,3.05542 0.2344,0.62845 0.2829,1.19817 0.1833,2.15712 -0.087,0.83719 -0.022,1.98756 0.1768,3.2175 0.5127,3.14417 -0.014,16.85663 -0.7156,18.68136 -0.2734,0.70907 -0.7659,3.23777 -1.0078,5.17366 -0.1221,0.97985 -0.3892,2.10892 -0.5922,2.50906 -0.2032,0.40015 -0.4306,1.12087 -0.5053,1.60166 -0.074,0.48077 -0.2745,1.13802 -0.4435,1.46055 -0.1691,0.32251 -0.5285,1.57234 -0.7985,2.77735 -0.2701,1.20503 -0.7116,2.62529 -0.9812,3.15612 -0.2697,0.53082 -0.6077,1.32644 -0.751,1.76803 -0.3666,1.13025 -1.0829,2.08724 -3.445,4.60319 -3.7211,3.96359 -4.1715,5.52584 -4.1709,14.46564 0,5.9011 0.097,7.2394 1.0071,14.151 0.6479,4.9128 0.8489,6.8993 1.2158,12.0121 0.3389,4.7194 0.5338,6.1696 1.1516,8.5621 0.2278,0.8832 0.5441,2.8253 0.7029,4.3155 0.3409,3.1991 0.6595,4.3966 1.5036,5.6542 0.9551,1.4226 3.4448,3.6462 4.8026,4.2886 3.2056,1.5172 7.8119,4.4937 7.8119,5.048 0,0.1401 -0.218,0.396 -0.4847,0.5684 -0.5828,0.3768 -4.1153,0.4426 -5.4024,0.1011 -0.6339,-0.1684 -1.0595,-0.1521 -1.89,0.072 -3.5628,0.9647 -14.5115,0.2235 -16.8859,-1.1436 -0.6653,-0.3827 -1.0052,-0.915 -2.6968,-4.2206 -1.0643,-2.0803 -2.1631,-4.4522 -2.4416,-5.2706 -0.6295,-1.8501 -2.5483,-5.6672 -3.5214,-7.0049 -0.7678,-1.0554 -2.7225,-4.678 -2.9812,-5.5251 -0.4267,-1.3972 -2.0168,-4.2273 -2.9569,-5.2628 l -1.047,-1.1532 -0.5974,-2.8612 c -0.6721,-3.2181 -1.2984,-4.6238 -4.3161,-9.686 -2.1358,-3.5828 -2.6426,-4.7386 -2.6656,-6.0792 -0.03,-1.7046 -0.7067,-1.8345 -3.8663,-0.741 -2.371,0.8206 -3.2564,0.8736 -4.1178,0.2465 -0.5433,-0.3955 -0.8587,-0.4502 -2.5376,-0.4406 -1.0544,0.01 -2.0144,0.07 -2.1328,0.1425 -0.1193,0.072 -0.4183,-0.1382 -0.6656,-0.4682 -0.5101,-0.6809 -0.7601,-0.6152 -1.1483,0.3017 -0.2294,0.5414 -0.4333,0.6774 -1.3169,0.8786 -1.8073,0.4117 -3.0491,0.2171 -3.0491,-0.4776 0,-0.5769 -0.6047,-0.5349 -1.3289,0.093 -0.5057,0.4382 -0.9267,0.6234 -1.4173,0.6234 -0.8643,0 -0.9317,0.1172 -1.7293,3.0122 -0.9221,3.346 -1.5901,4.5719 -5.022,9.2162 -1.3674,1.8506 -2.451,2.7921 -4.294,3.7307 -0.414,0.2109 -1.2564,0.8451 -1.8718,1.4092 -1.2303,1.1278 -2.0179,1.6492 -6.2173,4.1155 -5.6014,3.2897 -8.1406,5.3344 -9.5308,7.6749 -0.7059,1.1885 -1.3523,3.7576 -1.3606,5.4076 -0.015,1.1869 0.1179,1.6263 1.0378,3.7133 1.2656,2.8682 2.4275,4.7475 4.5315,7.3282 1.5187,1.8633 2.7662,3.0421 3.7545,3.5478 0.2493,0.1273 1.3938,0.4211 2.5429,0.6517 1.1488,0.2307 2.4093,0.5815 2.801,0.7794 0.8987,0.4545 3.2946,2.5876 3.2048,2.8534 -0.037,0.109 -0.5088,0.3646 -1.0484,0.5669 -0.5397,0.2019 -1.1477,0.5162 -1.3516,0.6983 -0.2624,0.2342 -0.5512,0.2917 -0.9888,0.1969 -0.4263,-0.093 -0.8084,-0.023 -1.231,0.2233 -0.555,0.3234 -0.7521,0.3328 -2.0907,0.1 -0.8129,-0.1413 -2.7292,-0.426 -4.2583,-0.6315 -1.5291,-0.2058 -2.9762,-0.4921 -3.2156,-0.6367 -0.5962,-0.3606 -1.0941,-1.2225 -1.6157,-2.7982 -0.2809,-0.8482 -0.8414,-1.8531 -1.5463,-2.7712 -0.9841,-1.2817 -1.7251,-2.9072 -1.7251,-3.7845 0,-0.8526 -1.483,-2.8524 -4.3414,-5.8544 -4.6216,-4.8535 -4.4716,-4.6358 -4.3604,-6.3275 0.1096,-1.6716 0.4409,-2.3648 1.8547,-3.8846 0.5818,-0.6255 1.9365,-2.5825 3.0103,-4.3489 3.7634,-6.1913 4.9968,-9.3263 4.4533,-11.3183 -0.2934,-1.0752 -0.6843,-1.0698 -2.0425,0.028 -1.6445,1.3285 -2.581,1.8951 -4.2506,2.5716 -0.8494,0.3444 -2.4601,1.1554 -3.5789,1.8024 -2.2123,1.2792 -3.9702,2.1061 -7.7261,3.6338 -1.3406,0.5452 -3.1712,1.3799 -4.0684,1.855 -3.8206,2.0233 -6.0021,3.2446 -7.8262,4.381 -2.2912,1.4277 -2.0477,1.2934 -4.4796,2.4696 -1.0601,0.5127 -2.2872,1.1933 -2.7268,1.5122 -2.3006,1.6694 -7.4574,6.8774 -8.1855,8.2666 -0.256,0.4886 -0.2533,0.9606 0.02,3.7189 0.5771,5.8178 1.335,10.9451 1.7432,11.7945 0.4346,0.9032 1.2643,1.5592 4.5672,3.6104 2.4665,1.5317 4.3734,2.8815 4.3734,3.0957 0,0.077 -0.5263,0.236 -1.1694,0.3551 -0.6436,0.1197 -1.5557,0.3609 -2.0273,0.5367 -0.8021,0.2991 -0.9389,0.2948 -2.1186,-0.066 -0.7741,-0.2379 -1.3858,-0.3227 -1.5836,-0.22 -0.4686,0.2432 -4.1736,1.2162 -4.6312,1.2162 -0.2138,0 -0.7145,-0.3387 -1.1124,-0.7528 z"
         id="path4050" />
    </clipPath>
    <clipPath
       clipPathUnits="userSpaceOnUse"
       id="clipPath7488">
      <ellipse
         style="opacity:0.27439;fill:#000000;stroke:none;stroke-width:2.2619;stroke-miterlimit:4;stroke-dasharray:none"
         id="ellipse7490"
         cx="799.30859"
         cy="728.89478"
         rx="72.30677"
         ry="74.465179" />
    </clipPath>
  </defs>
  <g
     inkscape:label="Layer 1"
     inkscape:groupmode="layer"
     id="layer1"
     transform="translate(222.10173,133.14478)">
    <g
       transform="matrix(0.26458333,0,0,0.26458333,-233.30419,-179.76978)"
       lucid:page-tab-id="0_0"
       id="g1525">
      <path
         d="m 1258.36,874.56 h 165.77 v 180 h -165.77 z"
         fill-opacity="0"
         id="path1275" />
      <path
         d="m 1258.36,1164.73 h 165.77 v 180 h -165.77 z"
         fill-opacity="0"
         id="path1279" />
      <path
         d="m 1286,1164.73 h 27.62 m 13.8,0 h 27.64 m 13.82,0 h 27.62 m 13.82,0 h 13.8 v 15 m 0,15 v 30 m 0,15 v 30 m 0,15 v 30 m 0,15 v 15 h -13.8 m -13.82,0 h -27.62 m -13.82,0 h -27.63 m -13.8,0 h -27.64 m -13.83,0 h -13.8 v -15 m 0,-15 v -30 m 0,-15 v -30 m 0,-15 v -30 m 0,-15 v -15 h 13.8"
         stroke="#000000"
         stroke-width="3"
         fill="none"
         id="path1281"
         style="stroke:#00070a;stroke-width:7.55906;stroke-miterlimit:4;stroke-dasharray:none;stroke-opacity:1" />
      <path
         d="m 874.35,872.22 h 165.78 v 180 H 874.35 Z"
         fill-opacity="0"
         id="path1283" />
      <path
         d="m 454.35,873.22 h 165.78 v 180 H 454.35 Z"
         fill-opacity="0"
         id="path1287" />
      <path
         d="m 74.35,874.22 h 165.78 v 180 H 74.35 Z"
         fill-opacity="0"
         id="path1291" />
      <path
         d="m 1074.45,552.22 h 165.77 v 180 h -165.77 z"
         fill-opacity="0"
         id="path1295" />
      <path
         d="M 255.34,552.03 H 421.1 v 180 H 255.35 Z"
         fill-opacity="0"
         id="path1299" />
      <path
         d="m 744.4,347.98 1.45,-0.05 v 1.6 h -3 v -1.6 z m 414.34,224.8 -1.55,-0.06 -1.46,0.05 v -1.58 h 3 z"
         stroke="#666666"
         stroke-width="0.05"
         fill="#666666"
         id="path1305" />
      <g
         id="g1554"
         style="stroke:#00070a;stroke-width:7.55906;stroke-miterlimit:4;stroke-dasharray:none;stroke-opacity:1"
         transform="translate(-36,20)">
        <path
           d="m 780.35,329.48 v 104.74 h 412.9 v 117"
           stroke="#666666"
           stroke-width="3"
           fill="none"
           id="path1303"
           style="stroke:#00070a;stroke-width:7.55906;stroke-miterlimit:4;stroke-dasharray:none;stroke-opacity:1" />
        <path
           d="M 780.35,329.48 V 434.22 H 374.22 V 545.8"
           stroke="#666666"
           stroke-width="3"
           fill="none"
           id="path1307"
           style="stroke:#00070a;stroke-width:7.55906;stroke-miterlimit:4;stroke-dasharray:none;stroke-opacity:1" />
      </g>
      <path
         d="m 744.4,347.98 1.45,-0.05 v 1.6 h -3 v -1.6 z m -404.68,219.36 -1.54,-0.05 -1.46,0.04 v -1.6 h 3 z"
         stroke="#666666"
         stroke-width="0.05"
         fill="#666666"
         id="path1309" />
      <path
         d="m 817.6,273.24 c 0,40.45 -32.8,73.24 -73.25,73.24 -40.45,0 -73.24,-32.8 -73.24,-73.24 0,-40.45 32.8,-73.24 73.25,-73.24 40.45,0 73.25,32.8 73.25,73.24 z"
         stroke="#666666"
         stroke-width="3"
         fill="#ffffff"
         id="path1311"
         style="stroke:#00070a;stroke-width:7.55906;stroke-miterlimit:4;stroke-dasharray:none;stroke-opacity:1;fill:none" />
      <path
         d="m 1230.48,647.47 c 0,40.45 -32.8,73.24 -73.24,73.24 -40.45,0 -73.24,-32.78 -73.24,-73.23 0,-40.45 32.8,-73.25 73.24,-73.25 40.45,0 73.24,32.8 73.24,73.25 z"
         stroke="#666666"
         stroke-width="3"
         fill="#ffffff"
         id="path1315"
         style="stroke:#00070a;stroke-width:7.55906;stroke-miterlimit:4;stroke-dasharray:none;stroke-opacity:1;fill:none" />
      <path
         d="m 411.47,642.03 c 0,40.45 -32.8,73.24 -73.25,73.24 -40.45,0 -73.24,-32.8 -73.24,-73.24 0,-40.45 32.8,-73.24 73.24,-73.24 40.45,0 73.25,32.78 73.25,73.23 z"
         stroke="#666666"
         stroke-width="3"
         fill="#ffffff"
         id="path1319"
         style="stroke:#00070a;stroke-width:7.55906;stroke-miterlimit:4;stroke-dasharray:none;stroke-opacity:1;fill:none" />
      <path
         d="m 338.27,716.78 1.45,-0.06 v 1.6 h -3 v -1.6 z m 200.47,174.3 -1.55,-0.05 -1.46,0.05 v -1.58 h 3 z"
         stroke="#666666"
         stroke-width="0.05"
         fill="#666666"
         id="path1325" />
      <g
         id="g1558"
         style="stroke:#00070a;stroke-width:7.55906;stroke-miterlimit:4;stroke-dasharray:none;stroke-opacity:1"
         transform="translate(-36,20)">
        <path
           d="m 374.22,698.27 v 85.63 h 199.02 v 85.63"
           stroke="#666666"
           stroke-width="3"
           fill="none"
           id="path1323"
           style="stroke:#00070a;stroke-width:7.55906;stroke-miterlimit:4;stroke-dasharray:none;stroke-opacity:1" />
        <path
           d="M 374.22,698.27 V 783.9 H 195.15 v 85.63"
           stroke="#666666"
           stroke-width="3"
           fill="none"
           id="path1327"
           style="stroke:#00070a;stroke-width:7.55906;stroke-miterlimit:4;stroke-dasharray:none;stroke-opacity:1" />
      </g>
      <g
         id="g1098"
         style="stroke:#00070a;stroke-width:7.55906;stroke-miterlimit:4;stroke-dasharray:none;stroke-opacity:1"
         transform="translate(721.89551,319.30408)">
        <path
           d="m 659.5728,1174.6883 v 52.0564 h 50.95953 v 52.0563"
           stroke="#666666"
           stroke-width="1.18361"
           fill="none"
           id="path1323-9"
           style="stroke:#00070a;stroke-width:7.55906;stroke-miterlimit:4;stroke-dasharray:none;stroke-opacity:1" />
        <path
           d="m 659.5728,1174.6883 v 52.0564 h -45.85129 v 52.0563"
           stroke="#666666"
           stroke-width="1.18361"
           fill="none"
           id="path1327-7"
           style="stroke:#00070a;stroke-width:7.55906;stroke-miterlimit:4;stroke-dasharray:none;stroke-opacity:1" />
      </g>
      <path
         d="m 338.27,716.78 1.45,-0.06 v 1.6 h -3 v -1.6 z m -177.62,174.3 -1.55,-0.05 -1.45,0.05 v -1.58 h 3 z"
         stroke="#666666"
         stroke-width="0.05"
         fill="#666666"
         id="path1329" />
      <path
         d="m 1157.3,722.2 1.44,-0.04 v 1.58 h -3 v -1.58 z m 185.45,167.33 -1.55,-0.05 -1.45,0.05 v -1.6 h 3 z"
         stroke="#666666"
         stroke-width="0.05"
         fill="#666666"
         id="path1333" />
      <g
         id="g1562"
         style="stroke:#00070a;stroke-width:7.55906;stroke-miterlimit:4;stroke-dasharray:none;stroke-opacity:1"
         transform="translate(-36,20)">
        <path
           d="m 1193.24,703.7 v 82.14 h 184 v 82.14"
           stroke="#666666"
           stroke-width="3"
           fill="none"
           id="path1331"
           style="stroke:#00070a;stroke-width:7.55906;stroke-miterlimit:4;stroke-dasharray:none;stroke-opacity:1" />
        <path
           d="m 1193.24,703.7 v 82.14 h -200 v 82.14"
           stroke="#666666"
           stroke-width="3"
           fill="none"
           id="path1335"
           style="stroke:#00070a;stroke-width:7.55906;stroke-miterlimit:4;stroke-dasharray:none;stroke-opacity:1" />
      </g>
      <path
         d="m 1157.3,722.2 1.44,-0.04 v 1.58 h -3 v -1.58 z m -198.56,167.33 -1.55,-0.05 -1.46,0.05 v -1.6 h 3 z"
         stroke="#666666"
         stroke-width="0.05"
         fill="#666666"
         id="path1337" />
      <path
         d="m 124.56,1558.9 h 77.55 v 75.32 h -77.54 z"
         fill-opacity="0"
         id="path1339" />
      <path
         d="m 190.4,1514.9 h 25.86 m 12.93,0 h 12.9 v 12.55 m 0,12.55 v 25.1 m 0,12.57 v 12.55 h -12.9 m -12.94,0 H 190.4 m -12.92,0 h -12.92 v -12.55 m 0,-12.56 V 1540 m 0,-12.55 v -12.56 h 12.92"
         stroke="#000000"
         stroke-width="3"
         fill="none"
         id="path1341"
         style="stroke:#00070a;stroke-width:7.55906;stroke-miterlimit:4;stroke-dasharray:none;stroke-opacity:1" />
      <text
         xml:space="preserve"
         style="font-style:normal;font-weight:normal;font-size:64px;line-height:1.25;font-family:sans-serif;fill:#000000;fill-opacity:1;stroke:none"
         x="706.76514"
         y="1652.0923"
         id="text1825-8-24-44"><tspan
           sodipodi:role="line"
           id="tspan1823-2-8-73"
           x="706.76514"
           y="1652.0923"
           style="font-style:normal;font-variant:normal;font-weight:bold;font-stretch:normal;font-size:64px;font-family:'Roboto Condensed';-inkscape-font-specification:'Roboto Condensed,  Bold'">Class</tspan></text>
      <path
         d="m 43.34,1634.22 h 240 v 60 h -240 z"
         stroke="#000000"
         stroke-opacity="0"
         stroke-width="2"
         fill="#ffffff"
         fill-opacity="0"
         id="path1343" />
      <path
         d="m 312,1634.22 h 240 v 60 H 312 Z"
         stroke="#000000"
         stroke-opacity="0"
         stroke-width="2"
         fill="#ffffff"
         fill-opacity="0"
         id="path1347" />
      <path
         d="m 1030.48,964.22 c 0,40.45 -32.8,73.25 -73.24,73.25 -40.45,0 -73.24,-32.8 -73.24,-73.25 0,-40.45 32.8,-73.24 73.24,-73.24 40.45,0 73.24,32.8 73.24,73.24 z"
         stroke="#666666"
         stroke-width="3"
         fill="#ffffff"
         id="path1351"
         style="stroke:#00070a;stroke-width:7.55906;stroke-miterlimit:4;stroke-dasharray:none;stroke-opacity:1;fill:none" />
      <path
         d="m 1414.5,964.22 c 0,40.45 -32.8,73.25 -73.25,73.25 -40.45,0 -73.25,-32.8 -73.25,-73.25 0,-40.45 32.8,-73.24 73.25,-73.24 40.45,0 73.24,32.8 73.24,73.24 z"
         stroke="#666666"
         stroke-width="3"
         fill="#ffffff"
         id="path1355"
         style="stroke:#00070a;stroke-width:7.55906;stroke-miterlimit:4;stroke-dasharray:none;stroke-opacity:1;fill:none" />
      <path
         d="m 1944.5602,719.59929 c 0,40.45 -32.8,73.25 -73.25,73.25 -40.45,0 -73.25,-32.8 -73.25,-73.25 0,-40.45 32.8,-73.24 73.25,-73.24 40.45,0 73.24,32.8 73.24,73.24 z"
         stroke="#666666"
         stroke-width="3"
         fill="#ffffff"
         id="path1355-1"
         style="fill:#00070a;fill-opacity:1;stroke:none;stroke-width:3.00094;stroke-miterlimit:4;stroke-dasharray:none"
         clip-path="url(#clipPath4048)"
         transform="translate(-528.0502,242.62071)" />
      <path
         d="m 1414.5,1250.52 c 0,40.45 -32.8,73.24 -73.25,73.24 -40.45,0 -73.25,-32.8 -73.25,-73.24 0,-40.45 32.8,-73.24 73.25,-73.24 40.45,0 73.24,32.8 73.24,73.24 z"
         stroke="#666666"
         stroke-width="3"
         fill="#ffffff"
         id="path1359"
         style="stroke:#00070a;stroke-width:7.55906;stroke-miterlimit:4;stroke-dasharray:none;stroke-opacity:1;fill:none" />
      <path
         d="m 1341.25,1040.46 v 133.82"
         stroke="#666666"
         stroke-width="3"
         fill="none"
         id="path1363"
         style="stroke:#00070a;stroke-width:7.55906;stroke-miterlimit:4;stroke-dasharray:none;stroke-opacity:1" />
      <path
         d="m 1341.3,1038.97 1.45,-0.05 v 1.58 h -3 v -1.6 z m 1.45,136.86 -1.55,-0.05 -1.45,0.05 v -1.6 h 3 z"
         stroke="#666666"
         stroke-width="0.05"
         fill="#666666"
         id="path1365" />
      <path
         d="m 610.48,965.77 c 0,40.45 -32.8,73.25 -73.24,73.25 -40.45,0 -73.24,-32.8 -73.24,-73.25 0,-40.45 32.8,-73.24 73.24,-73.24 40.45,0 73.24,32.8 73.24,73.24 z"
         stroke="#666666"
         stroke-width="3"
         fill="#ffffff"
         id="path1367"
         style="stroke:#00070a;stroke-width:7.55906;stroke-miterlimit:4;stroke-dasharray:none;stroke-opacity:1;fill:none" />
      <path
         d="m 232.4,965.77 c 0,40.45 -32.8,73.25 -73.25,73.25 -40.45,0 -73.24,-32.8 -73.24,-73.25 0,-40.45 32.8,-73.24 73.25,-73.24 40.45,0 73.24,32.8 73.24,73.24 z"
         stroke="#666666"
         stroke-width="3"
         fill="#ffffff"
         id="path1371"
         style="stroke:#00070a;stroke-width:7.55906;stroke-miterlimit:4;stroke-dasharray:none;stroke-opacity:1;fill:none" />
      <path
         d="m 817.08,1550.56 c 0,22.65 -19.5,41 -43.54,41 -24.05,0 -43.54,-18.35 -43.54,-41 0,-22.66 19.5,-41.02 43.54,-41.02 24.05,0 43.54,18.36 43.54,41.02 z"
         stroke="#666666"
         stroke-width="3"
         fill="#ffffff"
         id="path1375"
         style="stroke:#00070a;stroke-width:7.55906;stroke-miterlimit:4;stroke-dasharray:none;stroke-opacity:1;fill:none" />
      <text
         xml:space="preserve"
         style="font-style:normal;font-weight:normal;font-size:64px;line-height:1.25;font-family:sans-serif;fill:#000000;fill-opacity:1;stroke:none"
         x="1216.7357"
         y="1655.0339"
         id="text1825-8-24-9"><tspan
           sodipodi:role="line"
           id="tspan1823-2-8-9"
           x="1216.7357"
           y="1655.0339"
           style="font-style:normal;font-variant:normal;font-weight:bold;font-stretch:normal;font-size:64px;font-family:'Roboto Condensed';-inkscape-font-specification:'Roboto Condensed,  Bold'">Relationship</tspan></text>
      <defs
         id="defs1523">
        <path
           d="m 240,-174 c 0,40 -23,61 -54,70 L 253,0 H 194 L 137,-94 H 76 V 0 H 24 v -248 c 93,4 217,-23 216,74 z m -164,40 c 48,-2 112,12 112,-38 0,-48 -66,-32 -112,-35 v 73"
           id="path1677" />
        <path
           d="m 110,-194 c 64,0 96,36 96,99 0,64 -35,99 -97,99 -61,0 -95,-36 -95,-99 0,-62 34,-99 96,-99 z m -1,164 c 35,0 45,-28 45,-65 0,-40 -10,-65 -43,-65 -34,0 -45,26 -45,65 0,36 10,65 43,65"
           id="path1679" />
        <path
           d="M 115,-3 C 79,11 28,4 28,-45 V -157 H 4 v -33 h 27 l 15,-45 h 31 v 45 h 36 v 33 H 77 v 99 c -1,23 16,31 38,25 v 30"
           id="path1681" />
        <g
           id="g1691">
          <use
             transform="scale(0.09938272)"
             xlink:href="#k"
             id="use1683"
             x="0"
             y="0"
             width="100%"
             height="100%" />
          <use
             transform="matrix(0.09938272,0,0,0.09938272,25.740123,0)"
             xlink:href="#l"
             id="use1685"
             x="0"
             y="0"
             width="100%"
             height="100%" />
          <use
             transform="matrix(0.09938272,0,0,0.09938272,47.504938,0)"
             xlink:href="#l"
             id="use1687"
             x="0"
             y="0"
             width="100%"
             height="100%" />
          <use
             transform="matrix(0.09938272,0,0,0.09938272,69.269753,0)"
             xlink:href="#m"
             id="use1689"
             x="0"
             y="0"
             width="100%"
             height="100%" />
        </g>
        <path
           d="M 230,0 232,-204 168,0 H 131 L 68,-204 70,0 H 24 v -248 h 70 l 56,185 57,-185 h 69 V 0 h -46"
           id="path1693" />
        <path
           d="M 133,-34 C 117,-15 103,5 69,4 32,3 11,-16 11,-54 c -1,-60 55,-63 116,-61 1,-26 -3,-47 -28,-47 -18,1 -26,9 -28,27 l -52,-2 c 7,-38 36,-58 82,-57 46,1 74,22 75,68 l 1,82 c -1,14 12,18 25,15 v 27 c -30,8 -71,5 -69,-32 z m -48,3 c 29,0 43,-24 42,-57 -32,0 -66,-3 -65,30 0,17 8,27 23,27"
           id="path1695" />
        <path
           d="m 220,-157 c -53,9 -28,100 -34,157 h -49 v -107 c 1,-27 -5,-49 -29,-50 C 55,-147 81,-57 75,0 H 25 l -1,-190 h 47 c 2,12 -1,28 3,38 10,-53 101,-56 108,0 13,-22 24,-43 59,-42 82,1 51,116 57,194 h -49 v -107 c -1,-25 -5,-48 -29,-50"
           id="path1697" />
        <path
           d="M 25,0 V -261 H 75 V 0 H 25"
           id="path1699" />
        <g
           id="g1713">
          <use
             transform="scale(0.09938272)"
             xlink:href="#n"
             id="use1701"
             x="0"
             y="0"
             width="100%"
             height="100%" />
          <use
             transform="matrix(0.09938272,0,0,0.09938272,29.715432,0)"
             xlink:href="#o"
             id="use1703"
             x="0"
             y="0"
             width="100%"
             height="100%" />
          <use
             transform="matrix(0.09938272,0,0,0.09938272,49.591975,0)"
             xlink:href="#p"
             id="use1705"
             x="0"
             y="0"
             width="100%"
             height="100%" />
          <use
             transform="matrix(0.09938272,0,0,0.09938272,81.394444,0)"
             xlink:href="#p"
             id="use1707"
             x="0"
             y="0"
             width="100%"
             height="100%" />
          <use
             transform="matrix(0.09938272,0,0,0.09938272,113.19691,0)"
             xlink:href="#o"
             id="use1709"
             x="0"
             y="0"
             width="100%"
             height="100%" />
          <use
             transform="matrix(0.09938272,0,0,0.09938272,133.07346,0)"
             xlink:href="#q"
             id="use1711"
             x="0"
             y="0"
             width="100%"
             height="100%" />
        </g>
        <path
           d="M 185,-48 C 172,-18 148,5 103,4 43,2 14,-33 14,-96 c 0,-63 30,-98 90,-98 62,0 83,45 84,108 H 66 c 0,31 8,55 39,56 18,0 30,-7 34,-22 z m -45,-69 c 5,-46 -57,-63 -70,-21 -2,6 -4,13 -4,21 h 74"
           id="path1715" />
        <path
           d="m 135,-194 c 53,0 70,44 70,98 0,56 -19,98 -73,100 -31,1 -45,-17 -59,-34 3,33 2,69 2,105 H 25 l -1,-265 h 48 c 2,10 0,23 3,31 11,-24 29,-35 60,-35 z m -21,164 c 33,0 39,-31 40,-66 0,-38 -9,-64 -40,-64 -56,0 -55,130 0,130"
           id="path1717" />
        <path
           d="m 25,-224 v -37 h 50 v 37 z M 25,0 V -190 H 75 V 0 H 25"
           id="path1719" />
        <g
           id="g1735">
          <use
             transform="scale(0.09938272)"
             xlink:href="#k"
             id="use1721"
             x="0"
             y="0"
             width="100%"
             height="100%" />
          <use
             transform="matrix(0.09938272,0,0,0.09938272,25.740123,0)"
             xlink:href="#r"
             id="use1723"
             x="0"
             y="0"
             width="100%"
             height="100%" />
          <use
             transform="matrix(0.09938272,0,0,0.09938272,45.616667,0)"
             xlink:href="#s"
             id="use1725"
             x="0"
             y="0"
             width="100%"
             height="100%" />
          <use
             transform="matrix(0.09938272,0,0,0.09938272,67.381481,0)"
             xlink:href="#m"
             id="use1727"
             x="0"
             y="0"
             width="100%"
             height="100%" />
          <use
             transform="matrix(0.09938272,0,0,0.09938272,79.208025,0)"
             xlink:href="#t"
             id="use1729"
             x="0"
             y="0"
             width="100%"
             height="100%" />
          <use
             transform="matrix(0.09938272,0,0,0.09938272,89.146296,0)"
             xlink:href="#q"
             id="use1731"
             x="0"
             y="0"
             width="100%"
             height="100%" />
          <use
             transform="matrix(0.09938272,0,0,0.09938272,99.084568,0)"
             xlink:href="#r"
             id="use1733"
             x="0"
             y="0"
             width="100%"
             height="100%" />
        </g>
        <path
           d="m 212,-179 c -10,-28 -35,-45 -73,-45 -59,0 -87,40 -87,99 0,60 29,101 89,101 43,0 62,-24 78,-52 l 27,14 C 228,-24 195,4 139,4 59,4 22,-46 18,-125 c -6,-104 99,-153 187,-111 19,9 31,26 39,46"
           id="path1737" />
        <path
           d="M 24,0 V -261 H 56 V 0 H 24"
           id="path1739" />
        <path
           d="M 141,-36 C 126,-15 110,5 73,4 37,3 15,-17 15,-53 c -1,-64 63,-63 125,-63 3,-35 -9,-54 -41,-54 -24,1 -41,7 -42,31 l -33,-3 c 5,-37 33,-52 76,-52 45,0 72,20 72,64 v 82 c -1,20 7,32 28,27 V -1 C 169,8 139,-3 141,-36 Z M 48,-53 c 0,20 12,33 32,33 41,-3 63,-29 60,-74 -43,2 -92,-5 -92,41"
           id="path1741" />
        <path
           d="m 135,-143 c -3,-34 -86,-38 -87,0 15,53 115,12 119,90 4,78 -150,74 -157,8 l 28,-5 c 4,36 97,45 98,0 -10,-56 -113,-15 -118,-90 -4,-57 82,-63 122,-42 12,7 21,19 24,35"
           id="path1743" />
        <path
           d="m 24,-231 v -30 h 32 v 30 z M 24,0 V -190 H 56 V 0 H 24"
           id="path1745" />
        <path
           d="m 101,-234 c -31,-9 -42,10 -38,44 h 38 v 23 H 63 V 0 H 32 V -167 H 5 v -23 h 27 c -7,-52 17,-82 69,-68 v 24"
           id="path1747" />
        <path
           d="m 100,-194 c 63,0 86,42 84,106 H 49 c 0,40 14,67 53,68 26,1 43,-12 49,-29 l 28,8 C 168,-13 142,4 102,4 44,4 14,-33 15,-96 c 1,-61 26,-98 85,-98 z m 52,81 c 6,-60 -76,-77 -97,-28 -3,7 -6,17 -6,28 h 103"
           id="path1749" />
        <path
           d="M 114,-163 C 36,-179 61,-72 57,0 H 25 l -1,-190 h 30 c 1,12 -1,29 2,39 6,-27 23,-49 58,-41 v 29"
           id="path1751" />
        <g
           id="g1773">
          <use
             transform="scale(0.09938272)"
             xlink:href="#u"
             id="use1753"
             x="0"
             y="0"
             width="100%"
             height="100%" />
          <use
             transform="matrix(0.09938272,0,0,0.09938272,25.740123,0)"
             xlink:href="#v"
             id="use1755"
             x="0"
             y="0"
             width="100%"
             height="100%" />
          <use
             transform="matrix(0.09938272,0,0,0.09938272,33.591358,0)"
             xlink:href="#w"
             id="use1757"
             x="0"
             y="0"
             width="100%"
             height="100%" />
          <use
             transform="matrix(0.09938272,0,0,0.09938272,53.467901,0)"
             xlink:href="#x"
             id="use1759"
             x="0"
             y="0"
             width="100%"
             height="100%" />
          <use
             transform="matrix(0.09938272,0,0,0.09938272,71.35679,0)"
             xlink:href="#x"
             id="use1761"
             x="0"
             y="0"
             width="100%"
             height="100%" />
          <use
             transform="matrix(0.09938272,0,0,0.09938272,89.245679,0)"
             xlink:href="#y"
             id="use1763"
             x="0"
             y="0"
             width="100%"
             height="100%" />
          <use
             transform="matrix(0.09938272,0,0,0.09938272,97.096914,0)"
             xlink:href="#z"
             id="use1765"
             x="0"
             y="0"
             width="100%"
             height="100%" />
          <use
             transform="matrix(0.09938272,0,0,0.09938272,107.03519,0)"
             xlink:href="#y"
             id="use1767"
             x="0"
             y="0"
             width="100%"
             height="100%" />
          <use
             transform="matrix(0.09938272,0,0,0.09938272,114.88642,0)"
             xlink:href="#A"
             id="use1769"
             x="0"
             y="0"
             width="100%"
             height="100%" />
          <use
             transform="matrix(0.09938272,0,0,0.09938272,134.76296,0)"
             xlink:href="#B"
             id="use1771"
             x="0"
             y="0"
             width="100%"
             height="100%" />
        </g>
        <g
           id="g1785">
          <use
             transform="scale(0.09938272)"
             xlink:href="#u"
             id="use1775"
             x="0"
             y="0"
             width="100%"
             height="100%" />
          <use
             transform="matrix(0.09938272,0,0,0.09938272,25.740123,0)"
             xlink:href="#v"
             id="use1777"
             x="0"
             y="0"
             width="100%"
             height="100%" />
          <use
             transform="matrix(0.09938272,0,0,0.09938272,33.591358,0)"
             xlink:href="#w"
             id="use1779"
             x="0"
             y="0"
             width="100%"
             height="100%" />
          <use
             transform="matrix(0.09938272,0,0,0.09938272,53.467901,0)"
             xlink:href="#x"
             id="use1781"
             x="0"
             y="0"
             width="100%"
             height="100%" />
          <use
             transform="matrix(0.09938272,0,0,0.09938272,71.35679,0)"
             xlink:href="#x"
             id="use1783"
             x="0"
             y="0"
             width="100%"
             height="100%" />
        </g>
        <path
           d="m 67,-125 c 0,53 21,87 73,88 37,1 54,-22 65,-47 l 45,17 C 233,-25 199,4 140,4 58,4 20,-42 15,-125 8,-235 124,-281 211,-232 c 18,10 29,29 36,50 l -46,12 c -8,-25 -30,-41 -62,-41 -52,0 -71,34 -72,86"
           id="path1787" />
        <g
           id="g1795">
          <use
             transform="scale(0.09938272)"
             xlink:href="#C"
             id="use1789"
             x="0"
             y="0"
             width="100%"
             height="100%" />
          <use
             transform="matrix(0.09938272,0,0,0.09938272,25.740123,0)"
             xlink:href="#o"
             id="use1791"
             x="0"
             y="0"
             width="100%"
             height="100%" />
          <use
             transform="matrix(0.09938272,0,0,0.09938272,45.616667,0)"
             xlink:href="#m"
             id="use1793"
             x="0"
             y="0"
             width="100%"
             height="100%" />
        </g>
        <path
           d="M 275,0 H 214 L 170,-196 126,0 H 64 L 0,-248 h 53 l 44,199 45,-199 h 58 l 43,199 44,-199 h 52"
           id="path1797" />
        <path
           d="m 121,-226 c -27,-7 -43,5 -38,36 h 38 v 33 H 83 V 0 H 34 V -157 H 6 v -33 h 28 c -9,-59 32,-81 87,-68 v 32"
           id="path1799" />
        <g
           id="g1809">
          <use
             transform="scale(0.09938272)"
             xlink:href="#D"
             id="use1801"
             x="0"
             y="0"
             width="100%"
             height="100%" />
          <use
             transform="matrix(0.09938272,0,0,0.09938272,32.995062,0)"
             xlink:href="#l"
             id="use1803"
             x="0"
             y="0"
             width="100%"
             height="100%" />
          <use
             transform="matrix(0.09938272,0,0,0.09938272,54.759877,0)"
             xlink:href="#q"
             id="use1805"
             x="0"
             y="0"
             width="100%"
             height="100%" />
          <use
             transform="matrix(0.09938272,0,0,0.09938272,64.698148,0)"
             xlink:href="#E"
             id="use1807"
             x="0"
             y="0"
             width="100%"
             height="100%" />
        </g>
        <path
           d="m 24,-248 c 120,-7 223,5 221,122 C 244,-46 201,0 124,0 H 24 Z m 52,208 c 74,7 117,-18 117,-86 0,-67 -45,-88 -117,-82 v 168"
           id="path1811" />
        <path
           d="M 195,-6 C 206,82 75,100 31,46 27,40 25,33 23,25 l 49,-6 c 3,16 16,24 34,25 40,0 42,-37 40,-79 C 135,-13 116,0 85,0 32,0 15,-43 15,-97 c 0,-56 18,-96 73,-97 30,0 46,14 59,34 l 2,-30 h 47 z m -90,-29 c 32,0 41,-27 41,-63 0,-35 -9,-62 -40,-62 -32,0 -39,29 -40,63 0,36 9,62 39,62"
           id="path1813" />
        <g
           id="g1821">
          <use
             transform="scale(0.09938272)"
             xlink:href="#F"
             id="use1815"
             x="0"
             y="0"
             width="100%"
             height="100%" />
          <use
             transform="matrix(0.09938272,0,0,0.09938272,25.740123,0)"
             xlink:href="#l"
             id="use1817"
             x="0"
             y="0"
             width="100%"
             height="100%" />
          <use
             transform="matrix(0.09938272,0,0,0.09938272,47.504938,0)"
             xlink:href="#G"
             id="use1819"
             x="0"
             y="0"
             width="100%"
             height="100%" />
        </g>
        <path
           d="M 24,0 V -248 H 76 V -40 H 209 V 0 H 24"
           id="path1823" />
        <path
           d="m 12,0 v -35 l 95,-120 H 19 v -35 h 142 v 35 L 67,-36 H 170 V 0 H 12"
           id="path1825" />
        <path
           d="m 135,-150 c -39,-12 -60,13 -60,57 V 0 H 25 l -1,-190 h 47 c 2,13 -1,29 3,40 6,-28 27,-53 61,-41 v 41"
           id="path1827" />
        <path
           d="m 88,-194 c 31,-1 46,15 58,34 l -1,-101 h 50 l 1,261 h -48 c -2,-10 0,-23 -3,-31 C 134,-8 116,4 84,4 32,4 16,-41 15,-95 c 0,-56 19,-97 73,-99 z m 17,164 c 33,0 40,-30 41,-66 1,-37 -9,-64 -41,-64 -32,0 -38,30 -39,65 0,43 13,65 39,65"
           id="path1829" />
        <g
           id="g1843">
          <use
             transform="scale(0.09938272)"
             xlink:href="#H"
             id="use1831"
             x="0"
             y="0"
             width="100%"
             height="100%" />
          <use
             transform="matrix(0.09938272,0,0,0.09938272,21.764815,0)"
             xlink:href="#t"
             id="use1833"
             x="0"
             y="0"
             width="100%"
             height="100%" />
          <use
             transform="matrix(0.09938272,0,0,0.09938272,31.703086,0)"
             xlink:href="#I"
             id="use1835"
             x="0"
             y="0"
             width="100%"
             height="100%" />
          <use
             transform="matrix(0.09938272,0,0,0.09938272,49.591975,0)"
             xlink:href="#o"
             id="use1837"
             x="0"
             y="0"
             width="100%"
             height="100%" />
          <use
             transform="matrix(0.09938272,0,0,0.09938272,69.468519,0)"
             xlink:href="#J"
             id="use1839"
             x="0"
             y="0"
             width="100%"
             height="100%" />
          <use
             transform="matrix(0.09938272,0,0,0.09938272,83.382099,0)"
             xlink:href="#K"
             id="use1841"
             x="0"
             y="0"
             width="100%"
             height="100%" />
        </g>
        <path
           d="m 169,-182 c -1,-43 -94,-46 -97,-3 18,66 151,10 154,114 3,95 -165,93 -204,36 -6,-8 -10,-19 -12,-30 l 50,-8 c 3,46 112,56 116,5 -17,-69 -150,-10 -154,-114 -4,-87 153,-88 188,-35 5,8 8,18 10,28"
           id="path1845" />
        <path
           d="m 135,-194 c 87,-1 58,113 63,194 h -50 c -7,-57 23,-157 -34,-157 -59,0 -34,97 -39,157 H 25 l -1,-190 h 47 c 2,12 -1,28 3,38 12,-26 28,-41 61,-42"
           id="path1847" />
        <path
           d="M 147,0 96,-86 75,-71 V 0 H 25 v -261 h 50 v 150 l 67,-79 h 53 l -66,74 72,116 h -54"
           id="path1849" />
        <g
           id="g1861">
          <use
             transform="scale(0.09938272)"
             xlink:href="#L"
             id="use1851"
             x="0"
             y="0"
             width="100%"
             height="100%" />
          <use
             transform="matrix(0.09938272,0,0,0.09938272,23.851852,0)"
             xlink:href="#M"
             id="use1853"
             x="0"
             y="0"
             width="100%"
             height="100%" />
          <use
             transform="matrix(0.09938272,0,0,0.09938272,45.616667,0)"
             xlink:href="#o"
             id="use1855"
             x="0"
             y="0"
             width="100%"
             height="100%" />
          <use
             transform="matrix(0.09938272,0,0,0.09938272,65.49321,0)"
             xlink:href="#N"
             id="use1857"
             x="0"
             y="0"
             width="100%"
             height="100%" />
          <use
             transform="matrix(0.09938272,0,0,0.09938272,85.369753,0)"
             xlink:href="#r"
             id="use1859"
             x="0"
             y="0"
             width="100%"
             height="100%" />
        </g>
      </defs>
      <path
         style="fill:#00070a;fill-opacity:1;stroke-width:0.0156714"
         d="m 999.6818,1021.8094 c -0.67,-0.059 -1.3827,-0.2587 -2.2328,-0.6266 -0.5409,-0.2341 -0.8727,-0.4613 -1.1029,-0.7552 -0.2518,-0.3215 -0.354,-0.6263 -0.3544,-1.0571 -6e-4,-0.5967 0.2269,-1.2257 0.7213,-1.9948 0.3892,-0.6053 1.0035,-1.3355 1.5521,-1.845 0.5142,-0.4776 0.6159,-0.5928 0.7407,-0.8394 0.1634,-0.3227 0.239,-0.634 0.4368,-1.7977 0.013,-0.078 0.03,-0.1747 0.038,-0.2139 0.01,-0.039 0.021,-0.1176 0.031,-0.1742 0.031,-0.1863 0.2137,-1.1259 0.2849,-1.4651 0.1042,-0.4972 0.3121,-1.3698 0.5376,-2.2571 0.5065,-1.9924 0.5916,-2.4529 0.5677,-3.0727 -0.045,-1.1709 -0.5726,-1.8186 -2.3281,-2.8593 -0.8778,-0.5204 -1.2231,-0.7279 -1.5893,-0.9552 -1.5738,-0.977 -2.9042,-1.9397 -4.109,-2.9735 -1.2327,-1.0578 -2.3822,-2.2403 -3.3402,-3.4361 -0.3298,-0.4117 -0.3876,-0.4673 -0.4862,-0.4673 -0.1342,0 -0.1933,0.2358 -0.1924,0.7682 0,0.6128 0.058,1.2758 0.2816,3.2549 0.082,0.7304 0.1042,0.9271 0.1329,1.1959 0.2681,2.5061 0.2996,3.5935 0.1371,4.7279 -0.1738,1.213 -0.4995,2.2021 -0.8855,2.6886 -0.1571,0.1981 -1.0555,1.1834 -1.7655,1.9364 -0.5799,0.615 -1.8588,1.9181 -2.3169,2.3608 -1.7376,1.6791 -3.5358,3.2034 -5.2408,4.4422 -2.5808,1.8751 -5.1544,2.9708 -7.59,3.2312 -0.6684,0.072 -2.0651,0.03 -3.008,-0.089 -1.2846,-0.1625 -2.2079,-0.4898 -2.6833,-0.9511 -0.2793,-0.2711 -0.4004,-0.5418 -0.3988,-0.8921 10e-4,-0.2873 0.087,-0.7238 0.2043,-1.043 0.3294,-0.8948 0.9835,-1.5085 1.9685,-1.8471 0.5677,-0.1951 1.2014,-0.2856 1.9995,-0.2856 0.6217,0 1.0845,0.04 1.6775,0.1461 0.1493,0.027 0.2864,0.049 0.3048,0.05 0.034,0 0.5118,-0.3656 1.308,-1.0048 2.7594,-2.215 4.7254,-4.0196 5.4556,-5.0075 0.5336,-0.722 0.4984,-1.5156 -0.1153,-2.6042 -0.4174,-0.7401 -0.9557,-1.463 -2.6112,-3.5065 -1.4867,-1.8352 -2.6305,-3.3148 -3.3734,-4.3637 -1.6405,-2.3163 -2.7737,-4.6256 -3.2406,-6.60391 -0.1509,-0.63925 -0.2216,-1.13859 -0.2353,-1.66011 0,-0.18948 -0.01,-0.3445 -0.012,-0.3445 0,0 -0.058,0.014 -0.1256,0.0311 -0.9199,0.23378 -2.4054,0.31164 -3.7894,0.19861 -1.95075,-0.1593 -4.00071,-0.64021 -6.12468,-1.43682 -1.28552,-0.48214 -2.83265,-1.1945 -4.06246,-1.8705 l -0.27135,-0.14916 -0.10078,0.0557 c -0.40764,0.22529 -0.88281,0.63349 -1.18385,1.01697 -0.64265,0.81866 -1.04451,1.92017 -1.21058,3.31828 -0.1028,0.86535 -0.11491,2.11894 -0.0315,3.26284 0.0948,1.3001 0.22014,2.2843 0.62548,4.9101 0.11209,0.7261 0.35216,2.338 0.41177,2.7646 0.0127,0.091 0.0409,0.2868 0.0625,0.4349 0.0438,0.2993 0.20557,1.4524 0.25552,1.8215 0.0395,0.2915 0.0968,0.8187 0.13963,1.2829 0.0177,0.1917 0.0386,0.4091 0.0466,0.4831 0.0606,0.5649 0.2096,2.2813 0.27917,3.2154 0.08,1.0739 0.14291,2.1968 0.17081,3.049 0.0219,0.6687 0.0612,1.6427 0.0703,1.7423 0.004,0.044 0.0178,0.2716 0.0306,0.5068 0.0129,0.2352 0.0304,0.5381 0.0391,0.6732 0.13595,2.1267 0.0462,3.2852 -0.31057,4.0079 -0.4193,0.8495 -1.63837,1.6121 -3.33803,2.0882 -1.56344,0.4379 -3.353,0.5519 -4.61604,0.2941 -0.92525,-0.1889 -1.55076,-0.576 -1.75366,-1.0854 -0.0694,-0.1743 -0.0915,-0.3169 -0.0915,-0.5915 0,-1.0637 0.47256,-1.9383 1.41674,-2.6222 0.49965,-0.362 1.20055,-0.6867 1.84718,-0.8559 0.0768,-0.02 0.14571,-0.042 0.15323,-0.049 0.008,-0.01 0.006,-0.075 -0.004,-0.1598 -0.01,-0.081 -0.0315,-0.2688 -0.0488,-0.4169 -0.0851,-0.7301 -0.17545,-1.4345 -0.28038,-2.1858 -0.0753,-0.5393 -0.15986,-1.1235 -0.17648,-1.2196 -0.005,-0.026 -0.0613,-0.3753 -0.12621,-0.7761 -0.13442,-0.83 -0.14181,-0.8739 -0.20551,-1.2196 -0.0257,-0.1394 -0.0649,-0.3532 -0.0872,-0.4752 -0.19971,-1.0935 -0.35901,-1.7466 -0.64322,-2.6372 -0.25168,-0.7885 -0.73916,-2.0768 -1.3605,-3.5954 -0.58796,-1.437 -0.66207,-1.6079 -1.14412,-2.6372 -1.49294,-3.188 -2.06135,-4.4556 -2.71313,-6.0505 -0.31081,-0.7606 -0.42083,-1.011 -0.67519,-1.5364 -0.68462,-1.4143 -1.54155,-2.74999 -2.4947,-3.88849 -0.77817,-0.92949 -1.75331,-1.86012 -2.47096,-2.35817 l -0.074,-0.0513 -0.0911,0.19724 c -0.0501,0.10848 -0.0961,0.21406 -0.10227,0.23461 -0.0263,0.0882 -0.3026,0.82952 -0.44487,1.19363 -0.6373,1.63095 -1.4268,3.41351 -2.68329,6.05848 -0.45763,0.9633 -1.55552,3.1832 -2.27166,4.5933 -1.65077,3.2503 -3.81419,7.3236 -5.63639,10.6121 -0.55823,1.0075 -0.47385,0.8764 -1.11299,1.7293 -0.50983,0.6805 -1.00105,1.3935 -1.89862,2.7559 -1.11852,1.6978 -1.77839,2.5556 -2.4964,3.2451 -0.95091,0.9132 -1.97835,1.4501 -3.16481,1.6535 -0.42278,0.072 -0.68885,0.093 -1.20001,0.092 -1.73161,0 -3.14539,-0.3796 -4.0392,-1.0796 -0.88479,-0.693 -1.24652,-1.7189 -0.99471,-2.8213 0.14757,-0.6461 0.54835,-1.335 1.02464,-1.7614 0.73905,-0.6616 1.72397,-0.8943 2.99366,-0.7075 0.28193,0.041 0.50612,0.09 0.95635,0.2053 0.20193,0.052 0.39337,0.096 0.42543,0.098 0.0532,0 0.0614,0 0.0938,-0.06 0.0685,-0.1221 0.26346,-0.5981 0.7754,-1.8928 0.22207,-0.5616 0.8849,-2.2287 1.04853,-2.6372 0.35498,-0.8861 1.00824,-2.4879 1.43731,-3.5242 0.13906,-0.3358 0.24298,-0.6317 0.5202,-1.4809 1.26869,-3.8865 1.96051,-6.4279 2.12342,-7.8003 0.0751,-0.633 -0.0105,-1.6049 -0.27838,-3.1603 -0.18937,-1.09948 -0.64297,-3.10642 -1.13838,-5.03684 -0.24831,-0.96752 -0.26989,-1.04923 -0.72588,-2.74807 -0.19992,-0.74483 -0.45411,-1.6928 -0.56488,-2.10659 -0.11076,-0.41379 -0.2435,-0.88065 -0.29497,-1.03746 -0.49554,-1.50952 -1.28925,-2.89278 -2.37206,-4.13398 -1.01669,-1.16542 -2.33794,-2.21862 -3.59523,-2.86586 -0.36871,-0.1898 -0.57749,-0.2739 -0.92259,-0.37161 -0.3922,-0.11105 -0.5469,-0.16143 -1.31022,-0.42664 -0.96894,-0.33667 -1.44788,-0.4599 -2.13201,-0.54858 -0.69717,-0.0904 -1.59174,-0.0722 -2.39561,0.0487 -0.74381,0.11187 -1.27914,0.23655 -2.37236,0.55251 -0.4112,0.11885 -0.59859,0.16595 -0.94929,0.2386 -1.08194,0.22413 -2.0494,0.23528 -2.86746,0.0331 -0.81098,-0.20049 -1.49082,-0.64676 -1.86741,-1.22581 l -0.085,-0.13068 -0.0731,-2.8e-4 c -0.21841,-8.7e-4 -0.58888,-0.0859 -0.87165,-0.20001 -1.02404,-0.41331 -2.04924,-1.48787 -2.80478,-2.93979 -0.0783,-0.15051 -0.10332,-0.18612 -0.13069,-0.18613 -0.0788,0 -0.23341,-0.0962 -0.35138,-0.2186 -0.23854,-0.24753 -0.40732,-0.61368 -0.48332,-1.04851 -0.0336,-0.19201 -0.0254,-0.59184 0.0163,-0.79195 0.0883,-0.42448 0.1525,-0.55244 0.93416,-1.86108 0.66268,-1.10945 1.0241,-1.78015 1.33677,-2.48069 0.3418,-0.7658 0.5287,-1.32003 0.94967,-2.8161 0.40767,-1.44886 0.57291,-1.93026 0.87537,-2.5504 0.22095,-0.45301 0.39353,-0.73299 0.80836,-1.31139 0.93023,-1.29703 1.77704,-2.20859 2.73911,-2.94854 0.29028,-0.22326 0.40393,-0.32802 0.53251,-0.49089 0.32111,-0.40674 0.52146,-0.90101 0.59339,-1.4639 0.0643,-0.50327 -0.007,-1.0004 -0.20283,-1.41411 -0.0971,-0.20521 -0.17082,-0.3057 -0.41911,-0.57156 -0.42769,-0.45796 -0.90082,-1.05852 -1.43704,-1.82409 -0.71751,-1.0244 -1.18222,-1.89494 -1.11211,-2.08331 0.0251,-0.0674 0.0798,-0.0838 0.17571,-0.0528 0.33837,0.1094 1.93002,1.18812 3.9496,2.6768 0.82352,0.60704 1.25608,0.93683 1.26456,0.96412 0.0245,0.079 0.0703,-0.009 0.11579,-0.22302 0.0703,-0.33052 0.13669,-0.82147 0.23274,-1.72004 0.0538,-0.50344 0.0779,-0.65609 0.1338,-0.84739 0.0534,-0.18281 0.10712,-0.29428 0.18163,-0.37684 0.0962,-0.10666 0.16584,-0.13776 0.30428,-0.13595 0.26234,0.003 0.6146,0.21481 1.22494,0.73512 0.26161,0.22302 0.57941,0.51315 1.37916,1.25906 1.6159,1.50712 2.80401,2.56261 3.62952,3.22438 1.61543,1.29502 3.49634,2.09501 5.59713,2.38058 0.94477,0.12843 2.05337,0.14617 3.03134,0.0485 0.72885,-0.0728 1.39357,-0.19197 2.02348,-0.3628 0.14071,-0.0382 0.32561,-0.0775 0.41089,-0.0874 0.39344,-0.0457 1.73315,-0.26542 2.65921,-0.43616 0.69526,-0.12818 1.0591,-0.19614 1.44589,-0.27007 0.0661,-0.0126 0.17425,-0.0333 0.24034,-0.0458 0.0661,-0.0126 0.27018,-0.0522 0.45354,-0.088 0.18335,-0.0358 0.3857,-0.075 0.44966,-0.0871 0.064,-0.0121 0.207,-0.04 0.31786,-0.062 0.11087,-0.022 0.30973,-0.0611 0.44191,-0.087 0.3895,-0.0763 0.96969,-0.19356 2.28673,-0.46233 2.20138,-0.44923 2.81126,-0.55058 4.27988,-0.71125 0.43975,-0.0481 1.14348,-0.1006 1.69786,-0.12663 0.20894,-0.01 0.52642,-0.0349 0.70551,-0.0559 0.95269,-0.11122 1.70173,-0.16206 2.5119,-0.17049 1.05535,-0.011 1.81743,0.0327 3.00808,0.17238 0.0868,0.0102 0.73785,0.10452 0.97685,0.14154 0.323,0.05 1.25855,0.22611 2.01572,0.37938 0.92157,0.18654 1.56889,0.26261 1.94911,0.22906 0.21992,-0.0194 0.25657,-0.0269 0.53954,-0.10973 0.69108,-0.2024 1.80001,-0.49474 2.43437,-0.64177 0.0469,-0.0109 0.19343,-0.0452 0.32562,-0.0762 1.42031,-0.3334 3.14509,-0.65041 4.5819,-0.84215 0.0938,-0.0125 0.22638,-0.0303 0.2946,-0.0394 1.32185,-0.17784 3.15026,-0.31527 4.4346,-0.33331 0.49879,-0.007 1.17324,-0.008 1.6901,-0.003 0.26437,0.003 0.58534,-0.003 0.71326,-0.0122 0.98269,-0.0727 2.61542,-0.14487 3.97714,-0.17569 0.8241,-0.0186 3.0942,-0.024 3.7006,-0.009 0.2033,0.005 0.5545,0.0133 0.7805,0.0182 1.2054,0.0261 3.2299,0.11644 4.4191,0.19711 0.9652,0.0655 1.5159,0.10541 2.0623,0.14961 0.1577,0.0128 0.381,0.0308 0.4961,0.0401 0.3011,0.0242 1.1741,0.10329 1.9305,0.17481 0.2478,0.0234 0.9495,0.0931 1.0311,0.10242 0.038,0.004 0.2442,0.0259 0.4574,0.0478 0.2132,0.0219 0.4505,0.0471 0.5272,0.0559 0.077,0.009 0.3384,0.0374 0.5815,0.0635 0.243,0.026 0.4977,0.0544 0.5659,0.063 0.068,0.009 0.1903,0.0227 0.2714,0.0312 0.1699,0.018 1.456,0.1664 2.07,0.23884 0.1449,0.0171 0.4519,0.0528 0.6822,0.0794 0.2303,0.0266 0.6629,0.0765 0.9613,0.11096 0.7765,0.0897 0.8637,0.0992 1.7987,0.1966 1.4567,0.15178 2.2759,0.20386 3.2174,0.20456 0.7582,5.5e-4 0.9641,-0.0114 1.3567,-0.0785 2.1289,-0.36414 4.5131,-2.39603 6.8383,-5.82777 2.4119,-3.55967 4.4438,-8.28808 5.1083,-11.88719 0.026,-0.14374 0.055,-0.29342 0.063,-0.33262 0.1373,-0.66878 0.3155,-2.10162 0.3793,-3.04901 0.1623,-2.41287 -0.045,-4.70028 -0.614,-6.75923 -0.9916,-3.59155 -3.0511,-6.57117 -6.1307,-8.86991 -0.9561,-0.71362 -2.3691,-1.54914 -3.1864,-1.88411 -0.828,-0.33933 -1.9723,-0.71828 -2.636,-0.87294 -0.1322,-0.0308 -0.4496,-0.0955 -0.7055,-0.14382 -1.0137,-0.19138 -1.7655,-0.36535 -2.5817,-0.59744 -2.2599,-0.64266 -4.0052,-1.51595 -4.9262,-2.46492 -0.4498,-0.4634 -0.6704,-0.90007 -0.671,-1.32814 -7e-4,-0.44011 0.2142,-0.79166 0.6742,-1.10322 0.8978,-0.60804 2.6092,-0.88145 4.8843,-0.78034 0.5437,0.0242 0.709,0.0353 1.318,0.089 1.1763,0.10375 2.6634,0.31572 4.1594,0.59286 0.7568,0.14021 1.0608,0.20533 1.6319,0.34959 1.8144,0.45833 3.422,1.00819 4.9618,1.69709 2.2409,1.00267 4.2012,2.27409 5.8108,3.7689 2.0293,1.88454 3.5562,4.15997 4.5733,6.81537 0.6359,1.66011 1.0952,3.60394 1.3061,5.52782 0.062,0.56526 0.085,0.82137 0.1247,1.4176 0.03,0.43734 0.062,1.43663 0.062,1.90068 -10e-5,0.84265 -0.063,2.23151 -0.1393,3.06485 -0.1307,1.43166 -0.2946,2.66251 -0.5285,3.96768 -0.017,0.0958 -0.041,0.22768 -0.053,0.29302 -0.097,0.54196 -0.3457,1.74198 -0.4813,2.32116 -0.471,2.0132 -0.9544,3.72671 -1.6294,5.77499 -1.4032,4.25848 -3.3621,8.84334 -5.592,13.08855 -0.4264,0.81164 -1.098,2.03095 -1.3658,2.47965 l -0.065,0.10867 0.1135,0.3531 c 0.8622,2.68301 1.5185,5.42387 1.8482,7.71825 0.2501,1.74072 0.3377,3.01226 0.3203,4.64876 -0.014,1.29877 -0.085,2.23173 -0.2577,3.36579 -0.043,0.2827 -0.062,0.39303 -0.1249,0.74444 -0.2099,1.16431 -0.5445,2.41328 -0.993,3.70633 -0.2159,0.6226 -0.2965,0.83801 -0.7231,1.93236 -0.5823,1.49409 -0.7607,2.02399 -0.8723,2.59096 -0.069,0.3494 -0.076,0.81001 -0.017,1.0807 0.062,0.28446 0.1284,0.43242 0.3424,0.76255 0.2401,0.37047 0.5268,0.91335 1.0377,1.96476 1.8228,3.7517 3.7097,8.63071 4.2785,11.06361 0.211,0.9021 0.2561,1.4316 0.256,3.0015 0,1.0814 -0.023,1.7973 -0.099,3.0727 -0.015,0.2461 -0.02,0.3208 -0.07,0.9741 -0.033,0.4287 -0.096,1.1346 -0.132,1.4651 -0.01,0.078 -0.03,0.2744 -0.047,0.4356 -0.1134,1.0584 -0.3304,2.6062 -0.4586,3.2708 -0.1279,0.6629 -0.4414,1.9617 -0.6748,2.7956 -0.4768,1.7034 -0.8748,2.782 -1.4964,4.0548 -1.0848,2.2216 -2.1383,3.5264 -3.3315,4.1262 -0.346,0.174 -0.6573,0.2764 -1.0388,0.3417 -0.1799,0.031 -0.7506,0.053 -0.9381,0.037 z"
         id="path2384" />
      <path
         style="fill:#00070a;fill-opacity:1;stroke-width:0.0562389"
         d="m 1314.2857,1300.2185 c -3.5751,-0.063 -6.5283,-0.3521 -7.085,-0.6973 -0.1806,-0.1117 -0.1791,-0.1383 0.029,-0.5441 0.095,-0.1842 0.2742,-0.7165 0.3996,-1.1829 0.2606,-0.9688 0.4026,-1.3379 0.6412,-1.6659 0.2707,-0.3722 0.5101,-0.5339 1.4003,-0.9457 0.6166,-0.2852 0.9156,-0.4585 1.1259,-0.6525 0.414,-0.3821 0.4509,-0.5492 0.4057,-1.8415 -0.084,-2.417 -1.1647,-20.4587 -1.2859,-21.4787 -0.2196,-1.845 -0.5713,-3.4241 -1.0624,-4.7705 -0.437,-1.1976 -0.7832,-1.8029 -1.4798,-2.5867 -1.7954,-2.0208 -3.2321,-3.894 -4.4057,-5.7437 -1.0197,-1.6072 -1.3886,-2.3738 -1.6105,-3.3458 -0.077,-0.3387 -0.094,-0.6462 -0.079,-1.4679 0.038,-2.1546 0.018,-2.3727 -0.3499,-3.7091 -0.4506,-1.6383 -1.8302,-4.9461 -2.8866,-6.9224 -0.1024,-0.1913 -0.7461,-1.5328 -1.4306,-2.981 -2.6825,-5.6749 -3.7143,-7.6154 -4.2404,-7.975 -0.3852,-0.2631 -1.5982,-0.3724 -4.1631,-0.3745 -3.2305,0 -4.7505,-0.1976 -6.0134,-0.7714 -2.6679,-1.212 -3.7883,-2.0208 -4.4309,-3.1981 -0.488,-0.894 -0.6498,-1.4707 -0.981,-3.4973 -0.2495,-1.5281 -0.2811,-2.1453 -0.1188,-2.3155 0.1768,-0.1854 1.7742,-0.5032 4.0274,-0.8012 3.2777,-0.4335 4.3967,-0.6251 4.797,-0.8209 0.1101,-0.053 0.3613,-0.3564 0.7164,-0.8624 1.6934,-2.4141 3.1583,-3.8724 4.7339,-4.712 0.3619,-0.193 0.5269,-0.4722 0.7084,-1.1989 0.3013,-1.2063 0.4837,-2.5568 0.6659,-4.9306 0.1561,-2.0374 0.3242,-2.7042 0.7968,-3.1632 0.3697,-0.3587 0.7838,-0.3851 1.4088,-0.09 1.0505,0.4971 2.3322,1.8641 4.0977,4.3707 0.4557,0.647 0.9478,1.3248 1.0935,1.5063 0.1456,0.1817 0.9675,0.9801 1.826,1.774 2.7412,2.5355 7.9419,7.4468 8.57,8.0934 0.9821,1.011 1.5766,1.7341 2.5108,3.0544 2.5756,3.6402 3.5696,4.9288 4.9683,6.4403 1.0687,1.1546 2.1904,2.0644 3.0324,2.4592 0.2299,0.108 0.7924,0.2837 1.301,0.4067 1.0295,0.2489 1.8502,0.5082 4.3939,1.3883 4.7804,1.6541 7.8484,2.4959 11.3909,3.1246 3.5873,0.6368 6.0126,0.8499 10.1476,0.8919 5.0608,0.053 10.5693,-0.1135 15.9007,-0.476 1.9271,-0.131 2.4636,-0.145 3.3828,-0.087 l 0.7226,0.045 0.1382,-0.1413 c 0.1511,-0.1545 0.3597,-0.9341 0.4675,-1.7467 0.076,-0.5743 0.076,-3.2466 0,-4.4159 -0.3083,-4.7324 -1.2245,-8.9783 -2.6384,-12.2253 -0.4279,-0.9829 -1.6359,-3.2758 -2.3917,-4.5402 -0.3236,-0.5415 -1.2027,-1.9694 -1.9532,-3.1727 -1.4621,-2.3443 -2.4939,-4.1994 -2.753,-4.9503 -0.2054,-0.595 -0.2276,-1.1322 -0.056,-1.3536 1.0518,-1.3569 4.4651,1.4164 9.5432,7.7534 2.5269,3.1535 3.3371,4.3107 4.3223,6.1734 2.3203,4.3868 4.1382,10.6485 4.3455,14.9683 0.028,0.5865 0.011,1.0224 -0.082,1.86 -0.226,2.0719 -0.2648,2.8588 -0.266,5.4154 0,2.5009 0.038,3.2865 0.2345,4.7589 0.2607,1.9462 0.688,3.1529 1.2895,3.6401 0.1462,0.1186 0.5044,0.3818 0.796,0.585 1.8484,1.289 3.5875,3.1928 4.1295,4.5209 0.2035,0.4989 0.2287,0.734 0.3701,3.4522 0.314,6.0422 0.6478,9.5606 1.0422,10.9892 0.05,0.1774 0.1754,0.5095 0.2812,0.7384 0.1056,0.2286 0.4328,1.1052 0.7269,1.9476 0.6474,1.8543 0.9259,2.4337 1.3804,2.8724 0.3303,0.3192 0.5851,0.4358 0.9523,0.4368 0.3949,0 0.8889,0.4038 1.1876,0.9695 0.3603,0.6818 0.6047,1.6073 0.9038,3.4241 0.1911,1.1619 0.2236,1.322 0.4053,1.9999 0.4278,1.5966 1.469,4.5269 3.0333,8.535 0.7598,1.9473 0.9497,2.6536 1.1012,4.0996 0.076,0.7212 0.077,2.4689 0,3.0725 -0.067,0.5514 -0.2171,1.1239 -0.3097,1.1918 -0.036,0.026 -0.2617,0.078 -0.5003,0.113 -0.2385,0.035 -1.3832,0.2404 -2.5441,0.4555 -2.0675,0.3837 -2.1287,0.3916 -3.0067,0.3909 -2.1907,0 -3.4764,-0.5663 -3.3233,-1.4587 0.1176,-0.6855 0.77,-1.5449 2.2919,-3.019 0.4038,-0.3911 0.7667,-0.785 0.806,-0.875 0.1748,-0.4009 0.1264,-2.7259 -0.096,-4.6221 -0.185,-1.5741 -0.324,-2.1555 -0.691,-2.8882 -0.6703,-1.3389 -1.6012,-2.6013 -2.6542,-3.5996 -0.8009,-0.7595 -1.295,-1.1181 -2.2989,-1.6696 -2.223,-1.2209 -5.7971,-3.6925 -9.6838,-6.6965 -2.5247,-1.9512 -4.5754,-3.7587 -5.099,-4.4945 -0.1332,-0.187 -0.5063,-0.8148 -0.8292,-1.3948 -0.9425,-1.6926 -1.3453,-2.2571 -2.0884,-2.9247 -0.5114,-0.4596 -0.8106,-0.6594 -1.4092,-0.9412 -1.1683,-0.5496 -2.4636,-0.7489 -4.2556,-0.6548 -1.7138,0.091 -5.0157,0.7007 -11.4907,2.1252 -1.3833,0.3044 -3.0746,0.6766 -3.7585,0.8273 -6.0583,1.3341 -8.0461,1.6681 -10.3977,1.7468 -2.1536,0.073 -3.1312,0.1801 -5.7053,0.6306 -3.1931,0.5586 -3.7192,0.6325 -4.4233,0.621 -1.8184,-0.028 -1.6922,-0.037 -1.9553,0.1272 -0.3074,0.1926 -0.487,0.4542 -0.6713,0.9776 -0.2465,0.6996 -0.3648,1.6212 -0.6973,5.4357 -0.8026,9.2033 -1.3483,14.3521 -1.6788,15.8404 -0.045,0.198 -0.1448,0.5431 -0.2243,0.7665 -0.078,0.2237 -0.3788,1.3049 -0.6656,2.4029 -0.7344,2.8116 -1.1193,3.8972 -1.4623,4.1245 -0.071,0.047 -0.2085,0.081 -0.3048,0.075 -0.096,-0.01 -0.5265,-0.017 -0.9557,-0.024 z"
         id="path3057" />
      <path
         style="fill:#00070a;fill-opacity:1;stroke-width:0.466799"
         d="m 130.93261,1024.6512 c -0.6465,-0.1089 -2.65654,-0.4319 -4.46677,-0.7178 -13.11264,-2.0714 -25.19492,-9.6186 -29.78851,-18.6076 -2.4576,-4.8093 -2.82064,-8.7811 -1.11142,-12.1599 1.57874,-3.12076 6.57535,-7.66936 11.29847,-10.28546 l 2.96747,-1.64363 -0.91418,-0.98702 c -1.3002,-1.4037 -2.43474,-3.76447 -2.43474,-5.06635 0,-2.9186 4.41678,-6.57544 10.05176,-8.32218 2.61985,-0.81214 4.47408,-1.03807 8.5206,-1.03807 4.68153,0 5.81863,0.18483 11.98974,1.94852 3.74974,1.07171 8.10167,2.085 9.67095,2.25168 3.85842,0.40994 7.67108,-0.43887 10.55037,-2.34861 l 2.34762,-1.5572 -0.004,1.9383 c -0.006,2.55501 -2.21712,6.36352 -4.50348,7.75625 l -1.72508,1.05088 4.64459,1.29275 c 5.0936,1.4177 11.29646,2.58358 11.68869,2.19704 0.13706,-0.13508 -0.0477,-1.92181 -0.41054,-3.9705 -0.76594,-4.32441 -2.68532,-8.36613 -6.9231,-14.57808 -5.21513,-7.64444 -10.52187,-20.38864 -11.73851,-28.18981 -0.77763,-4.98618 -0.33842,-12.50772 0.94715,-16.22027 1.45194,-4.19294 4.6326,-9.05443 7.98757,-12.20859 3.01814,-2.83749 10.29419,-6.63053 14.70338,-7.66493 4.61892,-1.08361 6.50998,-0.7482 12.51816,2.22036 3.04786,1.50592 5.80855,3.05512 6.13487,3.44266 0.76958,0.91398 -0.10238,7.62134 -1.12134,8.62566 -0.95282,0.93914 -13.04186,1.76233 -16.27986,1.10855 l -2.3142,-0.46725 -2.29721,2.22879 c -3.02031,2.93036 -4.25653,6.11997 -4.24712,10.95814 0.0142,7.29314 2.27518,12.97025 8.44127,21.19515 4.32564,5.76993 8.9002,14.46826 10.35291,19.68572 0.53229,1.91167 1.29399,5.45288 1.69266,7.86949 0.39868,2.41652 0.77329,4.44143 0.83246,4.49976 0.0592,0.058 1.47381,-0.32425 3.14362,-0.8501 9.69607,-3.05359 21.75939,-0.48117 27.67833,5.90207 2.66101,2.86976 3.80396,5.79177 3.80396,9.72508 0,4.9682 -2.84915,10.9998 -6.65252,14.0833 -4.38,3.551 -12.45074,5.9618 -21.32356,6.3696 -4.88264,0.2245 -6.18028,0.1198 -9.63882,-0.7771 -2.19812,-0.57 -4.44133,-1.1378 -4.98492,-1.2618 -0.64667,-0.1475 -2.14615,0.5061 -4.33743,1.8905 -11.75648,7.4275 -21.61592,10.3933 -35.58043,10.7029 -4.39623,0.097 -8.52212,0.088 -9.16862,-0.021 z m 21.069,-19.437 c 4.63763,-0.6497 7.78235,-1.5731 5.4724,-1.6068 -0.53047,-0.01 -6.00318,-1.6985 -12.16156,-3.757 -12.7555,-4.2639 -15.99218,-5.0431 -20.99465,-5.0544 -8.63943,-0.019 -12.1101,3.3626 -6.94327,6.7662 2.25957,1.4884 7.63433,3.1451 12.4576,3.8397 4.52307,0.6514 16.93033,0.5464 22.16948,-0.1877 z M 198.20478,997.3 c 2.35132,-0.7423 5.61329,-3.6324 4.87698,-4.3211 -0.24516,-0.2293 -2.10248,-0.7749 -4.12736,-1.21245 -3.7417,-0.80855 -6.66732,-0.71973 -10.2109,0.30995 -1.52924,0.4444 -1.7272,0.7099 -2.38491,3.1981 l -0.71723,2.7135 2.14981,0.1903 c 3.23378,0.2865 7.99652,-0.1151 10.41361,-0.8783 z"
         id="path6701" />
      <path
         style="fill:#00070a;fill-opacity:1;stroke-width:0.0848771"
         d="m 794.87879,867.54113 c -0.10687,-0.064 -0.20527,-0.1839 -0.21867,-0.2663 -0.031,-0.1903 0.98545,-1.6469 1.83948,-2.6361 0.38264,-0.4432 2.39486,-2.3222 4.84003,-4.5196 5.80592,-5.2177 6.15437,-5.5477 7.34733,-6.9581 3.50227,-4.1406 5.69971,-9.1212 6.74513,-15.2881 0.79912,-4.7141 0.96171,-9.5681 0.45943,-13.716 -0.3884,-3.2075 -1.23725,-6.8498 -2.59386,-11.1298 -1.04198,-3.2874 -1.80492,-5.3466 -3.83009,-10.3376 -2.93586,-7.2354 -3.40199,-8.4831 -4.76432,-12.7534 -1.42969,-4.4813 -1.8686,-5.9654 -2.56776,-8.6822 -1.68123,-6.5329 -2.56585,-11.87323 -3.13646,-18.93453 -0.1592,-1.97 -0.11765,-7.2619 0.0761,-9.6982 0.0889,-1.1176 0.27484,-3.5978 0.4132,-5.5115 0.28801,-3.9835 0.316,-3.7043 -0.42783,-4.2678 -0.27304,-0.2068 -0.60428,-0.6012 -0.95246,-1.134 -0.65806,-1.007 -1.82304,-2.6641 -2.38788,-3.3966 -0.2975,-0.3858 -0.46004,-0.5306 -0.54988,-0.4898 -0.0701,0.032 -0.40807,0.7356 -0.75096,1.5638 -0.34289,0.8281 -0.79235,1.8259 -0.99881,2.2172 -0.51923,0.9843 -1.46888,2.3297 -1.78791,2.5332 -0.14593,0.093 -0.28326,0.2361 -0.30518,0.3179 -0.0504,0.1879 0.23272,1.2851 0.48221,1.8691 0.10433,0.2442 0.34602,0.7144 0.5371,1.0449 0.49568,0.8574 0.48411,1.1459 -0.13439,3.3511 -0.26498,0.9448 -0.53681,1.7947 -0.60405,1.8886 -0.17252,0.2409 -0.68838,0.152 -0.91318,-0.1575 -0.19001,-0.2616 -0.50836,-1.2171 -0.69171,-2.0763 -0.14886,-0.6974 -0.27768,-2.3121 -0.21877,-2.742 0.0572,-0.4174 -0.10675,-1.4697 -0.29821,-1.9142 -0.22736,-0.5277 -0.73056,-1.1387 -1.12319,-1.3638 -0.23681,-0.1358 -0.48991,-0.1949 -0.83212,-0.1943 -0.8914,0 -1.50743,0.3969 -2.33002,1.4957 -0.881,1.1767 -1.9207,1.965 -2.96643,2.2491 -0.70131,0.1905 -1.95793,0.2287 -2.12502,0.065 -0.32288,-0.3171 -0.0453,-1.0326 0.58814,-1.5162 0.5394,-0.4118 0.64027,-0.5565 0.84947,-1.2196 0.25421,-0.8057 0.86038,-1.4883 1.63121,-1.8367 0.32174,-0.1454 0.81619,-0.4451 1.09878,-0.666 0.50609,-0.3956 1.70912,-1.7902 1.70912,-1.9812 0,-0.1864 -0.23383,-0.6323 -0.40689,-0.7759 -0.0956,-0.079 -0.25757,-0.1441 -0.35995,-0.1441 -0.10238,0 -0.62983,-0.1287 -1.1721,-0.2859 -0.93805,-0.272 -1.00416,-0.3068 -1.36061,-0.7159 -0.41876,-0.4805 -0.98251,-1.4763 -1.50323,-2.6551 -0.41894,-0.9484 -0.39195,-1.1461 0.15652,-1.1461 0.21023,0 0.5591,-0.1123 0.91372,-0.2942 0.67986,-0.3488 1.26638,-0.3922 1.72705,-0.1279 0.16249,0.093 0.53103,0.4376 0.81897,0.7655 0.75907,0.8643 1.72361,1.7033 1.91996,1.6701 0.14276,-0.024 0.16117,-0.083 0.14495,-0.4625 -0.0189,-0.4433 -0.10153,-0.7322 -0.59596,-2.0855 -0.56734,-1.5528 -0.68321,-2.6415 -0.35608,-3.3457 0.16509,-0.3554 0.23195,-0.4186 0.46758,-0.4422 0.22805,-0.023 0.36346,0.052 0.79381,0.4376 0.28537,0.2559 0.61748,0.6183 0.73802,0.8054 0.21252,0.3298 0.21948,0.3764 0.22937,1.5339 0.008,0.9463 0.0354,1.2235 0.13182,1.3377 0.11015,0.1304 0.1404,0.1294 0.32097,-0.011 0.30437,-0.2361 0.61356,-1.0586 1.29913,-3.4556 0.34465,-1.205 0.73552,-2.4531 0.8686,-2.7735 0.3282,-0.7901 1.09525,-1.7529 1.71219,-2.1489 0.44263,-0.2843 0.55262,-0.3157 1.07791,-0.3082 0.71496,0.01 0.81221,0.055 3.33546,1.5439 1.86564,1.1007 3.11425,1.9433 3.60647,2.4337 0.20133,0.2007 0.25562,0.2178 0.36113,0.1141 0.10733,-0.1055 0.11878,-0.3231 0.0844,-1.6031 -0.0478,-1.779 -0.13156,-2.1846 -0.7716,-3.7371 -0.53053,-1.2868 -0.7537,-1.9941 -1.03787,-3.2893 -0.46836,-2.1347 -0.75554,-4.0915 -1.01559,-6.9202 -0.18461,-2.008 -0.49098,-3.284 -1.51365,-6.3042 -1.2669,-3.7414 -3.43556,-8.7556 -3.87275,-8.9543 -0.0673,-0.031 -0.15404,-0.018 -0.19267,0.028 -0.0386,0.046 -0.282,1.0384 -0.54083,2.2059 -0.50134,2.2614 -0.62474,2.6864 -0.91874,3.1637 -0.48717,0.791 -0.91264,0.7952 -2.18114,0.021 -1.02384,-0.6245 -1.57281,-0.7899 -2.34492,-0.7063 -0.80145,0.087 -1.11197,0.305 -1.56446,1.099 -0.59424,1.0429 -1.22927,1.5844 -1.79285,1.5288 -0.23882,-0.024 -0.31224,-0.084 -0.43724,-0.3605 -0.084,-0.1857 -0.24734,-0.3756 -0.37049,-0.4307 -0.12114,-0.054 -0.22026,-0.1593 -0.22026,-0.2338 0,-0.074 0.20182,-0.3365 0.44849,-0.5824 0.71551,-0.7133 2.66747,-3.0097 2.84114,-3.3424 0.11471,-0.2198 0.14518,-0.3881 0.1102,-0.6089 -0.0996,-0.6288 -0.72179,-0.9812 -1.73235,-0.9812 -0.73892,0 -1.25077,-0.2283 -1.89311,-0.8445 -0.27425,-0.263 -0.73053,-0.6284 -1.01397,-0.8119 -0.62777,-0.4063 -0.692,-0.6528 -0.20335,-0.7802 0.1716,-0.044 0.71563,-0.2082 1.20896,-0.3632 0.63669,-0.2002 1.07804,-0.2827 1.52095,-0.2843 0.73432,-0.01 0.97085,0.1158 1.57862,0.7913 0.64986,0.7222 1.15397,0.889 1.63577,0.5411 0.30713,-0.2218 0.39869,-0.5849 0.32443,-1.2866 -0.0977,-0.9229 -0.0712,-2.5215 0.0522,-3.15 0.0648,-0.3302 0.23978,-0.9595 0.38883,-1.3983 0.28422,-0.8369 0.3204,-1.0907 0.19505,-1.3681 -0.0901,-0.1994 -1.3741,-1.243 -2.43026,-1.9754 -1.02723,-0.7122 -1.5965,-1.0027 -3.1876,-1.6267 -0.75073,-0.2944 -1.75104,-0.7415 -2.22293,-0.9937 -0.47188,-0.2521 -1.12032,-0.5525 -1.44098,-0.6673 -0.88425,-0.3167 -1.31349,-0.6153 -1.91971,-1.3354 -0.5028,-0.5972 -0.62199,-0.8194 -1.3181,-2.4577 -1.09374,-2.574 -1.00367,-2.4363 -1.77524,-2.7149 -1.22251,-0.4416 -1.61545,-1.0885 -1.69389,-2.7886 l -0.0478,-1.0372 -0.39563,-0.7706 c -0.65003,-1.266 -1.00641,-2.0966 -1.38516,-3.2283 -0.65333,-1.9522 -0.79313,-2.9678 -0.54619,-3.9678 0.33843,-1.3706 1.16454,-2.1668 2.64862,-2.5528 0.87945,-0.2288 2.87854,-0.2239 4.14692,0.01 l 0.95262,0.1758 0.49033,-0.2637 c 0.33603,-0.1808 0.65729,-0.2758 1.0209,-0.3019 0.78202,-0.056 1.13805,0.1346 1.81643,0.9741 l 0.55307,0.6844 0.57789,0.09 c 2.37196,0.3705 3.2282,0.5945 3.90692,1.0221 0.45488,0.2865 1.23795,1.1723 2.22077,2.5121 0.50014,0.6818 0.59024,0.7594 1.42077,1.2236 1.92248,1.0745 2.57854,1.873 4.36763,5.3163 0.77531,1.4922 1.58403,2.7649 1.89464,2.9819 0.20056,0.14 0.4441,0.1904 1.05566,0.2181 1.34033,0.061 2.02659,-0.3416 2.80958,-1.6471 0.54618,-0.9106 1.48571,-2.1196 2.10078,-2.7033 0.27131,-0.2575 0.51264,-0.5403 0.53629,-0.6286 0.0486,-0.1813 -0.15827,-3.9659 -0.28233,-5.1655 -0.0935,-0.9046 -0.1909,-1.328 -0.33885,-1.4733 -0.14073,-0.1383 -1.24342,-0.3594 -2.26253,-0.4536 -0.86486,-0.08 -1.1289,-0.2118 -1.03072,-0.5147 0.0262,-0.081 0.40168,-0.419 0.83447,-0.7516 0.90784,-0.6976 0.95995,-0.8522 0.34733,-1.0299 -0.98326,-0.2853 -1.35909,-0.611 -1.51957,-1.3167 -0.098,-0.4308 -0.002,-1.0375 0.20655,-1.3109 0.10855,-0.1421 0.20958,-0.1767 0.41838,-0.1435 0.35291,0.056 1.34118,0.6331 1.78582,1.0427 0.18936,0.1745 0.37194,0.3173 0.40574,0.3173 0.0338,0 0.17352,-0.1975 0.31049,-0.4388 0.65596,-1.1555 1.05275,-1.4325 2.0707,-1.4456 0.81794,-0.01 0.88468,-0.054 1.32788,-0.8725 0.47492,-0.8767 0.92968,-1.3347 1.56589,-1.5768 0.73126,-0.2783 1.37245,-0.2411 1.60076,0.093 0.11793,0.1725 0.14109,0.3074 0.1055,0.6149 -0.0672,0.5808 -0.29965,1.0551 -1.11231,2.2696 -0.40158,0.6002 -0.73014,1.1485 -0.73014,1.2184 0,0.2324 0.15959,0.2488 0.51214,0.053 0.60462,-0.3365 1.60595,-0.5933 2.03297,-0.5212 0.35257,0.06 0.42865,0.1249 1.06155,0.9127 0.78915,0.9823 0.83906,1.1703 0.36962,1.3928 -0.24182,0.1145 -0.59545,0.1485 -1.54562,0.1485 -2.04979,0 -2.83718,0.3028 -3.04769,1.172 -0.10818,0.4467 0.0612,0.8297 1.15148,2.6032 2.25064,3.6609 2.74143,4.8611 2.74143,6.7035 0,2.106 -0.73377,3.4716 -2.71373,5.0505 -1.19719,0.9546 -2.0809,1.9338 -2.35288,2.6071 -0.24062,0.5957 -0.2969,1.5245 -0.13274,2.1907 0.0679,0.2756 0.51561,1.3115 0.99489,2.3021 0.47928,0.9906 1.18897,2.5285 1.57708,3.4175 0.38811,0.889 0.86603,1.9072 1.06204,2.2626 0.19601,0.3555 0.93956,1.3592 1.65232,2.2304 1.43381,1.7527 2.25397,2.9904 3.3574,5.0666 1.38981,2.6152 2.1763,4.4266 3.08796,7.112 1.84123,5.4237 2.61708,10.6217 2.36348,15.8347 -0.10341,2.1257 -0.24102,3.2049 -0.74265,5.8246 -0.18968,0.9906 -0.46826,2.4454 -0.61906,3.2327 -0.30681,1.6021 -0.40716,2.4663 -0.48341,4.1631 -0.0734,1.6344 -0.0593,1.6717 0.96923,2.5458 1.8124,1.5404 3.34299,3.0586 4.7366,4.6981 1.38077,1.6244 2.31829,3.1178 3.03676,4.8373 0.52229,1.2501 0.74348,2.0229 0.79581,2.7806 0.0416,0.6023 0.007,0.8904 -0.29037,2.4497 -0.0873,0.4572 -0.18965,1.0391 -0.22742,1.2931 -0.0378,0.254 -0.19447,1.0623 -0.34824,1.7963 -0.23351,1.1144 -0.27959,1.4979 -0.27959,2.3267 0,0.5457 0.032,1.0157 0.0712,1.0444 0.0392,0.029 0.27187,-0.291 0.51712,-0.7104 0.51628,-0.8828 0.92274,-1.4157 1.22123,-1.6013 0.74438,-0.4628 1.77831,0.3228 1.77831,1.351 0,0.6813 -0.61588,1.9407 -1.82543,3.7328 -0.12989,0.1924 -0.19643,0.3678 -0.156,0.4112 0.14402,0.1544 1.28149,-0.075 2.26439,-0.4571 0.93345,-0.3626 1.06251,-0.3897 1.83658,-0.385 0.45791,0.01 0.90399,0.05 0.99127,0.1057 0.0873,0.055 0.23066,0.2932 0.31862,0.5287 0.088,0.2354 0.29998,0.608 0.47118,0.8279 0.34144,0.4387 0.3903,0.7305 0.17475,1.0438 -0.11256,0.1637 -0.395,0.2552 -1.61134,0.5222 -0.81117,0.1781 -1.68448,0.4074 -1.94068,0.5096 -1.2918,0.5153 -2.47327,1.5079 -2.47327,2.0779 0,0.4043 0.24512,0.7489 1.32596,1.86433 1.37836,1.4222 2.50516,2.8374 2.77033,3.4792 0.14036,0.3397 0.23483,0.7496 0.26619,1.1548 0.0371,0.4791 0.10131,0.718 0.27076,1.0076 0.21303,0.364 0.21687,0.3891 0.0936,0.6119 -0.15912,0.2876 -0.1914,0.2875 -0.80506,-0.01 -0.27353,-0.1296 -0.90806,-0.3627 -1.41007,-0.5181 -0.502,-0.1554 -1.04594,-0.3629 -1.20874,-0.4611 -0.42966,-0.2593 -0.86685,-0.7576 -1.29264,-1.4733 -0.59431,-0.9989 -1.83716,-2.683 -2.26517,-3.0694 -0.43141,-0.3894 -1.05885,-0.7079 -1.39448,-0.7079 -0.29018,0 -0.55573,0.2353 -0.68774,0.6094 -0.18418,0.522 -0.13306,0.8616 0.24035,1.5967 0.19057,0.3753 0.36877,0.8582 0.396,1.0732 0.0704,0.5559 -0.10261,1.7636 -0.33262,2.3221 l -0.19574,0.4752 0.19641,0.5869 c 0.33418,0.9987 0.39578,1.3202 0.29547,1.5421 -0.23732,0.5251 -0.8951,0.2609 -1.60219,-0.6435 -0.60746,-0.777 -0.69686,-1.1411 -1.09415,-4.4568 -0.35175,-2.9356 -0.44864,-3.4432 -1.1305,-5.92253 -0.57111,-2.0765 -0.66339,-2.742 -0.65964,-4.7567 0.002,-1.4002 0.0333,-1.8671 0.16988,-2.5862 0.61309,-3.2273 0.80007,-4.5075 0.80007,-5.4778 0,-0.5174 -0.0243,-0.6107 -0.21449,-0.8219 -0.11797,-0.1311 -0.95157,-0.6183 -1.85244,-1.0828 -1.73814,-0.8962 -3.59773,-2.0641 -4.10456,-2.5778 -0.16827,-0.1706 -0.35581,-0.2875 -0.41676,-0.2598 -0.13836,0.063 -0.73924,2.2533 -1.00933,3.6794 -0.29316,1.5478 -0.31861,2.195 -0.16447,4.1819 0.13953,1.7986 0.12672,2.3795 -0.0834,3.7839 -0.46986,3.1396 -0.60791,8.42373 -0.26319,10.07423 0.0424,0.2032 0.10995,0.9306 0.15003,1.6164 0.13141,2.2485 1.06948,7.2627 2.039,10.8989 0.30476,1.143 0.70516,2.6601 0.88977,3.3713 0.64514,2.4853 0.80937,3.0797 2.09247,7.5738 3.43382,12.0269 5.18903,20.3313 5.89565,27.8938 0.69443,7.4321 0.23797,13.737 -1.33947,18.5014 -0.44901,1.3562 -1.94714,4.8892 -2.69034,6.3444 -2.58935,5.0704 -5.65223,9.0533 -8.95109,11.6397 -1.64649,1.2909 -2.92676,2.0399 -5.89231,3.4472 -2.5431,1.2068 -3.78484,1.8993 -5.36044,2.9894 -0.4406,0.3048 -0.96388,0.6123 -1.16285,0.6832 -0.44788,0.1596 -1.01488,0.164 -1.27224,0.01 z"
         id="path7182"
         clip-path="url(#clipPath7488)"
         transform="translate(-262.49146,234.57008)" />
      <text
         xml:space="preserve"
         style="font-style:normal;font-weight:normal;font-size:64px;line-height:1.25;font-family:sans-serif;fill:#000000;fill-opacity:1;stroke:none"
         x="685.07721"
         y="292.31473"
         id="text1825"><tspan
           sodipodi:role="line"
           id="tspan1823"
           x="685.07721"
           y="292.31473"
           style="font-style:normal;font-variant:normal;font-weight:bold;font-stretch:normal;font-size:64px;font-family:'Roboto Condensed';-inkscape-font-specification:'Roboto Condensed,  Bold'">Root</tspan></text>
      <text
         xml:space="preserve"
         style="font-style:normal;font-weight:normal;font-size:64px;line-height:1.25;font-family:sans-serif;fill:#000000;fill-opacity:1;stroke:none"
         x="1257.6421"
         y="662.13519"
         id="text1825-8"><tspan
           sodipodi:role="line"
           id="tspan1823-2"
           x="1257.6421"
           y="662.13519"
           style="font-style:normal;font-variant:normal;font-weight:bold;font-stretch:normal;font-size:64px;font-family:'Roboto Condensed';-inkscape-font-specification:'Roboto Condensed,  Bold'">Mammal</tspan></text>
      <text
         xml:space="preserve"
         style="font-style:normal;font-weight:normal;font-size:64px;line-height:1.25;font-family:sans-serif;fill:#000000;fill-opacity:1;stroke:none"
         x="61.21402"
         y="655.50153"
         id="text1825-8-2"><tspan
           sodipodi:role="line"
           id="tspan1823-2-1"
           x="61.21402"
           y="655.50153"
           style="font-style:normal;font-variant:normal;font-weight:bold;font-stretch:normal;font-size:64px;font-family:'Roboto Condensed';-inkscape-font-specification:'Roboto Condensed,  Bold'">Reptile</tspan></text>
      <text
         xml:space="preserve"
         style="font-style:normal;font-weight:normal;font-size:64px;line-height:1.25;font-family:sans-serif;fill:#000000;fill-opacity:1;stroke:none"
         x="78.146881"
         y="1113.7747"
         id="text1825-8-24"><tspan
           sodipodi:role="line"
           id="tspan1823-2-8"
           x="78.146881"
           y="1113.7747"
           style="font-style:normal;font-variant:normal;font-weight:bold;font-stretch:normal;font-size:64px;font-family:'Roboto Condensed';-inkscape-font-specification:'Roboto Condensed,  Bold'">Snake</tspan></text>
      <text
         xml:space="preserve"
         style="font-style:normal;font-weight:normal;font-size:64px;line-height:1.25;font-family:sans-serif;fill:#000000;fill-opacity:1;stroke:none"
         x="458.16364"
         y="1114.2714"
         id="text1825-8-24-4"><tspan
           sodipodi:role="line"
           id="tspan1823-2-8-7"
           x="458.16364"
           y="1114.2714"
           style="font-style:normal;font-variant:normal;font-weight:bold;font-stretch:normal;font-size:64px;font-family:'Roboto Condensed';-inkscape-font-specification:'Roboto Condensed,  Bold'">Lizard</tspan></text>
      <rect
         style="opacity:1;fill:#00070a;fill-opacity:1;stroke:#00070a;stroke-width:4.2891;stroke-miterlimit:4;stroke-dasharray:none"
         id="rect17609"
         width="1518.8311"
         height="6.6150203"
         x="44.730186"
         y="1434.0354" />
      <path
         d="m 284.53,552.03 h 29.9 m 14.96,0 h 29.9 m 14.95,0 h 29.9 m 14.96,0 H 449 m 14.95,0 h 29.9 m 14.96,0 h 29.92 m 14.95,0 h 29.9 m 14.96,0 h 29.9 m 14.96,0 h 29.9 m 14.94002,0 h 29.9 m 14.96,0 h 29.9 m 14.96,0 h 29.9 m 14.96,0 h 29.9 m 14.96,0 h 29.9 m 14.96,0 h 29.9 m 14.96,0 h 29.9 m 14.94998,0 h 29.9 m 14.96,0 h 29.92 m 14.95,0 h 29.9 m 14.96,0 h 29.9 m 14.96,0 h 29.9 m 14.95,0 h 14.96 v 15 m 0,15 v 30 m 0,15 v 30 m 0,15 v 30 m 0,15 v 15 h -14.95 m -14.96,0 h -29.9 m -14.96,0 h -29.9 m -14.96,0 h -29.9 m -14.96,0 h -29.9 m -14.96,0 h -29.9 m -14.95998,0 h -29.9 m -14.96,0 h -29.9 m -14.96,0 h -29.9 m -14.95,0 h -29.9 m -14.96,0 h -29.9 m -14.96,0 h -29.9 m -14.95,0 h -29.9 m -14.96002,0 h -29.9 m -14.97,0 h -29.9 m -14.96,0 h -29.9 m -14.95,0 h -29.9 m -14.96,0 h -29.9 m -14.96,0 h -29.9 m -14.96,0 h -29.9 m -14.96,0 h -29.9 m -14.96,0 h -29.9 m -14.96,0 h -14.95 v -15 m 0,-15 v -30 m 0,-15 v -30 m 0,-15 v -30 m 0,-15 v -15 h 14.96"
         stroke="#000000"
         stroke-width="3"
         fill="none"
         id="path90"
         style="stroke:#00070a;stroke-opacity:1;stroke-width:7.55905522;stroke-miterlimit:4;stroke-dasharray:none" />
      <path
         d="m 100.63309,874.13192 h 30.23 m 15.1,0 h 30.24 m 15.1,0 h 30.24 m 15.1,0 h 30.24 m 15.12,0 h 30.22 m 15.12,0 h 30.22 m 15.12,0 h 30.22 m 15.12,0 h 30.22 m 15.12,0 h 30.23 m 15.1,0 h 30.24 m 15.1,0 h 30.24 m 15.12,0 h 30.23 m 15.1,0 h 30.24 m 15.1,0 h 30.23 m 15.1,0 h 30.24 m 15.1,0 h 30.24 m 15.12,0 h 30.23 m 15.1,0 h 30.24 m 15.1,0 h 30.23 m 15.12,0 h 30.22 m 15.12001,0 h 30.2 m 15.13,0 h 30.22 m 15.12,0 h 30.23 m 15.1,0 h 30.24 m 15.1,0 h 30.24 m 15.1,0 h 30.24 m 15.1,0 h 30.24 m 15.1,0 h 30.24 m 15.1,0 h 30.24 m 15.1,0 h 15.13 v 15 m 0,15 v 30 m 0,15 v 30 m 0,15 v 29.99998 m 0,15 v 15 h -15.12 m -15.1,0 h -30.24 m -15.1,0 h -30.23 m -15.1,0 h -30.24 m -15.1,0 h -30.24 m -15.12,0 h -30.23 m -15.1,0 h -30.24 m -15.1,0 h -30.23 m -15.12,0 h -30.22 m -15.12,0 h -30.2 m -15.13001,0 h -30.22 m -15.12,0 h -30.24 m -15.1,0 h -30.24 m -15.1,0 h -30.26 m -15.1,0 h -30.24 m -15.1,0 h -30.24 m -15.1,0 h -30.22 m -15.1,0 h -30.24 m -15.1,0 h -30.26 m -15.1,0 h -30.24 m -15.1,0 h -30.24 m -15.1,0 h -30.22 m -15.12,0 h -30.22 m -15.12,0 h -30.22 m -15.12,0 h -30.22 m -15.12,0 h -30.22 m -15.12,0 h -30.22 m -15.12,0 h -30.23 m -15.1,0 h -30.25 m -15.1,0 h -30.23 m -15.100001,0 h -15.12 v -15 m 0,-15 v -29.99998 m 0,-15 v -30 m 0,-15 v -30 m 0,-15 v -15 h 15.1"
         stroke="#000000"
         stroke-width="3"
         fill="none"
         id="path72"
         style="stroke:#00070a;stroke-opacity:1;stroke-width:7.55905522;stroke-miterlimit:4;stroke-dasharray:none" />
    </g>
    <text
       xml:space="preserve"
       style="font-style:normal;font-weight:normal;font-size:16.9333px;line-height:1.25;font-family:sans-serif;fill:#000000;fill-opacity:1;stroke:none;stroke-width:0.264583"
       x="8.8248625"
       y="114.40481"
       id="text1825-8-24-6"><tspan
         sodipodi:role="line"
         id="tspan1823-2-8-8"
         x="8.8248625"
         y="114.40481"
         style="font-style:normal;font-variant:normal;font-weight:bold;font-stretch:normal;font-size:16.9333px;font-family:'Roboto Condensed';-inkscape-font-specification:'Roboto Condensed,  Bold';stroke-width:0.264583">Cat</tspan></text>
    <text
       xml:space="preserve"
       style="font-style:normal;font-weight:normal;font-size:16.9333px;line-height:1.25;font-family:sans-serif;fill:#000000;fill-opacity:1;stroke:none;stroke-width:0.264583"
       x="147.59532"
       y="81.798546"
       id="text1825-8-24-1"><tspan
         sodipodi:role="line"
         id="tspan1823-2-8-0"
         x="147.59532"
         y="81.798546"
         style="font-style:normal;font-variant:normal;font-weight:bold;font-stretch:normal;font-size:16.9333px;font-family:'Roboto Condensed';-inkscape-font-specification:'Roboto Condensed,  Bold';stroke-width:0.264583">Wolf</tspan></text>
    <text
       xml:space="preserve"
       style="font-style:normal;font-weight:normal;font-size:16.9333px;line-height:1.25;font-family:sans-serif;fill:#000000;fill-opacity:1;stroke:none;stroke-width:0.264583"
       x="109.65653"
       y="192.55652"
       id="text1825-8-24-48"><tspan
         sodipodi:role="line"
         id="tspan1823-2-8-1"
         x="109.65653"
         y="192.55652"
         style="font-style:normal;font-variant:normal;font-weight:bold;font-stretch:normal;font-size:16.9333px;font-family:'Roboto Condensed';-inkscape-font-specification:'Roboto Condensed,  Bold';stroke-width:0.264583">Dog</tspan></text>
    <text
       xml:space="preserve"
       style="font-style:normal;font-weight:normal;font-size:16.9333px;line-height:1.25;font-family:sans-serif;fill:#000000;fill-opacity:1;stroke:none;stroke-width:0.264583"
       x="-212.35672"
       y="257.97418"
       id="text1825-8-24-8"><tspan
         sodipodi:role="line"
         id="tspan1823-2-8-4"
         x="-212.35672"
         y="257.97418"
         style="font-style:normal;font-variant:normal;font-weight:bold;font-stretch:normal;font-size:16.9333px;font-family:'Roboto Condensed';-inkscape-font-specification:'Roboto Condensed,  Bold';stroke-width:0.264583">Classifier</tspan></text>
  </g>
  <g
     inkscape:groupmode="layer"
     id="layer2"
     inkscape:label="Old text"
     transform="translate(222.10173,133.14478)"
     style="display:none"
     sodipodi:insensitive="true">
    <use
       xlink:href="#a"
       transform="matrix(0.26458333,0,0,0.26458333,-37.495629,-110.78868)"
       id="use1313"
       x="0"
       y="0"
       width="100%"
       height="100%" />
    <use
       xlink:href="#b"
       transform="matrix(0.26458333,0,0,0.26458333,63.556744,-11.791227)"
       id="use1317"
       x="0"
       y="0"
       width="100%"
       height="100%" />
    <use
       xlink:href="#c"
       transform="matrix(0.26458333,0,0,0.26458333,-149.95994,-13.212624)"
       id="use1321"
       x="0"
       y="0"
       width="100%"
       height="100%" />
    <use
       xlink:href="#d"
       transform="matrix(0.26458333,0,0,0.26458333,-207.3641,180.84968)"
       id="use1345"
       x="0"
       y="0"
       width="100%"
       height="100%" />
    <use
       xlink:href="#e"
       transform="matrix(0.26458333,0,0,0.26458333,-128.69399,180.84968)"
       id="use1349"
       x="0"
       y="0"
       width="100%"
       height="100%" />
    <use
       xlink:href="#f"
       transform="matrix(0.26458333,0,0,0.26458333,20.901759,103.78375)"
       id="use1353"
       x="0"
       y="0"
       width="100%"
       height="100%" />
    <use
       xlink:href="#g"
       transform="matrix(0.26458333,0,0,0.26458333,156.49108,74.15043)"
       id="use1357"
       x="0"
       y="0"
       width="100%"
       height="100%" />
    <use
       xlink:href="#h"
       transform="matrix(0.26458333,0,0,0.26458333,123.055,181.64975)"
       id="use1361"
       x="0"
       y="0"
       width="100%"
       height="100%" />
    <use
       xlink:href="#i"
       transform="matrix(0.26458333,0,0,0.26458333,-95.475712,103.66477)"
       id="use1369"
       x="0"
       y="0"
       width="100%"
       height="100%" />
    <use
       xlink:href="#j"
       transform="matrix(0.26458333,0,0,0.26458333,-195.52563,104.19394)"
       id="use1373"
       x="0"
       y="0"
       width="100%"
       height="100%" />
  </g>
</svg>
