<svg xmlns="http://www.w3.org/2000/svg" xmlns:xlink="http://www.w3.org/1999/xlink" xmlns:lucid="lucid" width="1628.66" height="1205.24"><g transform="translate(-31.336038255325207 -160)" lucid:page-tab-id="0_0"><path d="M780.35 329.48v104.74h412.9v117" stroke="#666" stroke-width="3" fill="none"/><path d="M780.4 327.98l1.45-.05v1.6h-3v-1.6zM1194.74 552.78l-1.55-.06-1.46.05v-1.58h3z" stroke="#666" stroke-width=".05" fill="#666"/><path d="M780.35 329.48v104.74H374.22V545.8" stroke="#666" stroke-width="3" fill="none"/><path d="M780.4 327.98l1.45-.05v1.6h-3v-1.6zM375.72 547.34l-1.54-.05-1.46.04v-1.6h3z" stroke="#666" stroke-width=".05" fill="#666"/><path d="M853.6 253.24c0 40.45-32.8 73.24-73.25 73.24s-73.24-32.8-73.24-73.24c0-40.45 32.8-73.24 73.25-73.24s73.25 32.8 73.25 73.24z" stroke="#666" stroke-width="3" fill="#fff"/><use xlink:href="#a" transform="matrix(1,0,0,1,712.112012751775,185) translate(27.951851851851877 75.7159722222222)"/><path d="M1266.48 627.47c0 40.45-32.8 73.24-73.24 73.24-40.45 0-73.24-32.78-73.24-73.23s32.8-73.25 73.24-73.25c40.45 0 73.24 32.8 73.24 73.25z" stroke="#666" stroke-width="3" fill="#fff"/><use xlink:href="#b" transform="matrix(1,0,0,1,1124.9999999999998,559.2240255035504) translate(58.561728395061735 75.7159722222222)"/><path d="M447.47 622.03c0 40.45-32.8 73.24-73.25 73.24s-73.24-32.8-73.24-73.24c0-40.45 32.8-73.24 73.24-73.24 40.45 0 73.25 32.78 73.25 73.23z" stroke="#666" stroke-width="3" fill="#fff"/><use xlink:href="#c" transform="matrix(1,0,0,1,305.98246630923046,553.7913952955055) translate(58.561728395061735 75.7159722222222)"/><path d="M374.22 698.27v85.63h199.02v85.63" stroke="#666" stroke-width="3" fill="none"/><path d="M374.27 696.78l1.45-.06v1.6h-3v-1.6zM574.74 871.08l-1.55-.05-1.46.05v-1.58h3z" stroke="#666" stroke-width=".05" fill="#666"/><path d="M374.22 698.27v85.63H193.24v85.63" stroke="#666" stroke-width="3" fill="none"/><path d="M374.27 696.78l1.45-.06v1.6h-3v-1.6zM194.74 871.08l-1.55-.05-1.46.05v-1.58h3z" stroke="#666" stroke-width=".05" fill="#666"/><path d="M646.48 945.77c0 40.45-32.8 73.25-73.24 73.25-40.45 0-73.24-32.8-73.24-73.25s32.8-73.24 73.24-73.24c40.45 0 73.24 32.8 73.24 73.24z" stroke="#666" stroke-width="3" fill="#fff"/><use xlink:href="#d" transform="matrix(1,0,0,1,504.99999999999983,877.5327418397944) translate(43.65432098765433 75.7159722222222)"/><path d="M266.48 945.77c0 40.45-32.8 73.25-73.24 73.25-40.45 0-73.24-32.8-73.24-73.25s32.8-73.24 73.24-73.24c40.45 0 73.24 32.8 73.24 73.24z" stroke="#666" stroke-width="3" fill="#fff"/><use xlink:href="#e" transform="matrix(1,0,0,1,124.99999999999982,877.5327418397944) translate(43.65432098765433 75.7159722222222)"/><path d="M1193.24 703.7v81.65h180v81.63" stroke="#666" stroke-width="3" fill="none"/><path d="M1193.3 702.2l1.44-.04v1.58h-3v-1.58zM1374.74 868.53l-1.55-.05-1.46.05v-1.58h3z" stroke="#666" stroke-width=".05" fill="#666"/><path d="M1193.24 703.7v81.65h-200v81.63" stroke="#666" stroke-width="3" fill="none"/><path d="M1193.3 702.2l1.44-.04v1.58h-3v-1.58zM994.74 868.53l-1.55-.05-1.46.05v-1.58h3z" stroke="#666" stroke-width=".05" fill="#666"/><path d="M1446.48 943.22c0 40.45-32.8 73.25-73.24 73.25-40.45 0-73.24-32.8-73.24-73.25s32.8-73.24 73.24-73.24c40.45 0 73.24 32.8 73.24 73.24z" stroke="#666" stroke-width="3" fill="#fff"/><use xlink:href="#f" transform="matrix(1,0,0,1,1304.9999999999998,874.9830146342074) translate(43.65432098765433 75.7159722222222)"/><path d="M1066.48 943.22c0 40.45-32.8 73.25-73.24 73.25-40.45 0-73.24-32.8-73.24-73.25s32.8-73.24 73.24-73.24c40.45 0 73.24 32.8 73.24 73.24z" stroke="#666" stroke-width="3" fill="#fff"/><use xlink:href="#g" transform="matrix(1,0,0,1,925.0000000000001,874.9830146342074) translate(43.65432098765433 75.7159722222222)"/><path d="M1373.24 1019.47v79.76h180V1179" stroke="#666" stroke-width="3" fill="none"/><path d="M1373.3 1017.97l1.44-.05v1.58h-3v-1.6zM1554.74 1180.55l-1.55-.05-1.46.05v-1.6h3z" stroke="#666" stroke-width=".05" fill="#666"/><path d="M1373.24 1019.47v79.76h-200V1179" stroke="#666" stroke-width="3" fill="none"/><path d="M1373.3 1017.97l1.44-.05v1.58h-3v-1.6zM1174.74 1180.55l-1.55-.05-1.46.05v-1.6h3z" stroke="#666" stroke-width=".05" fill="#666"/><path d="M1626.48 1255.24c0 40.45-32.8 73.24-73.24 73.24-40.45 0-73.24-32.8-73.24-73.24 0-40.45 32.8-73.24 73.24-73.24 40.45 0 73.24 32.8 73.24 73.24z" stroke="#666" stroke-width="3" fill="#fff"/><use xlink:href="#h" transform="matrix(1,0,0,1,1484.9999999999998,1187.000657220576) translate(28.746913580246932 75.7159722222222)"/><path d="M1246.48 1255.24c0 40.45-32.8 73.24-73.24 73.24-40.45 0-73.24-32.8-73.24-73.24 0-40.45 32.8-73.24 73.24-73.24 40.45 0 73.24 32.8 73.24 73.24z" stroke="#666" stroke-width="3" fill="#fff"/><use xlink:href="#i" transform="matrix(1,0,0,1,1104.9999999999998,1187.000657220576) translate(28.746913580246932 75.7159722222222)"/><path d="M106.45 853.22h1360.22v180H106.45z" fill-opacity="0"/><path d="M136.67 853.22h30.23m15.1 0h30.24m15.1 0h30.24m15.1 0h30.24m15.12 0h30.22m15.12 0h30.22m15.12 0h30.22m15.12 0h30.22m15.12 0h30.23m15.1 0h30.24m15.1 0h30.24m15.12 0h30.23m15.1 0H711m15.1 0h30.23m15.1 0h30.24m15.1 0h30.24m15.12 0h30.23m15.1 0h30.24m15.1 0h30.23m15.12 0h30.22m15.12 0h30.2m15.13 0h30.22m15.12 0h30.23m15.1 0h30.24m15.1 0h30.24m15.1 0h30.24m15.1 0h30.24m15.1 0h30.24m15.1 0h30.24m15.1 0h15.13v15m0 15v30m0 15v30m0 15v30m0 15v15h-15.12m-15.1 0h-30.24m-15.1 0h-30.23m-15.1 0h-30.24m-15.1 0h-30.24m-15.12 0h-30.23m-15.1 0h-30.24m-15.1 0h-30.23m-15.12 0h-30.22m-15.12 0h-30.2m-15.13 0h-30.22m-15.12 0H952.8m-15.1 0h-30.24m-15.1 0H862.1m-15.1 0h-30.24m-15.1 0h-30.24m-15.1 0H726.1m-15.1 0h-30.24m-15.1 0H635.4m-15.1 0h-30.24m-15.1 0h-30.24m-15.1 0H499.4m-15.12 0h-30.22m-15.12 0h-30.22m-15.12 0h-30.22m-15.12 0h-30.22m-15.12 0H272.7m-15.12 0h-30.23m-15.1 0H182m-15.1 0h-30.23m-15.1 0h-15.12v-15m0-15v-30m0-15v-30m0-15v-30m0-15v-15h15.1" stroke="#000" stroke-width="3" fill="none"/><path d="M132.56 1198.9h77.55v75.32h-77.54z" fill-opacity="0"/><path d="M158.4 1198.9h25.86m12.93 0h12.9v12.55m0 12.55v25.1m0 12.57v12.55h-12.9m-12.94 0H158.4m-12.92 0h-12.92v-12.55m0-12.56V1224m0-12.55v-12.56h12.92" stroke="#000" stroke-width="3" fill="none"/><path d="M51.34 1274.22h240v60h-240z" stroke="#000" stroke-opacity="0" stroke-width="2" fill="#fff" fill-opacity="0"/><use xlink:href="#j" transform="matrix(1,0,0,1,56.33603825532521,1279.2240255035504) translate(41.70524691358027 31.747222222222213)"/><path d="M320 1274.22h240v60H320z" stroke="#000" stroke-opacity="0" stroke-width="2" fill="#fff" fill-opacity="0"/><use xlink:href="#k" transform="matrix(1,0,0,1,325,1279.2240255035504) translate(70.37716049382718 31.747222222222213)"/><path d="M480 1234.73c0 22.38-20.14 40.5-44.98 40.5-24.84 0-44.97-18.12-44.97-40.5 0-22.37 20.13-40.5 44.97-40.5s44.98 18.13 44.98 40.5z" stroke="#666" stroke-width="3" fill="#fff"/><path d="M293.1 531.33H1280v180H293.1z" fill-opacity="0"/><path d="M323.02 531.33h29.9m14.96 0h29.9m14.95 0h29.9m14.96 0h29.9m14.95 0h29.9m14.96 0h29.92m14.95 0h29.9m14.96 0h29.9m14.96 0h29.9m14.94 0h29.9m14.96 0h29.9m14.96 0h29.9m14.96 0h29.9m14.96 0h29.9m14.96 0h29.9m14.96 0h29.9m14.95 0h29.9m14.96 0h29.92m14.95 0h29.9m14.96 0h29.9m14.96 0h29.9m14.95 0H1280v15m0 15v30m0 15v30m0 15v30m0 15v15h-14.95m-14.96 0h-29.9m-14.96 0h-29.9m-14.96 0h-29.9m-14.96 0h-29.9m-14.96 0h-29.9m-14.96 0h-29.9m-14.96 0h-29.9m-14.96 0h-29.9m-14.95 0h-29.9m-14.96 0h-29.9m-14.96 0h-29.9m-14.95 0h-29.9m-14.96 0h-29.9m-14.97 0h-29.9m-14.96 0h-29.9m-14.95 0h-29.9m-14.96 0h-29.9m-14.96 0h-29.9m-14.96 0h-29.9m-14.96 0h-29.9m-14.96 0h-29.9m-14.96 0H293.1v-15m0-15v-30m0-15v-30m0-15v-30m0-15v-15h14.96" stroke="#000" stroke-width="3" fill="none"/><path d="M1080 1165.24h560v180h-560z" fill-opacity="0"/><path d="M1111.1 1165.24h31.12m15.56 0h31.1m15.56 0h31.12m15.55 0h31.12m15.56 0h31.1m15.56 0h31.12m15.55 0h31.12m15.56 0h31.1m15.56 0h31.12m15.55 0h31.12m15.56 0h31.1m15.56 0H1640v15m0 15v30m0 15v30m0 15v30m0 15v15h-15.56m-15.55 0h-31.12m-15.56 0h-31.1m-15.56 0h-31.12m-15.55 0h-31.12m-15.56 0h-31.1m-15.56 0h-31.12m-15.55 0h-31.12m-15.56 0h-31.1m-15.56 0h-31.12m-15.55 0h-31.12m-15.56 0h-31.1m-15.56 0H1080v-15m0-15v-30m0-15v-30m0-15v-30m0-15v-15h15.56" stroke="#000" stroke-width="3" fill="none"/><defs><path d="M240-174c0 40-23 61-54 70L253 0h-59l-57-94H76V0H24v-248c93 4 217-23 216 74zM76-134c48-2 112 12 112-38 0-48-66-32-112-35v73" id="l"/><path d="M110-194c64 0 96 36 96 99 0 64-35 99-97 99-61 0-95-36-95-99 0-62 34-99 96-99zm-1 164c35 0 45-28 45-65 0-40-10-65-43-65-34 0-45 26-45 65 0 36 10 65 43 65" id="m"/><path d="M115-3C79 11 28 4 28-45v-112H4v-33h27l15-45h31v45h36v33H77v99c-1 23 16 31 38 25v30" id="n"/><g id="a"><use transform="matrix(0.09938271604938267,0,0,0.09938271604938267,0,0)" xlink:href="#l"/><use transform="matrix(0.09938271604938267,0,0,0.09938271604938267,25.740123456790112,0)" xlink:href="#m"/><use transform="matrix(0.09938271604938267,0,0,0.09938271604938267,47.504938271604914,0)" xlink:href="#m"/><use transform="matrix(0.09938271604938267,0,0,0.09938271604938267,69.26975308641971,0)" xlink:href="#n"/></g><path d="M182-182c0 78-84 86-111 141h115V0H12c-6-101 99-100 120-180 1-22-12-31-33-32-23 0-32 14-35 34l-49-3c5-45 32-70 84-70 51 0 83 22 83 69" id="o"/><use transform="matrix(0.09938271604938267,0,0,0.09938271604938267,0,0)" xlink:href="#o" id="b"/><path d="M23 0v-37h61v-169l-59 37v-38l62-41h46v211h57V0H23" id="p"/><use transform="matrix(0.09938271604938267,0,0,0.09938271604938267,0,0)" xlink:href="#p" id="c"/><path d="M24 0v-54h51V0H24" id="q"/><g id="d"><use transform="matrix(0.09938271604938267,0,0,0.09938271604938267,0,0)" xlink:href="#p"/><use transform="matrix(0.09938271604938267,0,0,0.09938271604938267,19.876543209876534,0)" xlink:href="#q"/><use transform="matrix(0.09938271604938267,0,0,0.09938271604938267,29.814814814814802,0)" xlink:href="#o"/></g><g id="e"><use transform="matrix(0.09938271604938267,0,0,0.09938271604938267,0,0)" xlink:href="#p"/><use transform="matrix(0.09938271604938267,0,0,0.09938271604938267,19.876543209876534,0)" xlink:href="#q"/><use transform="matrix(0.09938271604938267,0,0,0.09938271604938267,29.814814814814802,0)" xlink:href="#p"/></g><g id="f"><use transform="matrix(0.09938271604938267,0,0,0.09938271604938267,0,0)" xlink:href="#o"/><use transform="matrix(0.09938271604938267,0,0,0.09938271604938267,19.876543209876534,0)" xlink:href="#q"/><use transform="matrix(0.09938271604938267,0,0,0.09938271604938267,29.814814814814802,0)" xlink:href="#o"/></g><g id="g"><use transform="matrix(0.09938271604938267,0,0,0.09938271604938267,0,0)" xlink:href="#o"/><use transform="matrix(0.09938271604938267,0,0,0.09938271604938267,19.876543209876534,0)" xlink:href="#q"/><use transform="matrix(0.09938271604938267,0,0,0.09938271604938267,29.814814814814802,0)" xlink:href="#p"/></g><g id="h"><use transform="matrix(0.09938271604938267,0,0,0.09938271604938267,0,0)" xlink:href="#o"/><use transform="matrix(0.09938271604938267,0,0,0.09938271604938267,19.876543209876534,0)" xlink:href="#q"/><use transform="matrix(0.09938271604938267,0,0,0.09938271604938267,29.814814814814802,0)" xlink:href="#o"/><use transform="matrix(0.09938271604938267,0,0,0.09938271604938267,49.69135802469134,0)" xlink:href="#q"/><use transform="matrix(0.09938271604938267,0,0,0.09938271604938267,59.629629629629605,0)" xlink:href="#o"/></g><g id="i"><use transform="matrix(0.09938271604938267,0,0,0.09938271604938267,0,0)" xlink:href="#o"/><use transform="matrix(0.09938271604938267,0,0,0.09938271604938267,19.876543209876534,0)" xlink:href="#q"/><use transform="matrix(0.09938271604938267,0,0,0.09938271604938267,29.814814814814802,0)" xlink:href="#o"/><use transform="matrix(0.09938271604938267,0,0,0.09938271604938267,49.69135802469134,0)" xlink:href="#q"/><use transform="matrix(0.09938271604938267,0,0,0.09938271604938267,59.629629629629605,0)" xlink:href="#p"/></g><path d="M212-179c-10-28-35-45-73-45-59 0-87 40-87 99 0 60 29 101 89 101 43 0 62-24 78-52l27 14C228-24 195 4 139 4 59 4 22-46 18-125c-6-104 99-153 187-111 19 9 31 26 39 46" id="r"/><path d="M24 0v-261h32V0H24" id="s"/><path d="M141-36C126-15 110 5 73 4 37 3 15-17 15-53c-1-64 63-63 125-63 3-35-9-54-41-54-24 1-41 7-42 31l-33-3c5-37 33-52 76-52 45 0 72 20 72 64v82c-1 20 7 32 28 27v20c-31 9-61-2-59-35zM48-53c0 20 12 33 32 33 41-3 63-29 60-74-43 2-92-5-92 41" id="t"/><path d="M135-143c-3-34-86-38-87 0 15 53 115 12 119 90S17 21 10-45l28-5c4 36 97 45 98 0-10-56-113-15-118-90-4-57 82-63 122-42 12 7 21 19 24 35" id="u"/><path d="M24-231v-30h32v30H24zM24 0v-190h32V0H24" id="v"/><path d="M101-234c-31-9-42 10-38 44h38v23H63V0H32v-167H5v-23h27c-7-52 17-82 69-68v24" id="w"/><path d="M100-194c63 0 86 42 84 106H49c0 40 14 67 53 68 26 1 43-12 49-29l28 8c-11 28-37 45-77 45C44 4 14-33 15-96c1-61 26-98 85-98zm52 81c6-60-76-77-97-28-3 7-6 17-6 28h103" id="x"/><path d="M114-163C36-179 61-72 57 0H25l-1-190h30c1 12-1 29 2 39 6-27 23-49 58-41v29" id="y"/><g id="j"><use transform="matrix(0.09938271604938267,0,0,0.09938271604938267,0,0)" xlink:href="#r"/><use transform="matrix(0.09938271604938267,0,0,0.09938271604938267,25.740123456790112,0)" xlink:href="#s"/><use transform="matrix(0.09938271604938267,0,0,0.09938271604938267,33.591358024691345,0)" xlink:href="#t"/><use transform="matrix(0.09938271604938267,0,0,0.09938271604938267,53.467901234567876,0)" xlink:href="#u"/><use transform="matrix(0.09938271604938267,0,0,0.09938271604938267,71.35679012345676,0)" xlink:href="#u"/><use transform="matrix(0.09938271604938267,0,0,0.09938271604938267,89.24567901234565,0)" xlink:href="#v"/><use transform="matrix(0.09938271604938267,0,0,0.09938271604938267,97.09691358024688,0)" xlink:href="#w"/><use transform="matrix(0.09938271604938267,0,0,0.09938271604938267,107.03518518518514,0)" xlink:href="#v"/><use transform="matrix(0.09938271604938267,0,0,0.09938271604938267,114.88641975308637,0)" xlink:href="#x"/><use transform="matrix(0.09938271604938267,0,0,0.09938271604938267,134.76296296296292,0)" xlink:href="#y"/></g><g id="k"><use transform="matrix(0.09938271604938267,0,0,0.09938271604938267,0,0)" xlink:href="#r"/><use transform="matrix(0.09938271604938267,0,0,0.09938271604938267,25.740123456790112,0)" xlink:href="#s"/><use transform="matrix(0.09938271604938267,0,0,0.09938271604938267,33.591358024691345,0)" xlink:href="#t"/><use transform="matrix(0.09938271604938267,0,0,0.09938271604938267,53.467901234567876,0)" xlink:href="#u"/><use transform="matrix(0.09938271604938267,0,0,0.09938271604938267,71.35679012345676,0)" xlink:href="#u"/></g></defs></g></svg>