<?xml version="1.0" encoding="UTF-8" standalone="no" ?>
<!DOCTYPE svg PUBLIC "-//W3C//DTD SVG 1.1//EN" "http://www.w3.org/Graphics/SVG/1.1/DTD/svg11.dtd">
<svg xmlns="http://www.w3.org/2000/svg" xmlns:xlink="http://www.w3.org/1999/xlink" version="1.1" width="1450" height="1200" viewBox="0 0 1450 1200" xml:space="preserve">
<desc>Created with Fabric.js 3.6.6</desc>
<defs>
</defs>
<g transform="matrix(1 0 0 1 1238.91 833.34)" id="path1275"  >
<path style="stroke: none; stroke-width: 1; stroke-dasharray: none; stroke-linecap: butt; stroke-dashoffset: 0; stroke-linejoin: miter; stroke-miterlimit: 4; fill: rgb(0,0,0); fill-opacity: 0; fill-rule: nonzero; opacity: 1;"  transform=" translate(-1341.24, -964.56)" d="m 1258.36 874.56 h 165.77 v 180 h -165.77 z" stroke-linecap="round" />
</g>
<g transform="matrix(1 0 0 1 854.9 831)" id="path1283"  >
<path style="stroke: none; stroke-width: 1; stroke-dasharray: none; stroke-linecap: butt; stroke-dashoffset: 0; stroke-linejoin: miter; stroke-miterlimit: 4; fill: rgb(0,0,0); fill-opacity: 0; fill-rule: nonzero; opacity: 1;"  transform=" translate(-957.24, -962.22)" d="m 874.35 872.22 h 165.78 v 180 H 874.35 Z" stroke-linecap="round" />
</g>
<g transform="matrix(1 0 0 1 1055 511)" id="path1295"  >
<path style="stroke: none; stroke-width: 1; stroke-dasharray: none; stroke-linecap: butt; stroke-dashoffset: 0; stroke-linejoin: miter; stroke-miterlimit: 4; fill: rgb(0,0,0); fill-opacity: 0; fill-rule: nonzero; opacity: 1;"  transform=" translate(-1157.34, -642.22)" d="m 1074.45 552.22 h 165.77 v 180 h -165.77 z" stroke-linecap="round" />
</g>
<g transform="matrix(1 0 0 1 848.46 329.13)" id="path1305"  >
<path style="stroke: rgb(102,102,102); stroke-width: 0.05; stroke-dasharray: none; stroke-linecap: butt; stroke-dashoffset: 0; stroke-linejoin: miter; stroke-miterlimit: 4; fill: rgb(102,102,102); fill-rule: nonzero; opacity: 1;"  transform=" translate(-950.8, -460.36)" d="m 744.4 347.98 l 1.45 -0.05 v 1.6 h -3 v -1.6 z m 414.34 224.8 l -1.55 -0.06 l -1.46 0.05 v -1.58 h 3 z" stroke-linecap="round" />
</g>
<g transform="matrix(1 0 0 1 848.46 329.13)" id="path1303"  >
<path style="stroke: rgb(0,7,10); stroke-width: 7.55906; stroke-dasharray: none; stroke-linecap: butt; stroke-dashoffset: 0; stroke-linejoin: miter; stroke-miterlimit: 4; fill: none; fill-rule: nonzero; opacity: 1;"  transform=" translate(-986.8, -440.35)" d="m 780.35 329.48 v 104.74 h 412.9 v 117" stroke-linecap="round" />
</g>
<g transform="matrix(1 0 0 1 438.95 326.42)" id="path1307"  >
<path style="stroke: rgb(0,7,10); stroke-width: 7.55906; stroke-dasharray: none; stroke-linecap: butt; stroke-dashoffset: 0; stroke-linejoin: miter; stroke-miterlimit: 4; fill: none; fill-rule: nonzero; opacity: 1;"  transform=" translate(-577.29, -437.64)" d="M 780.35 329.48 V 434.22 H 374.22 V 545.8" stroke-linecap="round" />
</g>
<g transform="matrix(1 0 0 1 436.95 324.42)" id="path1309"  >
<path style="stroke: rgb(102,102,102); stroke-width: 0.05; stroke-dasharray: none; stroke-linecap: butt; stroke-dashoffset: 0; stroke-linejoin: miter; stroke-miterlimit: 4; fill: rgb(102,102,102); fill-rule: nonzero; opacity: 1;"  transform=" translate(-541.28, -457.63)" d="m 744.4 347.98 l 1.45 -0.05 v 1.6 h -3 v -1.6 z m -404.68 219.36 l -1.54 -0.05 l -1.46 0.04 v -1.6 h 3 z" stroke-linecap="round" />
</g>
<g transform="matrix(1 0 0 1 642.02 142.02)" id="path1311"  >
<path style="stroke: rgb(0,7,10); stroke-width: 7.55906; stroke-dasharray: none; stroke-linecap: butt; stroke-dashoffset: 0; stroke-linejoin: miter; stroke-miterlimit: 4; fill: none; fill-rule: nonzero; opacity: 1;"  transform=" translate(-744.36, -273.24)" d="m 817.6 273.24 c 0 40.45 -32.8 73.24 -73.25 73.24 c -40.45 0 -73.24 -32.8 -73.24 -73.24 c 0 -40.45 32.8 -73.24 73.25 -73.24 c 40.45 0 73.25 32.8 73.25 73.24 z" stroke-linecap="round" />
</g>
<g transform="matrix(1 0 0 1 1054.9 516.25)" id="path1315"  >
<path style="stroke: rgb(0,7,10); stroke-width: 7.55906; stroke-dasharray: none; stroke-linecap: butt; stroke-dashoffset: 0; stroke-linejoin: miter; stroke-miterlimit: 4; fill: none; fill-rule: nonzero; opacity: 1;"  transform=" translate(-1157.24, -647.47)" d="m 1230.48 647.47 c 0 40.45 -32.8 73.24 -73.24 73.24 c -40.45 0 -73.24 -32.78 -73.24 -73.23 c 0 -40.45 32.8 -73.25 73.24 -73.25 c 40.45 0 73.24 32.8 73.24 73.25 z" stroke-linecap="round" />
</g>
<g transform="matrix(1 0 0 1 235.88 510.81)" id="path1319"  >
<path style="stroke: rgb(0,7,10); stroke-width: 7.55906; stroke-dasharray: none; stroke-linecap: butt; stroke-dashoffset: 0; stroke-linejoin: miter; stroke-miterlimit: 4; fill: none; fill-rule: nonzero; opacity: 1;"  transform=" translate(-338.23, -642.03)" d="m 411.47 642.03 c 0 40.45 -32.8 73.24 -73.25 73.24 c -40.45 0 -73.24 -32.8 -73.24 -73.24 c 0 -40.45 32.8 -73.24 73.24 -73.24 c 40.45 0 73.25 32.78 73.25 73.23 z" stroke-linecap="round" />
</g>
<g transform="matrix(1 0 0 1 956.61 1126.83)" id="path1323-9"  >
<path style="stroke: rgb(0,7,10); stroke-width: 7.55906; stroke-dasharray: none; stroke-linecap: butt; stroke-dashoffset: 0; stroke-linejoin: miter; stroke-miterlimit: 4; fill: none; fill-rule: nonzero; opacity: 1;"  transform=" translate(-685.05, -1226.74)" d="m 659.5728 1174.6883 v 52.0564 h 50.95953 v 52.0563" stroke-linecap="round" />
</g>
<g transform="matrix(1 0 0 1 908.2 1126.83)" id="path1327-7"  >
<path style="stroke: rgb(0,7,10); stroke-width: 7.55906; stroke-dasharray: none; stroke-linecap: butt; stroke-dashoffset: 0; stroke-linejoin: miter; stroke-miterlimit: 4; fill: none; fill-rule: nonzero; opacity: 1;"  transform=" translate(-636.65, -1226.74)" d="m 659.5728 1174.6883 v 52.0564 h -45.85129 v 52.0563" stroke-linecap="round" />
</g>
<g transform="matrix(1 0 0 1 1146.91 674.62)" id="path1333"  >
<path style="stroke: rgb(102,102,102); stroke-width: 0.05; stroke-dasharray: none; stroke-linecap: butt; stroke-dashoffset: 0; stroke-linejoin: miter; stroke-miterlimit: 4; fill: rgb(102,102,102); fill-rule: nonzero; opacity: 1;"  transform=" translate(-1249.24, -805.85)" d="m 1157.3 722.2 l 1.44 -0.04 v 1.58 h -3 v -1.58 z m 185.45 167.33 l -1.55 -0.05 l -1.45 0.05 v -1.6 h 3 z" stroke-linecap="round" />
</g>
<g transform="matrix(1 0 0 1 1146.9 674.62)" id="path1331"  >
<path style="stroke: rgb(0,7,10); stroke-width: 7.55906; stroke-dasharray: none; stroke-linecap: butt; stroke-dashoffset: 0; stroke-linejoin: miter; stroke-miterlimit: 4; fill: none; fill-rule: nonzero; opacity: 1;"  transform=" translate(-1285.24, -785.84)" d="m 1193.24 703.7 v 82.14 h 184 v 82.14" stroke-linecap="round" />
</g>
<g transform="matrix(1 0 0 1 954.9 674.62)" id="path1335"  >
<path style="stroke: rgb(0,7,10); stroke-width: 7.55906; stroke-dasharray: none; stroke-linecap: butt; stroke-dashoffset: 0; stroke-linejoin: miter; stroke-miterlimit: 4; fill: none; fill-rule: nonzero; opacity: 1;"  transform=" translate(-1093.24, -785.84)" d="m 1193.24 703.7 v 82.14 h -200 v 82.14" stroke-linecap="round" />
</g>
<g transform="matrix(1 0 0 1 954.9 674.62)" id="path1337"  >
<path style="stroke: rgb(102,102,102); stroke-width: 0.05; stroke-dasharray: none; stroke-linecap: butt; stroke-dashoffset: 0; stroke-linejoin: miter; stroke-miterlimit: 4; fill: rgb(102,102,102); fill-rule: nonzero; opacity: 1;"  transform=" translate(-1057.24, -805.85)" d="m 1157.3 722.2 l 1.44 -0.04 v 1.58 h -3 v -1.58 z m -198.56 167.33 l -1.55 -0.05 l -1.46 0.05 v -1.6 h 3 z" stroke-linecap="round" />
</g>
<g transform="matrix(1 0 0 1 473.46 1133.77)" style="" id="text1825-8-24-44"  >
		<text xml:space="preserve" font-family="sans-serif" font-size="64" font-style="normal" font-weight="normal" style="stroke: none; stroke-width: 1; stroke-dasharray: none; stroke-linecap: butt; stroke-dashoffset: 0; stroke-linejoin: miter; stroke-miterlimit: 4; fill: rgb(0,0,0); fill-rule: nonzero; opacity: 1; white-space: pre;" ><tspan x="-80.02" y="20.1" >Class</tspan></text>
</g>
<g transform="matrix(1 0 0 1 854.9 833)" id="path1351"  >
<path style="stroke: rgb(0,7,10); stroke-width: 7.55906; stroke-dasharray: none; stroke-linecap: butt; stroke-dashoffset: 0; stroke-linejoin: miter; stroke-miterlimit: 4; fill: none; fill-rule: nonzero; opacity: 1;"  transform=" translate(-957.24, -964.23)" d="m 1030.48 964.22 c 0 40.45 -32.8 73.25 -73.24 73.25 c -40.45 0 -73.24 -32.8 -73.24 -73.25 c 0 -40.45 32.8 -73.24 73.24 -73.24 c 40.45 0 73.24 32.8 73.24 73.24 z" stroke-linecap="round" />
</g>
<g transform="matrix(1 0 0 1 1238.91 833)" id="path1355"  >
<path style="stroke: rgb(0,7,10); stroke-width: 7.55906; stroke-dasharray: none; stroke-linecap: butt; stroke-dashoffset: 0; stroke-linejoin: miter; stroke-miterlimit: 4; fill: none; fill-rule: nonzero; opacity: 1;"  transform=" translate(-1341.25, -964.23)" d="m 1414.5 964.22 c 0 40.45 -32.8 73.25 -73.25 73.25 c -40.45 0 -73.25 -32.8 -73.25 -73.25 c 0 -40.45 32.8 -73.24 73.25 -73.24 c 40.45 0 73.24 32.8 73.24 73.24 z" stroke-linecap="round" />
</g>
<g transform="matrix(1 0 0 1 1240.92 831)" id="path1355-1" clip-path="url(#CLIPPATH_15)"  >
<clipPath id="CLIPPATH_15" >
	<path transform="matrix(1 0 0 1 -813.79 -993.36) translate(-1830.39, -754.86)" id="path4050" d="m 1764.6967 850.47616 c -0.3979 -0.414 -1.1988 -1.435 -1.7799 -2.2687 l -1.0564 -1.5164 l -0.2969 -3.4014 c -0.3085 -3.5305 -0.4718 -4.5701 -1.1201 -7.13 c -0.2119 -0.8363 -0.7092 -3.3546 -1.1053 -5.5963 c -0.7185 -4.0684 -1.5752 -7.7784 -1.9605 -8.4882 c -0.3416 -0.6298 -1.013 -0.7586 -1.7266 -0.3312 c -1.0565 0.6329 -1.6237 0.4928 -3.763 -0.9307 c -2.7247 -1.8129 -3.2369 -2.9824 -2.2389 -5.1125 c 0.2326 -0.4968 0.4251 -1.0864 0.4275 -1.3103 c 0.015 -0.7374 1.0437 -3.582 1.8248 -5.0125 c 1.9792 -3.6246 2.3062 -4.1345 2.8224 -4.4023 c 0.7155 -0.3713 2.0903 -1.803 2.7647 -2.8793 c 0.2957 -0.4721 1.1165 -1.2691 1.8234 -1.7711 c 0.7146 -0.5072 1.4249 -1.2004 1.599 -1.5606 c 0.2162 -0.4474 0.6937 -0.8481 1.5433 -1.2949 c 0.9627 -0.5065 1.5146 -1.0057 2.54 -2.298 c 1.5318 -1.9303 2.6577 -3.1017 4.2131 -4.3834 c 0.6182 -0.5094 2.3575 -2.4889 3.8651 -4.399 c 1.5076 -1.9102 3.1282 -3.9323 3.6012 -4.4936 c 1.6761 -1.9888 3.1114 -4.6392 4.1517 -7.6665 c 0.5441 -1.5831 0.9961 -3.17426 1.0046 -3.53583 c 0.024 -1.01475 0.3532 -1.81111 2.2749 -5.50467 c 1.5983 -3.07242 1.9858 -3.65008 3.7657 -5.61167 c 1.0912 -1.2027 2.2832 -2.56433 2.6485 -3.0259 c 0.8868 -1.12002 7.0164 -5.95444 10.3176 -8.13736 c 2.5185 -1.66556 2.824 -1.80799 6.3058 -2.94035 c 2.0126 -0.65453 4.2084 -1.29625 4.8795 -1.4261 c 0.6714 -0.12995 2.9141 -0.64492 4.9839 -1.14461 c 3.2633 -0.78783 5.676 -1.45014 14.6041 -4.00893 c 0.928 -0.26591 2.9366 -0.76058 4.4638 -1.09925 c 2.974 -0.65947 5.1085 -1.34377 8.1902 -2.62575 c 4.6867 -1.94951 7.7044 -3.90482 10.4205 -6.75159 c 1.439 -1.50826 2.0009 -2.40147 2.3766 -3.7777 c 0.1235 -0.45836 0.592 -1.26884 1.0375 -1.80102 c 0.4456 -0.53216 0.9879 -1.34008 1.2048 -1.79533 c 0.2552 -0.53632 0.6114 -0.91647 1.0108 -1.07976 c 0.6671 -0.27268 0.726 -0.38479 1.0268 -1.95748 c 0.1095 -0.57538 0.7124 -2.1507 1.3384 -3.50076 c 1.115 -2.40485 1.723 -4.21465 1.723 -5.12927 c 0 -0.25235 0.1896 -0.99973 0.4216 -1.66082 c 0.2319 -0.66113 0.365 -1.37773 0.2959 -1.59252 c -0.08 -0.25059 -0.6143 -0.57752 -1.4894 -0.91238 c -1.6073 -0.61505 -1.7847 -0.73632 -3.4554 -2.36364 c -2.2298 -2.17248 -3.1048 -4.6905 -2.0278 -5.83732 c 0.2519 -0.26803 1.6477 -1.21698 3.1023 -2.10875 c 1.4544 -0.8918 3.3767 -2.197 4.2717 -2.90047 l 1.6273 -1.27905 l 0.6913 -1.99277 c 0.9245 -2.666 1.8888 -4.72676 2.7594 -5.89699 c 0.3945 -0.53024 1.8181 -1.92863 3.1639 -3.10754 c 1.3454 -1.17892 3.0775 -2.8748 3.8489 -3.76864 c 1.6172 -1.87418 3.6451 -5.13245 4.65 -7.47184 c 0.3825 -0.89068 1.1335 -2.56785 1.6687 -3.72704 c 0.5355 -1.15918 1.1649 -2.78182 1.3986 -3.60589 c 0.2871 -1.01114 0.6163 -1.68679 1.0131 -2.07814 l 0.5875 -0.57985 l 0.925 0.40377 c 2.2912 0.99997 5.1094 3.37431 6.5501 5.51825 c 0.9202 1.36934 1.4214 2.85626 1.8179 5.39367 c 0.6348 4.06198 1.0258 5.18513 1.8053 5.18513 c 0.5861 0 0.9793 -0.27856 3.4775 -2.46497 c 2.4933 -2.18177 2.768 -2.32858 3.4874 -1.86346 c 0.6565 0.42452 1.0309 1.27539 1.1977 2.72262 c 0.1109 0.9734 0.042 1.30587 -0.602 2.81017 c -1.3268 3.10358 -2.1071 5.2827 -3.027 8.45052 c -1.9216 6.61885 -1.9792 8.08314 -0.4653 11.83064 c 1.2496 3.09303 1.8895 6.33771 2.1555 10.93144 c 0.1638 2.82401 0.3178 3.96515 0.7058 5.22539 c 0.2728 0.88679 0.6488 2.603 0.8354 3.81375 c 0.1865 1.21079 0.4824 2.58573 0.6578 3.05542 c 0.2344 0.62845 0.2829 1.19817 0.1833 2.15712 c -0.087 0.83719 -0.022 1.98756 0.1768 3.2175 c 0.5127 3.14417 -0.014 16.85663 -0.7156 18.68136 c -0.2734 0.70907 -0.7659 3.23777 -1.0078 5.17366 c -0.1221 0.97985 -0.3892 2.10892 -0.5922 2.50906 c -0.2032 0.40015 -0.4306 1.12087 -0.5053 1.60166 c -0.074 0.48077 -0.2745 1.13802 -0.4435 1.46055 c -0.1691 0.32251 -0.5285 1.57234 -0.7985 2.77735 c -0.2701 1.20503 -0.7116 2.62529 -0.9812 3.15612 c -0.2697 0.53082 -0.6077 1.32644 -0.751 1.76803 c -0.3666 1.13025 -1.0829 2.08724 -3.445 4.60319 c -3.7211 3.96359 -4.1715 5.52584 -4.1709 14.46564 c 0 5.9011 0.097 7.2394 1.0071 14.151 c 0.6479 4.9128 0.8489 6.8993 1.2158 12.0121 c 0.3389 4.7194 0.5338 6.1696 1.1516 8.5621 c 0.2278 0.8832 0.5441 2.8253 0.7029 4.3155 c 0.3409 3.1991 0.6595 4.3966 1.5036 5.6542 c 0.9551 1.4226 3.4448 3.6462 4.8026 4.2886 c 3.2056 1.5172 7.8119 4.4937 7.8119 5.048 c 0 0.1401 -0.218 0.396 -0.4847 0.5684 c -0.5828 0.3768 -4.1153 0.4426 -5.4024 0.1011 c -0.6339 -0.1684 -1.0595 -0.1521 -1.89 0.072 c -3.5628 0.9647 -14.5115 0.2235 -16.8859 -1.1436 c -0.6653 -0.3827 -1.0052 -0.915 -2.6968 -4.2206 c -1.0643 -2.0803 -2.1631 -4.4522 -2.4416 -5.2706 c -0.6295 -1.8501 -2.5483 -5.6672 -3.5214 -7.0049 c -0.7678 -1.0554 -2.7225 -4.678 -2.9812 -5.5251 c -0.4267 -1.3972 -2.0168 -4.2273 -2.9569 -5.2628 l -1.047 -1.1532 l -0.5974 -2.8612 c -0.6721 -3.2181 -1.2984 -4.6238 -4.3161 -9.686 c -2.1358 -3.5828 -2.6426 -4.7386 -2.6656 -6.0792 c -0.03 -1.7046 -0.7067 -1.8345 -3.8663 -0.741 c -2.371 0.8206 -3.2564 0.8736 -4.1178 0.2465 c -0.5433 -0.3955 -0.8587 -0.4502 -2.5376 -0.4406 c -1.0544 0.01 -2.0144 0.07 -2.1328 0.1425 c -0.1193 0.072 -0.4183 -0.1382 -0.6656 -0.4682 c -0.5101 -0.6809 -0.7601 -0.6152 -1.1483 0.3017 c -0.2294 0.5414 -0.4333 0.6774 -1.3169 0.8786 c -1.8073 0.4117 -3.0491 0.2171 -3.0491 -0.4776 c 0 -0.5769 -0.6047 -0.5349 -1.3289 0.093 c -0.5057 0.4382 -0.9267 0.6234 -1.4173 0.6234 c -0.8643 0 -0.9317 0.1172 -1.7293 3.0122 c -0.9221 3.346 -1.5901 4.5719 -5.022 9.2162 c -1.3674 1.8506 -2.451 2.7921 -4.294 3.7307 c -0.414 0.2109 -1.2564 0.8451 -1.8718 1.4092 c -1.2303 1.1278 -2.0179 1.6492 -6.2173 4.1155 c -5.6014 3.2897 -8.1406 5.3344 -9.5308 7.6749 c -0.7059 1.1885 -1.3523 3.7576 -1.3606 5.4076 c -0.015 1.1869 0.1179 1.6263 1.0378 3.7133 c 1.2656 2.8682 2.4275 4.7475 4.5315 7.3282 c 1.5187 1.8633 2.7662 3.0421 3.7545 3.5478 c 0.2493 0.1273 1.3938 0.4211 2.5429 0.6517 c 1.1488 0.2307 2.4093 0.5815 2.801 0.7794 c 0.8987 0.4545 3.2946 2.5876 3.2048 2.8534 c -0.037 0.109 -0.5088 0.3646 -1.0484 0.5669 c -0.5397 0.2019 -1.1477 0.5162 -1.3516 0.6983 c -0.2624 0.2342 -0.5512 0.2917 -0.9888 0.1969 c -0.4263 -0.093 -0.8084 -0.023 -1.231 0.2233 c -0.555 0.3234 -0.7521 0.3328 -2.0907 0.1 c -0.8129 -0.1413 -2.7292 -0.426 -4.2583 -0.6315 c -1.5291 -0.2058 -2.9762 -0.4921 -3.2156 -0.6367 c -0.5962 -0.3606 -1.0941 -1.2225 -1.6157 -2.7982 c -0.2809 -0.8482 -0.8414 -1.8531 -1.5463 -2.7712 c -0.9841 -1.2817 -1.7251 -2.9072 -1.7251 -3.7845 c 0 -0.8526 -1.483 -2.8524 -4.3414 -5.8544 c -4.6216 -4.8535 -4.4716 -4.6358 -4.3604 -6.3275 c 0.1096 -1.6716 0.4409 -2.3648 1.8547 -3.8846 c 0.5818 -0.6255 1.9365 -2.5825 3.0103 -4.3489 c 3.7634 -6.1913 4.9968 -9.3263 4.4533 -11.3183 c -0.2934 -1.0752 -0.6843 -1.0698 -2.0425 0.028 c -1.6445 1.3285 -2.581 1.8951 -4.2506 2.5716 c -0.8494 0.3444 -2.4601 1.1554 -3.5789 1.8024 c -2.2123 1.2792 -3.9702 2.1061 -7.7261 3.6338 c -1.3406 0.5452 -3.1712 1.3799 -4.0684 1.855 c -3.8206 2.0233 -6.0021 3.2446 -7.8262 4.381 c -2.2912 1.4277 -2.0477 1.2934 -4.4796 2.4696 c -1.0601 0.5127 -2.2872 1.1933 -2.7268 1.5122 c -2.3006 1.6694 -7.4574 6.8774 -8.1855 8.2666 c -0.256 0.4886 -0.2533 0.9606 0.02 3.7189 c 0.5771 5.8178 1.335 10.9451 1.7432 11.7945 c 0.4346 0.9032 1.2643 1.5592 4.5672 3.6104 c 2.4665 1.5317 4.3734 2.8815 4.3734 3.0957 c 0 0.077 -0.5263 0.236 -1.1694 0.3551 c -0.6436 0.1197 -1.5557 0.3609 -2.0273 0.5367 c -0.8021 0.2991 -0.9389 0.2948 -2.1186 -0.066 c -0.7741 -0.2379 -1.3858 -0.3227 -1.5836 -0.22 c -0.4686 0.2432 -4.1736 1.2162 -4.6312 1.2162 c -0.2138 0 -0.7145 -0.3387 -1.1124 -0.7528 z" stroke-linecap="round" />
</clipPath>
<path style="stroke: none; stroke-width: 3.00094; stroke-dasharray: none; stroke-linecap: butt; stroke-dashoffset: 0; stroke-linejoin: miter; stroke-miterlimit: 4; fill: rgb(0,7,10); fill-rule: nonzero; opacity: 1;"  transform=" translate(-1871.31, -719.6)" d="m 1944.5602 719.59929 c 0 40.45 -32.8 73.25 -73.25 73.25 c -40.45 0 -73.25 -32.8 -73.25 -73.25 c 0 -40.45 32.8 -73.24 73.25 -73.24 c 40.45 0 73.24 32.8 73.24 73.24 z" stroke-linecap="round" />
</g>
<g transform="matrix(1 0 0 1 323.2 1131.33)" id="path1375"  >
<path style="stroke: rgb(0,7,10); stroke-width: 7.55906; stroke-dasharray: none; stroke-linecap: butt; stroke-dashoffset: 0; stroke-linejoin: miter; stroke-miterlimit: 4; fill: none; fill-rule: nonzero; opacity: 1;"  transform=" translate(-773.54, -1550.55)" d="m 817.08 1550.56 c 0 22.65 -19.5 41 -43.54 41 c -24.05 0 -43.54 -18.35 -43.54 -41 c 0 -22.66 19.5 -41.02 43.54 -41.02 c 24.05 0 43.54 18.36 43.54 41.02 z" stroke-linecap="round" />
</g>
<g transform="matrix(1 0 0 1 1194.61 1129.71)" style="" id="text1825-8-24-9"  >
		<text xml:space="preserve" font-family="sans-serif" font-size="64" font-style="normal" font-weight="normal" style="stroke: none; stroke-width: 1; stroke-dasharray: none; stroke-linecap: butt; stroke-dashoffset: 0; stroke-linejoin: miter; stroke-miterlimit: 4; fill: rgb(0,0,0); fill-rule: nonzero; opacity: 1; white-space: pre;" ><tspan x="-176.11" y="20.1" >Relationship</tspan></text>
</g>
<g transform="matrix(1 0 0 1 640.92 142.99)" style="" id="text1825"  >
		<text xml:space="preserve" font-family="sans-serif" font-size="64" font-style="normal" font-weight="normal" style="stroke: none; stroke-width: 1; stroke-dasharray: none; stroke-linecap: butt; stroke-dashoffset: 0; stroke-linejoin: miter; stroke-miterlimit: 4; fill: rgb(0,0,0); fill-rule: nonzero; opacity: 1; white-space: pre;" ><tspan x="-67.59" y="20.1" >Root</tspan></text>
</g>
<g transform="matrix(1 0 0 1 1280.64 518.81)" style="" id="text1825-8"  >
		<text xml:space="preserve" font-family="sans-serif" font-size="64" font-style="normal" font-weight="normal" style="stroke: none; stroke-width: 1; stroke-dasharray: none; stroke-linecap: butt; stroke-dashoffset: 0; stroke-linejoin: miter; stroke-miterlimit: 4; fill: rgb(0,0,0); fill-rule: nonzero; opacity: 1; white-space: pre;" ><tspan x="-122.67" y="20.1" >Mammal</tspan></text>
</g>
<g transform="matrix(1 0 0 1 694.81 1040.12)" id="rect17609"  >
<rect style="stroke: rgb(0,7,10); stroke-width: 4.2891; stroke-dasharray: none; stroke-linecap: butt; stroke-dashoffset: 0; stroke-linejoin: miter; stroke-miterlimit: 4; fill: rgb(0,7,10); fill-rule: nonzero; opacity: 1;"  x="-759.41555" y="-3.30751015" rx="0" ry="0" width="1518.8311" height="6.6150203" />
</g>
<g transform="matrix(0.1 0 0 0.1 651.49 117.14)" id="layer2"  >
<path style="stroke: none; stroke-width: 1; stroke-dasharray: none; stroke-linecap: butt; stroke-dashoffset: 0; stroke-linejoin: miter; stroke-miterlimit: 4; fill: rgb(0,0,0); fill-rule: nonzero; opacity: 1; visibility: hidden;"  transform=" translate(-138.5, 124.3)" d="m 240 -174 c 0 40 -23 61 -54 70 L 253 0 H 194 L 137 -94 H 76 V 0 H 24 v -248 c 93 4 217 -23 216 74 z m -164 40 c 48 -2 112 12 112 -38 c 0 -48 -66 -32 -112 -35 v 73" stroke-linecap="round" />
</g>
<g transform="matrix(0.1 0 0 0.1 674.4 120.05)" id="layer2"  >
<path style="stroke: none; stroke-width: 1; stroke-dasharray: none; stroke-linecap: butt; stroke-dashoffset: 0; stroke-linejoin: miter; stroke-miterlimit: 4; fill: rgb(0,0,0); fill-rule: nonzero; opacity: 1; visibility: hidden;"  transform=" translate(-110, 95)" d="m 110 -194 c 64 0 96 36 96 99 c 0 64 -35 99 -97 99 c -61 0 -95 -36 -95 -99 c 0 -62 34 -99 96 -99 z m -1 164 c 35 0 45 -28 45 -65 c 0 -40 -10 -65 -43 -65 c -34 0 -45 26 -45 65 c 0 36 10 65 43 65" stroke-linecap="round" />
</g>
<g transform="matrix(0.1 0 0 0.1 696.16 120.05)" id="layer2"  >
<path style="stroke: none; stroke-width: 1; stroke-dasharray: none; stroke-linecap: butt; stroke-dashoffset: 0; stroke-linejoin: miter; stroke-miterlimit: 4; fill: rgb(0,0,0); fill-rule: nonzero; opacity: 1; visibility: hidden;"  transform=" translate(-110, 95)" d="m 110 -194 c 64 0 96 36 96 99 c 0 64 -35 99 -97 99 c -61 0 -95 -36 -95 -99 c 0 -62 34 -99 96 -99 z m -1 164 c 35 0 45 -28 45 -65 c 0 -40 -10 -65 -43 -65 c -34 0 -45 26 -45 65 c 0 36 10 65 43 65" stroke-linecap="round" />
</g>
<g transform="matrix(0.1 0 0 0.1 712.91 117.98)" id="layer2"  >
<path style="stroke: none; stroke-width: 1; stroke-dasharray: none; stroke-linecap: butt; stroke-dashoffset: 0; stroke-linejoin: miter; stroke-miterlimit: 4; fill: rgb(0,0,0); fill-rule: nonzero; opacity: 1; visibility: hidden;"  transform=" translate(-59.5, 115.82)" d="M 115 -3 C 79 11 28 4 28 -45 V -157 H 4 v -33 h 27 l 15 -45 h 31 v 45 h 36 v 33 H 77 v 99 c -1 23 16 31 38 25 v 30" stroke-linecap="round" />
</g>
<g transform="matrix(0.1 0 0 0.1 1034.56 491.33)" id="layer2"  >
<path style="stroke: none; stroke-width: 1; stroke-dasharray: none; stroke-linecap: butt; stroke-dashoffset: 0; stroke-linejoin: miter; stroke-miterlimit: 4; fill: rgb(0,0,0); fill-rule: nonzero; opacity: 1; visibility: hidden;"  transform=" translate(-150, 124)" d="M 230 0 L 232 -204 L 168 0 H 131 L 68 -204 L 70 0 H 24 v -248 h 70 l 56 185 l 57 -185 h 69 V 0 h -46" stroke-linecap="round" />
</g>
<g transform="matrix(0.1 0 0 0.1 1059.95 494.22)" id="layer2"  >
<path style="stroke: none; stroke-width: 1; stroke-dasharray: none; stroke-linecap: butt; stroke-dashoffset: 0; stroke-linejoin: miter; stroke-miterlimit: 4; fill: rgb(0,0,0); fill-rule: nonzero; opacity: 1; visibility: hidden;"  transform=" translate(-106.49, 95)" d="M 133 -34 C 117 -15 103 5 69 4 C 32 3 11 -16 11 -54 c -1 -60 55 -63 116 -61 c 1 -26 -3 -47 -28 -47 c -18 1 -26 9 -28 27 l -52 -2 c 7 -38 36 -58 82 -57 c 46 1 74 22 75 68 l 1 82 c -1 14 12 18 25 15 v 27 c -30 8 -71 5 -69 -32 z m -48 3 c 29 0 43 -24 42 -57 c -32 0 -66 -3 -65 30 c 0 17 8 27 23 27" stroke-linecap="round" />
</g>
<g transform="matrix(0.1 0 0 0.1 1085.3 494.02)" id="layer2"  >
<path style="stroke: none; stroke-width: 1; stroke-dasharray: none; stroke-linecap: butt; stroke-dashoffset: 0; stroke-linejoin: miter; stroke-miterlimit: 4; fill: rgb(0,0,0); fill-rule: nonzero; opacity: 1; visibility: hidden;"  transform=" translate(-161.48, 97.02)" d="m 220 -157 c -53 9 -28 100 -34 157 h -49 v -107 c 1 -27 -5 -49 -29 -50 C 55 -147 81 -57 75 0 H 25 l -1 -190 h 47 c 2 12 -1 28 3 38 c 10 -53 101 -56 108 0 c 13 -22 24 -43 59 -42 c 82 1 51 116 57 194 h -49 v -107 c -1 -25 -5 -48 -29 -50" stroke-linecap="round" />
</g>
<g transform="matrix(0.1 0 0 0.1 1117.1 494.02)" id="layer2"  >
<path style="stroke: none; stroke-width: 1; stroke-dasharray: none; stroke-linecap: butt; stroke-dashoffset: 0; stroke-linejoin: miter; stroke-miterlimit: 4; fill: rgb(0,0,0); fill-rule: nonzero; opacity: 1; visibility: hidden;"  transform=" translate(-161.48, 97.02)" d="m 220 -157 c -53 9 -28 100 -34 157 h -49 v -107 c 1 -27 -5 -49 -29 -50 C 55 -147 81 -57 75 0 H 25 l -1 -190 h 47 c 2 12 -1 28 3 38 c 10 -53 101 -56 108 0 c 13 -22 24 -43 59 -42 c 82 1 51 116 57 194 h -49 v -107 c -1 -25 -5 -48 -29 -50" stroke-linecap="round" />
</g>
<g transform="matrix(0.1 0 0 0.1 1143.44 494.22)" id="layer2"  >
<path style="stroke: none; stroke-width: 1; stroke-dasharray: none; stroke-linecap: butt; stroke-dashoffset: 0; stroke-linejoin: miter; stroke-miterlimit: 4; fill: rgb(0,0,0); fill-rule: nonzero; opacity: 1; visibility: hidden;"  transform=" translate(-106.49, 95)" d="M 133 -34 C 117 -15 103 5 69 4 C 32 3 11 -16 11 -54 c -1 -60 55 -63 116 -61 c 1 -26 -3 -47 -28 -47 c -18 1 -26 9 -28 27 l -52 -2 c 7 -38 36 -58 82 -57 c 46 1 74 22 75 68 l 1 82 c -1 14 12 18 25 15 v 27 c -30 8 -71 5 -69 -32 z m -48 3 c 29 0 43 -24 42 -57 c -32 0 -66 -3 -65 30 c 0 17 8 27 23 27" stroke-linecap="round" />
</g>
<g transform="matrix(0.1 0 0 0.1 1157.7 490.69)" id="layer2"  >
<path style="stroke: none; stroke-width: 1; stroke-dasharray: none; stroke-linecap: butt; stroke-dashoffset: 0; stroke-linejoin: miter; stroke-miterlimit: 4; fill: rgb(0,0,0); fill-rule: nonzero; opacity: 1; visibility: hidden;"  transform=" translate(-50, 130.5)" d="M 25 0 V -261 H 75 V 0 H 25" stroke-linecap="round" />
</g>
<g transform="matrix(0.1 0 0 0.1 226.43 485.93)" id="layer2"  >
<path style="stroke: none; stroke-width: 1; stroke-dasharray: none; stroke-linecap: butt; stroke-dashoffset: 0; stroke-linejoin: miter; stroke-miterlimit: 4; fill: rgb(0,0,0); fill-rule: nonzero; opacity: 1; visibility: hidden;"  transform=" translate(-138.5, 124.3)" d="m 240 -174 c 0 40 -23 61 -54 70 L 253 0 H 194 L 137 -94 H 76 V 0 H 24 v -248 c 93 4 217 -23 216 74 z m -164 40 c 48 -2 112 12 112 -38 c 0 -48 -66 -32 -112 -35 v 73" stroke-linecap="round" />
</g>
<g transform="matrix(0.1 0 0 0.1 248.44 488.85)" id="layer2"  >
<path style="stroke: none; stroke-width: 1; stroke-dasharray: none; stroke-linecap: butt; stroke-dashoffset: 0; stroke-linejoin: miter; stroke-miterlimit: 4; fill: rgb(0,0,0); fill-rule: nonzero; opacity: 1; visibility: hidden;"  transform=" translate(-101, 94.98)" d="M 185 -48 C 172 -18 148 5 103 4 C 43 2 14 -33 14 -96 c 0 -63 30 -98 90 -98 c 62 0 83 45 84 108 H 66 c 0 31 8 55 39 56 c 18 0 30 -7 34 -22 z m -45 -69 c 5 -46 -57 -63 -70 -21 c -2 6 -4 13 -4 21 h 74" stroke-linecap="round" />
</g>
<g transform="matrix(0.1 0 0 0.1 269.66 492.37)" id="layer2"  >
<path style="stroke: none; stroke-width: 1; stroke-dasharray: none; stroke-linecap: butt; stroke-dashoffset: 0; stroke-linejoin: miter; stroke-miterlimit: 4; fill: rgb(0,0,0); fill-rule: nonzero; opacity: 1; visibility: hidden;"  transform=" translate(-114.5, 59.5)" d="m 135 -194 c 53 0 70 44 70 98 c 0 56 -19 98 -73 100 c -31 1 -45 -17 -59 -34 c 3 33 2 69 2 105 H 25 l -1 -265 h 48 c 2 10 0 23 3 31 c 11 -24 29 -35 60 -35 z m -21 164 c 33 0 39 -31 40 -66 c 0 -38 -9 -64 -40 -64 c -56 0 -55 130 0 130" stroke-linecap="round" />
</g>
<g transform="matrix(0.1 0 0 0.1 285.96 486.78)" id="layer2"  >
<path style="stroke: none; stroke-width: 1; stroke-dasharray: none; stroke-linecap: butt; stroke-dashoffset: 0; stroke-linejoin: miter; stroke-miterlimit: 4; fill: rgb(0,0,0); fill-rule: nonzero; opacity: 1; visibility: hidden;"  transform=" translate(-59.5, 115.82)" d="M 115 -3 C 79 11 28 4 28 -45 V -157 H 4 v -33 h 27 l 15 -45 h 31 v 45 h 36 v 33 H 77 v 99 c -1 23 16 31 38 25 v 30" stroke-linecap="round" />
</g>
<g transform="matrix(0.1 0 0 0.1 296.84 485.32)" id="layer2"  >
<path style="stroke: none; stroke-width: 1; stroke-dasharray: none; stroke-linecap: butt; stroke-dashoffset: 0; stroke-linejoin: miter; stroke-miterlimit: 4; fill: rgb(0,0,0); fill-rule: nonzero; opacity: 1; visibility: hidden;"  transform=" translate(-50, 130.5)" d="m 25 -224 v -37 h 50 v 37 z M 25 0 V -190 H 75 V 0 H 25" stroke-linecap="round" />
</g>
<g transform="matrix(0.1 0 0 0.1 306.78 485.32)" id="layer2"  >
<path style="stroke: none; stroke-width: 1; stroke-dasharray: none; stroke-linecap: butt; stroke-dashoffset: 0; stroke-linejoin: miter; stroke-miterlimit: 4; fill: rgb(0,0,0); fill-rule: nonzero; opacity: 1; visibility: hidden;"  transform=" translate(-50, 130.5)" d="M 25 0 V -261 H 75 V 0 H 25" stroke-linecap="round" />
</g>
<g transform="matrix(0.1 0 0 0.1 321.78 488.85)" id="layer2"  >
<path style="stroke: none; stroke-width: 1; stroke-dasharray: none; stroke-linecap: butt; stroke-dashoffset: 0; stroke-linejoin: miter; stroke-miterlimit: 4; fill: rgb(0,0,0); fill-rule: nonzero; opacity: 1; visibility: hidden;"  transform=" translate(-101, 94.98)" d="M 185 -48 C 172 -18 148 5 103 4 C 43 2 14 -33 14 -96 c 0 -63 30 -98 90 -98 c 62 0 83 45 84 108 H 66 c 0 31 8 55 39 56 c 18 0 30 -7 34 -22 z m -45 -69 c 5 -46 -57 -63 -70 -21 c -2 6 -4 13 -4 21 h 74" stroke-linecap="round" />
</g>
<g transform="matrix(0.1 0 0 0.1 8.81 1219.47)" id="layer2"  >
<path style="stroke: none; stroke-width: 1; stroke-dasharray: none; stroke-linecap: butt; stroke-dashoffset: 0; stroke-linejoin: miter; stroke-miterlimit: 4; fill: rgb(0,0,0); fill-rule: nonzero; opacity: 1; visibility: hidden;"  transform=" translate(-131.88, 123.51)" d="m 212 -179 c -10 -28 -35 -45 -73 -45 c -59 0 -87 40 -87 99 c 0 60 29 101 89 101 c 43 0 62 -24 78 -52 l 27 14 C 228 -24 195 4 139 4 C 59 4 22 -46 18 -125 c -6 -104 99 -153 187 -111 c 19 9 31 26 39 46" stroke-linecap="round" />
</g>
<g transform="matrix(0.1 0 0 0.1 25.42 1218.78)" id="layer2"  >
<path style="stroke: none; stroke-width: 1; stroke-dasharray: none; stroke-linecap: butt; stroke-dashoffset: 0; stroke-linejoin: miter; stroke-miterlimit: 4; fill: rgb(0,0,0); fill-rule: nonzero; opacity: 1; visibility: hidden;"  transform=" translate(-40, 130.5)" d="M 24 0 V -261 H 56 V 0 H 24" stroke-linecap="round" />
</g>
<g transform="matrix(0.1 0 0 0.1 39.98 1222.31)" id="layer2"  >
<path style="stroke: none; stroke-width: 1; stroke-dasharray: none; stroke-linecap: butt; stroke-dashoffset: 0; stroke-linejoin: miter; stroke-miterlimit: 4; fill: rgb(0,0,0); fill-rule: nonzero; opacity: 1; visibility: hidden;"  transform=" translate(-107.49, 94.98)" d="M 141 -36 C 126 -15 110 5 73 4 C 37 3 15 -17 15 -53 c -1 -64 63 -63 125 -63 c 3 -35 -9 -54 -41 -54 c -24 1 -41 7 -42 31 l -33 -3 c 5 -37 33 -52 76 -52 c 45 0 72 20 72 64 v 82 c -1 20 7 32 28 27 V -1 C 169 8 139 -3 141 -36 Z M 48 -53 c 0 20 12 33 32 33 c 41 -3 63 -29 60 -74 c -43 2 -92 -5 -92 41" stroke-linecap="round" />
</g>
<g transform="matrix(0.1 0 0 0.1 57.97 1222.4)" id="layer2"  >
<path style="stroke: none; stroke-width: 1; stroke-dasharray: none; stroke-linecap: butt; stroke-dashoffset: 0; stroke-linejoin: miter; stroke-miterlimit: 4; fill: rgb(0,0,0); fill-rule: nonzero; opacity: 1; visibility: hidden;"  transform=" translate(-88.54, 94.05)" d="m 135 -143 c -3 -34 -86 -38 -87 0 c 15 53 115 12 119 90 c 4 78 -150 74 -157 8 l 28 -5 c 4 36 97 45 98 0 c -10 -56 -113 -15 -118 -90 c -4 -57 82 -63 122 -42 c 12 7 21 19 24 35" stroke-linecap="round" />
</g>
<g transform="matrix(0.1 0 0 0.1 75.86 1222.4)" id="layer2"  >
<path style="stroke: none; stroke-width: 1; stroke-dasharray: none; stroke-linecap: butt; stroke-dashoffset: 0; stroke-linejoin: miter; stroke-miterlimit: 4; fill: rgb(0,0,0); fill-rule: nonzero; opacity: 1; visibility: hidden;"  transform=" translate(-88.54, 94.05)" d="m 135 -143 c -3 -34 -86 -38 -87 0 c 15 53 115 12 119 90 c 4 78 -150 74 -157 8 l 28 -5 c 4 36 97 45 98 0 c -10 -56 -113 -15 -118 -90 c -4 -57 82 -63 122 -42 c 12 7 21 19 24 35" stroke-linecap="round" />
</g>
<g transform="matrix(0.1 0 0 0.1 88.92 1218.78)" id="layer2"  >
<path style="stroke: none; stroke-width: 1; stroke-dasharray: none; stroke-linecap: butt; stroke-dashoffset: 0; stroke-linejoin: miter; stroke-miterlimit: 4; fill: rgb(0,0,0); fill-rule: nonzero; opacity: 1; visibility: hidden;"  transform=" translate(-40, 130.5)" d="m 24 -231 v -30 h 32 v 30 z M 24 0 V -190 H 56 V 0 H 24" stroke-linecap="round" />
</g>
<g transform="matrix(0.1 0 0 0.1 98.07 1218.76)" id="layer2"  >
<path style="stroke: none; stroke-width: 1; stroke-dasharray: none; stroke-linecap: butt; stroke-dashoffset: 0; stroke-linejoin: miter; stroke-miterlimit: 4; fill: rgb(0,0,0); fill-rule: nonzero; opacity: 1; visibility: hidden;"  transform=" translate(-53, 130.72)" d="m 101 -234 c -31 -9 -42 10 -38 44 h 38 v 23 H 63 V 0 H 32 V -167 H 5 v -23 h 27 c -7 -52 17 -82 69 -68 v 24" stroke-linecap="round" />
</g>
<g transform="matrix(0.1 0 0 0.1 106.71 1218.78)" id="layer2"  >
<path style="stroke: none; stroke-width: 1; stroke-dasharray: none; stroke-linecap: butt; stroke-dashoffset: 0; stroke-linejoin: miter; stroke-miterlimit: 4; fill: rgb(0,0,0); fill-rule: nonzero; opacity: 1; visibility: hidden;"  transform=" translate(-40, 130.5)" d="m 24 -231 v -30 h 32 v 30 z M 24 0 V -190 H 56 V 0 H 24" stroke-linecap="round" />
</g>
<g transform="matrix(0.1 0 0 0.1 120.48 1222.31)" id="layer2"  >
<path style="stroke: none; stroke-width: 1; stroke-dasharray: none; stroke-linecap: butt; stroke-dashoffset: 0; stroke-linejoin: miter; stroke-miterlimit: 4; fill: rgb(0,0,0); fill-rule: nonzero; opacity: 1; visibility: hidden;"  transform=" translate(-99.55, 95)" d="m 100 -194 c 63 0 86 42 84 106 H 49 c 0 40 14 67 53 68 c 26 1 43 -12 49 -29 l 28 8 C 168 -13 142 4 102 4 C 44 4 14 -33 15 -96 c 1 -61 26 -98 85 -98 z m 52 81 c 6 -60 -76 -77 -97 -28 c -3 7 -6 17 -6 28 h 103" stroke-linecap="round" />
</g>
<g transform="matrix(0.1 0 0 0.1 137.32 1222.13)" id="layer2"  >
<path style="stroke: none; stroke-width: 1; stroke-dasharray: none; stroke-linecap: butt; stroke-dashoffset: 0; stroke-linejoin: miter; stroke-miterlimit: 4; fill: rgb(0,0,0); fill-rule: nonzero; opacity: 1; visibility: hidden;"  transform=" translate(-69, 96.83)" d="M 114 -163 C 36 -179 61 -72 57 0 H 25 l -1 -190 h 30 c 1 12 -1 29 2 39 c 6 -27 23 -49 58 -41 v 29" stroke-linecap="round" />
</g>
<g transform="matrix(0.1 0 0 0.1 306.14 1219.47)" id="layer2"  >
<path style="stroke: none; stroke-width: 1; stroke-dasharray: none; stroke-linecap: butt; stroke-dashoffset: 0; stroke-linejoin: miter; stroke-miterlimit: 4; fill: rgb(0,0,0); fill-rule: nonzero; opacity: 1; visibility: hidden;"  transform=" translate(-131.88, 123.51)" d="m 212 -179 c -10 -28 -35 -45 -73 -45 c -59 0 -87 40 -87 99 c 0 60 29 101 89 101 c 43 0 62 -24 78 -52 l 27 14 C 228 -24 195 4 139 4 C 59 4 22 -46 18 -125 c -6 -104 99 -153 187 -111 c 19 9 31 26 39 46" stroke-linecap="round" />
</g>
<g transform="matrix(0.1 0 0 0.1 322.75 1218.78)" id="layer2"  >
<path style="stroke: none; stroke-width: 1; stroke-dasharray: none; stroke-linecap: butt; stroke-dashoffset: 0; stroke-linejoin: miter; stroke-miterlimit: 4; fill: rgb(0,0,0); fill-rule: nonzero; opacity: 1; visibility: hidden;"  transform=" translate(-40, 130.5)" d="M 24 0 V -261 H 56 V 0 H 24" stroke-linecap="round" />
</g>
<g transform="matrix(0.1 0 0 0.1 337.31 1222.31)" id="layer2"  >
<path style="stroke: none; stroke-width: 1; stroke-dasharray: none; stroke-linecap: butt; stroke-dashoffset: 0; stroke-linejoin: miter; stroke-miterlimit: 4; fill: rgb(0,0,0); fill-rule: nonzero; opacity: 1; visibility: hidden;"  transform=" translate(-107.49, 94.98)" d="M 141 -36 C 126 -15 110 5 73 4 C 37 3 15 -17 15 -53 c -1 -64 63 -63 125 -63 c 3 -35 -9 -54 -41 -54 c -24 1 -41 7 -42 31 l -33 -3 c 5 -37 33 -52 76 -52 c 45 0 72 20 72 64 v 82 c -1 20 7 32 28 27 V -1 C 169 8 139 -3 141 -36 Z M 48 -53 c 0 20 12 33 32 33 c 41 -3 63 -29 60 -74 c -43 2 -92 -5 -92 41" stroke-linecap="round" />
</g>
<g transform="matrix(0.1 0 0 0.1 355.3 1222.4)" id="layer2"  >
<path style="stroke: none; stroke-width: 1; stroke-dasharray: none; stroke-linecap: butt; stroke-dashoffset: 0; stroke-linejoin: miter; stroke-miterlimit: 4; fill: rgb(0,0,0); fill-rule: nonzero; opacity: 1; visibility: hidden;"  transform=" translate(-88.54, 94.05)" d="m 135 -143 c -3 -34 -86 -38 -87 0 c 15 53 115 12 119 90 c 4 78 -150 74 -157 8 l 28 -5 c 4 36 97 45 98 0 c -10 -56 -113 -15 -118 -90 c -4 -57 82 -63 122 -42 c 12 7 21 19 24 35" stroke-linecap="round" />
</g>
<g transform="matrix(0.1 0 0 0.1 373.19 1222.4)" id="layer2"  >
<path style="stroke: none; stroke-width: 1; stroke-dasharray: none; stroke-linecap: butt; stroke-dashoffset: 0; stroke-linejoin: miter; stroke-miterlimit: 4; fill: rgb(0,0,0); fill-rule: nonzero; opacity: 1; visibility: hidden;"  transform=" translate(-88.54, 94.05)" d="m 135 -143 c -3 -34 -86 -38 -87 0 c 15 53 115 12 119 90 c 4 78 -150 74 -157 8 l 28 -5 c 4 36 97 45 98 0 c -10 -56 -113 -15 -118 -90 c -4 -57 82 -63 122 -42 c 12 7 21 19 24 35" stroke-linecap="round" />
</g>
<g transform="matrix(0.1 0 0 0.1 871.59 928.18)" id="layer2"  >
<path style="stroke: none; stroke-width: 1; stroke-dasharray: none; stroke-linecap: butt; stroke-dashoffset: 0; stroke-linejoin: miter; stroke-miterlimit: 4; fill: rgb(0,0,0); fill-rule: nonzero; opacity: 1; visibility: hidden;"  transform=" translate(-132.35, 123.76)" d="m 67 -125 c 0 53 21 87 73 88 c 37 1 54 -22 65 -47 l 45 17 C 233 -25 199 4 140 4 C 58 4 20 -42 15 -125 C 8 -235 124 -281 211 -232 c 18 10 29 29 36 50 l -46 12 c -8 -25 -30 -41 -62 -41 c -52 0 -71 34 -72 86" stroke-linecap="round" />
</g>
<g transform="matrix(0.1 0 0 0.1 894.76 931.03)" id="layer2"  >
<path style="stroke: none; stroke-width: 1; stroke-dasharray: none; stroke-linecap: butt; stroke-dashoffset: 0; stroke-linejoin: miter; stroke-miterlimit: 4; fill: rgb(0,0,0); fill-rule: nonzero; opacity: 1; visibility: hidden;"  transform=" translate(-106.49, 95)" d="M 133 -34 C 117 -15 103 5 69 4 C 32 3 11 -16 11 -54 c -1 -60 55 -63 116 -61 c 1 -26 -3 -47 -28 -47 c -18 1 -26 9 -28 27 l -52 -2 c 7 -38 36 -58 82 -57 c 46 1 74 22 75 68 l 1 82 c -1 14 12 18 25 15 v 27 c -30 8 -71 5 -69 -32 z m -48 3 c 29 0 43 -24 42 -57 c -32 0 -66 -3 -65 30 c 0 17 8 27 23 27" stroke-linecap="round" />
</g>
<g transform="matrix(0.1 0 0 0.1 909.97 928.97)" id="layer2"  >
<path style="stroke: none; stroke-width: 1; stroke-dasharray: none; stroke-linecap: butt; stroke-dashoffset: 0; stroke-linejoin: miter; stroke-miterlimit: 4; fill: rgb(0,0,0); fill-rule: nonzero; opacity: 1; visibility: hidden;"  transform=" translate(-59.5, 115.82)" d="M 115 -3 C 79 11 28 4 28 -45 V -157 H 4 v -33 h 27 l 15 -45 h 31 v 45 h 36 v 33 H 77 v 99 c -1 23 16 31 38 25 v 30" stroke-linecap="round" />
</g>
<g transform="matrix(0.1 0 0 0.1 1387.75 816.15)" id="layer2"  >
<path style="stroke: none; stroke-width: 1; stroke-dasharray: none; stroke-linecap: butt; stroke-dashoffset: 0; stroke-linejoin: miter; stroke-miterlimit: 4; fill: rgb(0,0,0); fill-rule: nonzero; opacity: 1; visibility: hidden;"  transform=" translate(-169.5, 124)" d="M 275 0 H 214 L 170 -196 L 126 0 H 64 L 0 -248 h 53 l 44 199 l 45 -199 h 58 l 43 199 l 44 -199 h 52" stroke-linecap="round" />
</g>
<g transform="matrix(0.1 0 0 0.1 1414.83 819.03)" id="layer2"  >
<path style="stroke: none; stroke-width: 1; stroke-dasharray: none; stroke-linecap: butt; stroke-dashoffset: 0; stroke-linejoin: miter; stroke-miterlimit: 4; fill: rgb(0,0,0); fill-rule: nonzero; opacity: 1; visibility: hidden;"  transform=" translate(-110, 95)" d="m 110 -194 c 64 0 96 36 96 99 c 0 64 -35 99 -97 99 c -61 0 -95 -36 -95 -99 c 0 -62 34 -99 96 -99 z m -1 164 c 35 0 45 -28 45 -65 c 0 -40 -10 -65 -43 -65 c -34 0 -45 26 -45 65 c 0 36 10 65 43 65" stroke-linecap="round" />
</g>
<g transform="matrix(0.1 0 0 0.1 1430.63 815.51)" id="layer2"  >
<path style="stroke: none; stroke-width: 1; stroke-dasharray: none; stroke-linecap: butt; stroke-dashoffset: 0; stroke-linejoin: miter; stroke-miterlimit: 4; fill: rgb(0,0,0); fill-rule: nonzero; opacity: 1; visibility: hidden;"  transform=" translate(-50, 130.5)" d="M 25 0 V -261 H 75 V 0 H 25" stroke-linecap="round" />
</g>
<g transform="matrix(0.1 0 0 0.1 1441.91 815.48)" id="layer2"  >
<path style="stroke: none; stroke-width: 1; stroke-dasharray: none; stroke-linecap: butt; stroke-dashoffset: 0; stroke-linejoin: miter; stroke-miterlimit: 4; fill: rgb(0,0,0); fill-rule: nonzero; opacity: 1; visibility: hidden;"  transform=" translate(-63.5, 130.8)" d="m 121 -226 c -27 -7 -43 5 -38 36 h 38 v 33 H 83 V 0 H 34 V -157 H 6 v -33 h 28 c -9 -59 32 -81 87 -68 v 32" stroke-linecap="round" />
</g>
<g transform="matrix(0.1 0 0 0.1 1257.9 1222.37)" id="layer2"  >
<path style="stroke: none; stroke-width: 1; stroke-dasharray: none; stroke-linecap: butt; stroke-dashoffset: 0; stroke-linejoin: miter; stroke-miterlimit: 4; fill: rgb(0,0,0); fill-rule: nonzero; opacity: 1; visibility: hidden;"  transform=" translate(-134.51, 124.79)" d="m 24 -248 c 120 -7 223 5 221 122 C 244 -46 201 0 124 0 H 24 Z m 52 208 c 74 7 117 -18 117 -86 c 0 -67 -45 -88 -117 -82 v 168" stroke-linecap="round" />
</g>
<g transform="matrix(0.1 0 0 0.1 1281.2 1225.33)" id="layer2"  >
<path style="stroke: none; stroke-width: 1; stroke-dasharray: none; stroke-linecap: butt; stroke-dashoffset: 0; stroke-linejoin: miter; stroke-miterlimit: 4; fill: rgb(0,0,0); fill-rule: nonzero; opacity: 1; visibility: hidden;"  transform=" translate(-110, 95)" d="m 110 -194 c 64 0 96 36 96 99 c 0 64 -35 99 -97 99 c -61 0 -95 -36 -95 -99 c 0 -62 34 -99 96 -99 z m -1 164 c 35 0 45 -28 45 -65 c 0 -40 -10 -65 -43 -65 c -34 0 -45 26 -45 65 c 0 36 10 65 43 65" stroke-linecap="round" />
</g>
<g transform="matrix(0.1 0 0 0.1 1302.52 1228.93)" id="layer2"  >
<path style="stroke: none; stroke-width: 1; stroke-dasharray: none; stroke-linecap: butt; stroke-dashoffset: 0; stroke-linejoin: miter; stroke-miterlimit: 4; fill: rgb(0,0,0); fill-rule: nonzero; opacity: 1; visibility: hidden;"  transform=" translate(-105.5, 58.76)" d="M 195 -6 C 206 82 75 100 31 46 C 27 40 25 33 23 25 l 49 -6 c 3 16 16 24 34 25 c 40 0 42 -37 40 -79 C 135 -13 116 0 85 0 C 32 0 15 -43 15 -97 c 0 -56 18 -96 73 -97 c 30 0 46 14 59 34 l 2 -30 h 47 z m -90 -29 c 32 0 41 -27 41 -63 c 0 -35 -9 -62 -40 -62 c -32 0 -39 29 -40 63 c 0 36 9 62 39 62" stroke-linecap="round" />
</g>
<g transform="matrix(0.1 0 0 0.1 430.17 927.7)" id="layer2"  >
<path style="stroke: none; stroke-width: 1; stroke-dasharray: none; stroke-linecap: butt; stroke-dashoffset: 0; stroke-linejoin: miter; stroke-miterlimit: 4; fill: rgb(0,0,0); fill-rule: nonzero; opacity: 1; visibility: hidden;"  transform=" translate(-116.5, 124)" d="M 24 0 V -248 H 76 V -40 H 209 V 0 H 24" stroke-linecap="round" />
</g>
<g transform="matrix(0.1 0 0 0.1 445.32 927.06)" id="layer2"  >
<path style="stroke: none; stroke-width: 1; stroke-dasharray: none; stroke-linecap: butt; stroke-dashoffset: 0; stroke-linejoin: miter; stroke-miterlimit: 4; fill: rgb(0,0,0); fill-rule: nonzero; opacity: 1; visibility: hidden;"  transform=" translate(-50, 130.5)" d="m 25 -224 v -37 h 50 v 37 z M 25 0 V -190 H 75 V 0 H 25" stroke-linecap="round" />
</g>
<g transform="matrix(0.1 0 0 0.1 459.33 930.59)" id="layer2"  >
<path style="stroke: none; stroke-width: 1; stroke-dasharray: none; stroke-linecap: butt; stroke-dashoffset: 0; stroke-linejoin: miter; stroke-miterlimit: 4; fill: rgb(0,0,0); fill-rule: nonzero; opacity: 1; visibility: hidden;"  transform=" translate(-91, 95)" d="m 12 0 v -35 l 95 -120 H 19 v -35 h 142 v 35 L 67 -36 H 170 V 0 H 12" stroke-linecap="round" />
</g>
<g transform="matrix(0.1 0 0 0.1 478.76 930.59)" id="layer2"  >
<path style="stroke: none; stroke-width: 1; stroke-dasharray: none; stroke-linecap: butt; stroke-dashoffset: 0; stroke-linejoin: miter; stroke-miterlimit: 4; fill: rgb(0,0,0); fill-rule: nonzero; opacity: 1; visibility: hidden;"  transform=" translate(-106.49, 95)" d="M 133 -34 C 117 -15 103 5 69 4 C 32 3 11 -16 11 -54 c -1 -60 55 -63 116 -61 c 1 -26 -3 -47 -28 -47 c -18 1 -26 9 -28 27 l -52 -2 c 7 -38 36 -58 82 -57 c 46 1 74 22 75 68 l 1 82 c -1 14 12 18 25 15 v 27 c -30 8 -71 5 -69 -32 z m -48 3 c 29 0 43 -24 42 -57 c -32 0 -66 -3 -65 30 c 0 17 8 27 23 27" stroke-linecap="round" />
</g>
<g transform="matrix(0.1 0 0 0.1 495.96 930.38)" id="layer2"  >
<path style="stroke: none; stroke-width: 1; stroke-dasharray: none; stroke-linecap: butt; stroke-dashoffset: 0; stroke-linejoin: miter; stroke-miterlimit: 4; fill: rgb(0,0,0); fill-rule: nonzero; opacity: 1; visibility: hidden;"  transform=" translate(-79.5, 97.04)" d="m 135 -150 c -39 -12 -60 13 -60 57 V 0 H 25 l -1 -190 h 47 c 2 13 -1 29 3 40 c 6 -28 27 -53 61 -41 v 41" stroke-linecap="round" />
</g>
<g transform="matrix(0.1 0 0 0.1 512.45 927.26)" id="layer2"  >
<path style="stroke: none; stroke-width: 1; stroke-dasharray: none; stroke-linecap: butt; stroke-dashoffset: 0; stroke-linejoin: miter; stroke-miterlimit: 4; fill: rgb(0,0,0); fill-rule: nonzero; opacity: 1; visibility: hidden;"  transform=" translate(-105.5, 128.5)" d="m 88 -194 c 31 -1 46 15 58 34 l -1 -101 h 50 l 1 261 h -48 c -2 -10 0 -23 -3 -31 C 134 -8 116 4 84 4 C 32 4 16 -41 15 -95 c 0 -56 19 -97 73 -99 z m 17 164 c 33 0 40 -30 41 -66 c 1 -37 -9 -64 -41 -64 c -32 0 -38 30 -39 65 c 0 43 13 65 39 65" stroke-linecap="round" />
</g>
<g transform="matrix(0.1 0 0 0.1 52.17 929.7)" id="layer2"  >
<path style="stroke: none; stroke-width: 1; stroke-dasharray: none; stroke-linecap: butt; stroke-dashoffset: 0; stroke-linejoin: miter; stroke-miterlimit: 4; fill: rgb(0,0,0); fill-rule: nonzero; opacity: 1; visibility: hidden;"  transform=" translate(-118.02, 124.08)" d="m 169 -182 c -1 -43 -94 -46 -97 -3 c 18 66 151 10 154 114 c 3 95 -165 93 -204 36 c -6 -8 -10 -19 -12 -30 l 50 -8 c 3 46 112 56 116 5 c -17 -69 -150 -10 -154 -114 c -4 -87 153 -88 188 -35 c 5 8 8 18 10 28" stroke-linecap="round" />
</g>
<g transform="matrix(0.1 0 0 0.1 75.37 932.39)" id="layer2"  >
<path style="stroke: none; stroke-width: 1; stroke-dasharray: none; stroke-linecap: butt; stroke-dashoffset: 0; stroke-linejoin: miter; stroke-miterlimit: 4; fill: rgb(0,0,0); fill-rule: nonzero; opacity: 1; visibility: hidden;"  transform=" translate(-111.41, 97)" d="m 135 -194 c 87 -1 58 113 63 194 h -50 c -7 -57 23 -157 -34 -157 c -59 0 -34 97 -39 157 H 25 l -1 -190 h 47 c 2 12 -1 28 3 38 c 12 -26 28 -41 61 -42" stroke-linecap="round" />
</g>
<g transform="matrix(0.1 0 0 0.1 96.65 932.59)" id="layer2"  >
<path style="stroke: none; stroke-width: 1; stroke-dasharray: none; stroke-linecap: butt; stroke-dashoffset: 0; stroke-linejoin: miter; stroke-miterlimit: 4; fill: rgb(0,0,0); fill-rule: nonzero; opacity: 1; visibility: hidden;"  transform=" translate(-106.49, 95)" d="M 133 -34 C 117 -15 103 5 69 4 C 32 3 11 -16 11 -54 c -1 -60 55 -63 116 -61 c 1 -26 -3 -47 -28 -47 c -18 1 -26 9 -28 27 l -52 -2 c 7 -38 36 -58 82 -57 c 46 1 74 22 75 68 l 1 82 c -1 14 12 18 25 15 v 27 c -30 8 -71 5 -69 -32 z m -48 3 c 29 0 43 -24 42 -57 c -32 0 -66 -3 -65 30 c 0 17 8 27 23 27" stroke-linecap="round" />
</g>
<g transform="matrix(0.1 0 0 0.1 117.17 929.06)" id="layer2"  >
<path style="stroke: none; stroke-width: 1; stroke-dasharray: none; stroke-linecap: butt; stroke-dashoffset: 0; stroke-linejoin: miter; stroke-miterlimit: 4; fill: rgb(0,0,0); fill-rule: nonzero; opacity: 1; visibility: hidden;"  transform=" translate(-113, 130.5)" d="M 147 0 L 96 -86 L 75 -71 V 0 H 25 v -261 h 50 v 150 l 67 -79 h 53 l -66 74 l 72 116 h -54" stroke-linecap="round" />
</g>
<g transform="matrix(0.1 0 0 0.1 135.85 932.59)" id="layer2"  >
<path style="stroke: none; stroke-width: 1; stroke-dasharray: none; stroke-linecap: butt; stroke-dashoffset: 0; stroke-linejoin: miter; stroke-miterlimit: 4; fill: rgb(0,0,0); fill-rule: nonzero; opacity: 1; visibility: hidden;"  transform=" translate(-101, 94.98)" d="M 185 -48 C 172 -18 148 5 103 4 C 43 2 14 -33 14 -96 c 0 -63 30 -98 90 -98 c 62 0 83 45 84 108 H 66 c 0 31 8 55 39 56 c 18 0 30 -7 34 -22 z m -45 -69 c 5 -46 -57 -63 -70 -21 c -2 6 -4 13 -4 21 h 74" stroke-linecap="round" />
</g>
<g transform="matrix(1 0 0 1 1243.9 954.94)" style=""  >
		<text xml:space="preserve" font-family="'Open Sans', sans-serif" font-size="64" font-style="normal" font-weight="normal" style="stroke: none; stroke-width: 1; stroke-dasharray: none; stroke-linecap: butt; stroke-dashoffset: 0; stroke-linejoin: miter; stroke-miterlimit: 4; fill: rgb(0,0,0); fill-rule: nonzero; opacity: 1; white-space: pre;" ><tspan x="-110.23" y="20.1" >Human</tspan></text>
</g>
<g transform="matrix(1 0 0 1 81.45 505.87)" style=""  >
		<text xml:space="preserve" font-family="'Open Sans', sans-serif" font-size="65" font-style="normal" font-weight="normal" style="stroke: none; stroke-width: 1; stroke-dasharray: none; stroke-linecap: butt; stroke-dashoffset: 0; stroke-linejoin: miter; stroke-miterlimit: 4; fill: rgb(0,0,0); fill-rule: nonzero; opacity: 1; white-space: pre;" ><tspan x="-60.62" y="20.42" >Fish</tspan></text>
</g>
<g transform="matrix(1 0 0 1 845 951.61)" style=""  >
		<text xml:space="preserve" font-family="'Open Sans', sans-serif" font-size="64" font-style="normal" font-weight="normal" style="stroke: none; stroke-width: 1; stroke-dasharray: none; stroke-linecap: butt; stroke-dashoffset: 0; stroke-linejoin: miter; stroke-miterlimit: 4; fill: rgb(0,0,0); fill-rule: nonzero; opacity: 1; white-space: pre;" ><tspan x="-104" y="20.1" >Bovine</tspan></text>
</g>
<g transform="matrix(0.05 0 0 0.05 1240.14 834.14)"  >
<g style=""   >
		<g transform="matrix(0.13 0 0 -0.13 -0.73 0.16)"  >
<path style="stroke: none; stroke-width: 1; stroke-dasharray: none; stroke-linecap: butt; stroke-dashoffset: 0; stroke-linejoin: miter; stroke-miterlimit: 4; fill: rgb(0,0,0); fill-rule: nonzero; opacity: 1;"  transform=" translate(-3674.49, -9283.81)" d="M 3463 18559 c 4 -11 0 -16 -11 -15 c -13 1 -17 -7 -16 -29 c 2 -30 2 -30 -15 7 c -9 21 -20 38 -25 38 c -8 0 -6 -12 9 -55 c 6 -19 6 -19 -8 -2 c -16 19 -33 7 -22 -15 c 4 -7 1 -6 -7 2 c -11 13 -48 24 -48 14 c 0 -10 49 -49 58 -46 c 5 1 13 -2 17 -7 c 4 -7 -4 -11 -19 -11 c -14 0 -28 5 -31 10 c -10 16 -25 12 -19 -5 c 10 -25 -8 -17 -48 22 c -49 48 -59 38 -12 -11 c 20 -20 33 -40 30 -43 c -3 -4 -18 7 -32 23 c -23 25 -26 26 -21 8 c 4 -20 2 -21 -27 -13 c -41 12 -76 11 -76 -1 c 0 -5 11 -10 25 -10 c 23 0 24 -2 15 -20 c -11 -21 -40 -28 -40 -10 c 0 6 -4 10 -10 10 c -15 0 -12 -17 8 -36 c 16 -17 16 -17 -3 -9 c -23 9 -34 9 -92 -1 c -24 -3 -43 -10 -43 -15 c 0 -5 8 -6 18 -2 c 14 5 13 3 -3 -10 c -15 -12 -16 -16 -5 -17 c 10 0 4 -9 -15 -26 c -27 -23 -36 -25 -85 -20 c -37 3 -48 2 -34 -4 c 12 -5 25 -14 30 -21 c 4 -8 3 -10 -5 -5 c -14 9 -71 -2 -71 -15 c 0 -5 11 -4 26 1 c 14 6 27 10 30 10 c 8 0 -31 -37 -46 -44 c -8 -3 2 -4 23 -2 c 22 3 35 1 32 -5 c -4 -5 -20 -9 -36 -9 c -25 0 -28 -2 -17 -14 c 9 -10 15 -11 20 -2 c 6 8 8 8 8 0 c 0 -18 -28 -37 -45 -31 c -8 4 -22 -1 -31 -10 c -15 -16 -15 -17 2 -24 c 18 -7 18 -8 -1 -8 c -17 -1 -18 -3 -5 -11 c 13 -9 13 -11 0 -20 c -8 -5 -21 -8 -28 -5 c -7 3 -10 0 -7 -5 c 3 -6 1 -10 -5 -10 c -21 0 -49 -44 -44 -67 c 7 -29 -10 -58 -46 -80 c -17 -9 -30 -21 -30 -26 c 0 -4 6 -5 13 -1 c 6 4 3 -2 -7 -14 c -11 -12 -14 -22 -9 -22 c 6 0 13 -9 16 -20 c 3 -12 0 -20 -8 -20 c -8 0 -11 -7 -8 -20 c 3 -11 9 -18 12 -15 c 4 2 8 -2 8 -10 c 0 -8 -4 -12 -9 -9 c -11 7 -10 -27 1 -45 c 7 -10 3 -24 -10 -42 c -12 -17 -18 -38 -15 -54 c 3 -14 1 -23 -5 -20 c -5 4 -9 1 -9 -5 c 0 -7 -7 -10 -15 -6 c -9 3 -15 0 -15 -10 c 0 -11 6 -15 19 -11 c 15 3 18 -1 17 -19 c 0 -15 -6 -22 -13 -20 c -7 3 -15 1 -18 -3 c -3 -5 1 -11 9 -14 c 9 -4 12 -14 9 -26 c -3 -13 2 -24 15 -32 c 17 -10 18 -16 8 -32 c -8 -15 -8 -21 2 -24 c 6 -3 10 -9 6 -14 c -3 -5 -1 -9 5 -9 c 13 0 3 -29 -18 -54 c -9 -11 -11 -16 -4 -13 c 21 13 45 -4 40 -29 c -3 -16 0 -24 9 -24 c 14 0 16 -5 17 -52 c 1 -27 11 -37 20 -20 c 2 4 2 0 -1 -8 c -12 -41 -13 -58 0 -71 c 18 -19 22 -49 7 -49 c -9 0 -8 -4 3 -12 c 21 -18 53 -109 66 -188 c 28 -168 75 -274 133 -303 c 34 -16 37 -21 43 -74 c 10 -88 33 -154 78 -228 c 57 -95 77 -158 80 -255 c 3 -82 3 -82 -29 -109 c -18 -14 -58 -39 -90 -56 c -32 -16 -75 -40 -95 -53 c -21 -12 -38 -20 -38 -17 c 0 3 -21 -6 -47 -19 c -129 -65 -274 -130 -403 -180 c -36 -13 -101 -42 -145 -64 c -44 -22 -91 -43 -105 -47 c -14 -4 -29 -11 -35 -15 c -8 -6 -137 -47 -170 -54 c -65 -14 -223 -74 -264 -100 c -78 -48 -192 -165 -223 -227 c -35 -71 -58 -184 -69 -344 c -4 -71 -13 -179 -19 -240 c -5 -60 -7 -134 -4 -165 c 12 -137 27 -254 45 -368 c 19 -113 19 -138 9 -320 c -6 -108 -13 -199 -16 -203 c -2 -4 -8 -132 -14 -285 c -5 -154 -14 -306 -20 -339 c -5 -33 -14 -103 -20 -155 c -17 -169 -92 -444 -154 -569 c -16 -31 -84 -232 -119 -351 c -21 -72 -39 -170 -62 -335 c -2 -16 -5 -63 -6 -103 c -1 -40 -6 -75 -11 -78 c -4 -3 -6 -10 -2 -15 c 3 -5 1 -83 -5 -172 c -6 -89 -12 -248 -12 -353 c -1 -105 -6 -217 -11 -250 c -18 -117 -30 -190 -38 -224 c -5 -19 -21 -89 -36 -155 c -14 -66 -34 -140 -43 -165 c -9 -25 -16 -49 -16 -55 c 0 -5 -3 -14 -6 -20 c -16 -26 -33 -98 -49 -208 l -18 -122 l -61 -57 c -74 -70 -161 -128 -301 -201 c -113 -58 -104 -48 -172 -192 c -14 -27 -42 -81 -65 -120 c -22 -38 -50 -104 -63 -146 c -13 -44 -33 -88 -48 -105 c -15 -16 -34 -42 -42 -58 c -14 -26 -13 -29 9 -47 c 29 -23 48 -24 103 -2 c 91 36 114 57 159 150 c 42 87 107 176 136 187 c 13 5 14 -5 10 -71 c -19 -262 -31 -320 -91 -465 c -9 -21 -16 -55 -16 -77 c 0 -21 -9 -68 -20 -103 c -27 -85 -28 -236 -3 -265 c 42 -48 100 -35 132 31 c 11 22 30 84 42 136 c 12 52 28 109 36 125 c 13 29 14 28 8 -23 c -3 -28 -14 -87 -25 -130 c -28 -114 -43 -209 -36 -235 c 9 -37 54 -77 85 -77 c 54 0 68 24 101 174 c 17 76 46 184 66 240 c 19 55 38 132 42 171 c 7 67 8 70 35 73 c 15 2 27 2 27 0 c 0 -2 -7 -39 -16 -83 c -9 -49 -13 -101 -9 -135 c 4 -37 -1 -88 -14 -155 c -11 -55 -23 -126 -26 -157 c -7 -55 -6 -59 23 -88 c 58 -58 121 -25 141 73 c 42 205 65 358 69 452 c 4 110 9 125 44 125 c 13 0 18 -12 23 -47 c 3 -27 12 -62 20 -80 c 8 -17 17 -85 21 -149 c 6 -106 10 -120 31 -142 c 19 -19 31 -23 56 -18 c 38 8 43 16 58 86 c 12 58 7 202 -12 340 c -13 92 -7 177 20 267 c 11 37 23 84 26 103 c 3 19 13 58 21 86 c 8 28 17 62 19 75 c 3 13 9 47 14 74 c 6 28 13 113 17 190 c 7 145 11 167 64 325 c 71 213 98 310 170 600 c 28 113 57 225 65 250 c 7 25 22 74 33 110 c 11 36 30 99 42 140 c 20 65 59 183 100 300 c 7 19 28 76 47 125 c 65 166 91 254 113 373 c 11 64 25 135 31 157 c 18 71 31 238 25 320 c -16 211 -17 258 -6 326 c 6 41 14 94 16 119 c 3 25 9 61 15 81 c 12 50 57 365 70 502 c 6 62 14 135 18 162 l 7 50 l 8 -40 c 4 -22 16 -70 28 -107 c 11 -37 17 -72 13 -78 c -3 -5 -3 -10 2 -10 c 4 0 9 -15 9 -33 c 5 -116 51 -510 73 -626 c 6 -29 11 -119 11 -200 c 1 -144 -13 -279 -63 -616 c -26 -175 -30 -439 -9 -546 c 11 -53 11 -74 1 -110 c -7 -24 -12 -47 -11 -51 c 1 -5 -1 -8 -5 -8 c -5 0 -9 -10 -10 -22 c 0 -13 -10 -81 -22 -153 c -19 -124 -26 -155 -73 -323 c -11 -40 -21 -83 -23 -95 c -2 -12 -12 -60 -24 -107 c -11 -47 -22 -107 -25 -135 c -2 -27 -11 -115 -19 -195 c -9 -80 -24 -215 -33 -300 c -9 -85 -19 -174 -21 -197 c -3 -24 -9 -43 -15 -43 c -5 0 -7 -4 -4 -9 c 3 -5 -2 -51 -13 -103 c -10 -51 -19 -115 -20 -143 c -1 -27 -8 -113 -15 -190 c -12 -134 -13 -452 -2 -600 c 5 -64 10 -149 21 -389 c 2 -49 7 -108 11 -131 c 3 -25 1 -51 -5 -63 c -8 -15 -8 -21 1 -24 c 7 -3 13 -20 13 -39 c 1 -19 3 -39 6 -44 c 3 -6 5 -63 5 -128 c -1 -64 2 -117 6 -117 c 4 0 4 -7 1 -17 c -4 -9 -2 -14 3 -11 c 5 4 8 -22 6 -60 c -2 -43 0 -62 6 -53 c 15 21 20 2 26 -88 c 3 -46 9 -88 13 -94 c 3 -6 1 -7 -5 -3 c -14 9 -14 9 -3 -31 c 5 -18 6 -48 1 -68 c -7 -30 -6 -35 6 -31 c 13 5 19 -17 15 -52 c -1 -8 5 -24 14 -38 c 8 -13 11 -24 5 -24 c -6 0 -6 -9 0 -26 c 6 -14 6 -23 1 -20 c -9 6 -21 -15 -21 -36 c 0 -7 5 -6 14 1 c 11 9 15 6 18 -13 c 3 -14 1 -27 -5 -29 c -5 -1 -7 -13 -3 -25 c 4 -12 11 -20 16 -17 c 5 3 12 0 16 -6 c 4 -7 3 -9 -3 -6 c -6 4 -13 -6 -15 -23 c -3 -17 -1 -30 4 -30 c 5 0 5 -12 2 -26 c -5 -19 -4 -25 5 -20 c 8 5 8 0 1 -20 c -9 -23 -8 -25 7 -20 c 16 6 16 6 0 -12 c -22 -24 -22 -36 -1 -28 c 14 5 15 4 4 -9 c -10 -12 -10 -15 4 -15 c 18 0 22 -15 6 -25 c -5 -3 -10 -11 -10 -16 c 0 -6 5 -7 12 -3 c 7 5 8 3 3 -7 c -14 -21 -12 -169 1 -158 c 25 20 25 -99 1 -129 c -8 -10 -7 -16 3 -22 c 16 -10 19 -78 5 -88 c -12 -8 -12 -69 0 -96 c 5 -11 4 -26 -4 -37 c -7 -12 -7 -19 -1 -19 c 5 0 10 -9 10 -21 c 0 -11 -3 -18 -7 -16 c -5 3 -9 -20 -10 -51 c -1 -32 -4 -101 -6 -155 c -2 -53 0 -97 5 -97 c 4 0 8 -5 8 -11 c 0 -5 -3 -8 -8 -5 c -4 2 -7 -13 -7 -34 c 0 -21 2 -37 6 -35 c 3 2 5 -15 4 -38 c -1 -23 2 -47 7 -54 c 5 -6 5 -14 0 -17 c -5 -3 -7 -34 -6 -70 c 2 -51 -1 -69 -16 -89 c -15 -18 -16 -27 -7 -36 c 9 -9 8 -14 -3 -21 c -8 -5 -11 -10 -6 -10 c 6 0 5 -5 -2 -12 c -14 -14 -16 -42 -2 -33 c 6 3 10 1 10 -4 c 0 -6 -5 -11 -10 -11 c -6 0 -10 -6 -8 -12 c 1 -7 -3 -23 -10 -35 c -7 -12 -9 -29 -6 -38 c 4 -9 0 -30 -9 -48 c -15 -31 -56 -160 -60 -188 c -2 -8 -6 -19 -10 -26 c -4 -7 -1 -16 8 -21 c 14 -7 14 -10 2 -21 c -8 -6 -13 -21 -10 -31 c 4 -15 0 -20 -13 -20 c -14 0 -15 -3 -6 -12 c 18 -18 15 -35 -8 -41 c -11 -3 -20 -10 -20 -17 c 0 -6 5 -8 11 -4 c 8 4 8 1 0 -14 c -6 -12 -11 -25 -10 -29 c 1 -4 1 -10 -1 -13 c -8 -22 -8 -54 -1 -69 c 6 -10 6 -23 1 -31 c -5 -9 -5 -19 2 -27 c 8 -10 6 -13 -6 -13 c -14 0 -15 -4 -6 -21 c 7 -12 9 -32 4 -47 c -9 -33 -14 -89 -15 -162 c 0 -30 -4 -70 -9 -87 c -4 -18 -5 -33 -2 -33 c 4 0 7 -69 7 -154 c -1 -85 3 -152 7 -150 c 8 5 10 -24 12 -158 c 1 -43 4 -78 7 -78 c 4 0 6 -43 4 -95 c -1 -82 0 -93 13 -82 c 13 10 14 8 10 -15 c -3 -16 -1 -28 3 -28 c 5 0 9 -9 9 -20 c 0 -11 -4 -20 -10 -20 c -5 0 -10 -5 -10 -11 c 0 -5 4 -8 10 -4 c 12 7 32 -67 24 -91 c -4 -14 -3 -15 4 -6 c 6 9 13 -6 21 -50 c 12 -63 24 -109 67 -268 c 13 -46 26 -102 29 -123 c 4 -22 11 -51 17 -66 c 5 -14 16 -53 23 -86 c 7 -33 25 -105 40 -160 c 34 -128 70 -294 101 -470 c 29 -162 33 -314 11 -420 c -8 -38 -18 -122 -22 -185 c -7 -129 -18 -174 -49 -208 c -32 -35 -120 -82 -154 -82 c -70 0 -142 -107 -137 -204 c 3 -60 23 -95 71 -121 c 16 -9 46 -29 65 -45 c 18 -17 57 -41 85 -54 c 42 -20 52 -30 62 -62 c 25 -85 107 -146 219 -164 c 87 -15 270 -12 332 5 c 35 9 63 24 78 41 c 37 44 39 56 33 268 c -3 88 -1 100 17 115 c 53 43 69 109 49 201 c -12 58 -11 78 5 177 c 10 61 26 127 35 145 c 38 72 17 249 -48 396 c -10 23 -30 88 -44 143 c -25 95 -26 111 -22 287 c 5 188 15 266 69 487 c 10 45 19 95 19 112 c 0 25 5 31 28 36 c 23 5 27 10 27 39 c 0 18 -4 36 -9 39 c -4 4 -3 10 3 13 c 6 4 11 2 11 -3 c 0 -6 5 -11 11 -11 c 6 0 10 12 9 28 c -2 34 9 72 22 72 c 6 0 5 6 -2 15 c -10 12 -9 16 4 21 c 11 4 14 13 11 25 c -3 10 1 32 10 49 c 8 16 12 30 8 30 c -5 0 -2 4 6 9 c 12 8 13 12 1 25 c -7 9 -10 19 -6 23 c 3 3 6 1 6 -5 c 0 -19 17 -14 23 8 c 3 10 0 21 -7 24 c -8 3 -8 5 0 5 c 7 1 10 15 7 36 c -2 21 3 45 13 60 c 8 13 12 30 8 36 c -4 8 -3 9 4 5 c 12 -7 34 35 30 58 c -1 6 3 29 9 51 c 7 22 9 66 7 97 c -4 50 -3 57 12 51 c 13 -5 15 -2 8 18 c -11 35 -11 311 0 331 c 7 11 6 32 -3 65 c -14 52 -31 199 -35 303 c -1 36 -6 73 -10 83 c -5 9 -5 30 -1 45 c 7 24 14 107 16 195 c 0 15 4 25 8 22 c 5 -2 6 16 3 42 c -4 37 -1 49 14 61 c 13 10 15 16 7 19 c -20 7 -15 37 16 105 c 40 89 54 136 48 164 c -2 13 0 27 5 30 c 5 3 7 12 4 20 c -3 8 0 11 8 8 c 7 -3 13 2 13 10 c 0 8 -4 13 -8 10 c -8 -5 22 78 31 86 c 10 8 68 183 69 208 c 1 6 9 12 19 12 c 14 0 17 11 20 62 c 1 34 7 67 13 75 c 9 10 8 13 -1 13 c -10 0 -10 3 0 15 c 7 8 13 33 14 54 c 0 23 4 35 9 28 c 4 -7 7 13 8 43 c 0 30 2 79 5 108 c 4 34 2 58 -6 67 c -10 12 -10 15 0 15 c 9 0 9 4 -1 17 c -8 10 -9 14 -2 10 c 19 -11 25 10 8 27 c -20 19 -20 27 -3 37 c 11 7 10 11 -2 18 c -11 8 -12 15 -3 33 c 20 42 23 59 12 79 c -7 14 -7 29 0 50 c 7 20 7 29 -1 29 c -7 0 -7 4 -1 12 c 11 14 1 160 -12 192 c -5 12 -5 17 1 13 c 7 -4 10 49 10 148 c -1 84 2 148 6 142 c 5 -7 8 -3 8 10 c 0 12 -4 25 -10 28 c -5 3 -10 12 -10 18 c 0 8 3 7 9 -2 c 6 -9 11 2 15 35 c 5 42 16 232 17 286 c 0 10 4 18 8 18 c 4 0 7 25 6 55 c 0 30 3 55 6 55 c 4 0 7 17 6 38 c 0 20 2 53 6 72 c 3 19 8 67 12 105 c 3 39 13 105 21 149 c 8 43 14 102 14 132 c 0 30 4 54 10 54 c 5 0 7 6 4 14 c -3 7 2 53 10 102 c 8 49 18 114 21 144 c 3 30 10 78 15 105 c 17 88 30 275 30 439 c 0 147 1 158 18 150 c 9 -5 45 -9 80 -9 l 62 0 l 0 -90 c 0 -216 12 -477 26 -564 c 9 -52 18 -124 20 -160 c 3 -36 9 -91 14 -121 c 10 -58 19 -121 26 -180 c 2 -19 8 -71 13 -115 c 5 -44 6 -84 3 -89 c -3 -5 0 -6 6 -2 c 10 6 21 -74 21 -149 c 0 -16 4 -46 9 -65 c 5 -20 7 -44 5 -55 c -6 -29 -3 -147 3 -157 c 7 -10 8 -24 18 -141 c 5 -58 4 -83 -6 -94 c -10 -12 -10 -17 -1 -20 c 8 -3 10 -19 7 -45 c -3 -22 -1 -37 4 -34 c 5 3 9 -8 10 -24 c 0 -16 -4 -32 -9 -36 c -6 -4 -6 -11 1 -19 c 7 -9 8 -20 2 -32 c -23 -46 -28 -78 -15 -103 c 7 -14 11 -35 8 -48 c -11 -48 -14 -132 -5 -132 c 6 0 10 -7 10 -15 c 0 -8 -3 -15 -7 -15 c -5 0 -9 -32 -11 -71 c -2 -47 0 -69 7 -64 c 8 4 8 -2 1 -21 c -6 -15 -7 -30 -3 -33 c 11 -8 12 -151 1 -145 c -4 3 -8 -7 -8 -21 c 0 -14 4 -24 9 -21 c 5 3 8 -5 7 -18 c 0 -13 -5 -22 -10 -19 c -5 4 -6 -5 -3 -19 c 5 -18 1 -30 -13 -43 c -15 -13 -16 -20 -7 -30 c 7 -7 17 -10 22 -7 c 6 3 4 -1 -2 -9 c -7 -9 -11 -25 -9 -36 c 3 -11 7 -44 11 -74 c 4 -30 11 -59 15 -64 c 5 -6 7 -25 5 -43 c -2 -18 -1 -32 4 -32 c 4 0 8 -6 8 -12 c 0 -7 7 -29 15 -48 c 17 -37 32 -90 30 -102 c -1 -4 7 -28 18 -53 c 11 -25 16 -45 13 -45 c -4 0 1 -6 11 -13 c 9 -7 19 -28 22 -47 c 7 -63 21 -126 23 -103 c 2 31 21 39 21 9 c 0 -14 6 -26 13 -26 c 8 0 8 -3 2 -8 c -14 -9 -13 -32 3 -60 c 7 -12 10 -27 7 -32 c -3 -6 -1 -10 4 -10 c 6 0 11 -7 11 -16 c 0 -8 7 -22 16 -31 c 8 -9 13 -21 10 -28 c -2 -7 4 -21 14 -30 c 11 -10 17 -22 14 -26 c -3 -5 0 -9 6 -9 c 7 0 10 -7 6 -15 c -3 -9 0 -15 8 -15 c 8 0 17 -7 20 -16 c 3 -8 2 -12 -4 -9 c -6 3 -10 1 -10 -4 c 0 -6 8 -11 18 -11 c 13 0 14 -2 4 -9 c -8 -4 -13 -11 -13 -15 c 1 -3 0 -7 0 -8 c -5 -10 -4 -58 1 -58 c 7 0 13 -52 13 -110 c 0 -86 -11 -256 -16 -270 c -3 -8 -8 -46 -11 -84 c -3 -38 -11 -76 -19 -85 c -19 -21 -31 -61 -19 -61 c 5 0 12 10 16 22 c 13 48 22 -4 13 -75 c -8 -65 -5 -159 7 -242 c 3 -16 5 -52 6 -80 c 2 -27 9 -70 17 -95 c 8 -25 21 -79 29 -120 c 8 -41 16 -82 18 -90 c 3 -8 5 -23 5 -32 c 1 -9 8 -23 16 -31 c 8 -8 14 -30 14 -49 c 0 -18 5 -49 11 -68 c 24 -72 42 -157 44 -208 c 2 -30 7 -57 13 -60 c 6 -4 10 -20 9 -37 c -1 -26 3 -30 27 -33 c 20 -2 27 -9 28 -25 c 3 -60 4 -64 71 -376 c 15 -70 20 -132 20 -245 c 1 -184 -25 -311 -103 -511 c -56 -140 -58 -160 -29 -315 c 6 -30 14 -127 19 -215 c 8 -146 33 -289 59 -329 c 4 -6 7 -72 7 -146 c 0 -158 8 -179 83 -212 c 42 -19 66 -21 212 -21 c 238 1 310 29 372 145 c 30 58 39 66 108 103 c 44 24 102 67 142 107 c 63 61 68 69 68 109 c 0 60 -54 164 -96 184 c -18 8 -43 15 -57 15 c -13 0 -30 7 -37 15 c -7 8 -28 17 -49 20 c -50 9 -80 25 -87 48 c -3 11 -7 72 -9 136 c -2 90 -7 130 -25 181 c -19 55 -23 86 -23 210 c -1 80 5 179 12 220 c 7 41 14 84 16 95 c 13 83 18 110 37 190 c 11 50 29 119 39 155 c 10 36 20 81 24 100 c 3 19 14 73 24 120 c 11 47 29 135 41 195 c 40 210 53 259 71 279 c 13 13 18 31 15 53 c -2 18 1 33 7 33 c 5 0 7 15 4 34 c -3 21 -1 36 5 38 c 7 3 8 10 3 18 c -8 13 -9 47 -1 91 c 1 7 8 24 14 37 c 7 12 10 27 7 32 c -3 6 -3 15 1 22 c 7 10 12 45 14 91 c 1 9 4 17 8 17 c 4 0 8 24 8 53 c 1 28 5 66 9 82 c 11 46 15 479 5 570 c -5 44 -17 124 -25 177 c -9 54 -16 121 -17 150 c 0 29 -4 58 -8 63 c -5 6 -11 28 -15 49 c -6 32 -5 37 6 31 c 8 -5 6 1 -4 12 c -10 12 -20 32 -22 45 c -5 34 -12 59 -25 92 c -6 16 -12 41 -15 55 c -2 14 -8 53 -14 86 c -20 110 -21 116 -11 110 c 6 -3 7 1 4 9 c -3 9 -11 13 -17 9 c -6 -3 -7 -1 -3 5 c 4 6 1 22 -7 34 c -17 27 -41 163 -33 177 c 4 5 2 13 -4 16 c -11 7 -5 238 6 256 c 3 5 12 9 20 9 c 8 0 12 5 9 10 c -4 6 -10 8 -15 5 c -4 -3 -10 5 -14 18 c -10 37 -7 77 6 77 c 9 0 9 3 0 12 c -15 15 -16 32 -1 22 c 8 -4 8 0 0 15 c -8 14 -8 27 -2 39 c 6 11 6 24 -1 36 c -8 14 -7 17 1 12 c 7 -5 11 4 11 28 c 0 19 -4 38 -10 41 c -5 3 -10 11 -10 16 c 0 6 5 7 10 4 c 11 -7 13 6 4 30 c -4 10 -9 13 -13 6 c -4 -5 -7 13 -8 42 c -1 32 4 58 13 68 c 10 12 11 23 4 50 c -13 44 -13 92 0 84 c 5 -3 3 12 -5 35 c -13 37 -12 70 4 70 c 3 0 4 22 3 50 c -2 27 -8 50 -13 50 c -5 0 -9 5 -9 10 c 0 6 7 10 15 10 c 12 0 14 4 6 17 c -5 10 -5 26 -1 39 c 5 12 6 25 3 28 c -3 3 -1 11 4 18 c 10 12 20 55 25 103 c 2 11 -1 48 -6 82 c -4 34 -4 68 0 75 c 4 7 9 31 10 53 c 2 23 10 61 18 84 c 8 25 12 58 9 79 c -5 26 -3 33 6 28 c 7 -5 10 -14 7 -22 c -3 -8 -1 -14 4 -14 c 6 0 10 26 11 58 c 1 56 6 162 10 192 c 1 8 7 21 13 29 c 8 12 8 13 -2 7 c -9 -6 -11 -2 -8 16 c 15 66 26 151 28 205 c 1 38 6 61 12 60 c 6 -1 10 7 8 18 c -4 35 -4 49 3 100 c 4 28 8 62 9 78 c 0 15 4 27 7 27 c 6 0 7 13 8 159 c 0 52 5 108 10 125 c 5 17 12 87 16 156 c 3 69 8 150 10 180 c 14 198 2 728 -20 840 c -3 14 -9 66 -15 115 c -5 50 -15 128 -20 175 c -6 47 -15 144 -20 215 c -46 644 -43 622 -85 785 c -15 58 -33 130 -40 160 c -7 30 -20 82 -28 115 c -9 33 -19 85 -23 115 c -3 30 -17 99 -30 152 c -13 54 -24 126 -24 165 c 0 99 -37 478 -54 559 c -31 145 -59 344 -66 474 c -4 74 -6 137 -5 140 c 1 3 6 75 9 160 c 4 85 16 219 27 298 c 10 78 18 187 18 241 c -1 120 11 249 21 230 c 4 -8 10 -34 14 -59 c 4 -25 15 -88 26 -140 c 10 -52 31 -160 45 -240 c 15 -80 44 -217 66 -305 c 45 -185 55 -296 41 -446 c -8 -83 -7 -124 4 -185 c 7 -44 14 -93 14 -110 c 0 -17 13 -78 30 -135 c 16 -57 36 -140 45 -184 c 17 -92 30 -128 109 -315 c 76 -177 87 -203 90 -220 c 2 -8 7 -24 11 -35 c 113 -282 235 -625 249 -700 c 1 -5 12 -41 24 -80 c 11 -38 31 -106 42 -150 c 25 -94 47 -153 105 -290 c 89 -209 88 -204 76 -371 c -11 -152 -2 -271 29 -349 c 6 -16 30 -100 52 -185 l 40 -155 l -12 -115 c -7 -63 -14 -172 -14 -242 c -1 -121 0 -128 23 -152 c 14 -14 35 -26 48 -26 c 43 0 57 28 77 155 c 10 66 26 147 37 181 c 10 33 19 70 19 82 c 0 13 5 20 13 17 c 9 -4 12 -34 12 -108 c 0 -56 8 -151 17 -211 c 9 -60 17 -112 16 -115 c -3 -18 16 -109 25 -122 c 31 -42 82 -49 122 -17 l 27 21 l -7 126 c -4 69 -8 169 -9 221 c -1 52 -6 114 -10 138 c -8 46 -6 50 18 26 c 10 -9 16 -33 16 -59 c 0 -25 6 -64 14 -87 c 33 -101 55 -200 65 -293 c 14 -124 26 -145 84 -145 c 101 0 116 76 73 365 c -8 55 -24 125 -34 155 c -27 78 -37 124 -23 116 c 5 -4 13 -23 17 -44 c 4 -20 16 -57 26 -82 c 22 -51 20 -41 48 -175 c 12 -55 26 -113 32 -130 c 5 -16 10 -37 11 -45 c 2 -18 55 -60 74 -60 c 37 0 73 31 84 72 c 17 65 -15 288 -65 443 c -14 43 -23 81 -21 83 c 2 2 6 -6 10 -18 c 4 -12 23 -40 43 -63 c 73 -80 150 -108 185 -69 c 22 24 22 28 -12 92 c -20 39 -32 80 -39 140 c -7 56 -21 108 -40 150 c -17 36 -40 101 -52 145 l -22 80 l -125 130 c -69 72 -137 146 -151 165 c -15 19 -43 54 -63 76 c -52 58 -85 136 -93 219 c -7 71 -27 173 -52 257 c -8 26 -15 59 -16 73 c -1 14 -6 25 -10 25 c -4 0 -8 10 -8 23 c 0 21 -30 142 -51 202 c -14 38 -22 75 -48 200 c -25 124 -34 209 -46 450 c -9 184 -34 426 -49 495 c -9 36 -15 84 -16 106 c -1 149 -84 455 -190 699 c -83 193 -107 255 -129 340 c -24 93 -57 266 -66 345 c -3 30 -14 102 -25 160 c -10 58 -21 152 -25 210 c -7 112 -34 310 -59 425 c -22 101 -21 276 3 378 c 58 241 75 493 51 748 c -5 57 -14 165 -20 239 c -14 172 -38 230 -137 328 c -129 129 -156 145 -323 201 c -104 35 -327 140 -375 176 c -16 13 -111 62 -210 110 c -99 47 -189 91 -199 96 c -10 6 -98 51 -195 100 c -97 49 -197 105 -223 126 c -74 60 -81 81 -74 242 c 3 75 6 153 7 174 c 1 20 4 37 8 37 c 4 0 7 19 8 43 c 3 74 14 132 27 142 c 7 6 11 15 9 21 c -5 15 19 34 80 64 c 54 26 81 66 126 186 c 22 56 61 280 61 345 c 0 22 3 38 8 36 c 4 -3 7 5 7 18 c 0 13 -3 21 -7 18 c -5 -2 -8 8 -8 23 c 0 27 1 27 15 8 c 14 -18 14 -18 15 4 c 0 13 -7 37 -16 54 c -10 19 -11 28 -3 23 c 8 -5 10 -4 5 4 c -11 18 -15 61 -5 55 c 5 -3 9 -1 9 5 c 0 5 -6 12 -12 15 c -9 3 -8 8 5 16 c 17 11 17 14 3 35 c -10 16 -11 22 -3 22 c 42 -1 67 4 62 13 c -4 6 -11 8 -16 5 c -5 -3 -6 1 -3 10 c 4 9 18 21 33 27 c 20 8 22 12 11 17 c -21 8 -25 41 -5 41 c 8 0 15 7 15 15 c 0 8 8 15 18 16 c 13 0 13 2 -4 9 c -12 5 -25 14 -30 21 c -5 8 -3 10 6 4 c 7 -4 16 -2 21 6 c 13 21 11 26 -16 33 c -28 7 -35 35 -7 32 c 9 0 17 6 17 14 c 0 8 5 18 10 22 c 7 5 6 8 0 8 c -6 0 -12 14 -13 30 c -2 23 2 30 15 30 c 15 0 16 2 3 10 c -13 9 -13 10 0 10 c 9 1 5 6 -10 15 l -25 14 l 29 1 l 29 0 l -21 19 c -12 10 -22 23 -22 29 c 0 5 -10 8 -22 5 c -19 -4 -20 -3 -8 6 c 12 9 11 11 -10 11 c -25 1 -25 1 -2 10 c 29 12 28 22 -2 14 c -16 -4 -25 -1 -29 10 c -5 11 0 16 13 16 c 11 0 20 5 20 11 c 0 5 -4 7 -10 4 c -11 -7 -50 12 -50 24 c 0 5 7 12 16 15 c 14 5 15 4 4 -9 c -10 -12 -10 -15 3 -15 c 11 0 15 7 12 21 c -3 15 2 23 15 26 c 11 3 20 10 20 15 c 0 5 -5 6 -10 3 c -6 -3 -13 1 -16 9 c -4 11 -11 13 -31 5 c -32 -12 -46 -12 -38 1 c 3 6 1 10 -6 10 c -8 0 -7 5 2 17 c 12 15 12 16 -3 10 c -14 -5 -18 -1 -19 16 c -1 21 -1 21 -9 -3 c -4 -14 -8 -19 -9 -12 c -1 9 -8 11 -21 7 c -11 -4 -20 -2 -20 4 c 0 6 5 11 10 11 c 6 0 10 5 10 11 c 0 6 -9 8 -20 4 c -11 -4 -20 -3 -19 2 c 1 4 1 16 0 27 c -1 16 -3 17 -17 5 c -14 -11 -16 -10 -12 11 c 2 19 -1 25 -14 24 c -10 -1 -15 3 -11 9 c 4 6 -2 8 -14 5 c -15 -4 -19 -1 -17 11 c 7 28 -13 45 -49 43 l -33 -2 l 2 52 c 2 38 0 48 -7 35 c -14 -23 -26 -21 -33 5 c -5 22 -6 23 -21 3 c -9 -11 -14 -14 -10 -7 c 3 6 1 12 -4 12 c -6 0 -11 -8 -12 -17 c 0 -13 -3 -12 -10 6 c -7 18 -12 21 -23 12 c -10 -8 -15 -5 -24 15 c -7 14 -12 32 -12 40 c 0 9 -6 14 -12 11 c -7 -2 -12 -9 -11 -15 c 2 -7 -4 -9 -14 -5 c -10 4 -14 2 -10 -4 c 3 -5 0 -10 -8 -10 c -8 0 -13 5 -12 11 c 1 6 -7 11 -18 11 c -33 0 -47 15 -41 44 c 6 25 6 25 -9 7 c -8 -11 -15 -23 -15 -27 c 0 -4 -7 -10 -15 -13 c -11 -4 -19 3 -26 22 c -10 24 -12 25 -18 9 c -6 -17 -8 -17 -20 -3 c -7 9 -17 14 -21 11 c -5 -3 -11 4 -15 15 c -3 11 -11 20 -16 20 c -6 0 -6 -7 1 -19 c 15 -29 12 -33 -12 -20 c -21 11 -22 11 -9 -4 c 17 -21 -2 -23 -22 -2 c -8 8 -17 12 -19 9 c -3 -3 -8 9 -11 26 c -4 16 -11 30 -17 30 c -6 0 -8 -11 -5 -27 c 17 -80 17 -77 1 -64 c -9 8 -16 10 -16 5 c 0 -5 -14 -10 -30 -11 c -17 -1 -28 2 -25 7 c 3 6 -1 7 -11 3 c -13 -5 -15 -2 -10 14 c 9 28 -15 36 -45 16 c -12 -9 -19 -12 -16 -6 c 9 14 -2 43 -15 43 c -5 0 -7 -4 -4 -9 c 4 -5 1 -11 -5 -13 c -14 -5 -89 31 -89 41 c 0 4 -7 16 -16 27 c -12 14 -14 15 -11 3 z m 11 -48 c -2 -3 -12 3 -22 13 c -16 17 -16 18 5 5 c 12 -7 20 -15 17 -18 z m -259 -141 c -3 -5 -12 -10 -18 -10 c -7 0 -6 4 3 10 c 19 12 23 12 15 0 z m -285 -154 c 0 -2 -7 -7 -16 -10 c -8 -3 -12 -2 -9 4 c 6 10 25 14 25 6 z m 1505 -76 c 3 -5 1 -10 -4 -10 c -6 0 -11 5 -11 10 c 0 6 2 10 4 10 c 3 0 8 -4 11 -10 z m -10 -28 c -3 -3 -11 0 -18 7 c -9 10 -8 11 6 5 c 10 -3 15 -9 12 -12 z m 195 -72 c 0 -5 -2 -10 -4 -10 c -3 0 -8 5 -11 10 c -3 6 -1 10 4 10 c 6 0 11 -4 11 -10 z m -1955 -210 c -3 -5 -11 -10 -16 -10 c -6 0 -7 5 -4 10 c 3 6 11 10 16 10 c 6 0 7 -4 4 -10 z m 1982 -66 c -3 -3 -12 -4 -19 -1 c -8 3 -5 6 6 6 c 11 1 17 -2 13 -5 z m 28 -32 c -3 -3 -11 0 -18 7 c -9 10 -8 11 6 5 c 10 -3 15 -9 12 -12 z m -2054 -261 c -6 -10 -7 -21 -4 -25 c 3 -3 1 -6 -6 -6 c -14 0 -11 31 4 42 c 15 12 17 10 6 -11 z m -2041 -9111 c -5 -22 -8 -27 -9 -13 c -1 21 9 56 14 51 c 2 -2 0 -19 -5 -38 z m 6507 -22 c -3 -8 -6 -5 -6 6 c -1 11 2 17 5 13 c 3 -3 4 -12 1 -19 z m -6520 -40 c -3 -8 -6 -5 -6 6 c -1 11 2 17 5 13 c 3 -3 4 -12 1 -19 z m 4830 -1630 c -3 -8 -6 -5 -6 6 c -1 11 2 17 5 13 c 3 -3 4 -12 1 -19 z m -3466 -2465 c -12 -20 -14 -14 -5 12 c 4 9 9 14 11 11 c 3 -2 0 -13 -6 -23 z m 1246 -625 c -3 -7 -5 -2 -5 12 c 0 14 2 19 5 13 c 2 -7 2 -19 0 -25 z m -47 -565 c 0 -24 -3 -33 -9 -25 c -7 12 -4 62 5 62 c 2 0 4 -17 4 -37 z" stroke-linecap="round" />
</g>
		<g transform="matrix(0.13 0 0 -0.13 36.86 -1225.68)"  >
<path style="stroke: none; stroke-width: 1; stroke-dasharray: none; stroke-linecap: butt; stroke-dashoffset: 0; stroke-linejoin: miter; stroke-miterlimit: 4; fill: rgb(0,0,0); fill-rule: nonzero; opacity: 1;"  transform=" translate(-3956.43, -18477.57)" d="M 3950 18473 c 0 -24 3 -33 9 -25 c 7 12 4 62 -5 62 c -2 0 -4 -17 -4 -37 z" stroke-linecap="round" />
</g>
		<g transform="matrix(0.13 0 0 -0.13 -214.69 556.08)"  >
<path style="stroke: none; stroke-width: 1; stroke-dasharray: none; stroke-linecap: butt; stroke-dashoffset: 0; stroke-linejoin: miter; stroke-miterlimit: 4; fill: rgb(0,0,0); fill-rule: nonzero; opacity: 1;"  transform=" translate(-2069.81, -5114.4)" d="M 2067 5123 c -4 -3 -7 -11 -7 -17 c 0 -6 5 -5 12 2 c 6 6 9 14 7 17 c -3 3 -9 2 -12 -2 z" stroke-linecap="round" />
</g>
		<g transform="matrix(0.13 0 0 -0.13 -231.76 655.33)"  >
<path style="stroke: none; stroke-width: 1; stroke-dasharray: none; stroke-linecap: butt; stroke-dashoffset: 0; stroke-linejoin: miter; stroke-miterlimit: 4; fill: rgb(0,0,0); fill-rule: nonzero; opacity: 1;"  transform=" translate(-1941.8, -4370)" d="M 1935 4370 c -3 -5 -1 -10 4 -10 c 6 0 11 5 11 10 c 0 6 -2 10 -4 10 c -3 0 -8 -4 -11 -10 z" stroke-linecap="round" />
</g>
</g>
</g>
<g transform="matrix(0.02 0 0 -0.02 232.92 513.3)"  >
<path style="stroke: none; stroke-width: 1; stroke-dasharray: none; stroke-linecap: butt; stroke-dashoffset: 0; stroke-linejoin: miter; stroke-miterlimit: 4; fill: rgb(0,0,0); fill-rule: nonzero; opacity: 1;"  transform=" translate(-2560.91, -2561.28)" d="M 2250 3724 c -84 -10 -194 -40 -320 -85 c -123 -46 -148 -51 -290 -64 c -323 -31 -553 -99 -855 -253 c -256 -131 -493 -326 -649 -535 c -169 -226 -178 -411 -29 -577 c 56 -62 206 -163 337 -227 c 91 -44 106 -47 170 -47 c 61 1 94 10 235 63 c 91 33 171 61 178 61 c 24 0 13 -42 -20 -74 c -18 -17 -67 -55 -110 -84 c -42 -29 -77 -59 -77 -67 c 0 -46 360 -165 608 -201 c 100 -15 130 -24 231 -72 c 133 -63 342 -134 451 -153 c 134 -24 330 -17 545 20 c 212 36 265 48 265 60 c 0 4 -54 50 -120 102 c -65 52 -119 99 -120 105 c 0 6 88 42 196 78 c 358 122 665 277 904 457 c 43 33 85 59 93 59 c 8 0 58 -22 110 -50 c 271 -142 847 -362 1022 -390 c 72 -12 115 -7 115 11 c 0 24 -94 149 -190 254 c -168 184 -221 280 -222 400 c 0 79 15 133 55 192 c 169 246 276 411 308 476 c 81 160 57 223 -74 186 c -41 -11 -154 -75 -289 -162 c -127 -82 -360 -213 -548 -307 c -216 -109 -218 -109 -360 -15 c -409 269 -631 392 -885 490 c -160 61 -165 63 -165 73 c 0 4 50 43 110 85 c 61 43 108 82 105 87 c -8 13 -131 49 -265 76 c -112 23 -362 39 -450 28 z m -599 -598 c 197 -259 234 -528 110 -790 c -51 -108 -121 -205 -232 -321 c -51 -52 -93 -94 -95 -93 c -1 2 25 60 59 128 c 98 198 152 384 164 565 c 11 173 -40 405 -134 605 l -44 95 l 56 -55 c 31 -30 83 -91 116 -134 z m -729 -188 c 14 -10 34 -38 44 -63 c 16 -43 16 -47 -1 -91 c -21 -54 -62 -84 -118 -84 c -127 0 -184 148 -89 233 c 43 39 113 41 164 5 z" stroke-linecap="round" />
</g>
<g transform="matrix(0.14 0 0 0.14 854.38 832.71)"  >
<g style=""   >
		<g transform="matrix(0.13 0 0 -0.13 -0.23 -0.04)"  >
<path style="stroke: none; stroke-width: 1; stroke-dasharray: none; stroke-linecap: butt; stroke-dashoffset: 0; stroke-linejoin: miter; stroke-miterlimit: 4; fill: rgb(0,0,0); fill-rule: nonzero; opacity: 1;"  transform=" translate(-2998.28, -2425.29)" d="M 1036 4841 c -3 -5 27 -47 67 -94 c 133 -156 171 -261 119 -334 c -14 -20 -38 -37 -61 -44 c -32 -10 -43 -8 -79 10 c -81 42 -238 21 -398 -54 c -90 -41 -149 -81 -239 -160 c -87 -77 -129 -103 -232 -144 c -148 -59 -213 -116 -213 -186 c 0 -37 47 -138 84 -182 c 21 -24 47 -39 106 -57 c 130 -41 197 -50 296 -36 c 93 12 129 9 239 -21 c 76 -21 198 -25 241 -9 c 15 6 43 24 62 41 c 58 52 98 21 41 -32 c -61 -57 -84 -64 -199 -63 c -74 1 -138 9 -220 28 c -122 28 -156 31 -164 17 c -7 -11 22 -37 95 -82 c 183 -112 350 -327 448 -574 c 21 -55 56 -174 76 -265 c 64 -287 98 -374 186 -480 c 64 -77 101 -100 160 -100 c 88 0 96 26 114 363 c 17 312 21 327 143 446 c 69 68 235 181 247 169 c 7 -7 -97 -130 -152 -178 c -59 -52 -65 -64 -104 -179 c -36 -107 -54 -203 -74 -406 c -22 -228 -33 -283 -59 -300 c -11 -7 -49 -17 -83 -21 l -63 -7 l 0 -79 c 0 -113 43 -219 121 -299 c 55 -57 105 -74 198 -66 c 57 4 68 9 100 41 l 36 36 l 5 117 c 5 119 16 147 41 102 c 8 -15 10 -54 7 -118 c -4 -80 -13 -120 -52 -236 c -48 -142 -84 -278 -131 -487 c -48 -218 -105 -346 -187 -424 c -24 -23 -80 -65 -126 -94 c -45 -29 -104 -76 -130 -106 c -59 -66 -132 -191 -135 -230 c -2 -26 3 -31 48 -46 c 93 -32 204 -19 321 36 c 39 19 90 50 112 70 c 34 31 42 45 51 98 c 7 41 19 70 35 87 c 35 37 44 66 51 177 c 17 276 52 362 231 580 c 92 111 221 237 293 286 c 74 50 101 79 130 143 c 29 63 75 111 117 121 c 31 8 120 -8 328 -57 c 300 -72 427 -115 529 -181 c 64 -41 97 -35 202 37 c 119 82 171 89 238 34 c 78 -64 100 -225 47 -334 c -32 -67 -158 -195 -371 -381 c -180 -156 -230 -208 -268 -279 c -39 -73 -20 -177 34 -191 c 28 -7 161 32 235 69 c 41 20 47 27 65 86 c 13 38 29 69 40 75 c 30 17 32 21 38 117 c 14 196 63 245 436 435 c 241 122 270 163 194 277 c -71 106 -276 349 -449 533 c -96 101 -174 192 -174 202 c 0 24 55 76 73 69 c 7 -3 57 -65 109 -139 c 258 -359 566 -606 910 -727 c 128 -45 161 -64 249 -149 c 248 -236 490 -654 449 -776 c -6 -18 -46 -74 -88 -123 c -96 -110 -126 -152 -117 -161 c 4 -4 89 -8 189 -10 c 220 -4 216 -6 216 99 c 0 73 7 95 46 142 c 13 16 24 40 24 54 c 0 46 -75 185 -140 258 c -99 111 -108 140 -160 475 c -60 389 -58 386 -295 537 c -114 73 -138 92 -156 123 c -28 52 -9 376 36 595 c 31 149 154 495 176 495 c 34 0 69 -152 104 -453 c 32 -267 51 -380 81 -485 c 45 -155 92 -224 200 -292 c 76 -48 87 -68 134 -244 c 20 -74 34 -156 41 -246 c 13 -162 21 -185 68 -209 c 60 -31 132 -52 153 -45 c 27 8 21 28 -57 188 c -56 113 -67 147 -85 245 c -11 62 -29 132 -40 155 c -12 23 -64 100 -116 171 c -96 131 -121 175 -174 309 c -62 155 -78 285 -89 762 c -7 266 -13 359 -24 385 c -31 74 -152 164 -282 209 c -27 9 -104 46 -170 80 c -473 248 -476 249 -731 186 c -127 -32 -358 -80 -509 -105 c -106 -18 -353 -31 -618 -31 c -246 0 -264 1 -415 30 c -134 26 -171 38 -257 80 c -129 64 -288 183 -486 368 c -256 236 -362 332 -391 354 l -28 19 l 0 -49 c 0 -89 -60 -130 -205 -139 c -68 -5 -87 -2 -121 15 c -78 40 -191 160 -166 176 c 5 3 31 -13 58 -36 c 65 -54 142 -89 212 -95 c 122 -11 172 44 180 199 c 4 81 2 91 -27 154 c -78 168 -215 326 -307 358 c -53 18 -90 21 -98 7 z m -275 -731 c 30 -16 23 -35 -20 -55 c -51 -23 -71 -15 -71 28 c 0 57 22 63 91 27 z m -495 -236 c 4 -14 1 -31 -6 -39 c -16 -19 -50 -19 -50 0 c 0 20 -26 19 -34 -2 c -5 -12 -10 -13 -18 -5 c -16 16 -2 42 24 42 c 35 0 56 16 40 32 c -21 21 -13 29 13 12 c 14 -9 28 -27 31 -40 z" stroke-linecap="round" />
</g>
		<g transform="matrix(0.13 0 0 -0.13 -310.18 -279.1)"  >
<path style="stroke: none; stroke-width: 1; stroke-dasharray: none; stroke-linecap: butt; stroke-dashoffset: 0; stroke-linejoin: miter; stroke-miterlimit: 4; fill: rgb(0,0,0); fill-rule: nonzero; opacity: 1;"  transform=" translate(-673.62, -4518.23)" d="M 611 4634 c -17 -38 -26 -172 -13 -206 c 13 -32 69 -53 118 -43 c 51 9 52 29 6 78 c -22 25 -49 69 -61 103 c -38 104 -35 100 -50 68 z" stroke-linecap="round" />
</g>
</g>
</g>
</svg>
