<svg xmlns="http://www.w3.org/2000/svg" xmlns:xlink="http://www.w3.org/1999/xlink" xmlns:lucid="lucid" width="1954.39" height="811.33"><g transform="translate(-2118.9993601793326 -199)" lucid:page-tab-id="0_0"><path d="M0 0h5263.57v1959.13H0z" fill="#fff"/><path d="M3230.23 200c22.16 0 40.13 26.86 40.13 60s-17.97 60-40.13 60h-120.4c-22.18 0-40.15-26.86-40.15-60s17.97-60 40.14-60z" stroke="#282c33" stroke-width="2" fill="#fff"/><use xlink:href="#a" transform="matrix(1,0,0,1,3074.481629260184,204.8) translate(56.7421875 61.972569444444446)"/><path d="M3230.23 440c22.16 0 40.13 26.86 40.13 60s-17.97 60-40.13 60h-120.4c-22.18 0-40.15-26.86-40.15-60s17.97-60 40.14-60z" stroke="#000" stroke-width="2" fill="#fff"/><use xlink:href="#b" transform="matrix(1,0,0,1,3074.4816292601836,444.8) translate(62.32486979166667 61.972569444444446)"/><path d="M2486.4 440c22.16 0 40.13 26.86 40.13 60s-17.97 60-40.13 60H2366c-22.18 0-40.15-26.86-40.15-60s17.97-60 40.14-60z" stroke="#000" stroke-width="2" fill="#fff"/><use xlink:href="#c" transform="matrix(1,0,0,1,2330.6526607520354,444.79999999999995) translate(40.05381944444444 61.972569444444446)"/><path d="M3939.9 440c22.17 0 40.14 26.86 40.14 60s-17.97 60-40.13 60h-120.4c-22.17 0-40.14-26.86-40.14-60s17.97-60 40.14-60z" stroke="#000" stroke-width="2" fill="#fff"/><use xlink:href="#d" transform="matrix(1,0,0,1,3784.163258520367,444.8) translate(17.771918402777796 61.972569444444446)"/><path d="M3039.2 908.65c19.2 0 34.8 22.54 34.8 50.34 0 27.8-15.6 50.33-34.8 50.33h-104.4c-19.22 0-34.8-22.54-34.8-50.34 0-27.8 15.58-50.35 34.8-50.35z" stroke="#000" stroke-width="2" fill="#fff"/><use xlink:href="#e" transform="matrix(1,0,0,1,2904.8,913.4516853932586) translate(26.591796875000004 52.566319444444446)"/><use xlink:href="#f" transform="matrix(1,0,0,1,2904.8,913.4516853932586) translate(73.466796875 52.566319444444446)"/><path d="M2819.2 908.65c19.2 0 34.8 22.54 34.8 50.34 0 27.8-15.6 50.33-34.8 50.33h-104.4c-19.22 0-34.8-22.54-34.8-50.34 0-27.8 15.58-50.35 34.8-50.35z" stroke="#000" stroke-width="2" fill="#fff"/><use xlink:href="#g" transform="matrix(1,0,0,1,2684.8,913.4516853932586) translate(26.553819444444454 52.566319444444446)"/><use xlink:href="#f" transform="matrix(1,0,0,1,2684.8,913.4516853932586) translate(73.50477430555556 52.566319444444446)"/><path d="M3505.2 908.65c19.22 0 34.8 22.54 34.8 50.34 0 27.8-15.58 50.33-34.8 50.33h-104.4c-19.2 0-34.8-22.54-34.8-50.34 0-27.8 15.6-50.35 34.8-50.35z" stroke="#000" stroke-width="2" fill="#fff"/><use xlink:href="#h" transform="matrix(1,0,0,1,3370.8123758867378,913.4516853932586) translate(13.657769097222225 52.566319444444446)"/><use xlink:href="#f" transform="matrix(1,0,0,1,3370.8123758867378,913.4516853932586) translate(86.40082465277779 52.566319444444446)"/><path d="M3279.2 908.65c19.2 0 34.8 22.54 34.8 50.34 0 27.8-15.6 50.33-34.8 50.33h-104.4c-19.22 0-34.8-22.54-34.8-50.34 0-27.8 15.58-50.35 34.8-50.35z" stroke="#000" stroke-width="2" fill="#fff"/><use xlink:href="#i" transform="matrix(1,0,0,1,3144.8,913.4516853932586) translate(28.588324652777782 52.566319444444446)"/><use xlink:href="#f" transform="matrix(1,0,0,1,3144.8,913.4516853932586) translate(71.47026909722223 52.566319444444446)"/><path d="M3725.2 908.65c19.22 0 34.8 22.54 34.8 50.34 0 27.8-15.58 50.33-34.8 50.33h-104.4c-19.2 0-34.8-22.54-34.8-50.34 0-27.8 15.6-50.35 34.8-50.35z" stroke="#000" stroke-width="2" fill="#fff"/><use xlink:href="#j" transform="matrix(1,0,0,1,3590.8123758867378,913.4516853932586) translate(16.592881944444454 52.566319444444446)"/><use xlink:href="#f" transform="matrix(1,0,0,1,3590.8123758867378,913.4516853932586) translate(83.46571180555556 52.566319444444446)"/><path d="M3170.02 322v58H2426.2v40.5" stroke="#282c33" stroke-width="2" fill="none"/><path d="M3171 322.03h-1.95V321h1.95z" stroke="#282c33" stroke-width=".05" fill="#282c33"/><path d="M2426.2 435.76l-4.64-14.26h9.27z" stroke="#282c33" stroke-width="2" fill="#282c33"/><path d="M3170.02 322v98.5" stroke="#282c33" stroke-width="2" fill="none"/><path d="M3171 322.03h-1.95V321h1.95z" stroke="#282c33" stroke-width=".05" fill="#282c33"/><path d="M3170.02 435.76l-4.63-14.26h9.26z" stroke="#282c33" stroke-width="2" fill="#282c33"/><path d="M3170.02 322v58h709.68v40.5" stroke="#282c33" stroke-width="2" fill="none"/><path d="M3171 322.03h-1.95V321h1.95z" stroke="#282c33" stroke-width=".05" fill="#282c33"/><path d="M3879.7 435.76l-4.63-14.26h9.27z" stroke="#282c33" stroke-width="2" fill="#282c33"/><path d="M2426.2 562v48.65h-220v31.15" stroke="#282c33" stroke-width="2" fill="none"/><path d="M2427.17 562.03h-1.95V561h1.95z" stroke="#282c33" stroke-width=".05" fill="#282c33"/><path d="M2206.2 657.07l-4.64-14.27h9.27z" stroke="#282c33" stroke-width="2" fill="#282c33"/><path d="M2426.2 562v48.16h220v30.66" stroke="#282c33" stroke-width="2" fill="none"/><path d="M2427.17 562.03h-1.95V561h1.95z" stroke="#282c33" stroke-width=".05" fill="#282c33"/><path d="M2646.2 656.1l-4.64-14.28h9.27z" stroke="#282c33" stroke-width="2" fill="#282c33"/><path d="M3170.02 562v48.98h-276.68v31.47" stroke="#282c33" stroke-width="2" fill="none"/><path d="M3171 562.03h-1.95V561h1.95z" stroke="#282c33" stroke-width=".05" fill="#282c33"/><path d="M2893.34 657.72l-4.63-14.27h9.28z" stroke="#282c33" stroke-width="2" fill="#282c33"/><path d="M3170.02 562v48.33h282.2v30.82" stroke="#282c33" stroke-width="2" fill="none"/><path d="M3171 562.03h-1.95V561h1.95z" stroke="#282c33" stroke-width=".05" fill="#282c33"/><path d="M3452.2 656.42l-4.63-14.27h9.27z" stroke="#282c33" stroke-width="2" fill="#282c33"/><path d="M3879.7 562v48h-113.5v30.5" stroke="#282c33" stroke-width="2" fill="none"/><path d="M3880.68 562.03h-1.95V561h1.95z" stroke="#282c33" stroke-width=".05" fill="#282c33"/><path d="M3766.2 655.76l-4.64-14.26h9.27z" stroke="#282c33" stroke-width="2" fill="#282c33"/><path d="M3879.7 562v48.5h95.93v30.98" stroke="#282c33" stroke-width="2" fill="none"/><path d="M3880.68 562.03h-1.95V561h1.95z" stroke="#282c33" stroke-width=".05" fill="#282c33"/><path d="M3975.63 656.74l-4.64-14.26h9.26z" stroke="#282c33" stroke-width="2" fill="#282c33"/><path d="M2886.2 764.63v71H2767v53.52" stroke="#282c33" stroke-width="2" fill="none"/><path d="M2887.17 764.65h-1.95v-1.02h1.95z" stroke="#282c33" stroke-width=".05" fill="#282c33"/><path d="M2767 904.42l-4.64-14.27h9.27z" stroke="#282c33" stroke-width="2" fill="#282c33"/><path d="M2886.2 764.63v71H2987v53.52" stroke="#282c33" stroke-width="2" fill="none"/><path d="M2887.17 764.65h-1.95v-1.02h1.95z" stroke="#282c33" stroke-width=".05" fill="#282c33"/><path d="M2987 904.42l-4.64-14.27h9.27z" stroke="#282c33" stroke-width="2" fill="#282c33"/><path d="M3452.2 763.33V835H3227v54.15" stroke="#282c33" stroke-width="2" fill="none"/><path d="M3453.18 763.35h-1.95v-1.02h1.95z" stroke="#282c33" stroke-width=".05" fill="#282c33"/><path d="M3227 904.42l-4.64-14.27h9.27z" stroke="#282c33" stroke-width="2" fill="#282c33"/><path d="M3452.2 763.33V835h.8v54.15" stroke="#282c33" stroke-width="2" fill="none"/><path d="M3453.18 763.35h-1.95v-1.02h1.95z" stroke="#282c33" stroke-width=".05" fill="#282c33"/><path d="M3453 904.42l-4.63-14.27h9.27z" stroke="#282c33" stroke-width="2" fill="#282c33"/><path d="M3452.2 763.33V835H3673v54.15" stroke="#282c33" stroke-width="2" fill="none"/><path d="M3453.18 763.35h-1.95v-1.02h1.95z" stroke="#282c33" stroke-width=".05" fill="#282c33"/><path d="M3673 904.42l-4.63-14.27h9.27z" stroke="#282c33" stroke-width="2" fill="#282c33"/><path d="M2426.2 562v80.12" stroke="#282c33" stroke-width="2" fill="none"/><path d="M2427.17 562.03h-1.95V561h1.95z" stroke="#282c33" stroke-width=".05" fill="#282c33"/><path d="M2426.2 657.4l-4.64-14.27h9.27z" stroke="#282c33" stroke-width="2" fill="#282c33"/><path d="M2477.9 661.63c19.05 0 34.5 22.54 34.5 50.34 0 27.8-15.45 50.33-34.5 50.33H2374.5c-19.04 0-34.48-22.53-34.48-50.33 0-27.8 15.44-50.34 34.48-50.34z" stroke="#000" stroke-width="2" fill="#fff"/><use xlink:href="#k" transform="matrix(1,0,0,1,2344.8,666.4292134831462) translate(66.53689236111111 52.566319444444446)"/><path d="M2257.9 661.3c19.05 0 34.5 22.1 34.5 49.35 0 27.26-15.45 49.35-34.5 49.35H2154.5c-19.04 0-34.48-22.1-34.48-49.35s15.44-49.35 34.48-49.35z" stroke="#000" stroke-width="2" fill="#fff"/><use xlink:href="#l" transform="matrix(1,0,0,1,2124.8,666.103370786517) translate(58.968532986111114 51.941319444444446)"/><path d="M2697.9 660.33c19.05 0 34.5 22.53 34.5 50.33 0 27.8-15.45 50.34-34.5 50.34H2594.5c-19.04 0-34.48-22.54-34.48-50.34 0-27.8 15.44-50.33 34.48-50.33z" stroke="#000" stroke-width="2" fill="#fff"/><use xlink:href="#m" transform="matrix(1,0,0,1,2564.8,665.1258426966292) translate(53.66796875 52.566319444444446)"/><path d="M4037.9 660.98c19.05 0 34.5 22.53 34.5 50.34 0 27.8-15.45 50.33-34.5 50.33H3934.5c-19.04 0-34.48-22.53-34.48-50.33 0-27.8 15.44-50.34 34.48-50.34z" stroke="#000" stroke-width="2" fill="#fff"/><use xlink:href="#n" transform="matrix(1,0,0,1,3904.8,665.7775280898877) translate(56.53255208333334 41.066319444444446)"/><use xlink:href="#o" transform="matrix(1,0,0,1,3904.8,665.7775280898877) translate(32.97569444444444 67.1079861111111)"/><path d="M3817.9 660c19.05 0 34.5 22.54 34.5 50.34 0 27.8-15.45 50.33-34.5 50.33H3714.5c-19.04 0-34.48-22.53-34.48-50.33 0-27.8 15.44-50.34 34.48-50.34z" stroke="#000" stroke-width="2" fill="#fff"/><g><use xlink:href="#p" transform="matrix(1,0,0,1,3684.8,664.8) translate(33.643012152777786 52.566319444444446)"/></g><path d="M3503.92 660.65c19.04 0 34.48 22.54 34.48 50.34 0 27.8-15.44 50.33-34.48 50.33H3400.5c-19.05 0-34.5-22.54-34.5-50.34 0-27.8 15.45-50.35 34.5-50.35z" stroke="#000" stroke-width="2" fill="#fff"/><g><use xlink:href="#q" transform="matrix(1,0,0,1,3370.8123758867378,665.4516853932585) translate(41.5314670138889 52.566319444444446)"/></g><path d="M2937.9 661.96c19.05 0 34.5 22.53 34.5 50.33 0 27.8-15.45 50.33-34.5 50.33H2834.5c-19.04 0-34.48-22.54-34.48-50.34 0-27.8 15.44-50.34 34.48-50.34z" stroke="#000" stroke-width="2" fill="#fff"/><g><use xlink:href="#r" transform="matrix(1,0,0,1,2804.8,666.7550561797755) translate(44.20073784722223 52.566319444444446)"/></g><defs><path d="M1222-777c17 480-206 763-650 777H169v-1456h411c408 9 627 269 642 679zm-190 4c3-312-149-522-447-525H361v1141h202c308 0 473-209 469-531v-85" id="s"/><path d="M341 0H156v-1082h185V0zm-91-1264c-68 0-108-42-109-105 0-62 41-107 109-107s110 44 110 107-42 105-110 105" id="t"/><path d="M538-131c121 0 232-49 232-156 0-50-20-88-56-117-73-60-334-92-420-143-92-55-162-110-162-238 0-190 192-317 400-317 223 0 414 129 413 338H759c0-108-110-186-227-186-119 0-215 53-215 159 0 45 18 78 53 101 76 52 331 90 416 139 98 57 169 115 169 251C955-92 760 20 538 20c-176 0-314-68-386-174-38-55-57-115-57-179h185c6 129 116 202 258 202" id="u"/><path d="M599-131c141 0 220-65 285-146l113 88C906-50 770 20 589 20 281 21 93-214 93-545c0-223 93-397 233-485 74-48 154-72 240-72 300 2 449 218 445 537v77H278c0 197 129 357 321 357zm227-509c-3-180-88-310-260-310-170 0-264 140-282 310h542" id="v"/><path d="M561-1102c238-4 403 126 403 351v498c0 99 13 178 38 237V0H808c-11-21-19-59-26-114C696-25 593 20 474 20c-199 0-368-130-365-320 4-251 214-359 490-356h180v-85c-1-135-86-212-229-212-115 0-232 67-233 171H131c20-205 206-316 430-320zM294-326c0 117 90 185 207 185 122 0 239-75 278-162v-222H634c-227 0-340 66-340 199" id="w"/><g id="a"><use transform="matrix(0.010850694444444444,0,0,0.010850694444444444,0,0)" xlink:href="#s"/><use transform="matrix(0.010850694444444444,0,0,0.010850694444444444,14.572482638888888,0)" xlink:href="#t"/><use transform="matrix(0.010850694444444444,0,0,0.010850694444444444,19.965277777777775,0)" xlink:href="#u"/><use transform="matrix(0.010850694444444444,0,0,0.010850694444444444,31.423611111111104,0)" xlink:href="#v"/><use transform="matrix(0.010850694444444444,0,0,0.010850694444444444,43.19661458333333,0)" xlink:href="#w"/><use transform="matrix(0.010850694444444444,0,0,0.010850694444444444,55.28428819444444,0)" xlink:href="#u"/><use transform="matrix(0.010850694444444444,0,0,0.010850694444444444,66.74262152777777,0)" xlink:href="#v"/></g><path d="M973-380H363L226 0H28l556-1456h168L1309 0h-197zM421-538h495l-248-681" id="x"/><path d="M341 0H156v-1536h185V0" id="y"/><path d="M663-916c-163-27-288 18-338 148V0H140v-1082h180l3 125c61-97 147-145 258-145 36 0 63 5 82 14v172" id="z"/><path d="M521 20C240 20 96-239 96-550c0-303 147-552 427-552 132 0 235 47 309 140l9-120h169V-26c4 277-183 454-459 452-165-1-334-81-400-187l96-111c79 98 176 147 291 147 180 1 288-109 286-290v-93C750-23 649 20 521 20zm48-965c-209 0-287 178-287 416 0 217 86 392 285 392 117 0 202-53 257-159v-494c-57-103-142-155-255-155" id="A"/><path d="M494-271l252-811h198L509 167C425 381 299 474 84 421V271c167 16 242-37 283-173l41-110L22-1082h202" id="B"/><g id="b"><use transform="matrix(0.010850694444444444,0,0,0.010850694444444444,0,0)" xlink:href="#x"/><use transform="matrix(0.010850694444444444,0,0,0.010850694444444444,14.496527777777777,0)" xlink:href="#y"/><use transform="matrix(0.010850694444444444,0,0,0.010850694444444444,19.889322916666664,0)" xlink:href="#y"/><use transform="matrix(0.010850694444444444,0,0,0.010850694444444444,25.282118055555554,0)" xlink:href="#v"/><use transform="matrix(0.010850694444444444,0,0,0.010850694444444444,37.05512152777777,0)" xlink:href="#z"/><use transform="matrix(0.010850694444444444,0,0,0.010850694444444444,44.36848958333333,0)" xlink:href="#A"/><use transform="matrix(0.010850694444444444,0,0,0.010850694444444444,56.835937499999986,0)" xlink:href="#B"/></g><path d="M1161-1018c0 201-122 330-278 388l342 618V0h-206L703-589H361V0H168v-1456h482c310-2 511 139 511 438zm-193 0c0-187-120-280-313-280H361v552h295c179 3 313-101 312-272" id="C"/><path d="M632-1102c291 0 422 251 422 573 0 297-141 548-419 549-131 0-235-42-310-125v521H140v-1498h169l9 120c75-93 180-140 314-140zm-53 971c207 0 290-180 290-419 0-218-92-395-292-395-112 0-196 50-252 149v517c55 99 140 148 254 148" id="D"/><path d="M456 20C285 20 205-92 206-268v-671H9v-143h197v-262h185v262h202v143H391v671c-9 125 92 149 207 118V0c-49 13-96 20-142 20" id="E"/><path d="M584 20C278 26 81-227 91-551c10-320 175-545 491-551 308-5 503 247 494 573-9 322-175 543-492 549zm-2-970c-208 0-305 185-305 421 0 216 106 398 307 398 211 0 307-186 307-420 0-214-109-399-309-399" id="F"/><g id="c"><use transform="matrix(0.010850694444444444,0,0,0.010850694444444444,0,0)" xlink:href="#C"/><use transform="matrix(0.010850694444444444,0,0,0.010850694444444444,13.682725694444445,0)" xlink:href="#v"/><use transform="matrix(0.010850694444444444,0,0,0.010850694444444444,25.455729166666664,0)" xlink:href="#u"/><use transform="matrix(0.010850694444444444,0,0,0.010850694444444444,36.9140625,0)" xlink:href="#D"/><use transform="matrix(0.010850694444444444,0,0,0.010850694444444444,49.381510416666664,0)" xlink:href="#t"/><use transform="matrix(0.010850694444444444,0,0,0.010850694444444444,54.77430555555556,0)" xlink:href="#z"/><use transform="matrix(0.010850694444444444,0,0,0.010850694444444444,61.85980902777778,0)" xlink:href="#w"/><use transform="matrix(0.010850694444444444,0,0,0.010850694444444444,73.94748263888889,0)" xlink:href="#E"/><use transform="matrix(0.010850694444444444,0,0,0.010850694444444444,80.98958333333333,0)" xlink:href="#F"/><use transform="matrix(0.010850694444444444,0,0,0.010850694444444444,93.66319444444444,0)" xlink:href="#z"/><use transform="matrix(0.010850694444444444,0,0,0.010850694444444444,101.37803819444444,0)" xlink:href="#B"/></g><path d="M730-137c145 0 253-29 323-105v-327H716v-156h528v534C1148-51 964 20 729 20c-394 0-598-279-607-678v-127c-5-410 194-690 585-691 310-1 499 171 537 447h-192c-36-193-151-289-344-289-285 0-393 220-393 528v119c-5 296 140 534 415 534" id="G"/><path d="M589-945c-131 0-219 81-264 174V0H140v-1082h175l6 136c83-104 191-156 324-156 229 0 346 129 346 387V0H806v-716c-2-153-65-229-217-229" id="H"/><g id="d"><use transform="matrix(0.010850694444444444,0,0,0.010850694444444444,0,0)" xlink:href="#G"/><use transform="matrix(0.010850694444444444,0,0,0.010850694444444444,15.13671875,0)" xlink:href="#w"/><use transform="matrix(0.010850694444444444,0,0,0.010850694444444444,27.22439236111111,0)" xlink:href="#u"/><use transform="matrix(0.010850694444444444,0,0,0.010850694444444444,38.68272569444444,0)" xlink:href="#E"/><use transform="matrix(0.010850694444444444,0,0,0.010850694444444444,45.94184027777778,0)" xlink:href="#z"/><use transform="matrix(0.010850694444444444,0,0,0.010850694444444444,53.2443576388889,0)" xlink:href="#F"/><use transform="matrix(0.010850694444444444,0,0,0.010850694444444444,65.91796875,0)" xlink:href="#t"/><use transform="matrix(0.010850694444444444,0,0,0.010850694444444444,71.31076388888889,0)" xlink:href="#H"/><use transform="matrix(0.010850694444444444,0,0,0.010850694444444444,83.57204861111111,0)" xlink:href="#E"/><use transform="matrix(0.010850694444444444,0,0,0.010850694444444444,90.83116319444444,0)" xlink:href="#v"/><use transform="matrix(0.010850694444444444,0,0,0.010850694444444444,102.60416666666666,0)" xlink:href="#u"/><use transform="matrix(0.010850694444444444,0,0,0.010850694444444444,114.06249999999997,0)" xlink:href="#E"/><use transform="matrix(0.010850694444444444,0,0,0.010850694444444444,121.32161458333331,0)" xlink:href="#t"/><use transform="matrix(0.010850694444444444,0,0,0.010850694444444444,126.7144097222222,0)" xlink:href="#H"/><use transform="matrix(0.010850694444444444,0,0,0.010850694444444444,138.97569444444443,0)" xlink:href="#w"/><use transform="matrix(0.010850694444444444,0,0,0.010850694444444444,151.06336805555554,0)" xlink:href="#y"/></g><path d="M972-643H361V0H169v-1456h902v158H361v498h611v157" id="I"/><path d="M589-945c-131 0-219 81-264 174V0H140v-1536h185v585c82-101 189-151 320-151 229 0 346 129 346 387V0H806v-716c-2-153-65-229-217-229" id="J"/><g id="e"><use transform="matrix(0.010850694444444444,0,0,0.010850694444444444,0,0)" xlink:href="#I"/><use transform="matrix(0.010850694444444444,0,0,0.010850694444444444,12.28298611111111,0)" xlink:href="#t"/><use transform="matrix(0.010850694444444444,0,0,0.010850694444444444,17.67578125,0)" xlink:href="#u"/><use transform="matrix(0.010850694444444444,0,0,0.010850694444444444,29.134114583333332,0)" xlink:href="#J"/></g><g id="f"><use transform="matrix(0.010850694444444444,0,0,0.010850694444444444,0,0)" xlink:href="#w"/><use transform="matrix(0.010850694444444444,0,0,0.010850694444444444,12.08767361111111,0)" xlink:href="#y"/><use transform="matrix(0.010850694444444444,0,0,0.010850694444444444,17.48046875,0)" xlink:href="#y"/><use transform="matrix(0.010850694444444444,0,0,0.010850694444444444,22.87326388888889,0)" xlink:href="#v"/><use transform="matrix(0.010850694444444444,0,0,0.010850694444444444,34.646267361111114,0)" xlink:href="#z"/><use transform="matrix(0.010850694444444444,0,0,0.010850694444444444,41.95963541666667,0)" xlink:href="#A"/><use transform="matrix(0.010850694444444444,0,0,0.010850694444444444,54.42708333333333,0)" xlink:href="#B"/></g><path d="M417-1456L893-268l476-1188h249V0h-192c-4-403 4-794 18-1179L966 0H819L342-1176c15 384 23 773 19 1176H169v-1456h248" id="K"/><path d="M442-501L326-380V0H141v-1536h185v929c135-169 291-317 436-475h225L566-630 1036 0H819" id="L"/><g id="g"><use transform="matrix(0.010850694444444444,0,0,0.010850694444444444,0,0)" xlink:href="#K"/><use transform="matrix(0.010850694444444444,0,0,0.010850694444444444,19.401041666666664,0)" xlink:href="#t"/><use transform="matrix(0.010850694444444444,0,0,0.010850694444444444,24.793836805555554,0)" xlink:href="#y"/><use transform="matrix(0.010850694444444444,0,0,0.010850694444444444,30.186631944444443,0)" xlink:href="#L"/></g><path d="M1216-1011c-1 297-202 441-512 441H361V0H169v-1456h537c297-6 510 164 510 445zm-192 2c1-178-126-288-307-289H361v571h345c196 1 318-92 318-282" id="M"/><path d="M277-555c0 244 77 420 297 424 127 2 249-93 255-210h175C980-127 805 20 574 20 258 20 81-222 92-562c11-319 164-533 481-540 237-5 426 165 431 392H829c-7-133-115-242-256-240-209 4-296 166-296 395" id="N"/><g id="h"><use transform="matrix(0.010850694444444444,0,0,0.010850694444444444,0,0)" xlink:href="#M"/><use transform="matrix(0.010850694444444444,0,0,0.010850694444444444,14.019097222222221,0)" xlink:href="#y"/><use transform="matrix(0.010850694444444444,0,0,0.010850694444444444,19.41189236111111,0)" xlink:href="#w"/><use transform="matrix(0.010850694444444444,0,0,0.010850694444444444,31.49956597222222,0)" xlink:href="#u"/><use transform="matrix(0.010850694444444444,0,0,0.010850694444444444,42.95789930555556,0)" xlink:href="#E"/><use transform="matrix(0.010850694444444444,0,0,0.010850694444444444,50.2170138888889,0)" xlink:href="#t"/><use transform="matrix(0.010850694444444444,0,0,0.010850694444444444,55.60980902777778,0)" xlink:href="#N"/></g><path d="M1160-420C1159-145 963 0 674 0H169v-1456h476c294-1 476 112 476 388 0 153-99 253-216 302 146 38 255 167 255 346zM678-157c171 2 289-95 289-261 0-175-95-263-286-263H361v524h317zm250-912c-2-172-104-229-283-229H361v463h290c157 3 278-84 277-234" id="O"/><g id="i"><use transform="matrix(0.010850694444444444,0,0,0.010850694444444444,0,0)" xlink:href="#O"/><use transform="matrix(0.010850694444444444,0,0,0.010850694444444444,13.834635416666666,0)" xlink:href="#v"/><use transform="matrix(0.010850694444444444,0,0,0.010850694444444444,25.60763888888889,0)" xlink:href="#v"/></g><g id="j"><use transform="matrix(0.010850694444444444,0,0,0.010850694444444444,0,0)" xlink:href="#M"/><use transform="matrix(0.010850694444444444,0,0,0.010850694444444444,13.878038194444445,0)" xlink:href="#F"/><use transform="matrix(0.010850694444444444,0,0,0.010850694444444444,26.551649305555554,0)" xlink:href="#y"/><use transform="matrix(0.010850694444444444,0,0,0.010850694444444444,31.944444444444443,0)" xlink:href="#y"/><use transform="matrix(0.010850694444444444,0,0,0.010850694444444444,37.33723958333333,0)" xlink:href="#v"/><use transform="matrix(0.010850694444444444,0,0,0.010850694444444444,49.11024305555556,0)" xlink:href="#H"/></g><path d="M491 20c-241-1-355-148-355-398v-704h185v699c0 164 67 246 200 246 141 0 235-53 282-158v-787h185V0H812l-4-107C736-22 630 20 491 20" id="P"/><g id="k"><use transform="matrix(0.010850694444444444,0,0,0.010850694444444444,0,0)" xlink:href="#I"/><use transform="matrix(0.010850694444444444,0,0,0.010850694444444444,12.28298611111111,0)" xlink:href="#y"/><use transform="matrix(0.010850694444444444,0,0,0.010850694444444444,17.67578125,0)" xlink:href="#P"/></g><path d="M688-137c238 0 323-102 359-325h193c-32 297-228 482-552 482-361 0-569-299-569-680 0-197 8-360 73-497 88-186 257-317 513-319 316-2 509 195 535 488h-193c-31-212-118-330-342-330-272 0-397 224-393 523v141c-3 282 115 517 376 517" id="Q"/><path d="M520 20C244 20 95-247 95-550c0-298 151-550 427-552 127 0 227 43 301 130v-564h185V0H838l-9-116C755-25 652 20 520 20zm48-965c-210 0-288 177-288 416 0 218 87 392 286 392 117 0 203-53 257-158v-497c-55-102-140-153-255-153" id="R"/><g id="l"><use transform="matrix(0.010850694444444444,0,0,0.010850694444444444,0,0)" xlink:href="#Q"/><use transform="matrix(0.010850694444444444,0,0,0.010850694444444444,14.463975694444445,0)" xlink:href="#F"/><use transform="matrix(0.010850694444444444,0,0,0.010850694444444444,27.13758680555556,0)" xlink:href="#y"/><use transform="matrix(0.010850694444444444,0,0,0.010850694444444444,32.53038194444444,0)" xlink:href="#R"/></g><path d="M497-251l268-831h189L566 0H425L33-1082h189" id="S"/><g id="m"><use transform="matrix(0.010850694444444444,0,0,0.010850694444444444,0,0)" xlink:href="#Q"/><use transform="matrix(0.010850694444444444,0,0,0.010850694444444444,14.463975694444445,0)" xlink:href="#F"/><use transform="matrix(0.010850694444444444,0,0,0.010850694444444444,26.97482638888889,0)" xlink:href="#S"/><use transform="matrix(0.010850694444444444,0,0,0.010850694444444444,37.73871527777778,0)" xlink:href="#t"/><use transform="matrix(0.010850694444444444,0,0,0.010850694444444444,43.131510416666664,0)" xlink:href="#R"/></g><g id="n"><use transform="matrix(0.010850694444444444,0,0,0.010850694444444444,0,0)" xlink:href="#I"/><use transform="matrix(0.010850694444444444,0,0,0.010850694444444444,12.055121527777777,0)" xlink:href="#F"/><use transform="matrix(0.010850694444444444,0,0,0.010850694444444444,24.72873263888889,0)" xlink:href="#F"/><use transform="matrix(0.010850694444444444,0,0,0.010850694444444444,37.40234375,0)" xlink:href="#R"/></g><g id="o"><use transform="matrix(0.010850694444444444,0,0,0.010850694444444444,0,0)" xlink:href="#D"/><use transform="matrix(0.010850694444444444,0,0,0.010850694444444444,12.467447916666666,0)" xlink:href="#F"/><use transform="matrix(0.010850694444444444,0,0,0.010850694444444444,25.14105902777778,0)" xlink:href="#t"/><use transform="matrix(0.010850694444444444,0,0,0.010850694444444444,30.533854166666664,0)" xlink:href="#u"/><use transform="matrix(0.010850694444444444,0,0,0.010850694444444444,41.9921875,0)" xlink:href="#F"/><use transform="matrix(0.010850694444444444,0,0,0.010850694444444444,54.66579861111112,0)" xlink:href="#H"/><use transform="matrix(0.010850694444444444,0,0,0.010850694444444444,66.92708333333334,0)" xlink:href="#t"/><use transform="matrix(0.010850694444444444,0,0,0.010850694444444444,72.31987847222223,0)" xlink:href="#H"/><use transform="matrix(0.010850694444444444,0,0,0.010850694444444444,84.58116319444446,0)" xlink:href="#A"/></g><path d="M1288 0h-193L362-1122V0H169v-1456h193l735 1127v-1127h191V0" id="T"/><g id="p"><use transform="matrix(0.010850694444444444,0,0,0.010850694444444444,0,0)" xlink:href="#T"/><use transform="matrix(0.010850694444444444,0,0,0.010850694444444444,15.842013888888888,0)" xlink:href="#F"/><use transform="matrix(0.010850694444444444,0,0,0.010850694444444444,28.515625,0)" xlink:href="#z"/><use transform="matrix(0.010850694444444444,0,0,0.010850694444444444,35.818142361111114,0)" xlink:href="#F"/><use transform="matrix(0.010850694444444444,0,0,0.010850694444444444,48.32899305555556,0)" xlink:href="#S"/><use transform="matrix(0.010850694444444444,0,0,0.010850694444444444,59.09288194444444,0)" xlink:href="#t"/><use transform="matrix(0.010850694444444444,0,0,0.010850694444444444,64.48567708333333,0)" xlink:href="#z"/><use transform="matrix(0.010850694444444444,0,0,0.010850694444444444,72.00520833333333,0)" xlink:href="#P"/><use transform="matrix(0.010850694444444444,0,0,0.010850694444444444,84.2556423611111,0)" xlink:href="#u"/></g><path d="M992-673H361v516h733V0H169v-1456h915v158H361v468h631v157" id="U"/><path d="M503-687l240-395h216L605-547 970 0H756L506-405 256 0H41l365-547-354-535h214" id="V"/><g id="q"><use transform="matrix(0.010850694444444444,0,0,0.010850694444444444,0,0)" xlink:href="#U"/><use transform="matrix(0.010850694444444444,0,0,0.010850694444444444,12.630208333333332,0)" xlink:href="#V"/><use transform="matrix(0.010850694444444444,0,0,0.010850694444444444,23.643663194444443,0)" xlink:href="#E"/><use transform="matrix(0.010850694444444444,0,0,0.010850694444444444,30.902777777777775,0)" xlink:href="#v"/><use transform="matrix(0.010850694444444444,0,0,0.010850694444444444,42.67578125,0)" xlink:href="#z"/><use transform="matrix(0.010850694444444444,0,0,0.010850694444444444,50.1953125,0)" xlink:href="#H"/><use transform="matrix(0.010850694444444444,0,0,0.010850694444444444,62.45659722222222,0)" xlink:href="#w"/><use transform="matrix(0.010850694444444444,0,0,0.010850694444444444,74.54427083333333,0)" xlink:href="#y"/></g><path d="M375 0H183v-1456h192V0" id="W"/><g id="r"><use transform="matrix(0.010850694444444444,0,0,0.010850694444444444,0,0)" xlink:href="#W"/><use transform="matrix(0.010850694444444444,0,0,0.010850694444444444,6.043836805555555,0)" xlink:href="#H"/><use transform="matrix(0.010850694444444444,0,0,0.010850694444444444,18.30512152777778,0)" xlink:href="#E"/><use transform="matrix(0.010850694444444444,0,0,0.010850694444444444,25.56423611111111,0)" xlink:href="#v"/><use transform="matrix(0.010850694444444444,0,0,0.010850694444444444,37.33723958333333,0)" xlink:href="#z"/><use transform="matrix(0.010850694444444444,0,0,0.010850694444444444,44.85677083333333,0)" xlink:href="#H"/><use transform="matrix(0.010850694444444444,0,0,0.010850694444444444,57.11805555555555,0)" xlink:href="#w"/><use transform="matrix(0.010850694444444444,0,0,0.010850694444444444,69.20572916666666,0)" xlink:href="#y"/></g></defs></g></svg>